G04 #@! TF.GenerationSoftware,KiCad,Pcbnew,(5.0.2)-1*
G04 #@! TF.CreationDate,2019-10-04T12:33:32+03:00*
G04 #@! TF.ProjectId,2-relay-over-io,322d7265-6c61-4792-9d6f-7665722d696f,rev?*
G04 #@! TF.SameCoordinates,Original*
G04 #@! TF.FileFunction,Paste,Top*
G04 #@! TF.FilePolarity,Positive*
%FSLAX46Y46*%
G04 Gerber Fmt 4.6, Leading zero omitted, Abs format (unit mm)*
G04 Created by KiCad (PCBNEW (5.0.2)-1) date 04.10.2019 12:33:32*
%MOMM*%
%LPD*%
G01*
G04 APERTURE LIST*
%ADD10C,0.100000*%
%ADD11C,0.875000*%
%ADD12R,0.900000X0.800000*%
%ADD13R,0.550000X1.110000*%
%ADD14C,0.975000*%
G04 APERTURE END LIST*
D10*
G04 #@! TO.C,R2*
G36*
X108977691Y-96681053D02*
X108998926Y-96684203D01*
X109019750Y-96689419D01*
X109039962Y-96696651D01*
X109059368Y-96705830D01*
X109077781Y-96716866D01*
X109095024Y-96729654D01*
X109110930Y-96744070D01*
X109125346Y-96759976D01*
X109138134Y-96777219D01*
X109149170Y-96795632D01*
X109158349Y-96815038D01*
X109165581Y-96835250D01*
X109170797Y-96856074D01*
X109173947Y-96877309D01*
X109175000Y-96898750D01*
X109175000Y-97411250D01*
X109173947Y-97432691D01*
X109170797Y-97453926D01*
X109165581Y-97474750D01*
X109158349Y-97494962D01*
X109149170Y-97514368D01*
X109138134Y-97532781D01*
X109125346Y-97550024D01*
X109110930Y-97565930D01*
X109095024Y-97580346D01*
X109077781Y-97593134D01*
X109059368Y-97604170D01*
X109039962Y-97613349D01*
X109019750Y-97620581D01*
X108998926Y-97625797D01*
X108977691Y-97628947D01*
X108956250Y-97630000D01*
X108518750Y-97630000D01*
X108497309Y-97628947D01*
X108476074Y-97625797D01*
X108455250Y-97620581D01*
X108435038Y-97613349D01*
X108415632Y-97604170D01*
X108397219Y-97593134D01*
X108379976Y-97580346D01*
X108364070Y-97565930D01*
X108349654Y-97550024D01*
X108336866Y-97532781D01*
X108325830Y-97514368D01*
X108316651Y-97494962D01*
X108309419Y-97474750D01*
X108304203Y-97453926D01*
X108301053Y-97432691D01*
X108300000Y-97411250D01*
X108300000Y-96898750D01*
X108301053Y-96877309D01*
X108304203Y-96856074D01*
X108309419Y-96835250D01*
X108316651Y-96815038D01*
X108325830Y-96795632D01*
X108336866Y-96777219D01*
X108349654Y-96759976D01*
X108364070Y-96744070D01*
X108379976Y-96729654D01*
X108397219Y-96716866D01*
X108415632Y-96705830D01*
X108435038Y-96696651D01*
X108455250Y-96689419D01*
X108476074Y-96684203D01*
X108497309Y-96681053D01*
X108518750Y-96680000D01*
X108956250Y-96680000D01*
X108977691Y-96681053D01*
X108977691Y-96681053D01*
G37*
D11*
X108737500Y-97155000D03*
D10*
G36*
X107402691Y-96681053D02*
X107423926Y-96684203D01*
X107444750Y-96689419D01*
X107464962Y-96696651D01*
X107484368Y-96705830D01*
X107502781Y-96716866D01*
X107520024Y-96729654D01*
X107535930Y-96744070D01*
X107550346Y-96759976D01*
X107563134Y-96777219D01*
X107574170Y-96795632D01*
X107583349Y-96815038D01*
X107590581Y-96835250D01*
X107595797Y-96856074D01*
X107598947Y-96877309D01*
X107600000Y-96898750D01*
X107600000Y-97411250D01*
X107598947Y-97432691D01*
X107595797Y-97453926D01*
X107590581Y-97474750D01*
X107583349Y-97494962D01*
X107574170Y-97514368D01*
X107563134Y-97532781D01*
X107550346Y-97550024D01*
X107535930Y-97565930D01*
X107520024Y-97580346D01*
X107502781Y-97593134D01*
X107484368Y-97604170D01*
X107464962Y-97613349D01*
X107444750Y-97620581D01*
X107423926Y-97625797D01*
X107402691Y-97628947D01*
X107381250Y-97630000D01*
X106943750Y-97630000D01*
X106922309Y-97628947D01*
X106901074Y-97625797D01*
X106880250Y-97620581D01*
X106860038Y-97613349D01*
X106840632Y-97604170D01*
X106822219Y-97593134D01*
X106804976Y-97580346D01*
X106789070Y-97565930D01*
X106774654Y-97550024D01*
X106761866Y-97532781D01*
X106750830Y-97514368D01*
X106741651Y-97494962D01*
X106734419Y-97474750D01*
X106729203Y-97453926D01*
X106726053Y-97432691D01*
X106725000Y-97411250D01*
X106725000Y-96898750D01*
X106726053Y-96877309D01*
X106729203Y-96856074D01*
X106734419Y-96835250D01*
X106741651Y-96815038D01*
X106750830Y-96795632D01*
X106761866Y-96777219D01*
X106774654Y-96759976D01*
X106789070Y-96744070D01*
X106804976Y-96729654D01*
X106822219Y-96716866D01*
X106840632Y-96705830D01*
X106860038Y-96696651D01*
X106880250Y-96689419D01*
X106901074Y-96684203D01*
X106922309Y-96681053D01*
X106943750Y-96680000D01*
X107381250Y-96680000D01*
X107402691Y-96681053D01*
X107402691Y-96681053D01*
G37*
D11*
X107162500Y-97155000D03*
G04 #@! TD*
D10*
G04 #@! TO.C,R3*
G36*
X131837691Y-96681053D02*
X131858926Y-96684203D01*
X131879750Y-96689419D01*
X131899962Y-96696651D01*
X131919368Y-96705830D01*
X131937781Y-96716866D01*
X131955024Y-96729654D01*
X131970930Y-96744070D01*
X131985346Y-96759976D01*
X131998134Y-96777219D01*
X132009170Y-96795632D01*
X132018349Y-96815038D01*
X132025581Y-96835250D01*
X132030797Y-96856074D01*
X132033947Y-96877309D01*
X132035000Y-96898750D01*
X132035000Y-97411250D01*
X132033947Y-97432691D01*
X132030797Y-97453926D01*
X132025581Y-97474750D01*
X132018349Y-97494962D01*
X132009170Y-97514368D01*
X131998134Y-97532781D01*
X131985346Y-97550024D01*
X131970930Y-97565930D01*
X131955024Y-97580346D01*
X131937781Y-97593134D01*
X131919368Y-97604170D01*
X131899962Y-97613349D01*
X131879750Y-97620581D01*
X131858926Y-97625797D01*
X131837691Y-97628947D01*
X131816250Y-97630000D01*
X131378750Y-97630000D01*
X131357309Y-97628947D01*
X131336074Y-97625797D01*
X131315250Y-97620581D01*
X131295038Y-97613349D01*
X131275632Y-97604170D01*
X131257219Y-97593134D01*
X131239976Y-97580346D01*
X131224070Y-97565930D01*
X131209654Y-97550024D01*
X131196866Y-97532781D01*
X131185830Y-97514368D01*
X131176651Y-97494962D01*
X131169419Y-97474750D01*
X131164203Y-97453926D01*
X131161053Y-97432691D01*
X131160000Y-97411250D01*
X131160000Y-96898750D01*
X131161053Y-96877309D01*
X131164203Y-96856074D01*
X131169419Y-96835250D01*
X131176651Y-96815038D01*
X131185830Y-96795632D01*
X131196866Y-96777219D01*
X131209654Y-96759976D01*
X131224070Y-96744070D01*
X131239976Y-96729654D01*
X131257219Y-96716866D01*
X131275632Y-96705830D01*
X131295038Y-96696651D01*
X131315250Y-96689419D01*
X131336074Y-96684203D01*
X131357309Y-96681053D01*
X131378750Y-96680000D01*
X131816250Y-96680000D01*
X131837691Y-96681053D01*
X131837691Y-96681053D01*
G37*
D11*
X131597500Y-97155000D03*
D10*
G36*
X130262691Y-96681053D02*
X130283926Y-96684203D01*
X130304750Y-96689419D01*
X130324962Y-96696651D01*
X130344368Y-96705830D01*
X130362781Y-96716866D01*
X130380024Y-96729654D01*
X130395930Y-96744070D01*
X130410346Y-96759976D01*
X130423134Y-96777219D01*
X130434170Y-96795632D01*
X130443349Y-96815038D01*
X130450581Y-96835250D01*
X130455797Y-96856074D01*
X130458947Y-96877309D01*
X130460000Y-96898750D01*
X130460000Y-97411250D01*
X130458947Y-97432691D01*
X130455797Y-97453926D01*
X130450581Y-97474750D01*
X130443349Y-97494962D01*
X130434170Y-97514368D01*
X130423134Y-97532781D01*
X130410346Y-97550024D01*
X130395930Y-97565930D01*
X130380024Y-97580346D01*
X130362781Y-97593134D01*
X130344368Y-97604170D01*
X130324962Y-97613349D01*
X130304750Y-97620581D01*
X130283926Y-97625797D01*
X130262691Y-97628947D01*
X130241250Y-97630000D01*
X129803750Y-97630000D01*
X129782309Y-97628947D01*
X129761074Y-97625797D01*
X129740250Y-97620581D01*
X129720038Y-97613349D01*
X129700632Y-97604170D01*
X129682219Y-97593134D01*
X129664976Y-97580346D01*
X129649070Y-97565930D01*
X129634654Y-97550024D01*
X129621866Y-97532781D01*
X129610830Y-97514368D01*
X129601651Y-97494962D01*
X129594419Y-97474750D01*
X129589203Y-97453926D01*
X129586053Y-97432691D01*
X129585000Y-97411250D01*
X129585000Y-96898750D01*
X129586053Y-96877309D01*
X129589203Y-96856074D01*
X129594419Y-96835250D01*
X129601651Y-96815038D01*
X129610830Y-96795632D01*
X129621866Y-96777219D01*
X129634654Y-96759976D01*
X129649070Y-96744070D01*
X129664976Y-96729654D01*
X129682219Y-96716866D01*
X129700632Y-96705830D01*
X129720038Y-96696651D01*
X129740250Y-96689419D01*
X129761074Y-96684203D01*
X129782309Y-96681053D01*
X129803750Y-96680000D01*
X130241250Y-96680000D01*
X130262691Y-96681053D01*
X130262691Y-96681053D01*
G37*
D11*
X130022500Y-97155000D03*
G04 #@! TD*
D10*
G04 #@! TO.C,R6*
G36*
X126642691Y-124891553D02*
X126663926Y-124894703D01*
X126684750Y-124899919D01*
X126704962Y-124907151D01*
X126724368Y-124916330D01*
X126742781Y-124927366D01*
X126760024Y-124940154D01*
X126775930Y-124954570D01*
X126790346Y-124970476D01*
X126803134Y-124987719D01*
X126814170Y-125006132D01*
X126823349Y-125025538D01*
X126830581Y-125045750D01*
X126835797Y-125066574D01*
X126838947Y-125087809D01*
X126840000Y-125109250D01*
X126840000Y-125546750D01*
X126838947Y-125568191D01*
X126835797Y-125589426D01*
X126830581Y-125610250D01*
X126823349Y-125630462D01*
X126814170Y-125649868D01*
X126803134Y-125668281D01*
X126790346Y-125685524D01*
X126775930Y-125701430D01*
X126760024Y-125715846D01*
X126742781Y-125728634D01*
X126724368Y-125739670D01*
X126704962Y-125748849D01*
X126684750Y-125756081D01*
X126663926Y-125761297D01*
X126642691Y-125764447D01*
X126621250Y-125765500D01*
X126108750Y-125765500D01*
X126087309Y-125764447D01*
X126066074Y-125761297D01*
X126045250Y-125756081D01*
X126025038Y-125748849D01*
X126005632Y-125739670D01*
X125987219Y-125728634D01*
X125969976Y-125715846D01*
X125954070Y-125701430D01*
X125939654Y-125685524D01*
X125926866Y-125668281D01*
X125915830Y-125649868D01*
X125906651Y-125630462D01*
X125899419Y-125610250D01*
X125894203Y-125589426D01*
X125891053Y-125568191D01*
X125890000Y-125546750D01*
X125890000Y-125109250D01*
X125891053Y-125087809D01*
X125894203Y-125066574D01*
X125899419Y-125045750D01*
X125906651Y-125025538D01*
X125915830Y-125006132D01*
X125926866Y-124987719D01*
X125939654Y-124970476D01*
X125954070Y-124954570D01*
X125969976Y-124940154D01*
X125987219Y-124927366D01*
X126005632Y-124916330D01*
X126025038Y-124907151D01*
X126045250Y-124899919D01*
X126066074Y-124894703D01*
X126087309Y-124891553D01*
X126108750Y-124890500D01*
X126621250Y-124890500D01*
X126642691Y-124891553D01*
X126642691Y-124891553D01*
G37*
D11*
X126365000Y-125328000D03*
D10*
G36*
X126642691Y-126466553D02*
X126663926Y-126469703D01*
X126684750Y-126474919D01*
X126704962Y-126482151D01*
X126724368Y-126491330D01*
X126742781Y-126502366D01*
X126760024Y-126515154D01*
X126775930Y-126529570D01*
X126790346Y-126545476D01*
X126803134Y-126562719D01*
X126814170Y-126581132D01*
X126823349Y-126600538D01*
X126830581Y-126620750D01*
X126835797Y-126641574D01*
X126838947Y-126662809D01*
X126840000Y-126684250D01*
X126840000Y-127121750D01*
X126838947Y-127143191D01*
X126835797Y-127164426D01*
X126830581Y-127185250D01*
X126823349Y-127205462D01*
X126814170Y-127224868D01*
X126803134Y-127243281D01*
X126790346Y-127260524D01*
X126775930Y-127276430D01*
X126760024Y-127290846D01*
X126742781Y-127303634D01*
X126724368Y-127314670D01*
X126704962Y-127323849D01*
X126684750Y-127331081D01*
X126663926Y-127336297D01*
X126642691Y-127339447D01*
X126621250Y-127340500D01*
X126108750Y-127340500D01*
X126087309Y-127339447D01*
X126066074Y-127336297D01*
X126045250Y-127331081D01*
X126025038Y-127323849D01*
X126005632Y-127314670D01*
X125987219Y-127303634D01*
X125969976Y-127290846D01*
X125954070Y-127276430D01*
X125939654Y-127260524D01*
X125926866Y-127243281D01*
X125915830Y-127224868D01*
X125906651Y-127205462D01*
X125899419Y-127185250D01*
X125894203Y-127164426D01*
X125891053Y-127143191D01*
X125890000Y-127121750D01*
X125890000Y-126684250D01*
X125891053Y-126662809D01*
X125894203Y-126641574D01*
X125899419Y-126620750D01*
X125906651Y-126600538D01*
X125915830Y-126581132D01*
X125926866Y-126562719D01*
X125939654Y-126545476D01*
X125954070Y-126529570D01*
X125969976Y-126515154D01*
X125987219Y-126502366D01*
X126005632Y-126491330D01*
X126025038Y-126482151D01*
X126045250Y-126474919D01*
X126066074Y-126469703D01*
X126087309Y-126466553D01*
X126108750Y-126465500D01*
X126621250Y-126465500D01*
X126642691Y-126466553D01*
X126642691Y-126466553D01*
G37*
D11*
X126365000Y-126903000D03*
G04 #@! TD*
D12*
G04 #@! TO.C,Q3*
X124190000Y-127315000D03*
X124190000Y-125415000D03*
X122190000Y-126365000D03*
G04 #@! TD*
D13*
G04 #@! TO.C,D5*
X114935000Y-135385000D03*
X114935000Y-137665000D03*
G04 #@! TD*
G04 #@! TO.C,D6*
X122555000Y-135385000D03*
X122555000Y-137665000D03*
G04 #@! TD*
D10*
G04 #@! TO.C,DS1*
G36*
X103470142Y-96456174D02*
X103493803Y-96459684D01*
X103517007Y-96465496D01*
X103539529Y-96473554D01*
X103561153Y-96483782D01*
X103581670Y-96496079D01*
X103600883Y-96510329D01*
X103618607Y-96526393D01*
X103634671Y-96544117D01*
X103648921Y-96563330D01*
X103661218Y-96583847D01*
X103671446Y-96605471D01*
X103679504Y-96627993D01*
X103685316Y-96651197D01*
X103688826Y-96674858D01*
X103690000Y-96698750D01*
X103690000Y-97611250D01*
X103688826Y-97635142D01*
X103685316Y-97658803D01*
X103679504Y-97682007D01*
X103671446Y-97704529D01*
X103661218Y-97726153D01*
X103648921Y-97746670D01*
X103634671Y-97765883D01*
X103618607Y-97783607D01*
X103600883Y-97799671D01*
X103581670Y-97813921D01*
X103561153Y-97826218D01*
X103539529Y-97836446D01*
X103517007Y-97844504D01*
X103493803Y-97850316D01*
X103470142Y-97853826D01*
X103446250Y-97855000D01*
X102958750Y-97855000D01*
X102934858Y-97853826D01*
X102911197Y-97850316D01*
X102887993Y-97844504D01*
X102865471Y-97836446D01*
X102843847Y-97826218D01*
X102823330Y-97813921D01*
X102804117Y-97799671D01*
X102786393Y-97783607D01*
X102770329Y-97765883D01*
X102756079Y-97746670D01*
X102743782Y-97726153D01*
X102733554Y-97704529D01*
X102725496Y-97682007D01*
X102719684Y-97658803D01*
X102716174Y-97635142D01*
X102715000Y-97611250D01*
X102715000Y-96698750D01*
X102716174Y-96674858D01*
X102719684Y-96651197D01*
X102725496Y-96627993D01*
X102733554Y-96605471D01*
X102743782Y-96583847D01*
X102756079Y-96563330D01*
X102770329Y-96544117D01*
X102786393Y-96526393D01*
X102804117Y-96510329D01*
X102823330Y-96496079D01*
X102843847Y-96483782D01*
X102865471Y-96473554D01*
X102887993Y-96465496D01*
X102911197Y-96459684D01*
X102934858Y-96456174D01*
X102958750Y-96455000D01*
X103446250Y-96455000D01*
X103470142Y-96456174D01*
X103470142Y-96456174D01*
G37*
D14*
X103202500Y-97155000D03*
D10*
G36*
X105345142Y-96456174D02*
X105368803Y-96459684D01*
X105392007Y-96465496D01*
X105414529Y-96473554D01*
X105436153Y-96483782D01*
X105456670Y-96496079D01*
X105475883Y-96510329D01*
X105493607Y-96526393D01*
X105509671Y-96544117D01*
X105523921Y-96563330D01*
X105536218Y-96583847D01*
X105546446Y-96605471D01*
X105554504Y-96627993D01*
X105560316Y-96651197D01*
X105563826Y-96674858D01*
X105565000Y-96698750D01*
X105565000Y-97611250D01*
X105563826Y-97635142D01*
X105560316Y-97658803D01*
X105554504Y-97682007D01*
X105546446Y-97704529D01*
X105536218Y-97726153D01*
X105523921Y-97746670D01*
X105509671Y-97765883D01*
X105493607Y-97783607D01*
X105475883Y-97799671D01*
X105456670Y-97813921D01*
X105436153Y-97826218D01*
X105414529Y-97836446D01*
X105392007Y-97844504D01*
X105368803Y-97850316D01*
X105345142Y-97853826D01*
X105321250Y-97855000D01*
X104833750Y-97855000D01*
X104809858Y-97853826D01*
X104786197Y-97850316D01*
X104762993Y-97844504D01*
X104740471Y-97836446D01*
X104718847Y-97826218D01*
X104698330Y-97813921D01*
X104679117Y-97799671D01*
X104661393Y-97783607D01*
X104645329Y-97765883D01*
X104631079Y-97746670D01*
X104618782Y-97726153D01*
X104608554Y-97704529D01*
X104600496Y-97682007D01*
X104594684Y-97658803D01*
X104591174Y-97635142D01*
X104590000Y-97611250D01*
X104590000Y-96698750D01*
X104591174Y-96674858D01*
X104594684Y-96651197D01*
X104600496Y-96627993D01*
X104608554Y-96605471D01*
X104618782Y-96583847D01*
X104631079Y-96563330D01*
X104645329Y-96544117D01*
X104661393Y-96526393D01*
X104679117Y-96510329D01*
X104698330Y-96496079D01*
X104718847Y-96483782D01*
X104740471Y-96473554D01*
X104762993Y-96465496D01*
X104786197Y-96459684D01*
X104809858Y-96456174D01*
X104833750Y-96455000D01*
X105321250Y-96455000D01*
X105345142Y-96456174D01*
X105345142Y-96456174D01*
G37*
D14*
X105077500Y-97155000D03*
G04 #@! TD*
D10*
G04 #@! TO.C,DS2*
G36*
X133950142Y-96456174D02*
X133973803Y-96459684D01*
X133997007Y-96465496D01*
X134019529Y-96473554D01*
X134041153Y-96483782D01*
X134061670Y-96496079D01*
X134080883Y-96510329D01*
X134098607Y-96526393D01*
X134114671Y-96544117D01*
X134128921Y-96563330D01*
X134141218Y-96583847D01*
X134151446Y-96605471D01*
X134159504Y-96627993D01*
X134165316Y-96651197D01*
X134168826Y-96674858D01*
X134170000Y-96698750D01*
X134170000Y-97611250D01*
X134168826Y-97635142D01*
X134165316Y-97658803D01*
X134159504Y-97682007D01*
X134151446Y-97704529D01*
X134141218Y-97726153D01*
X134128921Y-97746670D01*
X134114671Y-97765883D01*
X134098607Y-97783607D01*
X134080883Y-97799671D01*
X134061670Y-97813921D01*
X134041153Y-97826218D01*
X134019529Y-97836446D01*
X133997007Y-97844504D01*
X133973803Y-97850316D01*
X133950142Y-97853826D01*
X133926250Y-97855000D01*
X133438750Y-97855000D01*
X133414858Y-97853826D01*
X133391197Y-97850316D01*
X133367993Y-97844504D01*
X133345471Y-97836446D01*
X133323847Y-97826218D01*
X133303330Y-97813921D01*
X133284117Y-97799671D01*
X133266393Y-97783607D01*
X133250329Y-97765883D01*
X133236079Y-97746670D01*
X133223782Y-97726153D01*
X133213554Y-97704529D01*
X133205496Y-97682007D01*
X133199684Y-97658803D01*
X133196174Y-97635142D01*
X133195000Y-97611250D01*
X133195000Y-96698750D01*
X133196174Y-96674858D01*
X133199684Y-96651197D01*
X133205496Y-96627993D01*
X133213554Y-96605471D01*
X133223782Y-96583847D01*
X133236079Y-96563330D01*
X133250329Y-96544117D01*
X133266393Y-96526393D01*
X133284117Y-96510329D01*
X133303330Y-96496079D01*
X133323847Y-96483782D01*
X133345471Y-96473554D01*
X133367993Y-96465496D01*
X133391197Y-96459684D01*
X133414858Y-96456174D01*
X133438750Y-96455000D01*
X133926250Y-96455000D01*
X133950142Y-96456174D01*
X133950142Y-96456174D01*
G37*
D14*
X133682500Y-97155000D03*
D10*
G36*
X135825142Y-96456174D02*
X135848803Y-96459684D01*
X135872007Y-96465496D01*
X135894529Y-96473554D01*
X135916153Y-96483782D01*
X135936670Y-96496079D01*
X135955883Y-96510329D01*
X135973607Y-96526393D01*
X135989671Y-96544117D01*
X136003921Y-96563330D01*
X136016218Y-96583847D01*
X136026446Y-96605471D01*
X136034504Y-96627993D01*
X136040316Y-96651197D01*
X136043826Y-96674858D01*
X136045000Y-96698750D01*
X136045000Y-97611250D01*
X136043826Y-97635142D01*
X136040316Y-97658803D01*
X136034504Y-97682007D01*
X136026446Y-97704529D01*
X136016218Y-97726153D01*
X136003921Y-97746670D01*
X135989671Y-97765883D01*
X135973607Y-97783607D01*
X135955883Y-97799671D01*
X135936670Y-97813921D01*
X135916153Y-97826218D01*
X135894529Y-97836446D01*
X135872007Y-97844504D01*
X135848803Y-97850316D01*
X135825142Y-97853826D01*
X135801250Y-97855000D01*
X135313750Y-97855000D01*
X135289858Y-97853826D01*
X135266197Y-97850316D01*
X135242993Y-97844504D01*
X135220471Y-97836446D01*
X135198847Y-97826218D01*
X135178330Y-97813921D01*
X135159117Y-97799671D01*
X135141393Y-97783607D01*
X135125329Y-97765883D01*
X135111079Y-97746670D01*
X135098782Y-97726153D01*
X135088554Y-97704529D01*
X135080496Y-97682007D01*
X135074684Y-97658803D01*
X135071174Y-97635142D01*
X135070000Y-97611250D01*
X135070000Y-96698750D01*
X135071174Y-96674858D01*
X135074684Y-96651197D01*
X135080496Y-96627993D01*
X135088554Y-96605471D01*
X135098782Y-96583847D01*
X135111079Y-96563330D01*
X135125329Y-96544117D01*
X135141393Y-96526393D01*
X135159117Y-96510329D01*
X135178330Y-96496079D01*
X135198847Y-96483782D01*
X135220471Y-96473554D01*
X135242993Y-96465496D01*
X135266197Y-96459684D01*
X135289858Y-96456174D01*
X135313750Y-96455000D01*
X135801250Y-96455000D01*
X135825142Y-96456174D01*
X135825142Y-96456174D01*
G37*
D14*
X135557500Y-97155000D03*
G04 #@! TD*
D12*
G04 #@! TO.C,Q2*
X114300000Y-125095000D03*
X114300000Y-126995000D03*
X116300000Y-126045000D03*
G04 #@! TD*
D10*
G04 #@! TO.C,R5*
G36*
X112672691Y-126466553D02*
X112693926Y-126469703D01*
X112714750Y-126474919D01*
X112734962Y-126482151D01*
X112754368Y-126491330D01*
X112772781Y-126502366D01*
X112790024Y-126515154D01*
X112805930Y-126529570D01*
X112820346Y-126545476D01*
X112833134Y-126562719D01*
X112844170Y-126581132D01*
X112853349Y-126600538D01*
X112860581Y-126620750D01*
X112865797Y-126641574D01*
X112868947Y-126662809D01*
X112870000Y-126684250D01*
X112870000Y-127121750D01*
X112868947Y-127143191D01*
X112865797Y-127164426D01*
X112860581Y-127185250D01*
X112853349Y-127205462D01*
X112844170Y-127224868D01*
X112833134Y-127243281D01*
X112820346Y-127260524D01*
X112805930Y-127276430D01*
X112790024Y-127290846D01*
X112772781Y-127303634D01*
X112754368Y-127314670D01*
X112734962Y-127323849D01*
X112714750Y-127331081D01*
X112693926Y-127336297D01*
X112672691Y-127339447D01*
X112651250Y-127340500D01*
X112138750Y-127340500D01*
X112117309Y-127339447D01*
X112096074Y-127336297D01*
X112075250Y-127331081D01*
X112055038Y-127323849D01*
X112035632Y-127314670D01*
X112017219Y-127303634D01*
X111999976Y-127290846D01*
X111984070Y-127276430D01*
X111969654Y-127260524D01*
X111956866Y-127243281D01*
X111945830Y-127224868D01*
X111936651Y-127205462D01*
X111929419Y-127185250D01*
X111924203Y-127164426D01*
X111921053Y-127143191D01*
X111920000Y-127121750D01*
X111920000Y-126684250D01*
X111921053Y-126662809D01*
X111924203Y-126641574D01*
X111929419Y-126620750D01*
X111936651Y-126600538D01*
X111945830Y-126581132D01*
X111956866Y-126562719D01*
X111969654Y-126545476D01*
X111984070Y-126529570D01*
X111999976Y-126515154D01*
X112017219Y-126502366D01*
X112035632Y-126491330D01*
X112055038Y-126482151D01*
X112075250Y-126474919D01*
X112096074Y-126469703D01*
X112117309Y-126466553D01*
X112138750Y-126465500D01*
X112651250Y-126465500D01*
X112672691Y-126466553D01*
X112672691Y-126466553D01*
G37*
D11*
X112395000Y-126903000D03*
D10*
G36*
X112672691Y-124891553D02*
X112693926Y-124894703D01*
X112714750Y-124899919D01*
X112734962Y-124907151D01*
X112754368Y-124916330D01*
X112772781Y-124927366D01*
X112790024Y-124940154D01*
X112805930Y-124954570D01*
X112820346Y-124970476D01*
X112833134Y-124987719D01*
X112844170Y-125006132D01*
X112853349Y-125025538D01*
X112860581Y-125045750D01*
X112865797Y-125066574D01*
X112868947Y-125087809D01*
X112870000Y-125109250D01*
X112870000Y-125546750D01*
X112868947Y-125568191D01*
X112865797Y-125589426D01*
X112860581Y-125610250D01*
X112853349Y-125630462D01*
X112844170Y-125649868D01*
X112833134Y-125668281D01*
X112820346Y-125685524D01*
X112805930Y-125701430D01*
X112790024Y-125715846D01*
X112772781Y-125728634D01*
X112754368Y-125739670D01*
X112734962Y-125748849D01*
X112714750Y-125756081D01*
X112693926Y-125761297D01*
X112672691Y-125764447D01*
X112651250Y-125765500D01*
X112138750Y-125765500D01*
X112117309Y-125764447D01*
X112096074Y-125761297D01*
X112075250Y-125756081D01*
X112055038Y-125748849D01*
X112035632Y-125739670D01*
X112017219Y-125728634D01*
X111999976Y-125715846D01*
X111984070Y-125701430D01*
X111969654Y-125685524D01*
X111956866Y-125668281D01*
X111945830Y-125649868D01*
X111936651Y-125630462D01*
X111929419Y-125610250D01*
X111924203Y-125589426D01*
X111921053Y-125568191D01*
X111920000Y-125546750D01*
X111920000Y-125109250D01*
X111921053Y-125087809D01*
X111924203Y-125066574D01*
X111929419Y-125045750D01*
X111936651Y-125025538D01*
X111945830Y-125006132D01*
X111956866Y-124987719D01*
X111969654Y-124970476D01*
X111984070Y-124954570D01*
X111999976Y-124940154D01*
X112017219Y-124927366D01*
X112035632Y-124916330D01*
X112055038Y-124907151D01*
X112075250Y-124899919D01*
X112096074Y-124894703D01*
X112117309Y-124891553D01*
X112138750Y-124890500D01*
X112651250Y-124890500D01*
X112672691Y-124891553D01*
X112672691Y-124891553D01*
G37*
D11*
X112395000Y-125328000D03*
G04 #@! TD*
M02*
