M48
;DRILL file {KiCad (5.0.2)-1} date 16.12.2019 12:52:24
;FORMAT={-:-/ absolute / metric / decimal}
FMAT,2
METRIC,TZ
T1C0.400
T2C0.800
T3C1.000
T4C1.200
T5C1.400
T6C2.200
%
G90
G05
T1
X114.3Y-127.
X114.935Y-136.017
X116.3Y-125.984
X122.19Y-126.365
X124.206Y-125.349
T2
X130.08Y-105.537
X130.08Y-107.537
X130.08Y-109.537
X130.08Y-111.537
X130.08Y-113.537
X130.08Y-115.537
X130.08Y-117.537
X130.08Y-119.537
X130.08Y-121.537
X130.08Y-123.537
X130.08Y-125.537
X132.08Y-105.537
X132.08Y-107.537
X132.08Y-109.537
X132.08Y-111.537
X132.08Y-113.537
X132.08Y-115.537
X132.08Y-117.537
X132.08Y-119.537
X132.08Y-121.537
X132.08Y-123.537
X132.08Y-125.537
X106.68Y-105.537
X106.68Y-107.537
X106.68Y-109.537
X106.68Y-111.537
X106.68Y-113.537
X106.68Y-115.537
X106.68Y-117.537
X106.68Y-119.537
X106.68Y-121.537
X106.68Y-123.537
X106.68Y-125.537
X108.68Y-105.537
X108.68Y-107.537
X108.68Y-109.537
X108.68Y-111.537
X108.68Y-113.537
X108.68Y-115.537
X108.68Y-117.537
X108.68Y-119.537
X108.68Y-121.537
X108.68Y-123.537
X108.68Y-125.537
T3
X143.51Y-107.264
X143.51Y-109.804
X143.51Y-112.344
X143.51Y-114.884
X143.51Y-117.424
X143.51Y-119.964
X143.51Y-122.504
X143.51Y-125.044
X146.05Y-107.264
X146.05Y-109.804
X146.05Y-112.344
X146.05Y-114.884
X146.05Y-117.424
X146.05Y-119.964
X146.05Y-122.504
X146.05Y-125.044
X92.71Y-107.277
X92.71Y-109.817
X92.71Y-112.357
X92.71Y-114.897
X92.71Y-117.437
X92.71Y-119.977
X92.71Y-122.517
X92.71Y-125.057
X95.25Y-107.277
X95.25Y-109.817
X95.25Y-112.357
X95.25Y-114.897
X95.25Y-117.437
X95.25Y-119.977
X95.25Y-122.517
X95.25Y-125.057
T4
X128.905Y-134.62
X130.905Y-128.62
X130.905Y-140.62
X143.405Y-128.62
X143.405Y-140.62
X95.228Y-128.62
X95.228Y-140.62
X107.728Y-128.62
X107.728Y-140.62
X109.728Y-134.62
T5
X151.003Y-129.54
X151.003Y-134.62
X151.003Y-139.7
X158.623Y-129.54
X158.623Y-134.62
X158.623Y-139.7
X80.137Y-129.54
X80.137Y-134.62
X80.137Y-139.7
X87.757Y-129.54
X87.757Y-134.62
X87.757Y-139.7
T6
X101.6Y-104.775
X137.16Y-104.775
X119.38Y-143.51
T0
M30
