G04 #@! TF.GenerationSoftware,KiCad,Pcbnew,(5.0.2)-1*
G04 #@! TF.CreationDate,2019-10-04T12:33:32+03:00*
G04 #@! TF.ProjectId,2-relay-over-io,322d7265-6c61-4792-9d6f-7665722d696f,rev?*
G04 #@! TF.SameCoordinates,Original*
G04 #@! TF.FileFunction,Legend,Bot*
G04 #@! TF.FilePolarity,Positive*
%FSLAX46Y46*%
G04 Gerber Fmt 4.6, Leading zero omitted, Abs format (unit mm)*
G04 Created by KiCad (PCBNEW (5.0.2)-1) date 04.10.2019 12:33:32*
%MOMM*%
%LPD*%
G01*
G04 APERTURE LIST*
%ADD10C,0.150000*%
%ADD11C,0.300000*%
%ADD12C,0.010000*%
G04 APERTURE END LIST*
D10*
X110164619Y-121244666D02*
X110640809Y-121578000D01*
X110164619Y-121816095D02*
X111164619Y-121816095D01*
X111164619Y-121435142D01*
X111117000Y-121339904D01*
X111069380Y-121292285D01*
X110974142Y-121244666D01*
X110831285Y-121244666D01*
X110736047Y-121292285D01*
X110688428Y-121339904D01*
X110640809Y-121435142D01*
X110640809Y-121816095D01*
X110212238Y-120435142D02*
X110164619Y-120530380D01*
X110164619Y-120720857D01*
X110212238Y-120816095D01*
X110307476Y-120863714D01*
X110688428Y-120863714D01*
X110783666Y-120816095D01*
X110831285Y-120720857D01*
X110831285Y-120530380D01*
X110783666Y-120435142D01*
X110688428Y-120387523D01*
X110593190Y-120387523D01*
X110497952Y-120863714D01*
X110164619Y-119816095D02*
X110212238Y-119911333D01*
X110307476Y-119958952D01*
X111164619Y-119958952D01*
X110164619Y-119006571D02*
X110688428Y-119006571D01*
X110783666Y-119054190D01*
X110831285Y-119149428D01*
X110831285Y-119339904D01*
X110783666Y-119435142D01*
X110212238Y-119006571D02*
X110164619Y-119101809D01*
X110164619Y-119339904D01*
X110212238Y-119435142D01*
X110307476Y-119482761D01*
X110402714Y-119482761D01*
X110497952Y-119435142D01*
X110545571Y-119339904D01*
X110545571Y-119101809D01*
X110593190Y-119006571D01*
X110831285Y-118625619D02*
X110164619Y-118387523D01*
X110831285Y-118149428D02*
X110164619Y-118387523D01*
X109926523Y-118482761D01*
X109878904Y-118530380D01*
X109831285Y-118625619D01*
X110164619Y-116482761D02*
X110164619Y-117054190D01*
X110164619Y-116768476D02*
X111164619Y-116768476D01*
X111021761Y-116863714D01*
X110926523Y-116958952D01*
X110878904Y-117054190D01*
X110259857Y-114720857D02*
X110212238Y-114768476D01*
X110164619Y-114911333D01*
X110164619Y-115006571D01*
X110212238Y-115149428D01*
X110307476Y-115244666D01*
X110402714Y-115292285D01*
X110593190Y-115339904D01*
X110736047Y-115339904D01*
X110926523Y-115292285D01*
X111021761Y-115244666D01*
X111117000Y-115149428D01*
X111164619Y-115006571D01*
X111164619Y-114911333D01*
X111117000Y-114768476D01*
X111069380Y-114720857D01*
X110164619Y-114149428D02*
X110212238Y-114244666D01*
X110259857Y-114292285D01*
X110355095Y-114339904D01*
X110640809Y-114339904D01*
X110736047Y-114292285D01*
X110783666Y-114244666D01*
X110831285Y-114149428D01*
X110831285Y-114006571D01*
X110783666Y-113911333D01*
X110736047Y-113863714D01*
X110640809Y-113816095D01*
X110355095Y-113816095D01*
X110259857Y-113863714D01*
X110212238Y-113911333D01*
X110164619Y-114006571D01*
X110164619Y-114149428D01*
X110831285Y-113387523D02*
X110164619Y-113387523D01*
X110736047Y-113387523D02*
X110783666Y-113339904D01*
X110831285Y-113244666D01*
X110831285Y-113101809D01*
X110783666Y-113006571D01*
X110688428Y-112958952D01*
X110164619Y-112958952D01*
X110831285Y-112625619D02*
X110831285Y-112244666D01*
X111164619Y-112482761D02*
X110307476Y-112482761D01*
X110212238Y-112435142D01*
X110164619Y-112339904D01*
X110164619Y-112244666D01*
X110164619Y-111911333D02*
X110831285Y-111911333D01*
X110640809Y-111911333D02*
X110736047Y-111863714D01*
X110783666Y-111816095D01*
X110831285Y-111720857D01*
X110831285Y-111625619D01*
X110164619Y-111149428D02*
X110212238Y-111244666D01*
X110259857Y-111292285D01*
X110355095Y-111339904D01*
X110640809Y-111339904D01*
X110736047Y-111292285D01*
X110783666Y-111244666D01*
X110831285Y-111149428D01*
X110831285Y-111006571D01*
X110783666Y-110911333D01*
X110736047Y-110863714D01*
X110640809Y-110816095D01*
X110355095Y-110816095D01*
X110259857Y-110863714D01*
X110212238Y-110911333D01*
X110164619Y-111006571D01*
X110164619Y-111149428D01*
X110164619Y-110244666D02*
X110212238Y-110339904D01*
X110307476Y-110387523D01*
X111164619Y-110387523D01*
X105108190Y-118689380D02*
X105108190Y-117689380D01*
X104441523Y-117689380D02*
X104251047Y-117689380D01*
X104155809Y-117737000D01*
X104060571Y-117832238D01*
X104012952Y-118022714D01*
X104012952Y-118356047D01*
X104060571Y-118546523D01*
X104155809Y-118641761D01*
X104251047Y-118689380D01*
X104441523Y-118689380D01*
X104536761Y-118641761D01*
X104632000Y-118546523D01*
X104679619Y-118356047D01*
X104679619Y-118022714D01*
X104632000Y-117832238D01*
X104536761Y-117737000D01*
X104441523Y-117689380D01*
X103632000Y-117784619D02*
X103584380Y-117737000D01*
X103489142Y-117689380D01*
X103251047Y-117689380D01*
X103155809Y-117737000D01*
X103108190Y-117784619D01*
X103060571Y-117879857D01*
X103060571Y-117975095D01*
X103108190Y-118117952D01*
X103679619Y-118689380D01*
X103060571Y-118689380D01*
X102727238Y-117689380D02*
X102060571Y-117689380D01*
X102489142Y-118689380D01*
X105108190Y-114625380D02*
X105108190Y-113625380D01*
X104441523Y-113625380D02*
X104251047Y-113625380D01*
X104155809Y-113673000D01*
X104060571Y-113768238D01*
X104012952Y-113958714D01*
X104012952Y-114292047D01*
X104060571Y-114482523D01*
X104155809Y-114577761D01*
X104251047Y-114625380D01*
X104441523Y-114625380D01*
X104536761Y-114577761D01*
X104632000Y-114482523D01*
X104679619Y-114292047D01*
X104679619Y-113958714D01*
X104632000Y-113768238D01*
X104536761Y-113673000D01*
X104441523Y-113625380D01*
X103679619Y-113625380D02*
X103060571Y-113625380D01*
X103393904Y-114006333D01*
X103251047Y-114006333D01*
X103155809Y-114053952D01*
X103108190Y-114101571D01*
X103060571Y-114196809D01*
X103060571Y-114434904D01*
X103108190Y-114530142D01*
X103155809Y-114577761D01*
X103251047Y-114625380D01*
X103536761Y-114625380D01*
X103632000Y-114577761D01*
X103679619Y-114530142D01*
X102679619Y-113720619D02*
X102632000Y-113673000D01*
X102536761Y-113625380D01*
X102298666Y-113625380D01*
X102203428Y-113673000D01*
X102155809Y-113720619D01*
X102108190Y-113815857D01*
X102108190Y-113911095D01*
X102155809Y-114053952D01*
X102727238Y-114625380D01*
X102108190Y-114625380D01*
X105108190Y-120594380D02*
X105108190Y-119594380D01*
X104441523Y-119594380D02*
X104251047Y-119594380D01*
X104155809Y-119642000D01*
X104060571Y-119737238D01*
X104012952Y-119927714D01*
X104012952Y-120261047D01*
X104060571Y-120451523D01*
X104155809Y-120546761D01*
X104251047Y-120594380D01*
X104441523Y-120594380D01*
X104536761Y-120546761D01*
X104632000Y-120451523D01*
X104679619Y-120261047D01*
X104679619Y-119927714D01*
X104632000Y-119737238D01*
X104536761Y-119642000D01*
X104441523Y-119594380D01*
X103060571Y-120594380D02*
X103632000Y-120594380D01*
X103346285Y-120594380D02*
X103346285Y-119594380D01*
X103441523Y-119737238D01*
X103536761Y-119832476D01*
X103632000Y-119880095D01*
X102155809Y-119594380D02*
X102632000Y-119594380D01*
X102679619Y-120070571D01*
X102632000Y-120022952D01*
X102536761Y-119975333D01*
X102298666Y-119975333D01*
X102203428Y-120022952D01*
X102155809Y-120070571D01*
X102108190Y-120165809D01*
X102108190Y-120403904D01*
X102155809Y-120499142D01*
X102203428Y-120546761D01*
X102298666Y-120594380D01*
X102536761Y-120594380D01*
X102632000Y-120546761D01*
X102679619Y-120499142D01*
X105108190Y-116657380D02*
X105108190Y-115657380D01*
X104441523Y-115657380D02*
X104251047Y-115657380D01*
X104155809Y-115705000D01*
X104060571Y-115800238D01*
X104012952Y-115990714D01*
X104012952Y-116324047D01*
X104060571Y-116514523D01*
X104155809Y-116609761D01*
X104251047Y-116657380D01*
X104441523Y-116657380D01*
X104536761Y-116609761D01*
X104632000Y-116514523D01*
X104679619Y-116324047D01*
X104679619Y-115990714D01*
X104632000Y-115800238D01*
X104536761Y-115705000D01*
X104441523Y-115657380D01*
X103632000Y-115752619D02*
X103584380Y-115705000D01*
X103489142Y-115657380D01*
X103251047Y-115657380D01*
X103155809Y-115705000D01*
X103108190Y-115752619D01*
X103060571Y-115847857D01*
X103060571Y-115943095D01*
X103108190Y-116085952D01*
X103679619Y-116657380D01*
X103060571Y-116657380D01*
X102155809Y-115657380D02*
X102632000Y-115657380D01*
X102679619Y-116133571D01*
X102632000Y-116085952D01*
X102536761Y-116038333D01*
X102298666Y-116038333D01*
X102203428Y-116085952D01*
X102155809Y-116133571D01*
X102108190Y-116228809D01*
X102108190Y-116466904D01*
X102155809Y-116562142D01*
X102203428Y-116609761D01*
X102298666Y-116657380D01*
X102536761Y-116657380D01*
X102632000Y-116609761D01*
X102679619Y-116562142D01*
X105108190Y-112589880D02*
X105108190Y-111589880D01*
X104441523Y-111589880D02*
X104251047Y-111589880D01*
X104155809Y-111637500D01*
X104060571Y-111732738D01*
X104012952Y-111923214D01*
X104012952Y-112256547D01*
X104060571Y-112447023D01*
X104155809Y-112542261D01*
X104251047Y-112589880D01*
X104441523Y-112589880D01*
X104536761Y-112542261D01*
X104632000Y-112447023D01*
X104679619Y-112256547D01*
X104679619Y-111923214D01*
X104632000Y-111732738D01*
X104536761Y-111637500D01*
X104441523Y-111589880D01*
X103632000Y-111685119D02*
X103584380Y-111637500D01*
X103489142Y-111589880D01*
X103251047Y-111589880D01*
X103155809Y-111637500D01*
X103108190Y-111685119D01*
X103060571Y-111780357D01*
X103060571Y-111875595D01*
X103108190Y-112018452D01*
X103679619Y-112589880D01*
X103060571Y-112589880D01*
X102203428Y-111589880D02*
X102393904Y-111589880D01*
X102489142Y-111637500D01*
X102536761Y-111685119D01*
X102632000Y-111827976D01*
X102679619Y-112018452D01*
X102679619Y-112399404D01*
X102632000Y-112494642D01*
X102584380Y-112542261D01*
X102489142Y-112589880D01*
X102298666Y-112589880D01*
X102203428Y-112542261D01*
X102155809Y-112494642D01*
X102108190Y-112399404D01*
X102108190Y-112161309D01*
X102155809Y-112066071D01*
X102203428Y-112018452D01*
X102298666Y-111970833D01*
X102489142Y-111970833D01*
X102584380Y-112018452D01*
X102632000Y-112066071D01*
X102679619Y-112161309D01*
X129484380Y-110911333D02*
X129008190Y-110578000D01*
X129484380Y-110339904D02*
X128484380Y-110339904D01*
X128484380Y-110720857D01*
X128532000Y-110816095D01*
X128579619Y-110863714D01*
X128674857Y-110911333D01*
X128817714Y-110911333D01*
X128912952Y-110863714D01*
X128960571Y-110816095D01*
X129008190Y-110720857D01*
X129008190Y-110339904D01*
X129436761Y-111720857D02*
X129484380Y-111625619D01*
X129484380Y-111435142D01*
X129436761Y-111339904D01*
X129341523Y-111292285D01*
X128960571Y-111292285D01*
X128865333Y-111339904D01*
X128817714Y-111435142D01*
X128817714Y-111625619D01*
X128865333Y-111720857D01*
X128960571Y-111768476D01*
X129055809Y-111768476D01*
X129151047Y-111292285D01*
X129484380Y-112339904D02*
X129436761Y-112244666D01*
X129341523Y-112197047D01*
X128484380Y-112197047D01*
X129484380Y-113149428D02*
X128960571Y-113149428D01*
X128865333Y-113101809D01*
X128817714Y-113006571D01*
X128817714Y-112816095D01*
X128865333Y-112720857D01*
X129436761Y-113149428D02*
X129484380Y-113054190D01*
X129484380Y-112816095D01*
X129436761Y-112720857D01*
X129341523Y-112673238D01*
X129246285Y-112673238D01*
X129151047Y-112720857D01*
X129103428Y-112816095D01*
X129103428Y-113054190D01*
X129055809Y-113149428D01*
X128817714Y-113530380D02*
X129484380Y-113768476D01*
X128817714Y-114006571D02*
X129484380Y-113768476D01*
X129722476Y-113673238D01*
X129770095Y-113625619D01*
X129817714Y-113530380D01*
X128579619Y-115101809D02*
X128532000Y-115149428D01*
X128484380Y-115244666D01*
X128484380Y-115482761D01*
X128532000Y-115578000D01*
X128579619Y-115625619D01*
X128674857Y-115673238D01*
X128770095Y-115673238D01*
X128912952Y-115625619D01*
X129484380Y-115054190D01*
X129484380Y-115673238D01*
X129389142Y-117435142D02*
X129436761Y-117387523D01*
X129484380Y-117244666D01*
X129484380Y-117149428D01*
X129436761Y-117006571D01*
X129341523Y-116911333D01*
X129246285Y-116863714D01*
X129055809Y-116816095D01*
X128912952Y-116816095D01*
X128722476Y-116863714D01*
X128627238Y-116911333D01*
X128532000Y-117006571D01*
X128484380Y-117149428D01*
X128484380Y-117244666D01*
X128532000Y-117387523D01*
X128579619Y-117435142D01*
X129484380Y-118006571D02*
X129436761Y-117911333D01*
X129389142Y-117863714D01*
X129293904Y-117816095D01*
X129008190Y-117816095D01*
X128912952Y-117863714D01*
X128865333Y-117911333D01*
X128817714Y-118006571D01*
X128817714Y-118149428D01*
X128865333Y-118244666D01*
X128912952Y-118292285D01*
X129008190Y-118339904D01*
X129293904Y-118339904D01*
X129389142Y-118292285D01*
X129436761Y-118244666D01*
X129484380Y-118149428D01*
X129484380Y-118006571D01*
X128817714Y-118768476D02*
X129484380Y-118768476D01*
X128912952Y-118768476D02*
X128865333Y-118816095D01*
X128817714Y-118911333D01*
X128817714Y-119054190D01*
X128865333Y-119149428D01*
X128960571Y-119197047D01*
X129484380Y-119197047D01*
X128817714Y-119530380D02*
X128817714Y-119911333D01*
X128484380Y-119673238D02*
X129341523Y-119673238D01*
X129436761Y-119720857D01*
X129484380Y-119816095D01*
X129484380Y-119911333D01*
X129484380Y-120244666D02*
X128817714Y-120244666D01*
X129008190Y-120244666D02*
X128912952Y-120292285D01*
X128865333Y-120339904D01*
X128817714Y-120435142D01*
X128817714Y-120530380D01*
X129484380Y-121006571D02*
X129436761Y-120911333D01*
X129389142Y-120863714D01*
X129293904Y-120816095D01*
X129008190Y-120816095D01*
X128912952Y-120863714D01*
X128865333Y-120911333D01*
X128817714Y-121006571D01*
X128817714Y-121149428D01*
X128865333Y-121244666D01*
X128912952Y-121292285D01*
X129008190Y-121339904D01*
X129293904Y-121339904D01*
X129389142Y-121292285D01*
X129436761Y-121244666D01*
X129484380Y-121149428D01*
X129484380Y-121006571D01*
X129484380Y-121911333D02*
X129436761Y-121816095D01*
X129341523Y-121768476D01*
X128484380Y-121768476D01*
X137493190Y-120594380D02*
X137493190Y-119594380D01*
X136826523Y-119594380D02*
X136636047Y-119594380D01*
X136540809Y-119642000D01*
X136445571Y-119737238D01*
X136397952Y-119927714D01*
X136397952Y-120261047D01*
X136445571Y-120451523D01*
X136540809Y-120546761D01*
X136636047Y-120594380D01*
X136826523Y-120594380D01*
X136921761Y-120546761D01*
X137017000Y-120451523D01*
X137064619Y-120261047D01*
X137064619Y-119927714D01*
X137017000Y-119737238D01*
X136921761Y-119642000D01*
X136826523Y-119594380D01*
X135778904Y-119594380D02*
X135683666Y-119594380D01*
X135588428Y-119642000D01*
X135540809Y-119689619D01*
X135493190Y-119784857D01*
X135445571Y-119975333D01*
X135445571Y-120213428D01*
X135493190Y-120403904D01*
X135540809Y-120499142D01*
X135588428Y-120546761D01*
X135683666Y-120594380D01*
X135778904Y-120594380D01*
X135874142Y-120546761D01*
X135921761Y-120499142D01*
X135969380Y-120403904D01*
X136017000Y-120213428D01*
X136017000Y-119975333D01*
X135969380Y-119784857D01*
X135921761Y-119689619D01*
X135874142Y-119642000D01*
X135778904Y-119594380D01*
X134540809Y-119594380D02*
X135017000Y-119594380D01*
X135064619Y-120070571D01*
X135017000Y-120022952D01*
X134921761Y-119975333D01*
X134683666Y-119975333D01*
X134588428Y-120022952D01*
X134540809Y-120070571D01*
X134493190Y-120165809D01*
X134493190Y-120403904D01*
X134540809Y-120499142D01*
X134588428Y-120546761D01*
X134683666Y-120594380D01*
X134921761Y-120594380D01*
X135017000Y-120546761D01*
X135064619Y-120499142D01*
X137493190Y-118689380D02*
X137493190Y-117689380D01*
X136826523Y-117689380D02*
X136636047Y-117689380D01*
X136540809Y-117737000D01*
X136445571Y-117832238D01*
X136397952Y-118022714D01*
X136397952Y-118356047D01*
X136445571Y-118546523D01*
X136540809Y-118641761D01*
X136636047Y-118689380D01*
X136826523Y-118689380D01*
X136921761Y-118641761D01*
X137017000Y-118546523D01*
X137064619Y-118356047D01*
X137064619Y-118022714D01*
X137017000Y-117832238D01*
X136921761Y-117737000D01*
X136826523Y-117689380D01*
X135778904Y-117689380D02*
X135683666Y-117689380D01*
X135588428Y-117737000D01*
X135540809Y-117784619D01*
X135493190Y-117879857D01*
X135445571Y-118070333D01*
X135445571Y-118308428D01*
X135493190Y-118498904D01*
X135540809Y-118594142D01*
X135588428Y-118641761D01*
X135683666Y-118689380D01*
X135778904Y-118689380D01*
X135874142Y-118641761D01*
X135921761Y-118594142D01*
X135969380Y-118498904D01*
X136017000Y-118308428D01*
X136017000Y-118070333D01*
X135969380Y-117879857D01*
X135921761Y-117784619D01*
X135874142Y-117737000D01*
X135778904Y-117689380D01*
X134588428Y-118022714D02*
X134588428Y-118689380D01*
X134826523Y-117641761D02*
X135064619Y-118356047D01*
X134445571Y-118356047D01*
X137493190Y-116657380D02*
X137493190Y-115657380D01*
X136826523Y-115657380D02*
X136636047Y-115657380D01*
X136540809Y-115705000D01*
X136445571Y-115800238D01*
X136397952Y-115990714D01*
X136397952Y-116324047D01*
X136445571Y-116514523D01*
X136540809Y-116609761D01*
X136636047Y-116657380D01*
X136826523Y-116657380D01*
X136921761Y-116609761D01*
X137017000Y-116514523D01*
X137064619Y-116324047D01*
X137064619Y-115990714D01*
X137017000Y-115800238D01*
X136921761Y-115705000D01*
X136826523Y-115657380D01*
X135445571Y-116657380D02*
X136017000Y-116657380D01*
X135731285Y-116657380D02*
X135731285Y-115657380D01*
X135826523Y-115800238D01*
X135921761Y-115895476D01*
X136017000Y-115943095D01*
X134588428Y-115657380D02*
X134778904Y-115657380D01*
X134874142Y-115705000D01*
X134921761Y-115752619D01*
X135017000Y-115895476D01*
X135064619Y-116085952D01*
X135064619Y-116466904D01*
X135017000Y-116562142D01*
X134969380Y-116609761D01*
X134874142Y-116657380D01*
X134683666Y-116657380D01*
X134588428Y-116609761D01*
X134540809Y-116562142D01*
X134493190Y-116466904D01*
X134493190Y-116228809D01*
X134540809Y-116133571D01*
X134588428Y-116085952D01*
X134683666Y-116038333D01*
X134874142Y-116038333D01*
X134969380Y-116085952D01*
X135017000Y-116133571D01*
X135064619Y-116228809D01*
X137493190Y-114625380D02*
X137493190Y-113625380D01*
X136826523Y-113625380D02*
X136636047Y-113625380D01*
X136540809Y-113673000D01*
X136445571Y-113768238D01*
X136397952Y-113958714D01*
X136397952Y-114292047D01*
X136445571Y-114482523D01*
X136540809Y-114577761D01*
X136636047Y-114625380D01*
X136826523Y-114625380D01*
X136921761Y-114577761D01*
X137017000Y-114482523D01*
X137064619Y-114292047D01*
X137064619Y-113958714D01*
X137017000Y-113768238D01*
X136921761Y-113673000D01*
X136826523Y-113625380D01*
X135445571Y-114625380D02*
X136017000Y-114625380D01*
X135731285Y-114625380D02*
X135731285Y-113625380D01*
X135826523Y-113768238D01*
X135921761Y-113863476D01*
X136017000Y-113911095D01*
X135112238Y-113625380D02*
X134445571Y-113625380D01*
X134874142Y-114625380D01*
X137493190Y-112589880D02*
X137493190Y-111589880D01*
X136826523Y-111589880D02*
X136636047Y-111589880D01*
X136540809Y-111637500D01*
X136445571Y-111732738D01*
X136397952Y-111923214D01*
X136397952Y-112256547D01*
X136445571Y-112447023D01*
X136540809Y-112542261D01*
X136636047Y-112589880D01*
X136826523Y-112589880D01*
X136921761Y-112542261D01*
X137017000Y-112447023D01*
X137064619Y-112256547D01*
X137064619Y-111923214D01*
X137017000Y-111732738D01*
X136921761Y-111637500D01*
X136826523Y-111589880D01*
X136064619Y-111589880D02*
X135445571Y-111589880D01*
X135778904Y-111970833D01*
X135636047Y-111970833D01*
X135540809Y-112018452D01*
X135493190Y-112066071D01*
X135445571Y-112161309D01*
X135445571Y-112399404D01*
X135493190Y-112494642D01*
X135540809Y-112542261D01*
X135636047Y-112589880D01*
X135921761Y-112589880D01*
X136017000Y-112542261D01*
X136064619Y-112494642D01*
X135112238Y-111589880D02*
X134493190Y-111589880D01*
X134826523Y-111970833D01*
X134683666Y-111970833D01*
X134588428Y-112018452D01*
X134540809Y-112066071D01*
X134493190Y-112161309D01*
X134493190Y-112399404D01*
X134540809Y-112494642D01*
X134588428Y-112542261D01*
X134683666Y-112589880D01*
X134969380Y-112589880D01*
X135064619Y-112542261D01*
X135112238Y-112494642D01*
D11*
X127915713Y-124797428D02*
X127844284Y-124726000D01*
X127701427Y-124654571D01*
X127344284Y-124654571D01*
X127201427Y-124726000D01*
X127129999Y-124797428D01*
X127058570Y-124940285D01*
X127058570Y-125083142D01*
X127129999Y-125297428D01*
X127987141Y-126154571D01*
X127058570Y-126154571D01*
X124415713Y-126154571D02*
X124915713Y-125440285D01*
X125272856Y-126154571D02*
X125272856Y-124654571D01*
X124701427Y-124654571D01*
X124558570Y-124726000D01*
X124487141Y-124797428D01*
X124415713Y-124940285D01*
X124415713Y-125154571D01*
X124487141Y-125297428D01*
X124558570Y-125368857D01*
X124701427Y-125440285D01*
X125272856Y-125440285D01*
X123201427Y-126083142D02*
X123344284Y-126154571D01*
X123629999Y-126154571D01*
X123772856Y-126083142D01*
X123844284Y-125940285D01*
X123844284Y-125368857D01*
X123772856Y-125226000D01*
X123629999Y-125154571D01*
X123344284Y-125154571D01*
X123201427Y-125226000D01*
X123129999Y-125368857D01*
X123129999Y-125511714D01*
X123844284Y-125654571D01*
X122272856Y-126154571D02*
X122415713Y-126083142D01*
X122487141Y-125940285D01*
X122487141Y-124654571D01*
X121058570Y-126154571D02*
X121058570Y-125368857D01*
X121129999Y-125226000D01*
X121272856Y-125154571D01*
X121558570Y-125154571D01*
X121701427Y-125226000D01*
X121058570Y-126083142D02*
X121201427Y-126154571D01*
X121558570Y-126154571D01*
X121701427Y-126083142D01*
X121772856Y-125940285D01*
X121772856Y-125797428D01*
X121701427Y-125654571D01*
X121558570Y-125583142D01*
X121201427Y-125583142D01*
X121058570Y-125511714D01*
X120487141Y-125154571D02*
X120129999Y-126154571D01*
X119772856Y-125154571D02*
X120129999Y-126154571D01*
X120272856Y-126511714D01*
X120344284Y-126583142D01*
X120487141Y-126654571D01*
X118058570Y-126154571D02*
X118058570Y-124654571D01*
X117558570Y-125726000D01*
X117058570Y-124654571D01*
X117058570Y-126154571D01*
X116129999Y-126154571D02*
X116272856Y-126083142D01*
X116344284Y-126011714D01*
X116415713Y-125868857D01*
X116415713Y-125440285D01*
X116344284Y-125297428D01*
X116272856Y-125226000D01*
X116129999Y-125154571D01*
X115915713Y-125154571D01*
X115772856Y-125226000D01*
X115701427Y-125297428D01*
X115629999Y-125440285D01*
X115629999Y-125868857D01*
X115701427Y-126011714D01*
X115772856Y-126083142D01*
X115915713Y-126154571D01*
X116129999Y-126154571D01*
X114344284Y-126154571D02*
X114344284Y-124654571D01*
X114344284Y-126083142D02*
X114487141Y-126154571D01*
X114772856Y-126154571D01*
X114915713Y-126083142D01*
X114987141Y-126011714D01*
X115058570Y-125868857D01*
X115058570Y-125440285D01*
X114987141Y-125297428D01*
X114915713Y-125226000D01*
X114772856Y-125154571D01*
X114487141Y-125154571D01*
X114344284Y-125226000D01*
X112987141Y-125154571D02*
X112987141Y-126154571D01*
X113629999Y-125154571D02*
X113629999Y-125940285D01*
X113558570Y-126083142D01*
X113415713Y-126154571D01*
X113201427Y-126154571D01*
X113058570Y-126083142D01*
X112987141Y-126011714D01*
X112058570Y-126154571D02*
X112201427Y-126083142D01*
X112272856Y-125940285D01*
X112272856Y-124654571D01*
X110915713Y-126083142D02*
X111058570Y-126154571D01*
X111344284Y-126154571D01*
X111487141Y-126083142D01*
X111558570Y-125940285D01*
X111558570Y-125368857D01*
X111487141Y-125226000D01*
X111344284Y-125154571D01*
X111058570Y-125154571D01*
X110915713Y-125226000D01*
X110844284Y-125368857D01*
X110844284Y-125511714D01*
X111558570Y-125654571D01*
D12*
G04 #@! TO.C,U6*
G36*
X124798668Y-121190940D02*
X124725605Y-121193817D01*
X124660869Y-121199587D01*
X124602573Y-121208378D01*
X124548828Y-121220315D01*
X124497747Y-121235525D01*
X124447444Y-121254134D01*
X124396031Y-121276269D01*
X124387331Y-121280258D01*
X124281312Y-121338821D01*
X124179889Y-121413225D01*
X124087174Y-121499787D01*
X124007279Y-121594819D01*
X123963872Y-121659881D01*
X123917226Y-121751268D01*
X123877786Y-121855450D01*
X123847234Y-121966242D01*
X123827254Y-122077459D01*
X123819531Y-122182915D01*
X123819493Y-122190308D01*
X123828002Y-122311109D01*
X123852452Y-122434750D01*
X123891220Y-122555928D01*
X123942687Y-122669343D01*
X123989951Y-122748046D01*
X124041840Y-122813789D01*
X124107742Y-122880945D01*
X124182723Y-122945293D01*
X124261849Y-123002610D01*
X124340186Y-123048675D01*
X124342839Y-123050025D01*
X124388818Y-123072537D01*
X124432444Y-123091912D01*
X124475837Y-123108539D01*
X124521119Y-123122807D01*
X124570411Y-123135104D01*
X124625834Y-123145818D01*
X124689509Y-123155338D01*
X124763557Y-123164052D01*
X124850100Y-123172348D01*
X124951259Y-123180614D01*
X125069154Y-123189240D01*
X125123968Y-123193050D01*
X125216022Y-123199410D01*
X125303470Y-123205516D01*
X125384015Y-123211203D01*
X125455360Y-123216306D01*
X125515207Y-123220659D01*
X125561258Y-123224099D01*
X125591217Y-123226458D01*
X125600309Y-123227267D01*
X125646728Y-123231936D01*
X125652144Y-123190461D01*
X125653900Y-123172343D01*
X125656778Y-123136835D01*
X125660668Y-123085565D01*
X125665460Y-123020160D01*
X125671045Y-122942247D01*
X125677314Y-122853453D01*
X125684158Y-122755407D01*
X125691467Y-122649735D01*
X125699131Y-122538064D01*
X125707042Y-122422022D01*
X125715090Y-122303236D01*
X125723166Y-122183333D01*
X125731161Y-122063941D01*
X125738964Y-121946687D01*
X125746467Y-121833198D01*
X125753560Y-121725102D01*
X125756723Y-121676464D01*
X125270376Y-121676464D01*
X125269339Y-121704378D01*
X125267201Y-121747674D01*
X125264100Y-121804183D01*
X125260174Y-121871738D01*
X125255562Y-121948169D01*
X125250401Y-122031310D01*
X125244828Y-122118991D01*
X125238981Y-122209043D01*
X125232999Y-122299300D01*
X125227020Y-122387592D01*
X125221180Y-122471751D01*
X125215618Y-122549609D01*
X125210471Y-122618997D01*
X125205878Y-122677747D01*
X125205865Y-122677909D01*
X125199989Y-122750413D01*
X125134800Y-122744719D01*
X125101177Y-122741975D01*
X125053375Y-122738329D01*
X124996935Y-122734192D01*
X124937399Y-122729975D01*
X124916419Y-122728526D01*
X124832968Y-122721787D01*
X124765379Y-122713711D01*
X124709752Y-122703453D01*
X124662188Y-122690170D01*
X124618789Y-122673016D01*
X124586712Y-122657149D01*
X124506691Y-122603895D01*
X124440139Y-122537313D01*
X124387795Y-122459196D01*
X124350399Y-122371341D01*
X124328692Y-122275542D01*
X124323413Y-122173594D01*
X124335304Y-122067292D01*
X124337979Y-122054048D01*
X124367616Y-121958981D01*
X124413386Y-121872460D01*
X124473322Y-121796411D01*
X124545456Y-121732758D01*
X124627820Y-121683426D01*
X124718449Y-121650340D01*
X124759623Y-121641561D01*
X124787989Y-121637714D01*
X124819626Y-121635586D01*
X124857790Y-121635221D01*
X124905740Y-121636659D01*
X124966734Y-121639946D01*
X125044029Y-121645122D01*
X125047017Y-121645334D01*
X125110576Y-121650067D01*
X125167307Y-121654696D01*
X125214312Y-121658951D01*
X125248688Y-121662563D01*
X125267537Y-121665262D01*
X125270176Y-121666101D01*
X125270376Y-121676464D01*
X125756723Y-121676464D01*
X125760134Y-121624026D01*
X125766080Y-121531597D01*
X125771289Y-121449443D01*
X125775650Y-121379190D01*
X125779055Y-121322467D01*
X125781394Y-121280900D01*
X125782558Y-121256117D01*
X125782568Y-121249466D01*
X125772193Y-121247960D01*
X125744138Y-121245258D01*
X125700440Y-121241523D01*
X125643138Y-121236915D01*
X125574272Y-121231598D01*
X125495880Y-121225731D01*
X125410000Y-121219478D01*
X125354936Y-121215551D01*
X125211930Y-121205850D01*
X125086688Y-121198413D01*
X124977322Y-121193364D01*
X124881944Y-121190831D01*
X124798668Y-121190940D01*
X124798668Y-121190940D01*
G37*
X124798668Y-121190940D02*
X124725605Y-121193817D01*
X124660869Y-121199587D01*
X124602573Y-121208378D01*
X124548828Y-121220315D01*
X124497747Y-121235525D01*
X124447444Y-121254134D01*
X124396031Y-121276269D01*
X124387331Y-121280258D01*
X124281312Y-121338821D01*
X124179889Y-121413225D01*
X124087174Y-121499787D01*
X124007279Y-121594819D01*
X123963872Y-121659881D01*
X123917226Y-121751268D01*
X123877786Y-121855450D01*
X123847234Y-121966242D01*
X123827254Y-122077459D01*
X123819531Y-122182915D01*
X123819493Y-122190308D01*
X123828002Y-122311109D01*
X123852452Y-122434750D01*
X123891220Y-122555928D01*
X123942687Y-122669343D01*
X123989951Y-122748046D01*
X124041840Y-122813789D01*
X124107742Y-122880945D01*
X124182723Y-122945293D01*
X124261849Y-123002610D01*
X124340186Y-123048675D01*
X124342839Y-123050025D01*
X124388818Y-123072537D01*
X124432444Y-123091912D01*
X124475837Y-123108539D01*
X124521119Y-123122807D01*
X124570411Y-123135104D01*
X124625834Y-123145818D01*
X124689509Y-123155338D01*
X124763557Y-123164052D01*
X124850100Y-123172348D01*
X124951259Y-123180614D01*
X125069154Y-123189240D01*
X125123968Y-123193050D01*
X125216022Y-123199410D01*
X125303470Y-123205516D01*
X125384015Y-123211203D01*
X125455360Y-123216306D01*
X125515207Y-123220659D01*
X125561258Y-123224099D01*
X125591217Y-123226458D01*
X125600309Y-123227267D01*
X125646728Y-123231936D01*
X125652144Y-123190461D01*
X125653900Y-123172343D01*
X125656778Y-123136835D01*
X125660668Y-123085565D01*
X125665460Y-123020160D01*
X125671045Y-122942247D01*
X125677314Y-122853453D01*
X125684158Y-122755407D01*
X125691467Y-122649735D01*
X125699131Y-122538064D01*
X125707042Y-122422022D01*
X125715090Y-122303236D01*
X125723166Y-122183333D01*
X125731161Y-122063941D01*
X125738964Y-121946687D01*
X125746467Y-121833198D01*
X125753560Y-121725102D01*
X125756723Y-121676464D01*
X125270376Y-121676464D01*
X125269339Y-121704378D01*
X125267201Y-121747674D01*
X125264100Y-121804183D01*
X125260174Y-121871738D01*
X125255562Y-121948169D01*
X125250401Y-122031310D01*
X125244828Y-122118991D01*
X125238981Y-122209043D01*
X125232999Y-122299300D01*
X125227020Y-122387592D01*
X125221180Y-122471751D01*
X125215618Y-122549609D01*
X125210471Y-122618997D01*
X125205878Y-122677747D01*
X125205865Y-122677909D01*
X125199989Y-122750413D01*
X125134800Y-122744719D01*
X125101177Y-122741975D01*
X125053375Y-122738329D01*
X124996935Y-122734192D01*
X124937399Y-122729975D01*
X124916419Y-122728526D01*
X124832968Y-122721787D01*
X124765379Y-122713711D01*
X124709752Y-122703453D01*
X124662188Y-122690170D01*
X124618789Y-122673016D01*
X124586712Y-122657149D01*
X124506691Y-122603895D01*
X124440139Y-122537313D01*
X124387795Y-122459196D01*
X124350399Y-122371341D01*
X124328692Y-122275542D01*
X124323413Y-122173594D01*
X124335304Y-122067292D01*
X124337979Y-122054048D01*
X124367616Y-121958981D01*
X124413386Y-121872460D01*
X124473322Y-121796411D01*
X124545456Y-121732758D01*
X124627820Y-121683426D01*
X124718449Y-121650340D01*
X124759623Y-121641561D01*
X124787989Y-121637714D01*
X124819626Y-121635586D01*
X124857790Y-121635221D01*
X124905740Y-121636659D01*
X124966734Y-121639946D01*
X125044029Y-121645122D01*
X125047017Y-121645334D01*
X125110576Y-121650067D01*
X125167307Y-121654696D01*
X125214312Y-121658951D01*
X125248688Y-121662563D01*
X125267537Y-121665262D01*
X125270176Y-121666101D01*
X125270376Y-121676464D01*
X125756723Y-121676464D01*
X125760134Y-121624026D01*
X125766080Y-121531597D01*
X125771289Y-121449443D01*
X125775650Y-121379190D01*
X125779055Y-121322467D01*
X125781394Y-121280900D01*
X125782558Y-121256117D01*
X125782568Y-121249466D01*
X125772193Y-121247960D01*
X125744138Y-121245258D01*
X125700440Y-121241523D01*
X125643138Y-121236915D01*
X125574272Y-121231598D01*
X125495880Y-121225731D01*
X125410000Y-121219478D01*
X125354936Y-121215551D01*
X125211930Y-121205850D01*
X125086688Y-121198413D01*
X124977322Y-121193364D01*
X124881944Y-121190831D01*
X124798668Y-121190940D01*
G36*
X120624843Y-121118403D02*
X120594311Y-121120626D01*
X120547892Y-121124196D01*
X120487359Y-121128965D01*
X120414489Y-121134788D01*
X120331054Y-121141517D01*
X120238831Y-121149005D01*
X120139593Y-121157106D01*
X120035116Y-121165672D01*
X119927175Y-121174557D01*
X119817544Y-121183613D01*
X119707997Y-121192694D01*
X119600311Y-121201654D01*
X119496259Y-121210344D01*
X119397616Y-121218619D01*
X119306157Y-121226330D01*
X119223656Y-121233333D01*
X119151889Y-121239479D01*
X119092631Y-121244621D01*
X119047655Y-121248614D01*
X119018737Y-121251309D01*
X119007652Y-121252560D01*
X119007596Y-121252583D01*
X119007323Y-121262760D01*
X119008540Y-121289789D01*
X119011064Y-121330828D01*
X119014714Y-121383033D01*
X119019308Y-121443560D01*
X119021732Y-121473953D01*
X119039438Y-121692663D01*
X119099427Y-121749861D01*
X119125042Y-121773932D01*
X119163232Y-121809336D01*
X119212269Y-121854503D01*
X119270426Y-121907863D01*
X119335974Y-121967843D01*
X119407186Y-122032873D01*
X119482333Y-122101383D01*
X119559688Y-122171800D01*
X119637522Y-122242554D01*
X119714109Y-122312073D01*
X119787719Y-122378788D01*
X119856625Y-122441126D01*
X119919100Y-122497517D01*
X119973414Y-122546389D01*
X120017841Y-122586172D01*
X120050653Y-122615295D01*
X120066000Y-122628682D01*
X120153977Y-122704238D01*
X120061910Y-122711003D01*
X119963183Y-122718371D01*
X119862017Y-122726131D01*
X119760361Y-122734116D01*
X119660164Y-122742160D01*
X119563373Y-122750098D01*
X119471939Y-122757763D01*
X119387810Y-122764989D01*
X119312935Y-122771610D01*
X119249263Y-122777460D01*
X119198743Y-122782373D01*
X119163323Y-122786184D01*
X119144953Y-122788725D01*
X119142878Y-122789304D01*
X119139404Y-122798854D01*
X119138182Y-122822724D01*
X119139246Y-122862243D01*
X119142632Y-122918743D01*
X119148265Y-122992219D01*
X119153224Y-123053790D01*
X119157563Y-123109744D01*
X119161031Y-123156664D01*
X119163376Y-123191134D01*
X119164346Y-123209739D01*
X119164358Y-123210755D01*
X119167540Y-123226131D01*
X119180907Y-123231674D01*
X119196477Y-123231834D01*
X119211139Y-123230841D01*
X119243960Y-123228309D01*
X119293402Y-123224367D01*
X119357927Y-123219140D01*
X119435997Y-123212755D01*
X119526075Y-123205339D01*
X119626623Y-123197016D01*
X119736104Y-123187915D01*
X119852979Y-123178161D01*
X119975711Y-123167881D01*
X120032827Y-123163085D01*
X120156901Y-123152613D01*
X120275223Y-123142540D01*
X120386324Y-123132996D01*
X120488734Y-123124113D01*
X120580984Y-123116019D01*
X120661606Y-123108845D01*
X120729130Y-123102722D01*
X120782087Y-123097779D01*
X120819008Y-123094146D01*
X120838424Y-123091955D01*
X120841105Y-123091445D01*
X120841475Y-123080859D01*
X120840273Y-123053437D01*
X120837688Y-123012030D01*
X120833904Y-122959489D01*
X120829108Y-122898665D01*
X120826439Y-122866638D01*
X120807724Y-122645879D01*
X120778063Y-122620700D01*
X120765624Y-122609835D01*
X120739766Y-122587003D01*
X120701823Y-122553388D01*
X120653130Y-122510177D01*
X120595022Y-122458556D01*
X120528835Y-122399711D01*
X120455902Y-122334829D01*
X120377559Y-122265094D01*
X120295141Y-122191694D01*
X120273070Y-122172032D01*
X120188468Y-122096812D01*
X120106482Y-122024218D01*
X120028592Y-121955538D01*
X119956277Y-121892065D01*
X119891017Y-121835090D01*
X119834292Y-121785904D01*
X119787582Y-121745798D01*
X119752366Y-121716064D01*
X119730124Y-121697992D01*
X119727588Y-121696058D01*
X119657436Y-121643574D01*
X119729632Y-121638262D01*
X119812304Y-121632085D01*
X119900986Y-121625292D01*
X119993608Y-121618054D01*
X120088103Y-121610545D01*
X120182403Y-121602936D01*
X120274440Y-121595400D01*
X120362145Y-121588110D01*
X120443452Y-121581239D01*
X120516292Y-121574958D01*
X120578597Y-121569440D01*
X120628300Y-121564857D01*
X120663331Y-121561383D01*
X120681624Y-121559189D01*
X120683833Y-121558678D01*
X120684448Y-121547876D01*
X120683532Y-121520264D01*
X120681252Y-121478727D01*
X120677776Y-121426147D01*
X120673270Y-121365409D01*
X120670932Y-121335952D01*
X120664898Y-121263717D01*
X120659798Y-121208943D01*
X120655289Y-121169368D01*
X120651025Y-121142726D01*
X120646662Y-121126755D01*
X120641856Y-121119191D01*
X120637711Y-121117673D01*
X120624843Y-121118403D01*
X120624843Y-121118403D01*
G37*
X120624843Y-121118403D02*
X120594311Y-121120626D01*
X120547892Y-121124196D01*
X120487359Y-121128965D01*
X120414489Y-121134788D01*
X120331054Y-121141517D01*
X120238831Y-121149005D01*
X120139593Y-121157106D01*
X120035116Y-121165672D01*
X119927175Y-121174557D01*
X119817544Y-121183613D01*
X119707997Y-121192694D01*
X119600311Y-121201654D01*
X119496259Y-121210344D01*
X119397616Y-121218619D01*
X119306157Y-121226330D01*
X119223656Y-121233333D01*
X119151889Y-121239479D01*
X119092631Y-121244621D01*
X119047655Y-121248614D01*
X119018737Y-121251309D01*
X119007652Y-121252560D01*
X119007596Y-121252583D01*
X119007323Y-121262760D01*
X119008540Y-121289789D01*
X119011064Y-121330828D01*
X119014714Y-121383033D01*
X119019308Y-121443560D01*
X119021732Y-121473953D01*
X119039438Y-121692663D01*
X119099427Y-121749861D01*
X119125042Y-121773932D01*
X119163232Y-121809336D01*
X119212269Y-121854503D01*
X119270426Y-121907863D01*
X119335974Y-121967843D01*
X119407186Y-122032873D01*
X119482333Y-122101383D01*
X119559688Y-122171800D01*
X119637522Y-122242554D01*
X119714109Y-122312073D01*
X119787719Y-122378788D01*
X119856625Y-122441126D01*
X119919100Y-122497517D01*
X119973414Y-122546389D01*
X120017841Y-122586172D01*
X120050653Y-122615295D01*
X120066000Y-122628682D01*
X120153977Y-122704238D01*
X120061910Y-122711003D01*
X119963183Y-122718371D01*
X119862017Y-122726131D01*
X119760361Y-122734116D01*
X119660164Y-122742160D01*
X119563373Y-122750098D01*
X119471939Y-122757763D01*
X119387810Y-122764989D01*
X119312935Y-122771610D01*
X119249263Y-122777460D01*
X119198743Y-122782373D01*
X119163323Y-122786184D01*
X119144953Y-122788725D01*
X119142878Y-122789304D01*
X119139404Y-122798854D01*
X119138182Y-122822724D01*
X119139246Y-122862243D01*
X119142632Y-122918743D01*
X119148265Y-122992219D01*
X119153224Y-123053790D01*
X119157563Y-123109744D01*
X119161031Y-123156664D01*
X119163376Y-123191134D01*
X119164346Y-123209739D01*
X119164358Y-123210755D01*
X119167540Y-123226131D01*
X119180907Y-123231674D01*
X119196477Y-123231834D01*
X119211139Y-123230841D01*
X119243960Y-123228309D01*
X119293402Y-123224367D01*
X119357927Y-123219140D01*
X119435997Y-123212755D01*
X119526075Y-123205339D01*
X119626623Y-123197016D01*
X119736104Y-123187915D01*
X119852979Y-123178161D01*
X119975711Y-123167881D01*
X120032827Y-123163085D01*
X120156901Y-123152613D01*
X120275223Y-123142540D01*
X120386324Y-123132996D01*
X120488734Y-123124113D01*
X120580984Y-123116019D01*
X120661606Y-123108845D01*
X120729130Y-123102722D01*
X120782087Y-123097779D01*
X120819008Y-123094146D01*
X120838424Y-123091955D01*
X120841105Y-123091445D01*
X120841475Y-123080859D01*
X120840273Y-123053437D01*
X120837688Y-123012030D01*
X120833904Y-122959489D01*
X120829108Y-122898665D01*
X120826439Y-122866638D01*
X120807724Y-122645879D01*
X120778063Y-122620700D01*
X120765624Y-122609835D01*
X120739766Y-122587003D01*
X120701823Y-122553388D01*
X120653130Y-122510177D01*
X120595022Y-122458556D01*
X120528835Y-122399711D01*
X120455902Y-122334829D01*
X120377559Y-122265094D01*
X120295141Y-122191694D01*
X120273070Y-122172032D01*
X120188468Y-122096812D01*
X120106482Y-122024218D01*
X120028592Y-121955538D01*
X119956277Y-121892065D01*
X119891017Y-121835090D01*
X119834292Y-121785904D01*
X119787582Y-121745798D01*
X119752366Y-121716064D01*
X119730124Y-121697992D01*
X119727588Y-121696058D01*
X119657436Y-121643574D01*
X119729632Y-121638262D01*
X119812304Y-121632085D01*
X119900986Y-121625292D01*
X119993608Y-121618054D01*
X120088103Y-121610545D01*
X120182403Y-121602936D01*
X120274440Y-121595400D01*
X120362145Y-121588110D01*
X120443452Y-121581239D01*
X120516292Y-121574958D01*
X120578597Y-121569440D01*
X120628300Y-121564857D01*
X120663331Y-121561383D01*
X120681624Y-121559189D01*
X120683833Y-121558678D01*
X120684448Y-121547876D01*
X120683532Y-121520264D01*
X120681252Y-121478727D01*
X120677776Y-121426147D01*
X120673270Y-121365409D01*
X120670932Y-121335952D01*
X120664898Y-121263717D01*
X120659798Y-121208943D01*
X120655289Y-121169368D01*
X120651025Y-121142726D01*
X120646662Y-121126755D01*
X120641856Y-121119191D01*
X120637711Y-121117673D01*
X120624843Y-121118403D01*
G36*
X121168881Y-121136792D02*
X121168342Y-121136936D01*
X121165667Y-121148271D01*
X121162230Y-121176415D01*
X121158295Y-121218437D01*
X121154125Y-121271406D01*
X121149983Y-121332390D01*
X121148280Y-121360292D01*
X121135477Y-121577220D01*
X121530417Y-122056721D01*
X121602533Y-122144201D01*
X121673130Y-122229692D01*
X121740827Y-122311533D01*
X121804247Y-122388064D01*
X121862010Y-122457623D01*
X121912738Y-122518551D01*
X121955051Y-122569187D01*
X121987570Y-122607869D01*
X122008897Y-122632915D01*
X122039779Y-122669219D01*
X122064906Y-122699832D01*
X122081983Y-122721874D01*
X122088711Y-122732466D01*
X122088649Y-122732931D01*
X122077666Y-122733502D01*
X122052628Y-122731759D01*
X122020621Y-122728274D01*
X121995222Y-122725740D01*
X121954420Y-122722432D01*
X121900555Y-122718488D01*
X121835966Y-122714048D01*
X121762991Y-122709250D01*
X121683969Y-122704231D01*
X121601238Y-122699130D01*
X121517139Y-122694086D01*
X121434009Y-122689237D01*
X121354187Y-122684720D01*
X121280012Y-122680676D01*
X121213823Y-122677241D01*
X121157959Y-122674554D01*
X121114758Y-122672753D01*
X121086559Y-122671978D01*
X121075701Y-122672365D01*
X121075678Y-122672384D01*
X121073760Y-122683108D01*
X121071055Y-122710066D01*
X121067782Y-122749791D01*
X121064161Y-122798818D01*
X121060411Y-122853681D01*
X121056750Y-122910912D01*
X121053397Y-122967048D01*
X121050572Y-123018621D01*
X121048494Y-123062165D01*
X121047381Y-123094214D01*
X121047453Y-123111303D01*
X121047825Y-123113141D01*
X121057818Y-123114162D01*
X121085776Y-123116232D01*
X121129931Y-123119244D01*
X121188515Y-123123091D01*
X121259762Y-123127667D01*
X121341902Y-123132863D01*
X121433168Y-123138573D01*
X121531793Y-123144690D01*
X121636008Y-123151105D01*
X121744047Y-123157713D01*
X121854140Y-123164406D01*
X121964521Y-123171076D01*
X122073422Y-123177617D01*
X122179075Y-123183922D01*
X122279712Y-123189883D01*
X122373565Y-123195393D01*
X122458867Y-123200344D01*
X122533850Y-123204631D01*
X122596746Y-123208145D01*
X122645788Y-123210779D01*
X122679207Y-123212427D01*
X122694549Y-123212978D01*
X122711587Y-123210998D01*
X122720533Y-123201060D01*
X122725471Y-123177796D01*
X122726318Y-123171222D01*
X122728564Y-123147709D01*
X122731564Y-123108585D01*
X122735034Y-123057977D01*
X122738689Y-123000014D01*
X122741678Y-122948913D01*
X122751842Y-122768607D01*
X122319930Y-122257084D01*
X122244885Y-122168378D01*
X122172005Y-122082559D01*
X122102543Y-122001083D01*
X122037753Y-121925405D01*
X121978889Y-121856982D01*
X121927206Y-121797269D01*
X121883956Y-121747723D01*
X121850394Y-121709799D01*
X121827774Y-121684953D01*
X121821918Y-121678848D01*
X121795010Y-121651784D01*
X121777483Y-121632608D01*
X121770956Y-121620306D01*
X121777050Y-121613861D01*
X121797384Y-121612260D01*
X121833578Y-121614486D01*
X121887250Y-121619525D01*
X121912660Y-121621976D01*
X121949128Y-121625080D01*
X122000689Y-121628935D01*
X122064454Y-121633369D01*
X122137533Y-121638208D01*
X122217035Y-121643279D01*
X122300071Y-121648409D01*
X122383751Y-121653426D01*
X122465185Y-121658155D01*
X122541483Y-121662424D01*
X122609756Y-121666059D01*
X122667112Y-121668888D01*
X122710664Y-121670738D01*
X122737520Y-121671435D01*
X122738325Y-121671436D01*
X122788359Y-121671436D01*
X122800772Y-121453308D01*
X122804207Y-121389804D01*
X122806924Y-121333221D01*
X122808815Y-121286437D01*
X122809769Y-121252328D01*
X122809676Y-121233769D01*
X122809260Y-121231255D01*
X122798703Y-121229758D01*
X122770195Y-121227313D01*
X122725515Y-121224023D01*
X122666440Y-121219989D01*
X122594750Y-121215314D01*
X122512221Y-121210101D01*
X122420634Y-121204450D01*
X122321765Y-121198465D01*
X122217392Y-121192248D01*
X122109296Y-121185901D01*
X121999252Y-121179525D01*
X121889041Y-121173225D01*
X121780439Y-121167100D01*
X121675225Y-121161255D01*
X121575178Y-121155790D01*
X121482076Y-121150809D01*
X121397696Y-121146413D01*
X121323818Y-121142705D01*
X121262219Y-121139786D01*
X121214678Y-121137760D01*
X121182972Y-121136728D01*
X121168881Y-121136792D01*
X121168881Y-121136792D01*
G37*
X121168881Y-121136792D02*
X121168342Y-121136936D01*
X121165667Y-121148271D01*
X121162230Y-121176415D01*
X121158295Y-121218437D01*
X121154125Y-121271406D01*
X121149983Y-121332390D01*
X121148280Y-121360292D01*
X121135477Y-121577220D01*
X121530417Y-122056721D01*
X121602533Y-122144201D01*
X121673130Y-122229692D01*
X121740827Y-122311533D01*
X121804247Y-122388064D01*
X121862010Y-122457623D01*
X121912738Y-122518551D01*
X121955051Y-122569187D01*
X121987570Y-122607869D01*
X122008897Y-122632915D01*
X122039779Y-122669219D01*
X122064906Y-122699832D01*
X122081983Y-122721874D01*
X122088711Y-122732466D01*
X122088649Y-122732931D01*
X122077666Y-122733502D01*
X122052628Y-122731759D01*
X122020621Y-122728274D01*
X121995222Y-122725740D01*
X121954420Y-122722432D01*
X121900555Y-122718488D01*
X121835966Y-122714048D01*
X121762991Y-122709250D01*
X121683969Y-122704231D01*
X121601238Y-122699130D01*
X121517139Y-122694086D01*
X121434009Y-122689237D01*
X121354187Y-122684720D01*
X121280012Y-122680676D01*
X121213823Y-122677241D01*
X121157959Y-122674554D01*
X121114758Y-122672753D01*
X121086559Y-122671978D01*
X121075701Y-122672365D01*
X121075678Y-122672384D01*
X121073760Y-122683108D01*
X121071055Y-122710066D01*
X121067782Y-122749791D01*
X121064161Y-122798818D01*
X121060411Y-122853681D01*
X121056750Y-122910912D01*
X121053397Y-122967048D01*
X121050572Y-123018621D01*
X121048494Y-123062165D01*
X121047381Y-123094214D01*
X121047453Y-123111303D01*
X121047825Y-123113141D01*
X121057818Y-123114162D01*
X121085776Y-123116232D01*
X121129931Y-123119244D01*
X121188515Y-123123091D01*
X121259762Y-123127667D01*
X121341902Y-123132863D01*
X121433168Y-123138573D01*
X121531793Y-123144690D01*
X121636008Y-123151105D01*
X121744047Y-123157713D01*
X121854140Y-123164406D01*
X121964521Y-123171076D01*
X122073422Y-123177617D01*
X122179075Y-123183922D01*
X122279712Y-123189883D01*
X122373565Y-123195393D01*
X122458867Y-123200344D01*
X122533850Y-123204631D01*
X122596746Y-123208145D01*
X122645788Y-123210779D01*
X122679207Y-123212427D01*
X122694549Y-123212978D01*
X122711587Y-123210998D01*
X122720533Y-123201060D01*
X122725471Y-123177796D01*
X122726318Y-123171222D01*
X122728564Y-123147709D01*
X122731564Y-123108585D01*
X122735034Y-123057977D01*
X122738689Y-123000014D01*
X122741678Y-122948913D01*
X122751842Y-122768607D01*
X122319930Y-122257084D01*
X122244885Y-122168378D01*
X122172005Y-122082559D01*
X122102543Y-122001083D01*
X122037753Y-121925405D01*
X121978889Y-121856982D01*
X121927206Y-121797269D01*
X121883956Y-121747723D01*
X121850394Y-121709799D01*
X121827774Y-121684953D01*
X121821918Y-121678848D01*
X121795010Y-121651784D01*
X121777483Y-121632608D01*
X121770956Y-121620306D01*
X121777050Y-121613861D01*
X121797384Y-121612260D01*
X121833578Y-121614486D01*
X121887250Y-121619525D01*
X121912660Y-121621976D01*
X121949128Y-121625080D01*
X122000689Y-121628935D01*
X122064454Y-121633369D01*
X122137533Y-121638208D01*
X122217035Y-121643279D01*
X122300071Y-121648409D01*
X122383751Y-121653426D01*
X122465185Y-121658155D01*
X122541483Y-121662424D01*
X122609756Y-121666059D01*
X122667112Y-121668888D01*
X122710664Y-121670738D01*
X122737520Y-121671435D01*
X122738325Y-121671436D01*
X122788359Y-121671436D01*
X122800772Y-121453308D01*
X122804207Y-121389804D01*
X122806924Y-121333221D01*
X122808815Y-121286437D01*
X122809769Y-121252328D01*
X122809676Y-121233769D01*
X122809260Y-121231255D01*
X122798703Y-121229758D01*
X122770195Y-121227313D01*
X122725515Y-121224023D01*
X122666440Y-121219989D01*
X122594750Y-121215314D01*
X122512221Y-121210101D01*
X122420634Y-121204450D01*
X122321765Y-121198465D01*
X122217392Y-121192248D01*
X122109296Y-121185901D01*
X121999252Y-121179525D01*
X121889041Y-121173225D01*
X121780439Y-121167100D01*
X121675225Y-121161255D01*
X121575178Y-121155790D01*
X121482076Y-121150809D01*
X121397696Y-121146413D01*
X121323818Y-121142705D01*
X121262219Y-121139786D01*
X121214678Y-121137760D01*
X121182972Y-121136728D01*
X121168881Y-121136792D01*
G36*
X123466651Y-121166675D02*
X123426783Y-121169543D01*
X123377244Y-121173584D01*
X123321362Y-121178487D01*
X123262464Y-121183936D01*
X123203878Y-121189618D01*
X123148930Y-121195219D01*
X123100950Y-121200426D01*
X123063263Y-121204925D01*
X123039197Y-121208403D01*
X123032004Y-121210222D01*
X123032655Y-121220131D01*
X123035194Y-121248080D01*
X123039455Y-121292452D01*
X123045271Y-121351628D01*
X123052475Y-121423988D01*
X123060901Y-121507916D01*
X123070383Y-121601792D01*
X123080754Y-121703997D01*
X123091848Y-121812914D01*
X123103497Y-121926923D01*
X123115536Y-122044406D01*
X123127798Y-122163745D01*
X123140116Y-122283320D01*
X123152324Y-122401514D01*
X123164256Y-122516708D01*
X123175744Y-122627283D01*
X123186623Y-122731621D01*
X123196725Y-122828103D01*
X123205885Y-122915110D01*
X123213935Y-122991025D01*
X123220710Y-123054228D01*
X123226042Y-123103101D01*
X123229765Y-123136026D01*
X123231713Y-123151383D01*
X123231725Y-123151455D01*
X123233671Y-123162646D01*
X123236751Y-123171199D01*
X123243189Y-123177184D01*
X123255210Y-123180671D01*
X123275040Y-123181729D01*
X123304901Y-123180427D01*
X123347020Y-123176836D01*
X123403620Y-123171025D01*
X123476926Y-123163063D01*
X123504935Y-123160000D01*
X123564847Y-123153198D01*
X123617887Y-123146684D01*
X123660974Y-123140879D01*
X123691028Y-123136200D01*
X123704966Y-123133066D01*
X123705478Y-123132753D01*
X123705323Y-123122331D01*
X123703244Y-123093865D01*
X123699404Y-123048970D01*
X123693968Y-122989258D01*
X123687102Y-122916341D01*
X123678971Y-122831834D01*
X123669741Y-122737349D01*
X123659575Y-122634498D01*
X123648640Y-122524896D01*
X123637101Y-122410154D01*
X123625122Y-122291885D01*
X123612869Y-122171703D01*
X123600507Y-122051221D01*
X123588201Y-121932050D01*
X123576117Y-121815806D01*
X123564419Y-121704099D01*
X123553273Y-121598544D01*
X123542843Y-121500752D01*
X123533296Y-121412338D01*
X123524795Y-121334913D01*
X123517507Y-121270091D01*
X123511596Y-121219486D01*
X123507228Y-121184708D01*
X123504568Y-121167373D01*
X123504065Y-121165718D01*
X123493521Y-121165296D01*
X123466651Y-121166675D01*
X123466651Y-121166675D01*
G37*
X123466651Y-121166675D02*
X123426783Y-121169543D01*
X123377244Y-121173584D01*
X123321362Y-121178487D01*
X123262464Y-121183936D01*
X123203878Y-121189618D01*
X123148930Y-121195219D01*
X123100950Y-121200426D01*
X123063263Y-121204925D01*
X123039197Y-121208403D01*
X123032004Y-121210222D01*
X123032655Y-121220131D01*
X123035194Y-121248080D01*
X123039455Y-121292452D01*
X123045271Y-121351628D01*
X123052475Y-121423988D01*
X123060901Y-121507916D01*
X123070383Y-121601792D01*
X123080754Y-121703997D01*
X123091848Y-121812914D01*
X123103497Y-121926923D01*
X123115536Y-122044406D01*
X123127798Y-122163745D01*
X123140116Y-122283320D01*
X123152324Y-122401514D01*
X123164256Y-122516708D01*
X123175744Y-122627283D01*
X123186623Y-122731621D01*
X123196725Y-122828103D01*
X123205885Y-122915110D01*
X123213935Y-122991025D01*
X123220710Y-123054228D01*
X123226042Y-123103101D01*
X123229765Y-123136026D01*
X123231713Y-123151383D01*
X123231725Y-123151455D01*
X123233671Y-123162646D01*
X123236751Y-123171199D01*
X123243189Y-123177184D01*
X123255210Y-123180671D01*
X123275040Y-123181729D01*
X123304901Y-123180427D01*
X123347020Y-123176836D01*
X123403620Y-123171025D01*
X123476926Y-123163063D01*
X123504935Y-123160000D01*
X123564847Y-123153198D01*
X123617887Y-123146684D01*
X123660974Y-123140879D01*
X123691028Y-123136200D01*
X123704966Y-123133066D01*
X123705478Y-123132753D01*
X123705323Y-123122331D01*
X123703244Y-123093865D01*
X123699404Y-123048970D01*
X123693968Y-122989258D01*
X123687102Y-122916341D01*
X123678971Y-122831834D01*
X123669741Y-122737349D01*
X123659575Y-122634498D01*
X123648640Y-122524896D01*
X123637101Y-122410154D01*
X123625122Y-122291885D01*
X123612869Y-122171703D01*
X123600507Y-122051221D01*
X123588201Y-121932050D01*
X123576117Y-121815806D01*
X123564419Y-121704099D01*
X123553273Y-121598544D01*
X123542843Y-121500752D01*
X123533296Y-121412338D01*
X123524795Y-121334913D01*
X123517507Y-121270091D01*
X123511596Y-121219486D01*
X123507228Y-121184708D01*
X123504568Y-121167373D01*
X123504065Y-121165718D01*
X123493521Y-121165296D01*
X123466651Y-121166675D01*
G36*
X117024568Y-121167539D02*
X116961841Y-121167963D01*
X116908644Y-121168618D01*
X116867544Y-121169465D01*
X116841109Y-121170463D01*
X116831905Y-121171555D01*
X116837232Y-121180279D01*
X116852614Y-121204100D01*
X116877156Y-121241658D01*
X116909961Y-121291597D01*
X116950134Y-121352555D01*
X116996779Y-121423176D01*
X117049000Y-121502100D01*
X117105901Y-121587969D01*
X117166586Y-121679423D01*
X117198511Y-121727489D01*
X117565116Y-122279257D01*
X117558779Y-122721533D01*
X117552442Y-123163810D01*
X117669961Y-123163810D01*
X117732060Y-123164438D01*
X117803076Y-123166128D01*
X117872204Y-123168585D01*
X117907630Y-123170270D01*
X117953800Y-123172442D01*
X117991902Y-123173643D01*
X118018114Y-123173796D01*
X118028615Y-123172823D01*
X118028660Y-123172741D01*
X118029012Y-123162343D01*
X118029669Y-123134190D01*
X118030590Y-123090286D01*
X118031737Y-123032641D01*
X118033069Y-122963260D01*
X118034549Y-122884151D01*
X118036135Y-122797321D01*
X118037362Y-122728918D01*
X118045185Y-122289085D01*
X118817371Y-121201981D01*
X118761078Y-121194498D01*
X118734066Y-121192353D01*
X118691251Y-121190698D01*
X118636592Y-121189605D01*
X118574050Y-121189148D01*
X118507584Y-121189398D01*
X118492773Y-121189556D01*
X118280761Y-121192097D01*
X118052018Y-121517738D01*
X118001973Y-121588744D01*
X117955271Y-121654548D01*
X117913166Y-121713420D01*
X117876910Y-121763627D01*
X117847756Y-121803437D01*
X117826959Y-121831120D01*
X117815770Y-121844942D01*
X117814341Y-121846190D01*
X117807167Y-121838815D01*
X117790384Y-121816587D01*
X117765172Y-121781216D01*
X117732711Y-121734410D01*
X117694181Y-121677879D01*
X117650762Y-121613332D01*
X117603634Y-121542478D01*
X117581006Y-121508195D01*
X117356604Y-121167389D01*
X117094255Y-121167389D01*
X117024568Y-121167539D01*
X117024568Y-121167539D01*
G37*
X117024568Y-121167539D02*
X116961841Y-121167963D01*
X116908644Y-121168618D01*
X116867544Y-121169465D01*
X116841109Y-121170463D01*
X116831905Y-121171555D01*
X116837232Y-121180279D01*
X116852614Y-121204100D01*
X116877156Y-121241658D01*
X116909961Y-121291597D01*
X116950134Y-121352555D01*
X116996779Y-121423176D01*
X117049000Y-121502100D01*
X117105901Y-121587969D01*
X117166586Y-121679423D01*
X117198511Y-121727489D01*
X117565116Y-122279257D01*
X117558779Y-122721533D01*
X117552442Y-123163810D01*
X117669961Y-123163810D01*
X117732060Y-123164438D01*
X117803076Y-123166128D01*
X117872204Y-123168585D01*
X117907630Y-123170270D01*
X117953800Y-123172442D01*
X117991902Y-123173643D01*
X118018114Y-123173796D01*
X118028615Y-123172823D01*
X118028660Y-123172741D01*
X118029012Y-123162343D01*
X118029669Y-123134190D01*
X118030590Y-123090286D01*
X118031737Y-123032641D01*
X118033069Y-122963260D01*
X118034549Y-122884151D01*
X118036135Y-122797321D01*
X118037362Y-122728918D01*
X118045185Y-122289085D01*
X118817371Y-121201981D01*
X118761078Y-121194498D01*
X118734066Y-121192353D01*
X118691251Y-121190698D01*
X118636592Y-121189605D01*
X118574050Y-121189148D01*
X118507584Y-121189398D01*
X118492773Y-121189556D01*
X118280761Y-121192097D01*
X118052018Y-121517738D01*
X118001973Y-121588744D01*
X117955271Y-121654548D01*
X117913166Y-121713420D01*
X117876910Y-121763627D01*
X117847756Y-121803437D01*
X117826959Y-121831120D01*
X117815770Y-121844942D01*
X117814341Y-121846190D01*
X117807167Y-121838815D01*
X117790384Y-121816587D01*
X117765172Y-121781216D01*
X117732711Y-121734410D01*
X117694181Y-121677879D01*
X117650762Y-121613332D01*
X117603634Y-121542478D01*
X117581006Y-121508195D01*
X117356604Y-121167389D01*
X117094255Y-121167389D01*
X117024568Y-121167539D01*
G36*
X116262048Y-121178431D02*
X116181315Y-121181506D01*
X116119247Y-121186666D01*
X116088432Y-121191269D01*
X115981725Y-121220249D01*
X115886467Y-121263548D01*
X115803791Y-121320019D01*
X115734829Y-121388514D01*
X115680714Y-121467886D01*
X115642579Y-121556989D01*
X115621556Y-121654677D01*
X115620417Y-121665088D01*
X115621524Y-121748599D01*
X115639986Y-121832210D01*
X115673917Y-121911928D01*
X115721427Y-121983763D01*
X115780629Y-122043723D01*
X115809658Y-122065157D01*
X115854929Y-122095144D01*
X115797828Y-122122156D01*
X115752720Y-122149156D01*
X115703647Y-122188146D01*
X115676025Y-122214213D01*
X115608224Y-122294949D01*
X115559211Y-122381712D01*
X115529122Y-122473996D01*
X115518095Y-122571299D01*
X115526269Y-122673115D01*
X115536954Y-122723055D01*
X115572237Y-122824015D01*
X115623094Y-122912952D01*
X115688953Y-122989248D01*
X115769242Y-123052287D01*
X115863391Y-123101449D01*
X115899561Y-123115280D01*
X115927026Y-123124666D01*
X115952959Y-123132759D01*
X115979007Y-123139653D01*
X116006817Y-123145445D01*
X116038036Y-123150230D01*
X116074313Y-123154105D01*
X116117292Y-123157165D01*
X116168623Y-123159506D01*
X116229952Y-123161223D01*
X116302925Y-123162412D01*
X116389191Y-123163170D01*
X116490397Y-123163591D01*
X116608188Y-123163773D01*
X116734147Y-123163810D01*
X117366011Y-123163810D01*
X117363336Y-122963673D01*
X117360660Y-122763537D01*
X116767664Y-122758596D01*
X116174668Y-122753654D01*
X116130632Y-122728946D01*
X116097619Y-122705035D01*
X116066287Y-122673892D01*
X116056508Y-122661382D01*
X116040990Y-122637357D01*
X116031950Y-122615773D01*
X116027675Y-122589783D01*
X116026449Y-122552540D01*
X116026419Y-122541164D01*
X116027172Y-122500168D01*
X116030565Y-122472089D01*
X116038298Y-122450102D01*
X116052068Y-122427378D01*
X116056237Y-122421374D01*
X116093416Y-122381847D01*
X116138903Y-122351339D01*
X116191750Y-122323732D01*
X116753968Y-122323732D01*
X116857336Y-122323654D01*
X116954557Y-122323429D01*
X117043877Y-122323072D01*
X117123542Y-122322597D01*
X117191796Y-122322018D01*
X117246887Y-122321350D01*
X117287058Y-122320606D01*
X117310557Y-122319802D01*
X117316185Y-122319155D01*
X117311017Y-122309916D01*
X117296543Y-122286582D01*
X117274310Y-122251582D01*
X117245866Y-122207343D01*
X117212757Y-122156291D01*
X117196507Y-122131373D01*
X117076829Y-121948168D01*
X116665281Y-121947950D01*
X116557896Y-121947843D01*
X116468396Y-121947478D01*
X116394903Y-121946610D01*
X116335536Y-121944992D01*
X116288415Y-121942377D01*
X116251660Y-121938517D01*
X116223391Y-121933166D01*
X116201727Y-121926078D01*
X116184789Y-121917005D01*
X116170696Y-121905700D01*
X116157568Y-121891917D01*
X116147343Y-121879946D01*
X116116288Y-121829568D01*
X116103537Y-121776563D01*
X116108481Y-121724045D01*
X116130512Y-121675129D01*
X116169019Y-121632927D01*
X116199759Y-121612136D01*
X116212676Y-121605136D01*
X116225244Y-121599561D01*
X116239848Y-121595204D01*
X116258870Y-121591861D01*
X116284693Y-121589325D01*
X116319700Y-121587392D01*
X116366274Y-121585854D01*
X116426799Y-121584506D01*
X116503658Y-121583143D01*
X116543214Y-121582487D01*
X116842578Y-121577545D01*
X116701346Y-121377607D01*
X116560115Y-121177669D01*
X116360849Y-121177471D01*
X116262048Y-121178431D01*
X116262048Y-121178431D01*
G37*
X116262048Y-121178431D02*
X116181315Y-121181506D01*
X116119247Y-121186666D01*
X116088432Y-121191269D01*
X115981725Y-121220249D01*
X115886467Y-121263548D01*
X115803791Y-121320019D01*
X115734829Y-121388514D01*
X115680714Y-121467886D01*
X115642579Y-121556989D01*
X115621556Y-121654677D01*
X115620417Y-121665088D01*
X115621524Y-121748599D01*
X115639986Y-121832210D01*
X115673917Y-121911928D01*
X115721427Y-121983763D01*
X115780629Y-122043723D01*
X115809658Y-122065157D01*
X115854929Y-122095144D01*
X115797828Y-122122156D01*
X115752720Y-122149156D01*
X115703647Y-122188146D01*
X115676025Y-122214213D01*
X115608224Y-122294949D01*
X115559211Y-122381712D01*
X115529122Y-122473996D01*
X115518095Y-122571299D01*
X115526269Y-122673115D01*
X115536954Y-122723055D01*
X115572237Y-122824015D01*
X115623094Y-122912952D01*
X115688953Y-122989248D01*
X115769242Y-123052287D01*
X115863391Y-123101449D01*
X115899561Y-123115280D01*
X115927026Y-123124666D01*
X115952959Y-123132759D01*
X115979007Y-123139653D01*
X116006817Y-123145445D01*
X116038036Y-123150230D01*
X116074313Y-123154105D01*
X116117292Y-123157165D01*
X116168623Y-123159506D01*
X116229952Y-123161223D01*
X116302925Y-123162412D01*
X116389191Y-123163170D01*
X116490397Y-123163591D01*
X116608188Y-123163773D01*
X116734147Y-123163810D01*
X117366011Y-123163810D01*
X117363336Y-122963673D01*
X117360660Y-122763537D01*
X116767664Y-122758596D01*
X116174668Y-122753654D01*
X116130632Y-122728946D01*
X116097619Y-122705035D01*
X116066287Y-122673892D01*
X116056508Y-122661382D01*
X116040990Y-122637357D01*
X116031950Y-122615773D01*
X116027675Y-122589783D01*
X116026449Y-122552540D01*
X116026419Y-122541164D01*
X116027172Y-122500168D01*
X116030565Y-122472089D01*
X116038298Y-122450102D01*
X116052068Y-122427378D01*
X116056237Y-122421374D01*
X116093416Y-122381847D01*
X116138903Y-122351339D01*
X116191750Y-122323732D01*
X116753968Y-122323732D01*
X116857336Y-122323654D01*
X116954557Y-122323429D01*
X117043877Y-122323072D01*
X117123542Y-122322597D01*
X117191796Y-122322018D01*
X117246887Y-122321350D01*
X117287058Y-122320606D01*
X117310557Y-122319802D01*
X117316185Y-122319155D01*
X117311017Y-122309916D01*
X117296543Y-122286582D01*
X117274310Y-122251582D01*
X117245866Y-122207343D01*
X117212757Y-122156291D01*
X117196507Y-122131373D01*
X117076829Y-121948168D01*
X116665281Y-121947950D01*
X116557896Y-121947843D01*
X116468396Y-121947478D01*
X116394903Y-121946610D01*
X116335536Y-121944992D01*
X116288415Y-121942377D01*
X116251660Y-121938517D01*
X116223391Y-121933166D01*
X116201727Y-121926078D01*
X116184789Y-121917005D01*
X116170696Y-121905700D01*
X116157568Y-121891917D01*
X116147343Y-121879946D01*
X116116288Y-121829568D01*
X116103537Y-121776563D01*
X116108481Y-121724045D01*
X116130512Y-121675129D01*
X116169019Y-121632927D01*
X116199759Y-121612136D01*
X116212676Y-121605136D01*
X116225244Y-121599561D01*
X116239848Y-121595204D01*
X116258870Y-121591861D01*
X116284693Y-121589325D01*
X116319700Y-121587392D01*
X116366274Y-121585854D01*
X116426799Y-121584506D01*
X116503658Y-121583143D01*
X116543214Y-121582487D01*
X116842578Y-121577545D01*
X116701346Y-121377607D01*
X116560115Y-121177669D01*
X116360849Y-121177471D01*
X116262048Y-121178431D01*
G36*
X114855252Y-123163810D02*
X115339532Y-123163810D01*
X115339532Y-121177273D01*
X114855252Y-121177273D01*
X114855252Y-123163810D01*
X114855252Y-123163810D01*
G37*
X114855252Y-123163810D02*
X115339532Y-123163810D01*
X115339532Y-121177273D01*
X114855252Y-121177273D01*
X114855252Y-123163810D01*
G36*
X112977431Y-121631903D02*
X113580310Y-121631903D01*
X113580310Y-123163810D01*
X114054707Y-123163810D01*
X114054707Y-123023727D01*
X113777975Y-123023727D01*
X113769781Y-123054808D01*
X113748879Y-123075825D01*
X113720792Y-123084322D01*
X113691045Y-123077846D01*
X113677450Y-123068387D01*
X113662143Y-123042598D01*
X113661679Y-123011665D01*
X113675733Y-122984218D01*
X113701117Y-122968565D01*
X113729903Y-122968016D01*
X113756131Y-122980270D01*
X113773840Y-123003021D01*
X113777975Y-123023727D01*
X114054707Y-123023727D01*
X114054707Y-121632193D01*
X114652645Y-121626961D01*
X114652645Y-121182214D01*
X113815038Y-121179688D01*
X112977431Y-121177161D01*
X112977431Y-121631903D01*
X112977431Y-121631903D01*
G37*
X112977431Y-121631903D02*
X113580310Y-121631903D01*
X113580310Y-123163810D01*
X114054707Y-123163810D01*
X114054707Y-123023727D01*
X113777975Y-123023727D01*
X113769781Y-123054808D01*
X113748879Y-123075825D01*
X113720792Y-123084322D01*
X113691045Y-123077846D01*
X113677450Y-123068387D01*
X113662143Y-123042598D01*
X113661679Y-123011665D01*
X113675733Y-122984218D01*
X113701117Y-122968565D01*
X113729903Y-122968016D01*
X113756131Y-122980270D01*
X113773840Y-123003021D01*
X113777975Y-123023727D01*
X114054707Y-123023727D01*
X114054707Y-121632193D01*
X114652645Y-121626961D01*
X114652645Y-121182214D01*
X113815038Y-121179688D01*
X112977431Y-121177161D01*
X112977431Y-121631903D01*
G36*
X113449357Y-122760550D02*
X113397469Y-122763537D01*
X113397469Y-123089685D01*
X113449357Y-123092672D01*
X113501244Y-123095660D01*
X113501244Y-122757563D01*
X113449357Y-122760550D01*
X113449357Y-122760550D01*
G37*
X113449357Y-122760550D02*
X113397469Y-122763537D01*
X113397469Y-123089685D01*
X113449357Y-123092672D01*
X113501244Y-123095660D01*
X113501244Y-122757563D01*
X113449357Y-122760550D01*
G36*
X113135342Y-122750794D02*
X113078383Y-122759242D01*
X113035728Y-122779134D01*
X113004499Y-122812142D01*
X112992404Y-122833803D01*
X112980592Y-122875402D01*
X112978200Y-122924568D01*
X112984708Y-122973397D01*
X112999598Y-123013985D01*
X113004753Y-123022175D01*
X113040987Y-123057152D01*
X113088476Y-123080396D01*
X113141471Y-123090256D01*
X113194224Y-123085081D01*
X113208331Y-123080653D01*
X113257117Y-123053046D01*
X113293035Y-123013288D01*
X113314906Y-122965165D01*
X113321556Y-122912464D01*
X113321379Y-122911492D01*
X113210711Y-122911492D01*
X113209927Y-122944954D01*
X113209285Y-122948211D01*
X113195330Y-122982060D01*
X113173081Y-123005299D01*
X113146783Y-123015092D01*
X113120681Y-123008604D01*
X113119747Y-123007997D01*
X113100294Y-122984077D01*
X113088733Y-122945775D01*
X113086147Y-122911987D01*
X113089371Y-122877255D01*
X113101089Y-122852696D01*
X113110405Y-122842154D01*
X113133047Y-122823225D01*
X113152268Y-122819079D01*
X113175410Y-122827946D01*
X113191412Y-122845745D01*
X113203859Y-122876008D01*
X113210711Y-122911492D01*
X113321379Y-122911492D01*
X113311805Y-122858972D01*
X113290394Y-122816659D01*
X113256494Y-122779926D01*
X113213878Y-122758251D01*
X113159652Y-122750404D01*
X113135342Y-122750794D01*
X113135342Y-122750794D01*
G37*
X113135342Y-122750794D02*
X113078383Y-122759242D01*
X113035728Y-122779134D01*
X113004499Y-122812142D01*
X112992404Y-122833803D01*
X112980592Y-122875402D01*
X112978200Y-122924568D01*
X112984708Y-122973397D01*
X112999598Y-123013985D01*
X113004753Y-123022175D01*
X113040987Y-123057152D01*
X113088476Y-123080396D01*
X113141471Y-123090256D01*
X113194224Y-123085081D01*
X113208331Y-123080653D01*
X113257117Y-123053046D01*
X113293035Y-123013288D01*
X113314906Y-122965165D01*
X113321556Y-122912464D01*
X113321379Y-122911492D01*
X113210711Y-122911492D01*
X113209927Y-122944954D01*
X113209285Y-122948211D01*
X113195330Y-122982060D01*
X113173081Y-123005299D01*
X113146783Y-123015092D01*
X113120681Y-123008604D01*
X113119747Y-123007997D01*
X113100294Y-122984077D01*
X113088733Y-122945775D01*
X113086147Y-122911987D01*
X113089371Y-122877255D01*
X113101089Y-122852696D01*
X113110405Y-122842154D01*
X113133047Y-122823225D01*
X113152268Y-122819079D01*
X113175410Y-122827946D01*
X113191412Y-122845745D01*
X113203859Y-122876008D01*
X113210711Y-122911492D01*
X113321379Y-122911492D01*
X113311805Y-122858972D01*
X113290394Y-122816659D01*
X113256494Y-122779926D01*
X113213878Y-122758251D01*
X113159652Y-122750404D01*
X113135342Y-122750794D01*
G36*
X113418003Y-122627852D02*
X113398598Y-122648029D01*
X113394763Y-122676725D01*
X113402759Y-122699946D01*
X113419777Y-122713584D01*
X113446304Y-122719240D01*
X113473454Y-122716169D01*
X113489384Y-122707203D01*
X113498516Y-122688722D01*
X113501244Y-122669646D01*
X113494207Y-122639612D01*
X113473047Y-122623398D01*
X113450557Y-122620230D01*
X113418003Y-122627852D01*
X113418003Y-122627852D01*
G37*
X113418003Y-122627852D02*
X113398598Y-122648029D01*
X113394763Y-122676725D01*
X113402759Y-122699946D01*
X113419777Y-122713584D01*
X113446304Y-122719240D01*
X113473454Y-122716169D01*
X113489384Y-122707203D01*
X113498516Y-122688722D01*
X113501244Y-122669646D01*
X113494207Y-122639612D01*
X113473047Y-122623398D01*
X113450557Y-122620230D01*
X113418003Y-122627852D01*
G36*
X119455913Y-110738038D02*
X119314143Y-110740279D01*
X119184624Y-110747289D01*
X119060269Y-110759755D01*
X118933989Y-110778363D01*
X118818442Y-110799802D01*
X118575117Y-110858385D01*
X118339455Y-110934732D01*
X118112190Y-111028093D01*
X117894058Y-111137721D01*
X117685792Y-111262865D01*
X117488127Y-111402778D01*
X117301798Y-111556709D01*
X117127539Y-111723912D01*
X116966085Y-111903636D01*
X116818169Y-112095132D01*
X116684528Y-112297653D01*
X116565894Y-112510449D01*
X116463003Y-112732770D01*
X116376589Y-112963870D01*
X116307386Y-113202997D01*
X116264084Y-113404082D01*
X116259061Y-113431322D01*
X116254387Y-113456619D01*
X116250049Y-113480724D01*
X116246035Y-113504386D01*
X116242331Y-113528359D01*
X116238926Y-113553391D01*
X116235807Y-113580235D01*
X116232961Y-113609642D01*
X116230376Y-113642362D01*
X116228040Y-113679146D01*
X116225939Y-113720746D01*
X116224061Y-113767913D01*
X116222395Y-113821397D01*
X116220927Y-113881949D01*
X116219644Y-113950321D01*
X116218535Y-114027264D01*
X116217587Y-114113528D01*
X116216787Y-114209865D01*
X116216123Y-114317025D01*
X116215582Y-114435760D01*
X116215152Y-114566821D01*
X116214820Y-114710958D01*
X116214574Y-114868922D01*
X116214401Y-115041466D01*
X116214289Y-115229339D01*
X116214225Y-115433292D01*
X116214197Y-115654078D01*
X116214191Y-115892446D01*
X116214197Y-116149148D01*
X116214201Y-116398712D01*
X116214180Y-116672623D01*
X116214132Y-116927485D01*
X116214075Y-117164015D01*
X116214029Y-117382931D01*
X116214014Y-117584950D01*
X116214050Y-117770791D01*
X116214156Y-117941169D01*
X116214352Y-118096803D01*
X116214657Y-118238411D01*
X116215093Y-118366708D01*
X116215677Y-118482415D01*
X116216430Y-118586246D01*
X116217371Y-118678921D01*
X116218521Y-118761156D01*
X116219898Y-118833669D01*
X116221523Y-118897177D01*
X116223415Y-118952399D01*
X116225594Y-119000050D01*
X116228080Y-119040849D01*
X116230892Y-119075514D01*
X116234050Y-119104761D01*
X116237573Y-119129308D01*
X116241482Y-119149873D01*
X116245795Y-119167173D01*
X116250534Y-119181925D01*
X116255716Y-119194848D01*
X116261363Y-119206657D01*
X116267494Y-119218072D01*
X116274128Y-119229809D01*
X116281285Y-119242585D01*
X116288984Y-119257119D01*
X116292845Y-119264860D01*
X116355221Y-119370791D01*
X116432303Y-119464177D01*
X116522604Y-119543809D01*
X116624635Y-119608480D01*
X116736909Y-119656979D01*
X116797628Y-119675096D01*
X116876548Y-119689208D01*
X116965435Y-119695090D01*
X117056286Y-119692742D01*
X117141098Y-119682165D01*
X117173768Y-119675074D01*
X117289099Y-119636088D01*
X117395370Y-119580224D01*
X117491215Y-119508809D01*
X117575271Y-119423171D01*
X117646171Y-119324639D01*
X117702552Y-119214540D01*
X117732690Y-119131166D01*
X117737328Y-119115524D01*
X117741290Y-119100361D01*
X117744639Y-119084028D01*
X117747439Y-119064876D01*
X117749752Y-119041256D01*
X117751642Y-119011522D01*
X117753172Y-118974023D01*
X117754405Y-118927111D01*
X117755405Y-118869139D01*
X117756234Y-118798458D01*
X117756955Y-118713419D01*
X117757633Y-118612373D01*
X117758330Y-118493674D01*
X117758538Y-118456903D01*
X117759194Y-118349989D01*
X117759917Y-118249166D01*
X117760687Y-118156130D01*
X117761486Y-118072580D01*
X117762294Y-118000213D01*
X117763092Y-117940726D01*
X117763862Y-117895817D01*
X117764584Y-117867185D01*
X117765239Y-117856525D01*
X117765273Y-117856494D01*
X117774752Y-117861135D01*
X117796933Y-117873454D01*
X117827517Y-117891050D01*
X117836432Y-117896261D01*
X117932819Y-117942850D01*
X118038213Y-117976195D01*
X118147204Y-117995155D01*
X118254385Y-117998589D01*
X118302215Y-117994563D01*
X118398253Y-117977021D01*
X118490859Y-117949722D01*
X118574669Y-117914550D01*
X118642069Y-117874993D01*
X118661670Y-117862234D01*
X118673430Y-117856517D01*
X118673728Y-117856494D01*
X118674639Y-117866124D01*
X118675589Y-117894000D01*
X118676560Y-117938602D01*
X118677535Y-117998410D01*
X118678496Y-118071902D01*
X118679424Y-118157560D01*
X118680303Y-118253863D01*
X118681113Y-118359290D01*
X118681838Y-118472321D01*
X118682459Y-118591436D01*
X118682522Y-118605152D01*
X118683154Y-118748960D01*
X118683747Y-118874491D01*
X118684414Y-118983237D01*
X118685270Y-119076686D01*
X118686428Y-119156329D01*
X118688002Y-119223655D01*
X118690106Y-119280155D01*
X118692854Y-119327318D01*
X118696361Y-119366634D01*
X118700739Y-119399593D01*
X118706104Y-119427685D01*
X118712569Y-119452401D01*
X118720248Y-119475229D01*
X118729255Y-119497659D01*
X118739704Y-119521182D01*
X118751709Y-119547288D01*
X118755170Y-119554838D01*
X118815090Y-119663175D01*
X118889185Y-119758350D01*
X118976134Y-119839479D01*
X119074618Y-119905675D01*
X119183320Y-119956052D01*
X119300919Y-119989725D01*
X119426097Y-120005808D01*
X119426768Y-120005844D01*
X119513822Y-120005434D01*
X119592272Y-119996003D01*
X119713390Y-119963512D01*
X119824934Y-119913738D01*
X119926755Y-119846762D01*
X120018707Y-119762664D01*
X120021025Y-119760185D01*
X120086596Y-119681759D01*
X120137918Y-119600900D01*
X120179113Y-119510657D01*
X120194663Y-119467467D01*
X120226279Y-119373576D01*
X120236691Y-118469440D01*
X120281166Y-118499010D01*
X120345678Y-118535181D01*
X120422767Y-118567576D01*
X120505267Y-118593391D01*
X120547610Y-118603221D01*
X120649684Y-118615305D01*
X120756903Y-118612548D01*
X120864612Y-118595882D01*
X120968157Y-118566239D01*
X121062883Y-118524552D01*
X121122250Y-118488142D01*
X121147964Y-118469997D01*
X121154039Y-118600580D01*
X121160077Y-118688307D01*
X121169942Y-118762091D01*
X121184740Y-118827567D01*
X121205578Y-118890372D01*
X121216072Y-118916532D01*
X121267842Y-119016074D01*
X121335906Y-119109264D01*
X121417001Y-119192614D01*
X121507864Y-119262637D01*
X121577473Y-119302829D01*
X121651561Y-119336968D01*
X121718262Y-119360483D01*
X121785342Y-119375445D01*
X121860569Y-119383921D01*
X121888383Y-119385641D01*
X122012176Y-119382713D01*
X122130617Y-119361403D01*
X122242239Y-119322707D01*
X122345578Y-119267624D01*
X122439167Y-119197151D01*
X122521541Y-119112287D01*
X122591235Y-119014028D01*
X122646783Y-118903373D01*
X122664150Y-118857495D01*
X122697625Y-118760813D01*
X122700640Y-116314704D01*
X122700967Y-116023170D01*
X122701202Y-115751016D01*
X122701227Y-115705250D01*
X122386314Y-115705250D01*
X122386308Y-115950478D01*
X122386302Y-116214631D01*
X122386302Y-116237168D01*
X122386299Y-116497583D01*
X122386285Y-116738973D01*
X122386256Y-116962078D01*
X122386205Y-117167641D01*
X122386128Y-117356401D01*
X122386018Y-117529101D01*
X122385870Y-117686482D01*
X122385679Y-117829285D01*
X122385439Y-117958250D01*
X122385144Y-118074119D01*
X122384790Y-118177634D01*
X122384370Y-118269536D01*
X122383880Y-118350565D01*
X122383312Y-118421463D01*
X122382663Y-118482971D01*
X122381927Y-118535830D01*
X122381097Y-118580782D01*
X122380169Y-118618567D01*
X122379137Y-118649927D01*
X122377996Y-118675603D01*
X122376739Y-118696336D01*
X122375362Y-118712868D01*
X122373859Y-118725939D01*
X122372225Y-118736291D01*
X122370453Y-118744665D01*
X122368539Y-118751802D01*
X122367578Y-118754973D01*
X122330894Y-118840564D01*
X122278089Y-118915920D01*
X122210860Y-118979364D01*
X122130904Y-119029217D01*
X122061740Y-119057285D01*
X122027165Y-119066067D01*
X121988096Y-119070601D01*
X121938524Y-119071406D01*
X121907649Y-119070562D01*
X121859476Y-119068233D01*
X121824218Y-119064392D01*
X121795022Y-119057441D01*
X121765037Y-119045778D01*
X121730007Y-119029091D01*
X121649265Y-118978773D01*
X121581242Y-118914829D01*
X121527699Y-118839500D01*
X121490397Y-118755027D01*
X121478047Y-118708440D01*
X121475032Y-118683179D01*
X121472470Y-118639160D01*
X121470382Y-118577385D01*
X121468794Y-118498859D01*
X121467728Y-118404584D01*
X121467208Y-118295563D01*
X121467158Y-118246146D01*
X121467158Y-117836226D01*
X121311497Y-117838948D01*
X121155835Y-117841669D01*
X121148872Y-117904804D01*
X121129898Y-117989390D01*
X121093322Y-118069373D01*
X121041228Y-118141930D01*
X120975701Y-118204238D01*
X120898824Y-118253475D01*
X120887161Y-118259219D01*
X120846102Y-118277595D01*
X120812251Y-118289006D01*
X120777309Y-118295450D01*
X120732978Y-118298922D01*
X120719467Y-118299558D01*
X120665687Y-118300514D01*
X120622905Y-118297355D01*
X120582618Y-118289196D01*
X120560991Y-118283037D01*
X120473550Y-118246583D01*
X120397086Y-118194777D01*
X120333269Y-118129556D01*
X120283772Y-118052857D01*
X120250265Y-117966617D01*
X120238228Y-117909022D01*
X120227744Y-117836246D01*
X120074085Y-117838958D01*
X119920427Y-117841669D01*
X119915485Y-118592798D01*
X119914513Y-118734612D01*
X119913567Y-118858006D01*
X119912612Y-118964328D01*
X119911612Y-119054925D01*
X119910531Y-119131142D01*
X119909335Y-119194328D01*
X119907989Y-119245830D01*
X119906456Y-119286994D01*
X119904703Y-119319167D01*
X119902692Y-119343696D01*
X119900389Y-119361929D01*
X119897760Y-119375212D01*
X119894767Y-119384891D01*
X119894713Y-119385032D01*
X119851483Y-119472116D01*
X119794827Y-119546456D01*
X119726764Y-119606927D01*
X119649308Y-119652403D01*
X119564477Y-119681756D01*
X119474287Y-119693862D01*
X119380753Y-119687594D01*
X119360038Y-119683661D01*
X119276514Y-119656234D01*
X119199173Y-119612157D01*
X119130724Y-119554137D01*
X119073873Y-119484880D01*
X119031328Y-119407091D01*
X119007308Y-119331086D01*
X119005302Y-119313422D01*
X119003512Y-119280334D01*
X119001932Y-119231380D01*
X119000559Y-119166116D01*
X118999388Y-119084103D01*
X118998413Y-118984896D01*
X118997632Y-118868055D01*
X118997039Y-118733137D01*
X118996629Y-118579700D01*
X118996399Y-118407302D01*
X118996341Y-118251339D01*
X118996341Y-117223965D01*
X118680076Y-117223965D01*
X118680076Y-117262618D01*
X118674530Y-117309842D01*
X118659561Y-117365250D01*
X118637673Y-117421263D01*
X118611529Y-117470056D01*
X118553270Y-117543846D01*
X118484390Y-117602503D01*
X118407318Y-117645709D01*
X118324484Y-117673147D01*
X118238319Y-117684496D01*
X118151252Y-117679441D01*
X118065712Y-117657661D01*
X117984131Y-117618840D01*
X117908939Y-117562658D01*
X117908365Y-117562134D01*
X117860134Y-117508675D01*
X117818692Y-117444855D01*
X117786657Y-117376114D01*
X117766648Y-117307891D01*
X117761050Y-117256086D01*
X117760932Y-117223965D01*
X117444668Y-117223965D01*
X117444426Y-118106047D01*
X117444266Y-118271108D01*
X117443885Y-118421708D01*
X117443289Y-118557239D01*
X117442485Y-118677094D01*
X117441479Y-118780666D01*
X117440279Y-118867347D01*
X117438892Y-118936529D01*
X117437323Y-118987607D01*
X117435580Y-119019972D01*
X117434193Y-119031470D01*
X117407128Y-119108644D01*
X117363855Y-119182933D01*
X117307879Y-119250010D01*
X117242706Y-119305551D01*
X117184392Y-119339673D01*
X117094654Y-119371489D01*
X117004074Y-119384563D01*
X116914875Y-119379679D01*
X116829282Y-119357620D01*
X116749517Y-119319172D01*
X116677804Y-119265119D01*
X116616367Y-119196245D01*
X116572446Y-119123757D01*
X116530466Y-119039038D01*
X116527405Y-116458758D01*
X116527083Y-116162946D01*
X116526843Y-115886472D01*
X116526687Y-115628910D01*
X116526615Y-115389831D01*
X116526630Y-115168809D01*
X116526732Y-114965415D01*
X116526922Y-114779223D01*
X116527203Y-114609804D01*
X116527574Y-114456731D01*
X116528038Y-114319576D01*
X116528595Y-114197913D01*
X116529248Y-114091313D01*
X116529997Y-113999348D01*
X116530843Y-113921592D01*
X116531788Y-113857617D01*
X116532833Y-113806995D01*
X116533980Y-113769299D01*
X116535229Y-113744101D01*
X116535524Y-113740113D01*
X116564506Y-113500703D01*
X116612282Y-113267369D01*
X116678872Y-113040058D01*
X116764296Y-112818715D01*
X116868571Y-112603288D01*
X116991720Y-112393723D01*
X117072744Y-112273506D01*
X117212120Y-112093200D01*
X117366983Y-111923927D01*
X117535782Y-111766701D01*
X117716962Y-111622538D01*
X117908972Y-111492454D01*
X118110258Y-111377463D01*
X118319266Y-111278583D01*
X118534445Y-111196827D01*
X118754241Y-111133213D01*
X118849159Y-111111818D01*
X119086513Y-111072581D01*
X119322879Y-111052522D01*
X119557322Y-111051190D01*
X119788910Y-111068129D01*
X120016708Y-111102886D01*
X120239781Y-111155009D01*
X120457196Y-111224043D01*
X120668018Y-111309535D01*
X120871314Y-111411032D01*
X121066150Y-111528081D01*
X121251590Y-111660227D01*
X121426702Y-111807018D01*
X121590552Y-111968000D01*
X121742204Y-112142719D01*
X121880725Y-112330722D01*
X122005181Y-112531556D01*
X122084945Y-112682603D01*
X122162486Y-112850642D01*
X122226153Y-113012388D01*
X122277876Y-113173424D01*
X122319580Y-113339334D01*
X122331752Y-113397510D01*
X122337402Y-113425586D01*
X122342648Y-113451599D01*
X122347505Y-113476326D01*
X122351989Y-113500546D01*
X122356114Y-113525035D01*
X122359895Y-113550570D01*
X122363347Y-113577929D01*
X122366485Y-113607890D01*
X122369324Y-113641229D01*
X122371879Y-113678725D01*
X122374165Y-113721153D01*
X122376197Y-113769292D01*
X122377989Y-113823920D01*
X122379557Y-113885812D01*
X122380915Y-113955748D01*
X122382079Y-114034503D01*
X122383063Y-114122855D01*
X122383883Y-114221583D01*
X122384553Y-114331462D01*
X122385088Y-114453271D01*
X122385503Y-114587786D01*
X122385813Y-114735786D01*
X122386034Y-114898046D01*
X122386179Y-115075346D01*
X122386264Y-115268462D01*
X122386304Y-115478171D01*
X122386314Y-115705250D01*
X122701227Y-115705250D01*
X122701345Y-115497855D01*
X122701395Y-115263304D01*
X122701350Y-115046974D01*
X122701209Y-114848481D01*
X122700971Y-114667438D01*
X122700635Y-114503459D01*
X122700199Y-114356158D01*
X122699663Y-114225149D01*
X122699025Y-114110046D01*
X122698284Y-114010463D01*
X122697439Y-113926015D01*
X122696488Y-113856314D01*
X122695431Y-113800975D01*
X122694266Y-113759612D01*
X122692992Y-113731840D01*
X122692623Y-113726546D01*
X122663698Y-113478748D01*
X122616259Y-113236452D01*
X122550991Y-113000464D01*
X122468580Y-112771591D01*
X122369712Y-112550641D01*
X122255073Y-112338418D01*
X122125350Y-112135730D01*
X121981227Y-111943383D01*
X121823392Y-111762184D01*
X121652529Y-111592939D01*
X121469326Y-111436456D01*
X121274467Y-111293539D01*
X121068640Y-111164997D01*
X120852529Y-111051635D01*
X120626821Y-110954260D01*
X120392203Y-110873679D01*
X120228178Y-110828951D01*
X120072061Y-110794103D01*
X119923436Y-110768362D01*
X119775728Y-110750953D01*
X119622367Y-110741102D01*
X119456779Y-110738037D01*
X119455913Y-110738038D01*
X119455913Y-110738038D01*
G37*
X119455913Y-110738038D02*
X119314143Y-110740279D01*
X119184624Y-110747289D01*
X119060269Y-110759755D01*
X118933989Y-110778363D01*
X118818442Y-110799802D01*
X118575117Y-110858385D01*
X118339455Y-110934732D01*
X118112190Y-111028093D01*
X117894058Y-111137721D01*
X117685792Y-111262865D01*
X117488127Y-111402778D01*
X117301798Y-111556709D01*
X117127539Y-111723912D01*
X116966085Y-111903636D01*
X116818169Y-112095132D01*
X116684528Y-112297653D01*
X116565894Y-112510449D01*
X116463003Y-112732770D01*
X116376589Y-112963870D01*
X116307386Y-113202997D01*
X116264084Y-113404082D01*
X116259061Y-113431322D01*
X116254387Y-113456619D01*
X116250049Y-113480724D01*
X116246035Y-113504386D01*
X116242331Y-113528359D01*
X116238926Y-113553391D01*
X116235807Y-113580235D01*
X116232961Y-113609642D01*
X116230376Y-113642362D01*
X116228040Y-113679146D01*
X116225939Y-113720746D01*
X116224061Y-113767913D01*
X116222395Y-113821397D01*
X116220927Y-113881949D01*
X116219644Y-113950321D01*
X116218535Y-114027264D01*
X116217587Y-114113528D01*
X116216787Y-114209865D01*
X116216123Y-114317025D01*
X116215582Y-114435760D01*
X116215152Y-114566821D01*
X116214820Y-114710958D01*
X116214574Y-114868922D01*
X116214401Y-115041466D01*
X116214289Y-115229339D01*
X116214225Y-115433292D01*
X116214197Y-115654078D01*
X116214191Y-115892446D01*
X116214197Y-116149148D01*
X116214201Y-116398712D01*
X116214180Y-116672623D01*
X116214132Y-116927485D01*
X116214075Y-117164015D01*
X116214029Y-117382931D01*
X116214014Y-117584950D01*
X116214050Y-117770791D01*
X116214156Y-117941169D01*
X116214352Y-118096803D01*
X116214657Y-118238411D01*
X116215093Y-118366708D01*
X116215677Y-118482415D01*
X116216430Y-118586246D01*
X116217371Y-118678921D01*
X116218521Y-118761156D01*
X116219898Y-118833669D01*
X116221523Y-118897177D01*
X116223415Y-118952399D01*
X116225594Y-119000050D01*
X116228080Y-119040849D01*
X116230892Y-119075514D01*
X116234050Y-119104761D01*
X116237573Y-119129308D01*
X116241482Y-119149873D01*
X116245795Y-119167173D01*
X116250534Y-119181925D01*
X116255716Y-119194848D01*
X116261363Y-119206657D01*
X116267494Y-119218072D01*
X116274128Y-119229809D01*
X116281285Y-119242585D01*
X116288984Y-119257119D01*
X116292845Y-119264860D01*
X116355221Y-119370791D01*
X116432303Y-119464177D01*
X116522604Y-119543809D01*
X116624635Y-119608480D01*
X116736909Y-119656979D01*
X116797628Y-119675096D01*
X116876548Y-119689208D01*
X116965435Y-119695090D01*
X117056286Y-119692742D01*
X117141098Y-119682165D01*
X117173768Y-119675074D01*
X117289099Y-119636088D01*
X117395370Y-119580224D01*
X117491215Y-119508809D01*
X117575271Y-119423171D01*
X117646171Y-119324639D01*
X117702552Y-119214540D01*
X117732690Y-119131166D01*
X117737328Y-119115524D01*
X117741290Y-119100361D01*
X117744639Y-119084028D01*
X117747439Y-119064876D01*
X117749752Y-119041256D01*
X117751642Y-119011522D01*
X117753172Y-118974023D01*
X117754405Y-118927111D01*
X117755405Y-118869139D01*
X117756234Y-118798458D01*
X117756955Y-118713419D01*
X117757633Y-118612373D01*
X117758330Y-118493674D01*
X117758538Y-118456903D01*
X117759194Y-118349989D01*
X117759917Y-118249166D01*
X117760687Y-118156130D01*
X117761486Y-118072580D01*
X117762294Y-118000213D01*
X117763092Y-117940726D01*
X117763862Y-117895817D01*
X117764584Y-117867185D01*
X117765239Y-117856525D01*
X117765273Y-117856494D01*
X117774752Y-117861135D01*
X117796933Y-117873454D01*
X117827517Y-117891050D01*
X117836432Y-117896261D01*
X117932819Y-117942850D01*
X118038213Y-117976195D01*
X118147204Y-117995155D01*
X118254385Y-117998589D01*
X118302215Y-117994563D01*
X118398253Y-117977021D01*
X118490859Y-117949722D01*
X118574669Y-117914550D01*
X118642069Y-117874993D01*
X118661670Y-117862234D01*
X118673430Y-117856517D01*
X118673728Y-117856494D01*
X118674639Y-117866124D01*
X118675589Y-117894000D01*
X118676560Y-117938602D01*
X118677535Y-117998410D01*
X118678496Y-118071902D01*
X118679424Y-118157560D01*
X118680303Y-118253863D01*
X118681113Y-118359290D01*
X118681838Y-118472321D01*
X118682459Y-118591436D01*
X118682522Y-118605152D01*
X118683154Y-118748960D01*
X118683747Y-118874491D01*
X118684414Y-118983237D01*
X118685270Y-119076686D01*
X118686428Y-119156329D01*
X118688002Y-119223655D01*
X118690106Y-119280155D01*
X118692854Y-119327318D01*
X118696361Y-119366634D01*
X118700739Y-119399593D01*
X118706104Y-119427685D01*
X118712569Y-119452401D01*
X118720248Y-119475229D01*
X118729255Y-119497659D01*
X118739704Y-119521182D01*
X118751709Y-119547288D01*
X118755170Y-119554838D01*
X118815090Y-119663175D01*
X118889185Y-119758350D01*
X118976134Y-119839479D01*
X119074618Y-119905675D01*
X119183320Y-119956052D01*
X119300919Y-119989725D01*
X119426097Y-120005808D01*
X119426768Y-120005844D01*
X119513822Y-120005434D01*
X119592272Y-119996003D01*
X119713390Y-119963512D01*
X119824934Y-119913738D01*
X119926755Y-119846762D01*
X120018707Y-119762664D01*
X120021025Y-119760185D01*
X120086596Y-119681759D01*
X120137918Y-119600900D01*
X120179113Y-119510657D01*
X120194663Y-119467467D01*
X120226279Y-119373576D01*
X120236691Y-118469440D01*
X120281166Y-118499010D01*
X120345678Y-118535181D01*
X120422767Y-118567576D01*
X120505267Y-118593391D01*
X120547610Y-118603221D01*
X120649684Y-118615305D01*
X120756903Y-118612548D01*
X120864612Y-118595882D01*
X120968157Y-118566239D01*
X121062883Y-118524552D01*
X121122250Y-118488142D01*
X121147964Y-118469997D01*
X121154039Y-118600580D01*
X121160077Y-118688307D01*
X121169942Y-118762091D01*
X121184740Y-118827567D01*
X121205578Y-118890372D01*
X121216072Y-118916532D01*
X121267842Y-119016074D01*
X121335906Y-119109264D01*
X121417001Y-119192614D01*
X121507864Y-119262637D01*
X121577473Y-119302829D01*
X121651561Y-119336968D01*
X121718262Y-119360483D01*
X121785342Y-119375445D01*
X121860569Y-119383921D01*
X121888383Y-119385641D01*
X122012176Y-119382713D01*
X122130617Y-119361403D01*
X122242239Y-119322707D01*
X122345578Y-119267624D01*
X122439167Y-119197151D01*
X122521541Y-119112287D01*
X122591235Y-119014028D01*
X122646783Y-118903373D01*
X122664150Y-118857495D01*
X122697625Y-118760813D01*
X122700640Y-116314704D01*
X122700967Y-116023170D01*
X122701202Y-115751016D01*
X122701227Y-115705250D01*
X122386314Y-115705250D01*
X122386308Y-115950478D01*
X122386302Y-116214631D01*
X122386302Y-116237168D01*
X122386299Y-116497583D01*
X122386285Y-116738973D01*
X122386256Y-116962078D01*
X122386205Y-117167641D01*
X122386128Y-117356401D01*
X122386018Y-117529101D01*
X122385870Y-117686482D01*
X122385679Y-117829285D01*
X122385439Y-117958250D01*
X122385144Y-118074119D01*
X122384790Y-118177634D01*
X122384370Y-118269536D01*
X122383880Y-118350565D01*
X122383312Y-118421463D01*
X122382663Y-118482971D01*
X122381927Y-118535830D01*
X122381097Y-118580782D01*
X122380169Y-118618567D01*
X122379137Y-118649927D01*
X122377996Y-118675603D01*
X122376739Y-118696336D01*
X122375362Y-118712868D01*
X122373859Y-118725939D01*
X122372225Y-118736291D01*
X122370453Y-118744665D01*
X122368539Y-118751802D01*
X122367578Y-118754973D01*
X122330894Y-118840564D01*
X122278089Y-118915920D01*
X122210860Y-118979364D01*
X122130904Y-119029217D01*
X122061740Y-119057285D01*
X122027165Y-119066067D01*
X121988096Y-119070601D01*
X121938524Y-119071406D01*
X121907649Y-119070562D01*
X121859476Y-119068233D01*
X121824218Y-119064392D01*
X121795022Y-119057441D01*
X121765037Y-119045778D01*
X121730007Y-119029091D01*
X121649265Y-118978773D01*
X121581242Y-118914829D01*
X121527699Y-118839500D01*
X121490397Y-118755027D01*
X121478047Y-118708440D01*
X121475032Y-118683179D01*
X121472470Y-118639160D01*
X121470382Y-118577385D01*
X121468794Y-118498859D01*
X121467728Y-118404584D01*
X121467208Y-118295563D01*
X121467158Y-118246146D01*
X121467158Y-117836226D01*
X121311497Y-117838948D01*
X121155835Y-117841669D01*
X121148872Y-117904804D01*
X121129898Y-117989390D01*
X121093322Y-118069373D01*
X121041228Y-118141930D01*
X120975701Y-118204238D01*
X120898824Y-118253475D01*
X120887161Y-118259219D01*
X120846102Y-118277595D01*
X120812251Y-118289006D01*
X120777309Y-118295450D01*
X120732978Y-118298922D01*
X120719467Y-118299558D01*
X120665687Y-118300514D01*
X120622905Y-118297355D01*
X120582618Y-118289196D01*
X120560991Y-118283037D01*
X120473550Y-118246583D01*
X120397086Y-118194777D01*
X120333269Y-118129556D01*
X120283772Y-118052857D01*
X120250265Y-117966617D01*
X120238228Y-117909022D01*
X120227744Y-117836246D01*
X120074085Y-117838958D01*
X119920427Y-117841669D01*
X119915485Y-118592798D01*
X119914513Y-118734612D01*
X119913567Y-118858006D01*
X119912612Y-118964328D01*
X119911612Y-119054925D01*
X119910531Y-119131142D01*
X119909335Y-119194328D01*
X119907989Y-119245830D01*
X119906456Y-119286994D01*
X119904703Y-119319167D01*
X119902692Y-119343696D01*
X119900389Y-119361929D01*
X119897760Y-119375212D01*
X119894767Y-119384891D01*
X119894713Y-119385032D01*
X119851483Y-119472116D01*
X119794827Y-119546456D01*
X119726764Y-119606927D01*
X119649308Y-119652403D01*
X119564477Y-119681756D01*
X119474287Y-119693862D01*
X119380753Y-119687594D01*
X119360038Y-119683661D01*
X119276514Y-119656234D01*
X119199173Y-119612157D01*
X119130724Y-119554137D01*
X119073873Y-119484880D01*
X119031328Y-119407091D01*
X119007308Y-119331086D01*
X119005302Y-119313422D01*
X119003512Y-119280334D01*
X119001932Y-119231380D01*
X119000559Y-119166116D01*
X118999388Y-119084103D01*
X118998413Y-118984896D01*
X118997632Y-118868055D01*
X118997039Y-118733137D01*
X118996629Y-118579700D01*
X118996399Y-118407302D01*
X118996341Y-118251339D01*
X118996341Y-117223965D01*
X118680076Y-117223965D01*
X118680076Y-117262618D01*
X118674530Y-117309842D01*
X118659561Y-117365250D01*
X118637673Y-117421263D01*
X118611529Y-117470056D01*
X118553270Y-117543846D01*
X118484390Y-117602503D01*
X118407318Y-117645709D01*
X118324484Y-117673147D01*
X118238319Y-117684496D01*
X118151252Y-117679441D01*
X118065712Y-117657661D01*
X117984131Y-117618840D01*
X117908939Y-117562658D01*
X117908365Y-117562134D01*
X117860134Y-117508675D01*
X117818692Y-117444855D01*
X117786657Y-117376114D01*
X117766648Y-117307891D01*
X117761050Y-117256086D01*
X117760932Y-117223965D01*
X117444668Y-117223965D01*
X117444426Y-118106047D01*
X117444266Y-118271108D01*
X117443885Y-118421708D01*
X117443289Y-118557239D01*
X117442485Y-118677094D01*
X117441479Y-118780666D01*
X117440279Y-118867347D01*
X117438892Y-118936529D01*
X117437323Y-118987607D01*
X117435580Y-119019972D01*
X117434193Y-119031470D01*
X117407128Y-119108644D01*
X117363855Y-119182933D01*
X117307879Y-119250010D01*
X117242706Y-119305551D01*
X117184392Y-119339673D01*
X117094654Y-119371489D01*
X117004074Y-119384563D01*
X116914875Y-119379679D01*
X116829282Y-119357620D01*
X116749517Y-119319172D01*
X116677804Y-119265119D01*
X116616367Y-119196245D01*
X116572446Y-119123757D01*
X116530466Y-119039038D01*
X116527405Y-116458758D01*
X116527083Y-116162946D01*
X116526843Y-115886472D01*
X116526687Y-115628910D01*
X116526615Y-115389831D01*
X116526630Y-115168809D01*
X116526732Y-114965415D01*
X116526922Y-114779223D01*
X116527203Y-114609804D01*
X116527574Y-114456731D01*
X116528038Y-114319576D01*
X116528595Y-114197913D01*
X116529248Y-114091313D01*
X116529997Y-113999348D01*
X116530843Y-113921592D01*
X116531788Y-113857617D01*
X116532833Y-113806995D01*
X116533980Y-113769299D01*
X116535229Y-113744101D01*
X116535524Y-113740113D01*
X116564506Y-113500703D01*
X116612282Y-113267369D01*
X116678872Y-113040058D01*
X116764296Y-112818715D01*
X116868571Y-112603288D01*
X116991720Y-112393723D01*
X117072744Y-112273506D01*
X117212120Y-112093200D01*
X117366983Y-111923927D01*
X117535782Y-111766701D01*
X117716962Y-111622538D01*
X117908972Y-111492454D01*
X118110258Y-111377463D01*
X118319266Y-111278583D01*
X118534445Y-111196827D01*
X118754241Y-111133213D01*
X118849159Y-111111818D01*
X119086513Y-111072581D01*
X119322879Y-111052522D01*
X119557322Y-111051190D01*
X119788910Y-111068129D01*
X120016708Y-111102886D01*
X120239781Y-111155009D01*
X120457196Y-111224043D01*
X120668018Y-111309535D01*
X120871314Y-111411032D01*
X121066150Y-111528081D01*
X121251590Y-111660227D01*
X121426702Y-111807018D01*
X121590552Y-111968000D01*
X121742204Y-112142719D01*
X121880725Y-112330722D01*
X122005181Y-112531556D01*
X122084945Y-112682603D01*
X122162486Y-112850642D01*
X122226153Y-113012388D01*
X122277876Y-113173424D01*
X122319580Y-113339334D01*
X122331752Y-113397510D01*
X122337402Y-113425586D01*
X122342648Y-113451599D01*
X122347505Y-113476326D01*
X122351989Y-113500546D01*
X122356114Y-113525035D01*
X122359895Y-113550570D01*
X122363347Y-113577929D01*
X122366485Y-113607890D01*
X122369324Y-113641229D01*
X122371879Y-113678725D01*
X122374165Y-113721153D01*
X122376197Y-113769292D01*
X122377989Y-113823920D01*
X122379557Y-113885812D01*
X122380915Y-113955748D01*
X122382079Y-114034503D01*
X122383063Y-114122855D01*
X122383883Y-114221583D01*
X122384553Y-114331462D01*
X122385088Y-114453271D01*
X122385503Y-114587786D01*
X122385813Y-114735786D01*
X122386034Y-114898046D01*
X122386179Y-115075346D01*
X122386264Y-115268462D01*
X122386304Y-115478171D01*
X122386314Y-115705250D01*
X122701227Y-115705250D01*
X122701345Y-115497855D01*
X122701395Y-115263304D01*
X122701350Y-115046974D01*
X122701209Y-114848481D01*
X122700971Y-114667438D01*
X122700635Y-114503459D01*
X122700199Y-114356158D01*
X122699663Y-114225149D01*
X122699025Y-114110046D01*
X122698284Y-114010463D01*
X122697439Y-113926015D01*
X122696488Y-113856314D01*
X122695431Y-113800975D01*
X122694266Y-113759612D01*
X122692992Y-113731840D01*
X122692623Y-113726546D01*
X122663698Y-113478748D01*
X122616259Y-113236452D01*
X122550991Y-113000464D01*
X122468580Y-112771591D01*
X122369712Y-112550641D01*
X122255073Y-112338418D01*
X122125350Y-112135730D01*
X121981227Y-111943383D01*
X121823392Y-111762184D01*
X121652529Y-111592939D01*
X121469326Y-111436456D01*
X121274467Y-111293539D01*
X121068640Y-111164997D01*
X120852529Y-111051635D01*
X120626821Y-110954260D01*
X120392203Y-110873679D01*
X120228178Y-110828951D01*
X120072061Y-110794103D01*
X119923436Y-110768362D01*
X119775728Y-110750953D01*
X119622367Y-110741102D01*
X119456779Y-110738037D01*
X119455913Y-110738038D01*
G36*
X115266415Y-115507400D02*
X115247675Y-115518207D01*
X115228110Y-115538853D01*
X115206015Y-115571492D01*
X115179681Y-115618280D01*
X115150300Y-115675555D01*
X115126410Y-115723278D01*
X115105792Y-115764289D01*
X115089980Y-115795552D01*
X115080508Y-115814029D01*
X115078494Y-115817729D01*
X115068619Y-115819820D01*
X115042449Y-115824256D01*
X115003244Y-115830513D01*
X114954268Y-115838069D01*
X114914331Y-115844087D01*
X114847159Y-115854630D01*
X114797135Y-115864274D01*
X114761763Y-115874331D01*
X114738548Y-115886111D01*
X114724996Y-115900926D01*
X114718610Y-115920084D01*
X114716896Y-115944899D01*
X114716886Y-115947809D01*
X114717993Y-115962493D01*
X114722662Y-115976848D01*
X114732918Y-115993533D01*
X114750785Y-116015211D01*
X114778286Y-116044543D01*
X114817445Y-116084190D01*
X114830543Y-116097273D01*
X114876753Y-116144233D01*
X114909681Y-116179937D01*
X114930847Y-116206230D01*
X114941766Y-116224959D01*
X114944148Y-116235477D01*
X114942430Y-116254214D01*
X114937765Y-116287927D01*
X114930825Y-116332162D01*
X114922280Y-116382463D01*
X114920409Y-116393019D01*
X114912079Y-116442928D01*
X114905861Y-116486663D01*
X114902256Y-116520138D01*
X114901767Y-116539268D01*
X114902169Y-116541268D01*
X114912590Y-116559827D01*
X114927630Y-116579082D01*
X114944933Y-116593665D01*
X114965607Y-116600446D01*
X114992216Y-116598872D01*
X115027325Y-116588391D01*
X115073497Y-116568450D01*
X115133297Y-116538496D01*
X115145443Y-116532136D01*
X115192036Y-116507943D01*
X115232675Y-116487441D01*
X115264059Y-116472248D01*
X115282887Y-116463984D01*
X115286484Y-116462954D01*
X115298161Y-116467355D01*
X115323951Y-116479476D01*
X115360552Y-116497690D01*
X115404659Y-116520372D01*
X115427086Y-116532136D01*
X115487864Y-116563142D01*
X115534977Y-116584342D01*
X115571380Y-116596630D01*
X115600028Y-116600901D01*
X115623874Y-116598050D01*
X115633767Y-116594704D01*
X115646801Y-116582950D01*
X115660834Y-116561596D01*
X115661152Y-116560986D01*
X115666460Y-116548705D01*
X115669343Y-116534588D01*
X115669583Y-116515309D01*
X115666965Y-116487544D01*
X115661273Y-116447964D01*
X115652291Y-116393244D01*
X115649001Y-116373840D01*
X115622026Y-116215358D01*
X115739721Y-116097356D01*
X115783336Y-116053269D01*
X115814712Y-116020347D01*
X115835823Y-115996019D01*
X115848643Y-115977716D01*
X115855149Y-115962866D01*
X115857316Y-115948900D01*
X115857415Y-115944203D01*
X115855622Y-115919874D01*
X115848590Y-115900932D01*
X115833839Y-115886115D01*
X115808889Y-115874165D01*
X115771260Y-115863821D01*
X115718472Y-115853822D01*
X115662193Y-115845006D01*
X115608664Y-115836692D01*
X115561730Y-115828797D01*
X115525021Y-115821979D01*
X115502168Y-115816894D01*
X115496715Y-115815013D01*
X115488608Y-115804042D01*
X115473870Y-115778528D01*
X115454307Y-115741804D01*
X115431726Y-115697200D01*
X115421193Y-115675720D01*
X115389090Y-115612249D01*
X115362094Y-115565425D01*
X115338656Y-115533284D01*
X115317229Y-115513862D01*
X115296264Y-115505194D01*
X115286040Y-115504276D01*
X115266415Y-115507400D01*
X115266415Y-115507400D01*
G37*
X115266415Y-115507400D02*
X115247675Y-115518207D01*
X115228110Y-115538853D01*
X115206015Y-115571492D01*
X115179681Y-115618280D01*
X115150300Y-115675555D01*
X115126410Y-115723278D01*
X115105792Y-115764289D01*
X115089980Y-115795552D01*
X115080508Y-115814029D01*
X115078494Y-115817729D01*
X115068619Y-115819820D01*
X115042449Y-115824256D01*
X115003244Y-115830513D01*
X114954268Y-115838069D01*
X114914331Y-115844087D01*
X114847159Y-115854630D01*
X114797135Y-115864274D01*
X114761763Y-115874331D01*
X114738548Y-115886111D01*
X114724996Y-115900926D01*
X114718610Y-115920084D01*
X114716896Y-115944899D01*
X114716886Y-115947809D01*
X114717993Y-115962493D01*
X114722662Y-115976848D01*
X114732918Y-115993533D01*
X114750785Y-116015211D01*
X114778286Y-116044543D01*
X114817445Y-116084190D01*
X114830543Y-116097273D01*
X114876753Y-116144233D01*
X114909681Y-116179937D01*
X114930847Y-116206230D01*
X114941766Y-116224959D01*
X114944148Y-116235477D01*
X114942430Y-116254214D01*
X114937765Y-116287927D01*
X114930825Y-116332162D01*
X114922280Y-116382463D01*
X114920409Y-116393019D01*
X114912079Y-116442928D01*
X114905861Y-116486663D01*
X114902256Y-116520138D01*
X114901767Y-116539268D01*
X114902169Y-116541268D01*
X114912590Y-116559827D01*
X114927630Y-116579082D01*
X114944933Y-116593665D01*
X114965607Y-116600446D01*
X114992216Y-116598872D01*
X115027325Y-116588391D01*
X115073497Y-116568450D01*
X115133297Y-116538496D01*
X115145443Y-116532136D01*
X115192036Y-116507943D01*
X115232675Y-116487441D01*
X115264059Y-116472248D01*
X115282887Y-116463984D01*
X115286484Y-116462954D01*
X115298161Y-116467355D01*
X115323951Y-116479476D01*
X115360552Y-116497690D01*
X115404659Y-116520372D01*
X115427086Y-116532136D01*
X115487864Y-116563142D01*
X115534977Y-116584342D01*
X115571380Y-116596630D01*
X115600028Y-116600901D01*
X115623874Y-116598050D01*
X115633767Y-116594704D01*
X115646801Y-116582950D01*
X115660834Y-116561596D01*
X115661152Y-116560986D01*
X115666460Y-116548705D01*
X115669343Y-116534588D01*
X115669583Y-116515309D01*
X115666965Y-116487544D01*
X115661273Y-116447964D01*
X115652291Y-116393244D01*
X115649001Y-116373840D01*
X115622026Y-116215358D01*
X115739721Y-116097356D01*
X115783336Y-116053269D01*
X115814712Y-116020347D01*
X115835823Y-115996019D01*
X115848643Y-115977716D01*
X115855149Y-115962866D01*
X115857316Y-115948900D01*
X115857415Y-115944203D01*
X115855622Y-115919874D01*
X115848590Y-115900932D01*
X115833839Y-115886115D01*
X115808889Y-115874165D01*
X115771260Y-115863821D01*
X115718472Y-115853822D01*
X115662193Y-115845006D01*
X115608664Y-115836692D01*
X115561730Y-115828797D01*
X115525021Y-115821979D01*
X115502168Y-115816894D01*
X115496715Y-115815013D01*
X115488608Y-115804042D01*
X115473870Y-115778528D01*
X115454307Y-115741804D01*
X115431726Y-115697200D01*
X115421193Y-115675720D01*
X115389090Y-115612249D01*
X115362094Y-115565425D01*
X115338656Y-115533284D01*
X115317229Y-115513862D01*
X115296264Y-115505194D01*
X115286040Y-115504276D01*
X115266415Y-115507400D01*
G36*
X123605088Y-114086354D02*
X123591950Y-114093451D01*
X123578337Y-114107315D01*
X123562352Y-114130737D01*
X123542101Y-114166506D01*
X123515688Y-114217412D01*
X123514667Y-114219426D01*
X123491811Y-114264272D01*
X123472086Y-114302458D01*
X123457219Y-114330682D01*
X123448936Y-114345637D01*
X123447943Y-114347097D01*
X123437535Y-114349742D01*
X123412056Y-114354462D01*
X123376005Y-114360555D01*
X123333880Y-114367318D01*
X123290182Y-114374048D01*
X123249409Y-114380042D01*
X123216060Y-114384596D01*
X123194635Y-114387009D01*
X123191181Y-114387211D01*
X123170428Y-114396281D01*
X123151418Y-114417915D01*
X123139300Y-114445204D01*
X123137431Y-114459337D01*
X123139334Y-114473984D01*
X123146441Y-114489973D01*
X123160851Y-114510068D01*
X123184659Y-114537033D01*
X123219964Y-114573634D01*
X123237792Y-114591608D01*
X123338153Y-114692312D01*
X123315508Y-114831120D01*
X123306698Y-114886215D01*
X123301136Y-114925389D01*
X123298685Y-114952198D01*
X123299207Y-114970194D01*
X123302563Y-114982933D01*
X123308617Y-114993967D01*
X123309163Y-114994806D01*
X123323893Y-115013181D01*
X123340715Y-115023308D01*
X123362561Y-115024811D01*
X123392363Y-115017319D01*
X123433053Y-115000459D01*
X123487564Y-114973857D01*
X123492162Y-114971525D01*
X123537561Y-114949165D01*
X123578000Y-114930563D01*
X123609565Y-114917426D01*
X123628342Y-114911462D01*
X123630216Y-114911280D01*
X123646053Y-114915719D01*
X123675235Y-114927841D01*
X123713758Y-114945852D01*
X123757618Y-114967959D01*
X123762626Y-114970580D01*
X123806353Y-114992958D01*
X123844661Y-115011472D01*
X123873721Y-115024346D01*
X123889706Y-115029807D01*
X123890594Y-115029880D01*
X123908409Y-115024097D01*
X123930781Y-115010112D01*
X123931701Y-115009396D01*
X123944170Y-114997886D01*
X123952339Y-114984326D01*
X123956298Y-114965599D01*
X123956137Y-114938590D01*
X123951947Y-114900181D01*
X123943817Y-114847257D01*
X123937495Y-114809633D01*
X123917248Y-114690964D01*
X124022652Y-114584001D01*
X124063270Y-114542408D01*
X124091676Y-114512014D01*
X124109795Y-114490204D01*
X124119551Y-114474361D01*
X124122870Y-114461869D01*
X124121675Y-114450110D01*
X124121544Y-114449548D01*
X124109448Y-114423307D01*
X124089555Y-114400563D01*
X124068152Y-114387994D01*
X124062892Y-114387211D01*
X124045874Y-114385600D01*
X124015579Y-114381637D01*
X123976503Y-114376023D01*
X123933140Y-114369456D01*
X123889985Y-114362638D01*
X123851532Y-114356268D01*
X123822278Y-114351046D01*
X123806715Y-114347671D01*
X123805376Y-114347112D01*
X123799744Y-114337165D01*
X123787238Y-114312843D01*
X123769583Y-114277568D01*
X123748508Y-114234762D01*
X123743594Y-114224696D01*
X123714040Y-114166665D01*
X123689388Y-114125268D01*
X123667721Y-114098588D01*
X123647118Y-114084706D01*
X123625658Y-114081705D01*
X123605088Y-114086354D01*
X123605088Y-114086354D01*
G37*
X123605088Y-114086354D02*
X123591950Y-114093451D01*
X123578337Y-114107315D01*
X123562352Y-114130737D01*
X123542101Y-114166506D01*
X123515688Y-114217412D01*
X123514667Y-114219426D01*
X123491811Y-114264272D01*
X123472086Y-114302458D01*
X123457219Y-114330682D01*
X123448936Y-114345637D01*
X123447943Y-114347097D01*
X123437535Y-114349742D01*
X123412056Y-114354462D01*
X123376005Y-114360555D01*
X123333880Y-114367318D01*
X123290182Y-114374048D01*
X123249409Y-114380042D01*
X123216060Y-114384596D01*
X123194635Y-114387009D01*
X123191181Y-114387211D01*
X123170428Y-114396281D01*
X123151418Y-114417915D01*
X123139300Y-114445204D01*
X123137431Y-114459337D01*
X123139334Y-114473984D01*
X123146441Y-114489973D01*
X123160851Y-114510068D01*
X123184659Y-114537033D01*
X123219964Y-114573634D01*
X123237792Y-114591608D01*
X123338153Y-114692312D01*
X123315508Y-114831120D01*
X123306698Y-114886215D01*
X123301136Y-114925389D01*
X123298685Y-114952198D01*
X123299207Y-114970194D01*
X123302563Y-114982933D01*
X123308617Y-114993967D01*
X123309163Y-114994806D01*
X123323893Y-115013181D01*
X123340715Y-115023308D01*
X123362561Y-115024811D01*
X123392363Y-115017319D01*
X123433053Y-115000459D01*
X123487564Y-114973857D01*
X123492162Y-114971525D01*
X123537561Y-114949165D01*
X123578000Y-114930563D01*
X123609565Y-114917426D01*
X123628342Y-114911462D01*
X123630216Y-114911280D01*
X123646053Y-114915719D01*
X123675235Y-114927841D01*
X123713758Y-114945852D01*
X123757618Y-114967959D01*
X123762626Y-114970580D01*
X123806353Y-114992958D01*
X123844661Y-115011472D01*
X123873721Y-115024346D01*
X123889706Y-115029807D01*
X123890594Y-115029880D01*
X123908409Y-115024097D01*
X123930781Y-115010112D01*
X123931701Y-115009396D01*
X123944170Y-114997886D01*
X123952339Y-114984326D01*
X123956298Y-114965599D01*
X123956137Y-114938590D01*
X123951947Y-114900181D01*
X123943817Y-114847257D01*
X123937495Y-114809633D01*
X123917248Y-114690964D01*
X124022652Y-114584001D01*
X124063270Y-114542408D01*
X124091676Y-114512014D01*
X124109795Y-114490204D01*
X124119551Y-114474361D01*
X124122870Y-114461869D01*
X124121675Y-114450110D01*
X124121544Y-114449548D01*
X124109448Y-114423307D01*
X124089555Y-114400563D01*
X124068152Y-114387994D01*
X124062892Y-114387211D01*
X124045874Y-114385600D01*
X124015579Y-114381637D01*
X123976503Y-114376023D01*
X123933140Y-114369456D01*
X123889985Y-114362638D01*
X123851532Y-114356268D01*
X123822278Y-114351046D01*
X123806715Y-114347671D01*
X123805376Y-114347112D01*
X123799744Y-114337165D01*
X123787238Y-114312843D01*
X123769583Y-114277568D01*
X123748508Y-114234762D01*
X123743594Y-114224696D01*
X123714040Y-114166665D01*
X123689388Y-114125268D01*
X123667721Y-114098588D01*
X123647118Y-114084706D01*
X123625658Y-114081705D01*
X123605088Y-114086354D01*
G36*
X123288804Y-111363787D02*
X123276373Y-111368955D01*
X123264999Y-111377221D01*
X123253024Y-111391101D01*
X123238794Y-111413111D01*
X123220652Y-111445771D01*
X123196943Y-111491595D01*
X123171573Y-111541982D01*
X123144865Y-111594276D01*
X123120568Y-111639877D01*
X123100226Y-111676042D01*
X123085386Y-111700027D01*
X123077593Y-111709088D01*
X123077454Y-111709101D01*
X123058130Y-111710715D01*
X123024512Y-111715109D01*
X122980610Y-111721610D01*
X122930435Y-111729547D01*
X122877996Y-111738249D01*
X122827303Y-111747042D01*
X122782367Y-111755256D01*
X122747198Y-111762218D01*
X122725805Y-111767257D01*
X122721787Y-111768693D01*
X122696478Y-111792568D01*
X122684188Y-111830557D01*
X122682800Y-111853580D01*
X122683674Y-111867683D01*
X122687601Y-111881106D01*
X122696542Y-111896289D01*
X122712457Y-111915673D01*
X122737308Y-111941698D01*
X122773055Y-111976804D01*
X122811283Y-112013516D01*
X122860187Y-112060953D01*
X122895831Y-112097260D01*
X122919843Y-112124311D01*
X122933847Y-112143981D01*
X122939469Y-112158145D01*
X122939765Y-112161638D01*
X122938106Y-112179985D01*
X122933535Y-112213681D01*
X122926665Y-112258625D01*
X122918109Y-112310715D01*
X122913610Y-112336889D01*
X122902647Y-112403245D01*
X122896158Y-112453417D01*
X122894258Y-112490501D01*
X122897066Y-112517593D01*
X122904698Y-112537789D01*
X122917271Y-112554186D01*
X122921982Y-112558789D01*
X122939760Y-112571794D01*
X122960080Y-112578078D01*
X122985455Y-112577021D01*
X123018394Y-112568001D01*
X123061410Y-112550397D01*
X123117013Y-112523589D01*
X123165748Y-112498502D01*
X123319306Y-112418175D01*
X123473985Y-112498502D01*
X123540196Y-112532179D01*
X123591887Y-112556361D01*
X123631589Y-112571550D01*
X123661831Y-112578252D01*
X123685144Y-112576971D01*
X123704058Y-112568210D01*
X123721105Y-112552473D01*
X123724606Y-112548421D01*
X123735802Y-112534395D01*
X123743436Y-112521029D01*
X123747519Y-112505109D01*
X123748066Y-112483420D01*
X123745089Y-112452745D01*
X123738602Y-112409870D01*
X123728618Y-112351580D01*
X123725485Y-112333695D01*
X123716562Y-112280942D01*
X123709073Y-112233079D01*
X123703659Y-112194482D01*
X123700962Y-112169528D01*
X123700777Y-112165086D01*
X123703367Y-112151904D01*
X123712365Y-112135440D01*
X123729613Y-112113461D01*
X123756952Y-112083736D01*
X123796224Y-112044031D01*
X123819560Y-112021060D01*
X123859788Y-111981181D01*
X123895383Y-111944960D01*
X123923749Y-111915110D01*
X123942291Y-111894346D01*
X123948042Y-111886657D01*
X123956845Y-111851475D01*
X123950830Y-111814117D01*
X123931994Y-111782268D01*
X123917882Y-111770491D01*
X123904038Y-111766190D01*
X123874635Y-111759660D01*
X123833661Y-111751589D01*
X123785108Y-111742666D01*
X123732965Y-111733579D01*
X123681222Y-111725017D01*
X123633870Y-111717668D01*
X123594898Y-111712221D01*
X123568296Y-111709365D01*
X123562133Y-111709101D01*
X123554819Y-111700692D01*
X123540501Y-111677390D01*
X123520804Y-111642087D01*
X123497354Y-111597676D01*
X123477408Y-111558382D01*
X123451446Y-111507183D01*
X123427367Y-111461184D01*
X123406997Y-111423760D01*
X123392163Y-111398286D01*
X123385926Y-111389232D01*
X123352627Y-111364540D01*
X123313436Y-111358599D01*
X123288804Y-111363787D01*
X123288804Y-111363787D01*
G37*
X123288804Y-111363787D02*
X123276373Y-111368955D01*
X123264999Y-111377221D01*
X123253024Y-111391101D01*
X123238794Y-111413111D01*
X123220652Y-111445771D01*
X123196943Y-111491595D01*
X123171573Y-111541982D01*
X123144865Y-111594276D01*
X123120568Y-111639877D01*
X123100226Y-111676042D01*
X123085386Y-111700027D01*
X123077593Y-111709088D01*
X123077454Y-111709101D01*
X123058130Y-111710715D01*
X123024512Y-111715109D01*
X122980610Y-111721610D01*
X122930435Y-111729547D01*
X122877996Y-111738249D01*
X122827303Y-111747042D01*
X122782367Y-111755256D01*
X122747198Y-111762218D01*
X122725805Y-111767257D01*
X122721787Y-111768693D01*
X122696478Y-111792568D01*
X122684188Y-111830557D01*
X122682800Y-111853580D01*
X122683674Y-111867683D01*
X122687601Y-111881106D01*
X122696542Y-111896289D01*
X122712457Y-111915673D01*
X122737308Y-111941698D01*
X122773055Y-111976804D01*
X122811283Y-112013516D01*
X122860187Y-112060953D01*
X122895831Y-112097260D01*
X122919843Y-112124311D01*
X122933847Y-112143981D01*
X122939469Y-112158145D01*
X122939765Y-112161638D01*
X122938106Y-112179985D01*
X122933535Y-112213681D01*
X122926665Y-112258625D01*
X122918109Y-112310715D01*
X122913610Y-112336889D01*
X122902647Y-112403245D01*
X122896158Y-112453417D01*
X122894258Y-112490501D01*
X122897066Y-112517593D01*
X122904698Y-112537789D01*
X122917271Y-112554186D01*
X122921982Y-112558789D01*
X122939760Y-112571794D01*
X122960080Y-112578078D01*
X122985455Y-112577021D01*
X123018394Y-112568001D01*
X123061410Y-112550397D01*
X123117013Y-112523589D01*
X123165748Y-112498502D01*
X123319306Y-112418175D01*
X123473985Y-112498502D01*
X123540196Y-112532179D01*
X123591887Y-112556361D01*
X123631589Y-112571550D01*
X123661831Y-112578252D01*
X123685144Y-112576971D01*
X123704058Y-112568210D01*
X123721105Y-112552473D01*
X123724606Y-112548421D01*
X123735802Y-112534395D01*
X123743436Y-112521029D01*
X123747519Y-112505109D01*
X123748066Y-112483420D01*
X123745089Y-112452745D01*
X123738602Y-112409870D01*
X123728618Y-112351580D01*
X123725485Y-112333695D01*
X123716562Y-112280942D01*
X123709073Y-112233079D01*
X123703659Y-112194482D01*
X123700962Y-112169528D01*
X123700777Y-112165086D01*
X123703367Y-112151904D01*
X123712365Y-112135440D01*
X123729613Y-112113461D01*
X123756952Y-112083736D01*
X123796224Y-112044031D01*
X123819560Y-112021060D01*
X123859788Y-111981181D01*
X123895383Y-111944960D01*
X123923749Y-111915110D01*
X123942291Y-111894346D01*
X123948042Y-111886657D01*
X123956845Y-111851475D01*
X123950830Y-111814117D01*
X123931994Y-111782268D01*
X123917882Y-111770491D01*
X123904038Y-111766190D01*
X123874635Y-111759660D01*
X123833661Y-111751589D01*
X123785108Y-111742666D01*
X123732965Y-111733579D01*
X123681222Y-111725017D01*
X123633870Y-111717668D01*
X123594898Y-111712221D01*
X123568296Y-111709365D01*
X123562133Y-111709101D01*
X123554819Y-111700692D01*
X123540501Y-111677390D01*
X123520804Y-111642087D01*
X123497354Y-111597676D01*
X123477408Y-111558382D01*
X123451446Y-111507183D01*
X123427367Y-111461184D01*
X123406997Y-111423760D01*
X123392163Y-111398286D01*
X123385926Y-111389232D01*
X123352627Y-111364540D01*
X123313436Y-111358599D01*
X123288804Y-111363787D01*
G36*
X115576349Y-110711845D02*
X115556096Y-110716029D01*
X115537785Y-110725429D01*
X115519772Y-110742029D01*
X115500411Y-110767814D01*
X115478058Y-110804770D01*
X115451068Y-110854881D01*
X115417796Y-110920131D01*
X115404005Y-110947626D01*
X115368523Y-111017247D01*
X115337938Y-111074648D01*
X115313057Y-111118417D01*
X115294686Y-111147142D01*
X115283629Y-111159410D01*
X115283046Y-111159651D01*
X115268273Y-111162689D01*
X115237124Y-111167985D01*
X115192793Y-111175034D01*
X115138474Y-111183333D01*
X115077364Y-111192375D01*
X115059873Y-111194914D01*
X114997499Y-111204232D01*
X114941098Y-111213236D01*
X114893853Y-111221370D01*
X114858949Y-111228079D01*
X114839570Y-111232808D01*
X114837389Y-111233686D01*
X114804072Y-111261360D01*
X114780616Y-111300249D01*
X114777066Y-111310699D01*
X114772775Y-111333359D01*
X114774354Y-111355630D01*
X114783218Y-111379608D01*
X114800780Y-111407392D01*
X114828454Y-111441078D01*
X114867654Y-111482762D01*
X114919794Y-111534542D01*
X114943455Y-111557457D01*
X114988773Y-111601553D01*
X115029531Y-111641992D01*
X115063443Y-111676443D01*
X115088221Y-111702573D01*
X115101578Y-111718049D01*
X115102932Y-111720104D01*
X115105454Y-111733800D01*
X115104511Y-111760281D01*
X115099918Y-111801149D01*
X115091494Y-111858003D01*
X115079055Y-111932445D01*
X115077914Y-111939018D01*
X115067260Y-112001987D01*
X115057919Y-112060501D01*
X115050423Y-112110964D01*
X115045301Y-112149778D01*
X115043084Y-112173348D01*
X115043034Y-112175569D01*
X115052093Y-112214931D01*
X115076099Y-112249049D01*
X115110292Y-112274221D01*
X115149911Y-112286747D01*
X115183631Y-112284859D01*
X115198885Y-112278675D01*
X115228598Y-112264633D01*
X115269803Y-112244209D01*
X115319536Y-112218879D01*
X115374830Y-112190119D01*
X115390347Y-112181948D01*
X115446396Y-112152844D01*
X115497531Y-112127217D01*
X115540842Y-112106450D01*
X115573417Y-112091929D01*
X115592345Y-112085039D01*
X115594826Y-112084666D01*
X115609341Y-112089121D01*
X115638362Y-112101570D01*
X115678988Y-112120640D01*
X115728320Y-112144958D01*
X115783458Y-112173150D01*
X115800976Y-112182303D01*
X115857698Y-112211726D01*
X115909822Y-112238078D01*
X115954356Y-112259899D01*
X115988306Y-112275732D01*
X116008678Y-112284116D01*
X116011594Y-112284942D01*
X116039070Y-112285813D01*
X116067801Y-112281074D01*
X116101933Y-112262584D01*
X116130459Y-112231360D01*
X116146221Y-112197050D01*
X116146270Y-112181003D01*
X116143256Y-112148600D01*
X116137581Y-112102948D01*
X116129645Y-112047151D01*
X116119853Y-111984314D01*
X116114416Y-111951411D01*
X116076897Y-111728543D01*
X116246853Y-111557579D01*
X116299956Y-111504018D01*
X116340683Y-111462376D01*
X116370668Y-111430629D01*
X116391549Y-111406758D01*
X116404962Y-111388741D01*
X116412545Y-111374555D01*
X116415934Y-111362181D01*
X116416765Y-111349595D01*
X116416771Y-111347722D01*
X116410171Y-111308327D01*
X116393026Y-111270689D01*
X116369213Y-111242369D01*
X116359315Y-111235671D01*
X116344240Y-111231315D01*
X116312708Y-111224825D01*
X116267845Y-111216753D01*
X116212777Y-111207652D01*
X116150630Y-111198072D01*
X116124058Y-111194167D01*
X116060447Y-111184609D01*
X116003130Y-111175350D01*
X115955111Y-111166925D01*
X115919393Y-111159873D01*
X115898978Y-111154732D01*
X115895668Y-111153255D01*
X115887877Y-111141831D01*
X115873007Y-111115344D01*
X115852512Y-111076565D01*
X115827844Y-111028260D01*
X115800458Y-110973198D01*
X115791268Y-110954420D01*
X115754521Y-110880401D01*
X115724001Y-110822667D01*
X115698209Y-110779309D01*
X115675646Y-110748417D01*
X115654815Y-110728080D01*
X115634217Y-110716391D01*
X115612353Y-110711438D01*
X115600189Y-110710891D01*
X115576349Y-110711845D01*
X115576349Y-110711845D01*
G37*
X115576349Y-110711845D02*
X115556096Y-110716029D01*
X115537785Y-110725429D01*
X115519772Y-110742029D01*
X115500411Y-110767814D01*
X115478058Y-110804770D01*
X115451068Y-110854881D01*
X115417796Y-110920131D01*
X115404005Y-110947626D01*
X115368523Y-111017247D01*
X115337938Y-111074648D01*
X115313057Y-111118417D01*
X115294686Y-111147142D01*
X115283629Y-111159410D01*
X115283046Y-111159651D01*
X115268273Y-111162689D01*
X115237124Y-111167985D01*
X115192793Y-111175034D01*
X115138474Y-111183333D01*
X115077364Y-111192375D01*
X115059873Y-111194914D01*
X114997499Y-111204232D01*
X114941098Y-111213236D01*
X114893853Y-111221370D01*
X114858949Y-111228079D01*
X114839570Y-111232808D01*
X114837389Y-111233686D01*
X114804072Y-111261360D01*
X114780616Y-111300249D01*
X114777066Y-111310699D01*
X114772775Y-111333359D01*
X114774354Y-111355630D01*
X114783218Y-111379608D01*
X114800780Y-111407392D01*
X114828454Y-111441078D01*
X114867654Y-111482762D01*
X114919794Y-111534542D01*
X114943455Y-111557457D01*
X114988773Y-111601553D01*
X115029531Y-111641992D01*
X115063443Y-111676443D01*
X115088221Y-111702573D01*
X115101578Y-111718049D01*
X115102932Y-111720104D01*
X115105454Y-111733800D01*
X115104511Y-111760281D01*
X115099918Y-111801149D01*
X115091494Y-111858003D01*
X115079055Y-111932445D01*
X115077914Y-111939018D01*
X115067260Y-112001987D01*
X115057919Y-112060501D01*
X115050423Y-112110964D01*
X115045301Y-112149778D01*
X115043084Y-112173348D01*
X115043034Y-112175569D01*
X115052093Y-112214931D01*
X115076099Y-112249049D01*
X115110292Y-112274221D01*
X115149911Y-112286747D01*
X115183631Y-112284859D01*
X115198885Y-112278675D01*
X115228598Y-112264633D01*
X115269803Y-112244209D01*
X115319536Y-112218879D01*
X115374830Y-112190119D01*
X115390347Y-112181948D01*
X115446396Y-112152844D01*
X115497531Y-112127217D01*
X115540842Y-112106450D01*
X115573417Y-112091929D01*
X115592345Y-112085039D01*
X115594826Y-112084666D01*
X115609341Y-112089121D01*
X115638362Y-112101570D01*
X115678988Y-112120640D01*
X115728320Y-112144958D01*
X115783458Y-112173150D01*
X115800976Y-112182303D01*
X115857698Y-112211726D01*
X115909822Y-112238078D01*
X115954356Y-112259899D01*
X115988306Y-112275732D01*
X116008678Y-112284116D01*
X116011594Y-112284942D01*
X116039070Y-112285813D01*
X116067801Y-112281074D01*
X116101933Y-112262584D01*
X116130459Y-112231360D01*
X116146221Y-112197050D01*
X116146270Y-112181003D01*
X116143256Y-112148600D01*
X116137581Y-112102948D01*
X116129645Y-112047151D01*
X116119853Y-111984314D01*
X116114416Y-111951411D01*
X116076897Y-111728543D01*
X116246853Y-111557579D01*
X116299956Y-111504018D01*
X116340683Y-111462376D01*
X116370668Y-111430629D01*
X116391549Y-111406758D01*
X116404962Y-111388741D01*
X116412545Y-111374555D01*
X116415934Y-111362181D01*
X116416765Y-111349595D01*
X116416771Y-111347722D01*
X116410171Y-111308327D01*
X116393026Y-111270689D01*
X116369213Y-111242369D01*
X116359315Y-111235671D01*
X116344240Y-111231315D01*
X116312708Y-111224825D01*
X116267845Y-111216753D01*
X116212777Y-111207652D01*
X116150630Y-111198072D01*
X116124058Y-111194167D01*
X116060447Y-111184609D01*
X116003130Y-111175350D01*
X115955111Y-111166925D01*
X115919393Y-111159873D01*
X115898978Y-111154732D01*
X115895668Y-111153255D01*
X115887877Y-111141831D01*
X115873007Y-111115344D01*
X115852512Y-111076565D01*
X115827844Y-111028260D01*
X115800458Y-110973198D01*
X115791268Y-110954420D01*
X115754521Y-110880401D01*
X115724001Y-110822667D01*
X115698209Y-110779309D01*
X115675646Y-110748417D01*
X115654815Y-110728080D01*
X115634217Y-110716391D01*
X115612353Y-110711438D01*
X115600189Y-110710891D01*
X115576349Y-110711845D01*
G36*
X116892885Y-118673564D02*
X116839149Y-118704080D01*
X116796217Y-118747823D01*
X116766738Y-118801915D01*
X116753360Y-118863480D01*
X116752839Y-118878601D01*
X116762238Y-118942118D01*
X116788965Y-118999501D01*
X116830816Y-119047652D01*
X116885588Y-119083474D01*
X116904202Y-119091351D01*
X116949010Y-119100418D01*
X117000772Y-119099387D01*
X117049764Y-119088763D01*
X117064162Y-119083009D01*
X117119384Y-119047719D01*
X117160211Y-119001755D01*
X117186144Y-118948328D01*
X117196684Y-118890649D01*
X117194470Y-118866350D01*
X117147395Y-118866350D01*
X117143642Y-118916930D01*
X117123838Y-118966022D01*
X117100596Y-118996745D01*
X117055378Y-119031718D01*
X117003291Y-119049830D01*
X116948445Y-119050464D01*
X116894954Y-119033009D01*
X116887025Y-119028631D01*
X116844125Y-118993779D01*
X116816691Y-118951089D01*
X116803831Y-118903822D01*
X116804653Y-118855237D01*
X116818264Y-118808592D01*
X116843773Y-118767146D01*
X116880288Y-118734159D01*
X116926916Y-118712891D01*
X116975213Y-118706455D01*
X117030364Y-118715048D01*
X117076581Y-118738630D01*
X117112441Y-118773904D01*
X117136520Y-118817576D01*
X117147395Y-118866350D01*
X117194470Y-118866350D01*
X117191332Y-118831926D01*
X117169588Y-118775369D01*
X117130955Y-118724190D01*
X117121357Y-118715061D01*
X117070200Y-118678906D01*
X117015146Y-118660862D01*
X116954778Y-118659155D01*
X116892885Y-118673564D01*
X116892885Y-118673564D01*
G37*
X116892885Y-118673564D02*
X116839149Y-118704080D01*
X116796217Y-118747823D01*
X116766738Y-118801915D01*
X116753360Y-118863480D01*
X116752839Y-118878601D01*
X116762238Y-118942118D01*
X116788965Y-118999501D01*
X116830816Y-119047652D01*
X116885588Y-119083474D01*
X116904202Y-119091351D01*
X116949010Y-119100418D01*
X117000772Y-119099387D01*
X117049764Y-119088763D01*
X117064162Y-119083009D01*
X117119384Y-119047719D01*
X117160211Y-119001755D01*
X117186144Y-118948328D01*
X117196684Y-118890649D01*
X117194470Y-118866350D01*
X117147395Y-118866350D01*
X117143642Y-118916930D01*
X117123838Y-118966022D01*
X117100596Y-118996745D01*
X117055378Y-119031718D01*
X117003291Y-119049830D01*
X116948445Y-119050464D01*
X116894954Y-119033009D01*
X116887025Y-119028631D01*
X116844125Y-118993779D01*
X116816691Y-118951089D01*
X116803831Y-118903822D01*
X116804653Y-118855237D01*
X116818264Y-118808592D01*
X116843773Y-118767146D01*
X116880288Y-118734159D01*
X116926916Y-118712891D01*
X116975213Y-118706455D01*
X117030364Y-118715048D01*
X117076581Y-118738630D01*
X117112441Y-118773904D01*
X117136520Y-118817576D01*
X117147395Y-118866350D01*
X117194470Y-118866350D01*
X117191332Y-118831926D01*
X117169588Y-118775369D01*
X117130955Y-118724190D01*
X117121357Y-118715061D01*
X117070200Y-118678906D01*
X117015146Y-118660862D01*
X116954778Y-118659155D01*
X116892885Y-118673564D01*
G36*
X121153113Y-117379627D02*
X121155835Y-117535288D01*
X121311497Y-117538010D01*
X121467158Y-117540732D01*
X121467158Y-117223965D01*
X121150392Y-117223965D01*
X121153113Y-117379627D01*
X121153113Y-117379627D01*
G37*
X121153113Y-117379627D02*
X121155835Y-117535288D01*
X121311497Y-117538010D01*
X121467158Y-117540732D01*
X121467158Y-117223965D01*
X121150392Y-117223965D01*
X121153113Y-117379627D01*
G36*
X117446888Y-116761922D02*
X117444166Y-116917584D01*
X117761434Y-116917584D01*
X117758713Y-116761922D01*
X117755991Y-116606261D01*
X117449610Y-116606261D01*
X117446888Y-116761922D01*
X117446888Y-116761922D01*
G37*
X117446888Y-116761922D02*
X117444166Y-116917584D01*
X117761434Y-116917584D01*
X117758713Y-116761922D01*
X117755991Y-116606261D01*
X117449610Y-116606261D01*
X117446888Y-116761922D01*
G36*
X119444275Y-115753602D02*
X119332485Y-115754232D01*
X119238759Y-115754851D01*
X119161396Y-115755534D01*
X119098695Y-115756357D01*
X119048953Y-115757394D01*
X119010470Y-115758720D01*
X118981543Y-115760411D01*
X118960471Y-115762541D01*
X118945552Y-115765186D01*
X118935084Y-115768420D01*
X118927367Y-115772319D01*
X118921072Y-115776677D01*
X118899887Y-115793029D01*
X118883617Y-115808306D01*
X118871571Y-115825331D01*
X118863057Y-115846926D01*
X118857383Y-115875912D01*
X118853858Y-115915112D01*
X118851790Y-115967347D01*
X118850486Y-116035441D01*
X118850042Y-116066455D01*
X118849445Y-116157885D01*
X118850809Y-116233033D01*
X118854663Y-116295329D01*
X118861533Y-116348205D01*
X118871947Y-116395093D01*
X118886433Y-116439424D01*
X118905519Y-116484629D01*
X118918506Y-116511796D01*
X118972070Y-116598993D01*
X119040724Y-116676358D01*
X119121450Y-116741425D01*
X119211231Y-116791731D01*
X119299424Y-116822907D01*
X119362212Y-116835251D01*
X119430534Y-116842351D01*
X119496482Y-116843724D01*
X119552149Y-116838889D01*
X119554554Y-116838469D01*
X119622066Y-116821530D01*
X119694450Y-116795345D01*
X119761616Y-116763584D01*
X119763917Y-116762323D01*
X119805035Y-116734386D01*
X119851660Y-116694366D01*
X119899108Y-116647118D01*
X119942692Y-116597496D01*
X119977728Y-116550352D01*
X119992656Y-116525356D01*
X120014221Y-116481076D01*
X120031089Y-116438019D01*
X120043793Y-116392905D01*
X120052867Y-116342456D01*
X120058842Y-116283392D01*
X120062253Y-116212433D01*
X120063632Y-116126301D01*
X120063734Y-116088125D01*
X120063593Y-116047856D01*
X119769089Y-116047856D01*
X119765692Y-116188693D01*
X119764138Y-116244808D01*
X119762145Y-116285421D01*
X119758994Y-116314793D01*
X119753965Y-116337185D01*
X119746339Y-116356859D01*
X119735395Y-116378076D01*
X119732959Y-116382492D01*
X119687828Y-116445327D01*
X119631374Y-116494139D01*
X119566517Y-116527904D01*
X119496176Y-116545599D01*
X119423270Y-116546198D01*
X119350718Y-116528677D01*
X119334838Y-116522176D01*
X119269410Y-116484538D01*
X119217945Y-116434554D01*
X119183599Y-116381867D01*
X119170194Y-116356127D01*
X119160835Y-116334397D01*
X119154660Y-116312107D01*
X119150809Y-116284685D01*
X119148420Y-116247559D01*
X119146631Y-116196158D01*
X119146269Y-116183751D01*
X119142347Y-116047856D01*
X119769089Y-116047856D01*
X120063593Y-116047856D01*
X120063448Y-116006924D01*
X120062165Y-115942974D01*
X120059248Y-115893760D01*
X120054060Y-115856769D01*
X120045963Y-115829488D01*
X120034320Y-115809404D01*
X120018495Y-115794003D01*
X119997850Y-115780772D01*
X119983937Y-115773369D01*
X119940193Y-115750904D01*
X119444275Y-115753602D01*
X119444275Y-115753602D01*
G37*
X119444275Y-115753602D02*
X119332485Y-115754232D01*
X119238759Y-115754851D01*
X119161396Y-115755534D01*
X119098695Y-115756357D01*
X119048953Y-115757394D01*
X119010470Y-115758720D01*
X118981543Y-115760411D01*
X118960471Y-115762541D01*
X118945552Y-115765186D01*
X118935084Y-115768420D01*
X118927367Y-115772319D01*
X118921072Y-115776677D01*
X118899887Y-115793029D01*
X118883617Y-115808306D01*
X118871571Y-115825331D01*
X118863057Y-115846926D01*
X118857383Y-115875912D01*
X118853858Y-115915112D01*
X118851790Y-115967347D01*
X118850486Y-116035441D01*
X118850042Y-116066455D01*
X118849445Y-116157885D01*
X118850809Y-116233033D01*
X118854663Y-116295329D01*
X118861533Y-116348205D01*
X118871947Y-116395093D01*
X118886433Y-116439424D01*
X118905519Y-116484629D01*
X118918506Y-116511796D01*
X118972070Y-116598993D01*
X119040724Y-116676358D01*
X119121450Y-116741425D01*
X119211231Y-116791731D01*
X119299424Y-116822907D01*
X119362212Y-116835251D01*
X119430534Y-116842351D01*
X119496482Y-116843724D01*
X119552149Y-116838889D01*
X119554554Y-116838469D01*
X119622066Y-116821530D01*
X119694450Y-116795345D01*
X119761616Y-116763584D01*
X119763917Y-116762323D01*
X119805035Y-116734386D01*
X119851660Y-116694366D01*
X119899108Y-116647118D01*
X119942692Y-116597496D01*
X119977728Y-116550352D01*
X119992656Y-116525356D01*
X120014221Y-116481076D01*
X120031089Y-116438019D01*
X120043793Y-116392905D01*
X120052867Y-116342456D01*
X120058842Y-116283392D01*
X120062253Y-116212433D01*
X120063632Y-116126301D01*
X120063734Y-116088125D01*
X120063593Y-116047856D01*
X119769089Y-116047856D01*
X119765692Y-116188693D01*
X119764138Y-116244808D01*
X119762145Y-116285421D01*
X119758994Y-116314793D01*
X119753965Y-116337185D01*
X119746339Y-116356859D01*
X119735395Y-116378076D01*
X119732959Y-116382492D01*
X119687828Y-116445327D01*
X119631374Y-116494139D01*
X119566517Y-116527904D01*
X119496176Y-116545599D01*
X119423270Y-116546198D01*
X119350718Y-116528677D01*
X119334838Y-116522176D01*
X119269410Y-116484538D01*
X119217945Y-116434554D01*
X119183599Y-116381867D01*
X119170194Y-116356127D01*
X119160835Y-116334397D01*
X119154660Y-116312107D01*
X119150809Y-116284685D01*
X119148420Y-116247559D01*
X119146631Y-116196158D01*
X119146269Y-116183751D01*
X119142347Y-116047856D01*
X119769089Y-116047856D01*
X120063593Y-116047856D01*
X120063448Y-116006924D01*
X120062165Y-115942974D01*
X120059248Y-115893760D01*
X120054060Y-115856769D01*
X120045963Y-115829488D01*
X120034320Y-115809404D01*
X120018495Y-115794003D01*
X119997850Y-115780772D01*
X119983937Y-115773369D01*
X119940193Y-115750904D01*
X119444275Y-115753602D01*
G36*
X120625058Y-112828916D02*
X120478281Y-112861832D01*
X120335749Y-112911912D01*
X120199741Y-112978348D01*
X120072537Y-113060328D01*
X119956418Y-113157042D01*
X119949816Y-113163331D01*
X119849328Y-113271666D01*
X119767759Y-113385257D01*
X119705213Y-113503548D01*
X119661791Y-113625984D01*
X119637598Y-113752007D01*
X119632736Y-113881062D01*
X119647308Y-114012594D01*
X119681417Y-114146045D01*
X119735166Y-114280859D01*
X119740695Y-114292470D01*
X119812384Y-114420241D01*
X119897842Y-114535968D01*
X119995635Y-114638372D01*
X120104329Y-114726174D01*
X120222493Y-114798095D01*
X120348690Y-114852854D01*
X120380424Y-114863429D01*
X120412659Y-114872772D01*
X120442802Y-114879211D01*
X120475698Y-114883241D01*
X120516194Y-114885354D01*
X120569135Y-114886043D01*
X120602372Y-114886005D01*
X120662066Y-114885468D01*
X120706986Y-114883978D01*
X120742123Y-114880926D01*
X120772468Y-114875704D01*
X120803010Y-114867702D01*
X120834629Y-114857674D01*
X120946498Y-114814225D01*
X121044707Y-114761380D01*
X121134338Y-114696025D01*
X121205482Y-114630427D01*
X121284340Y-114538887D01*
X121348495Y-114439424D01*
X121397830Y-114334073D01*
X121432225Y-114224868D01*
X121451564Y-114113844D01*
X121455728Y-114003035D01*
X121444600Y-113894475D01*
X121418062Y-113790199D01*
X121375996Y-113692240D01*
X121318283Y-113602633D01*
X121268331Y-113545786D01*
X121192022Y-113482568D01*
X121103560Y-113432179D01*
X121006959Y-113396073D01*
X120906235Y-113375706D01*
X120805400Y-113372533D01*
X120792956Y-113373421D01*
X120688043Y-113390324D01*
X120589715Y-113421979D01*
X120499404Y-113466759D01*
X120418544Y-113523036D01*
X120348566Y-113589184D01*
X120290903Y-113663574D01*
X120246988Y-113744580D01*
X120218253Y-113830575D01*
X120206131Y-113919929D01*
X120212055Y-114011018D01*
X120215541Y-114029346D01*
X120243273Y-114119357D01*
X120285347Y-114196787D01*
X120341066Y-114260700D01*
X120409736Y-114310160D01*
X120433131Y-114322216D01*
X120515457Y-114351653D01*
X120597016Y-114362868D01*
X120675627Y-114356559D01*
X120749106Y-114333425D01*
X120815271Y-114294163D01*
X120871940Y-114239472D01*
X120916930Y-114170049D01*
X120918428Y-114167031D01*
X120949383Y-114085570D01*
X120961585Y-114006050D01*
X120954832Y-113929860D01*
X120953602Y-113924511D01*
X120933314Y-113875843D01*
X120900215Y-113836444D01*
X120858229Y-113808965D01*
X120811279Y-113796056D01*
X120767982Y-113799095D01*
X120720738Y-113819252D01*
X120681553Y-113851875D01*
X120653539Y-113892813D01*
X120639810Y-113937910D01*
X120640320Y-113969454D01*
X120640933Y-114007774D01*
X120628227Y-114031887D01*
X120602427Y-114041407D01*
X120597800Y-114041553D01*
X120567717Y-114032945D01*
X120545245Y-114009796D01*
X120531177Y-113976122D01*
X120526309Y-113935935D01*
X120531434Y-113893250D01*
X120547347Y-113852080D01*
X120557222Y-113836505D01*
X120597286Y-113791111D01*
X120648914Y-113751383D01*
X120696263Y-113723946D01*
X120720357Y-113712763D01*
X120744697Y-113705777D01*
X120774976Y-113702060D01*
X120816887Y-113700683D01*
X120839571Y-113700580D01*
X120894832Y-113701860D01*
X120936260Y-113706998D01*
X120969692Y-113717937D01*
X121000969Y-113736624D01*
X121035930Y-113765003D01*
X121037737Y-113766587D01*
X121079667Y-113815677D01*
X121111261Y-113878202D01*
X121131369Y-113950099D01*
X121138842Y-114027301D01*
X121132946Y-114103323D01*
X121108081Y-114197810D01*
X121067807Y-114285016D01*
X121014193Y-114363482D01*
X120949307Y-114431754D01*
X120875217Y-114488373D01*
X120793992Y-114531883D01*
X120707701Y-114560828D01*
X120618412Y-114573750D01*
X120528192Y-114569194D01*
X120484290Y-114560144D01*
X120388598Y-114525373D01*
X120297905Y-114473500D01*
X120214027Y-114406934D01*
X120138780Y-114328081D01*
X120073979Y-114239348D01*
X120021442Y-114143143D01*
X119982983Y-114041873D01*
X119960419Y-113937945D01*
X119955018Y-113858517D01*
X119960219Y-113769277D01*
X119977014Y-113689723D01*
X120007194Y-113612377D01*
X120020129Y-113586572D01*
X120082036Y-113489425D01*
X120159948Y-113401169D01*
X120251598Y-113323161D01*
X120354717Y-113256754D01*
X120467037Y-113203305D01*
X120586290Y-113164169D01*
X120710207Y-113140702D01*
X120775552Y-113135150D01*
X120902011Y-113137920D01*
X121020744Y-113158822D01*
X121131458Y-113197671D01*
X121233861Y-113254285D01*
X121327658Y-113328478D01*
X121412559Y-113420066D01*
X121488269Y-113528867D01*
X121533873Y-113611631D01*
X121586161Y-113732690D01*
X121622169Y-113856331D01*
X121642771Y-113986468D01*
X121648852Y-114125561D01*
X121639593Y-114262600D01*
X121613000Y-114390843D01*
X121568636Y-114511319D01*
X121506067Y-114625059D01*
X121424855Y-114733094D01*
X121364166Y-114798449D01*
X121254282Y-114894748D01*
X121132584Y-114976514D01*
X121001486Y-115042744D01*
X120863399Y-115092436D01*
X120720734Y-115124585D01*
X120575905Y-115138188D01*
X120546402Y-115138596D01*
X120486154Y-115140280D01*
X120440875Y-115146271D01*
X120405980Y-115157978D01*
X120376885Y-115176810D01*
X120355290Y-115197327D01*
X120339091Y-115216551D01*
X120330159Y-115235197D01*
X120326381Y-115260220D01*
X120325641Y-115294906D01*
X120331167Y-115351627D01*
X120348633Y-115394154D01*
X120379368Y-115424973D01*
X120402041Y-115437663D01*
X120439345Y-115448814D01*
X120491664Y-115455966D01*
X120554594Y-115458829D01*
X120623735Y-115457112D01*
X120657890Y-115454571D01*
X120828057Y-115429220D01*
X120994261Y-115384805D01*
X121154924Y-115321881D01*
X121308470Y-115241005D01*
X121366470Y-115204463D01*
X121502164Y-115104100D01*
X121620944Y-114993527D01*
X121722895Y-114872623D01*
X121808102Y-114741263D01*
X121876650Y-114599326D01*
X121928624Y-114446689D01*
X121948784Y-114364653D01*
X121958440Y-114302701D01*
X121964502Y-114226702D01*
X121967022Y-114142033D01*
X121966055Y-114054074D01*
X121961654Y-113968205D01*
X121953873Y-113889802D01*
X121943413Y-113827200D01*
X121899006Y-113662012D01*
X121839773Y-113509599D01*
X121765361Y-113369273D01*
X121675418Y-113240350D01*
X121594647Y-113147674D01*
X121485496Y-113046843D01*
X121367955Y-112963774D01*
X121242426Y-112898664D01*
X121109308Y-112851709D01*
X120969000Y-112823105D01*
X120922225Y-112817821D01*
X120773800Y-112813976D01*
X120625058Y-112828916D01*
X120625058Y-112828916D01*
G37*
X120625058Y-112828916D02*
X120478281Y-112861832D01*
X120335749Y-112911912D01*
X120199741Y-112978348D01*
X120072537Y-113060328D01*
X119956418Y-113157042D01*
X119949816Y-113163331D01*
X119849328Y-113271666D01*
X119767759Y-113385257D01*
X119705213Y-113503548D01*
X119661791Y-113625984D01*
X119637598Y-113752007D01*
X119632736Y-113881062D01*
X119647308Y-114012594D01*
X119681417Y-114146045D01*
X119735166Y-114280859D01*
X119740695Y-114292470D01*
X119812384Y-114420241D01*
X119897842Y-114535968D01*
X119995635Y-114638372D01*
X120104329Y-114726174D01*
X120222493Y-114798095D01*
X120348690Y-114852854D01*
X120380424Y-114863429D01*
X120412659Y-114872772D01*
X120442802Y-114879211D01*
X120475698Y-114883241D01*
X120516194Y-114885354D01*
X120569135Y-114886043D01*
X120602372Y-114886005D01*
X120662066Y-114885468D01*
X120706986Y-114883978D01*
X120742123Y-114880926D01*
X120772468Y-114875704D01*
X120803010Y-114867702D01*
X120834629Y-114857674D01*
X120946498Y-114814225D01*
X121044707Y-114761380D01*
X121134338Y-114696025D01*
X121205482Y-114630427D01*
X121284340Y-114538887D01*
X121348495Y-114439424D01*
X121397830Y-114334073D01*
X121432225Y-114224868D01*
X121451564Y-114113844D01*
X121455728Y-114003035D01*
X121444600Y-113894475D01*
X121418062Y-113790199D01*
X121375996Y-113692240D01*
X121318283Y-113602633D01*
X121268331Y-113545786D01*
X121192022Y-113482568D01*
X121103560Y-113432179D01*
X121006959Y-113396073D01*
X120906235Y-113375706D01*
X120805400Y-113372533D01*
X120792956Y-113373421D01*
X120688043Y-113390324D01*
X120589715Y-113421979D01*
X120499404Y-113466759D01*
X120418544Y-113523036D01*
X120348566Y-113589184D01*
X120290903Y-113663574D01*
X120246988Y-113744580D01*
X120218253Y-113830575D01*
X120206131Y-113919929D01*
X120212055Y-114011018D01*
X120215541Y-114029346D01*
X120243273Y-114119357D01*
X120285347Y-114196787D01*
X120341066Y-114260700D01*
X120409736Y-114310160D01*
X120433131Y-114322216D01*
X120515457Y-114351653D01*
X120597016Y-114362868D01*
X120675627Y-114356559D01*
X120749106Y-114333425D01*
X120815271Y-114294163D01*
X120871940Y-114239472D01*
X120916930Y-114170049D01*
X120918428Y-114167031D01*
X120949383Y-114085570D01*
X120961585Y-114006050D01*
X120954832Y-113929860D01*
X120953602Y-113924511D01*
X120933314Y-113875843D01*
X120900215Y-113836444D01*
X120858229Y-113808965D01*
X120811279Y-113796056D01*
X120767982Y-113799095D01*
X120720738Y-113819252D01*
X120681553Y-113851875D01*
X120653539Y-113892813D01*
X120639810Y-113937910D01*
X120640320Y-113969454D01*
X120640933Y-114007774D01*
X120628227Y-114031887D01*
X120602427Y-114041407D01*
X120597800Y-114041553D01*
X120567717Y-114032945D01*
X120545245Y-114009796D01*
X120531177Y-113976122D01*
X120526309Y-113935935D01*
X120531434Y-113893250D01*
X120547347Y-113852080D01*
X120557222Y-113836505D01*
X120597286Y-113791111D01*
X120648914Y-113751383D01*
X120696263Y-113723946D01*
X120720357Y-113712763D01*
X120744697Y-113705777D01*
X120774976Y-113702060D01*
X120816887Y-113700683D01*
X120839571Y-113700580D01*
X120894832Y-113701860D01*
X120936260Y-113706998D01*
X120969692Y-113717937D01*
X121000969Y-113736624D01*
X121035930Y-113765003D01*
X121037737Y-113766587D01*
X121079667Y-113815677D01*
X121111261Y-113878202D01*
X121131369Y-113950099D01*
X121138842Y-114027301D01*
X121132946Y-114103323D01*
X121108081Y-114197810D01*
X121067807Y-114285016D01*
X121014193Y-114363482D01*
X120949307Y-114431754D01*
X120875217Y-114488373D01*
X120793992Y-114531883D01*
X120707701Y-114560828D01*
X120618412Y-114573750D01*
X120528192Y-114569194D01*
X120484290Y-114560144D01*
X120388598Y-114525373D01*
X120297905Y-114473500D01*
X120214027Y-114406934D01*
X120138780Y-114328081D01*
X120073979Y-114239348D01*
X120021442Y-114143143D01*
X119982983Y-114041873D01*
X119960419Y-113937945D01*
X119955018Y-113858517D01*
X119960219Y-113769277D01*
X119977014Y-113689723D01*
X120007194Y-113612377D01*
X120020129Y-113586572D01*
X120082036Y-113489425D01*
X120159948Y-113401169D01*
X120251598Y-113323161D01*
X120354717Y-113256754D01*
X120467037Y-113203305D01*
X120586290Y-113164169D01*
X120710207Y-113140702D01*
X120775552Y-113135150D01*
X120902011Y-113137920D01*
X121020744Y-113158822D01*
X121131458Y-113197671D01*
X121233861Y-113254285D01*
X121327658Y-113328478D01*
X121412559Y-113420066D01*
X121488269Y-113528867D01*
X121533873Y-113611631D01*
X121586161Y-113732690D01*
X121622169Y-113856331D01*
X121642771Y-113986468D01*
X121648852Y-114125561D01*
X121639593Y-114262600D01*
X121613000Y-114390843D01*
X121568636Y-114511319D01*
X121506067Y-114625059D01*
X121424855Y-114733094D01*
X121364166Y-114798449D01*
X121254282Y-114894748D01*
X121132584Y-114976514D01*
X121001486Y-115042744D01*
X120863399Y-115092436D01*
X120720734Y-115124585D01*
X120575905Y-115138188D01*
X120546402Y-115138596D01*
X120486154Y-115140280D01*
X120440875Y-115146271D01*
X120405980Y-115157978D01*
X120376885Y-115176810D01*
X120355290Y-115197327D01*
X120339091Y-115216551D01*
X120330159Y-115235197D01*
X120326381Y-115260220D01*
X120325641Y-115294906D01*
X120331167Y-115351627D01*
X120348633Y-115394154D01*
X120379368Y-115424973D01*
X120402041Y-115437663D01*
X120439345Y-115448814D01*
X120491664Y-115455966D01*
X120554594Y-115458829D01*
X120623735Y-115457112D01*
X120657890Y-115454571D01*
X120828057Y-115429220D01*
X120994261Y-115384805D01*
X121154924Y-115321881D01*
X121308470Y-115241005D01*
X121366470Y-115204463D01*
X121502164Y-115104100D01*
X121620944Y-114993527D01*
X121722895Y-114872623D01*
X121808102Y-114741263D01*
X121876650Y-114599326D01*
X121928624Y-114446689D01*
X121948784Y-114364653D01*
X121958440Y-114302701D01*
X121964502Y-114226702D01*
X121967022Y-114142033D01*
X121966055Y-114054074D01*
X121961654Y-113968205D01*
X121953873Y-113889802D01*
X121943413Y-113827200D01*
X121899006Y-113662012D01*
X121839773Y-113509599D01*
X121765361Y-113369273D01*
X121675418Y-113240350D01*
X121594647Y-113147674D01*
X121485496Y-113046843D01*
X121367955Y-112963774D01*
X121242426Y-112898664D01*
X121109308Y-112851709D01*
X120969000Y-112823105D01*
X120922225Y-112817821D01*
X120773800Y-112813976D01*
X120625058Y-112828916D01*
G36*
X118031153Y-112817072D02*
X117874200Y-112840521D01*
X117721585Y-112883124D01*
X117574167Y-112944572D01*
X117432809Y-113024559D01*
X117415018Y-113036240D01*
X117361215Y-113076416D01*
X117301957Y-113127819D01*
X117241218Y-113186347D01*
X117182976Y-113247900D01*
X117131205Y-113308378D01*
X117089883Y-113363680D01*
X117075234Y-113386663D01*
X117019079Y-113497936D01*
X116977830Y-113615462D01*
X116952349Y-113735481D01*
X116943496Y-113854234D01*
X116948312Y-113940406D01*
X116974057Y-114080483D01*
X117017019Y-114214944D01*
X117075899Y-114342170D01*
X117149393Y-114460547D01*
X117236200Y-114568457D01*
X117335019Y-114664285D01*
X117444548Y-114746414D01*
X117563484Y-114813228D01*
X117690526Y-114863110D01*
X117691750Y-114863492D01*
X117724353Y-114872842D01*
X117754972Y-114879291D01*
X117788479Y-114883338D01*
X117829749Y-114885480D01*
X117883652Y-114886215D01*
X117914123Y-114886217D01*
X117972455Y-114885860D01*
X118016114Y-114884646D01*
X118050197Y-114881875D01*
X118079795Y-114876848D01*
X118110005Y-114868865D01*
X118145919Y-114857226D01*
X118159848Y-114852479D01*
X118285761Y-114799632D01*
X118398720Y-114731877D01*
X118498457Y-114649469D01*
X118584700Y-114552662D01*
X118657182Y-114441707D01*
X118707112Y-114338051D01*
X118743998Y-114226525D01*
X118764001Y-114112898D01*
X118767503Y-113999538D01*
X118754880Y-113888813D01*
X118726514Y-113783093D01*
X118682782Y-113684744D01*
X118624065Y-113596135D01*
X118580517Y-113547344D01*
X118498985Y-113479662D01*
X118405635Y-113427666D01*
X118301089Y-113391677D01*
X118265611Y-113383642D01*
X118163959Y-113372399D01*
X118062849Y-113378275D01*
X117964328Y-113399885D01*
X117870444Y-113435849D01*
X117783245Y-113484784D01*
X117704779Y-113545308D01*
X117637093Y-113616037D01*
X117582236Y-113695589D01*
X117542254Y-113782583D01*
X117519196Y-113875636D01*
X117517479Y-113888697D01*
X117516771Y-113961890D01*
X117529732Y-114039039D01*
X117554489Y-114114914D01*
X117589172Y-114184280D01*
X117631912Y-114241906D01*
X117650216Y-114259942D01*
X117720171Y-114310016D01*
X117797274Y-114343663D01*
X117878421Y-114360398D01*
X117960507Y-114359740D01*
X118040427Y-114341206D01*
X118076294Y-114326213D01*
X118134036Y-114289322D01*
X118183144Y-114240515D01*
X118222645Y-114182932D01*
X118251568Y-114119710D01*
X118268944Y-114053990D01*
X118273800Y-113988910D01*
X118265167Y-113927609D01*
X118242073Y-113873226D01*
X118223990Y-113848681D01*
X118183453Y-113815085D01*
X118138553Y-113798379D01*
X118092372Y-113797142D01*
X118047990Y-113809954D01*
X118008490Y-113835393D01*
X117976953Y-113872039D01*
X117956459Y-113918470D01*
X117950091Y-113973266D01*
X117950148Y-113974961D01*
X117949358Y-114010931D01*
X117942019Y-114031416D01*
X117925781Y-114040248D01*
X117909316Y-114041553D01*
X117879342Y-114032942D01*
X117856954Y-114009788D01*
X117842941Y-113976112D01*
X117838095Y-113935933D01*
X117843207Y-113893270D01*
X117859067Y-113852145D01*
X117868973Y-113836505D01*
X117909037Y-113791111D01*
X117960665Y-113751383D01*
X118008014Y-113723946D01*
X118032108Y-113712763D01*
X118056448Y-113705777D01*
X118086727Y-113702060D01*
X118128638Y-113700683D01*
X118151322Y-113700580D01*
X118198265Y-113701075D01*
X118231062Y-113703253D01*
X118255321Y-113708155D01*
X118276653Y-113716822D01*
X118295744Y-113727381D01*
X118355320Y-113772525D01*
X118399361Y-113829419D01*
X118421772Y-113877166D01*
X118444434Y-113964091D01*
X118449033Y-114051475D01*
X118437152Y-114137592D01*
X118410372Y-114220715D01*
X118370275Y-114299117D01*
X118318445Y-114371071D01*
X118256462Y-114434850D01*
X118185910Y-114488727D01*
X118108371Y-114530975D01*
X118025426Y-114559867D01*
X117938658Y-114573676D01*
X117849649Y-114570675D01*
X117796041Y-114560144D01*
X117706916Y-114527648D01*
X117619009Y-114478145D01*
X117535426Y-114414303D01*
X117459276Y-114338791D01*
X117393667Y-114254278D01*
X117347188Y-114174722D01*
X117316943Y-114110671D01*
X117295839Y-114056342D01*
X117282080Y-114004993D01*
X117273868Y-113949882D01*
X117269408Y-113884264D01*
X117269333Y-113882533D01*
X117268326Y-113810069D01*
X117273168Y-113750028D01*
X117285296Y-113695567D01*
X117306145Y-113639840D01*
X117331209Y-113587513D01*
X117389886Y-113493720D01*
X117465582Y-113407070D01*
X117556386Y-113329021D01*
X117660388Y-113261030D01*
X117775676Y-113204554D01*
X117884473Y-113165680D01*
X117922588Y-113154903D01*
X117956240Y-113147406D01*
X117990700Y-113142579D01*
X118031238Y-113139807D01*
X118083121Y-113138480D01*
X118121672Y-113138124D01*
X118206086Y-113139528D01*
X118276378Y-113145650D01*
X118337874Y-113157671D01*
X118395900Y-113176773D01*
X118455783Y-113204138D01*
X118482411Y-113218186D01*
X118581901Y-113283264D01*
X118672088Y-113364169D01*
X118751974Y-113458791D01*
X118820560Y-113565020D01*
X118876848Y-113680745D01*
X118919839Y-113803856D01*
X118948536Y-113932242D01*
X118961939Y-114063795D01*
X118959050Y-114196402D01*
X118956680Y-114220611D01*
X118932198Y-114355977D01*
X118889586Y-114483860D01*
X118829247Y-114603660D01*
X118751580Y-114714778D01*
X118656987Y-114816614D01*
X118545868Y-114908568D01*
X118457862Y-114967102D01*
X118329341Y-115035816D01*
X118199549Y-115085899D01*
X118065093Y-115118370D01*
X117922583Y-115134253D01*
X117899298Y-115135305D01*
X117832863Y-115138373D01*
X117782729Y-115142558D01*
X117745432Y-115148690D01*
X117717509Y-115157601D01*
X117695495Y-115170121D01*
X117675929Y-115187081D01*
X117673589Y-115189445D01*
X117644728Y-115231476D01*
X117631402Y-115279238D01*
X117632900Y-115328353D01*
X117648513Y-115374443D01*
X117677533Y-115413130D01*
X117713792Y-115437663D01*
X117751096Y-115448814D01*
X117803415Y-115455966D01*
X117866345Y-115458829D01*
X117935486Y-115457112D01*
X117969641Y-115454571D01*
X118137094Y-115429714D01*
X118300427Y-115386505D01*
X118457658Y-115325844D01*
X118606805Y-115248632D01*
X118745887Y-115155769D01*
X118872922Y-115048156D01*
X118881133Y-115040267D01*
X118989570Y-114924521D01*
X119079680Y-114804372D01*
X119152798Y-114677439D01*
X119210259Y-114541344D01*
X119253398Y-114393706D01*
X119259813Y-114365409D01*
X119269522Y-114303733D01*
X119275695Y-114228055D01*
X119278376Y-114143813D01*
X119277612Y-114056444D01*
X119273445Y-113971385D01*
X119265921Y-113894075D01*
X119255418Y-113831449D01*
X119211516Y-113669959D01*
X119154030Y-113520175D01*
X119083794Y-113382788D01*
X119001646Y-113258492D01*
X118908420Y-113147979D01*
X118804953Y-113051941D01*
X118692081Y-112971072D01*
X118570640Y-112906064D01*
X118441465Y-112857609D01*
X118305393Y-112826401D01*
X118163260Y-112813131D01*
X118031153Y-112817072D01*
X118031153Y-112817072D01*
G37*
X118031153Y-112817072D02*
X117874200Y-112840521D01*
X117721585Y-112883124D01*
X117574167Y-112944572D01*
X117432809Y-113024559D01*
X117415018Y-113036240D01*
X117361215Y-113076416D01*
X117301957Y-113127819D01*
X117241218Y-113186347D01*
X117182976Y-113247900D01*
X117131205Y-113308378D01*
X117089883Y-113363680D01*
X117075234Y-113386663D01*
X117019079Y-113497936D01*
X116977830Y-113615462D01*
X116952349Y-113735481D01*
X116943496Y-113854234D01*
X116948312Y-113940406D01*
X116974057Y-114080483D01*
X117017019Y-114214944D01*
X117075899Y-114342170D01*
X117149393Y-114460547D01*
X117236200Y-114568457D01*
X117335019Y-114664285D01*
X117444548Y-114746414D01*
X117563484Y-114813228D01*
X117690526Y-114863110D01*
X117691750Y-114863492D01*
X117724353Y-114872842D01*
X117754972Y-114879291D01*
X117788479Y-114883338D01*
X117829749Y-114885480D01*
X117883652Y-114886215D01*
X117914123Y-114886217D01*
X117972455Y-114885860D01*
X118016114Y-114884646D01*
X118050197Y-114881875D01*
X118079795Y-114876848D01*
X118110005Y-114868865D01*
X118145919Y-114857226D01*
X118159848Y-114852479D01*
X118285761Y-114799632D01*
X118398720Y-114731877D01*
X118498457Y-114649469D01*
X118584700Y-114552662D01*
X118657182Y-114441707D01*
X118707112Y-114338051D01*
X118743998Y-114226525D01*
X118764001Y-114112898D01*
X118767503Y-113999538D01*
X118754880Y-113888813D01*
X118726514Y-113783093D01*
X118682782Y-113684744D01*
X118624065Y-113596135D01*
X118580517Y-113547344D01*
X118498985Y-113479662D01*
X118405635Y-113427666D01*
X118301089Y-113391677D01*
X118265611Y-113383642D01*
X118163959Y-113372399D01*
X118062849Y-113378275D01*
X117964328Y-113399885D01*
X117870444Y-113435849D01*
X117783245Y-113484784D01*
X117704779Y-113545308D01*
X117637093Y-113616037D01*
X117582236Y-113695589D01*
X117542254Y-113782583D01*
X117519196Y-113875636D01*
X117517479Y-113888697D01*
X117516771Y-113961890D01*
X117529732Y-114039039D01*
X117554489Y-114114914D01*
X117589172Y-114184280D01*
X117631912Y-114241906D01*
X117650216Y-114259942D01*
X117720171Y-114310016D01*
X117797274Y-114343663D01*
X117878421Y-114360398D01*
X117960507Y-114359740D01*
X118040427Y-114341206D01*
X118076294Y-114326213D01*
X118134036Y-114289322D01*
X118183144Y-114240515D01*
X118222645Y-114182932D01*
X118251568Y-114119710D01*
X118268944Y-114053990D01*
X118273800Y-113988910D01*
X118265167Y-113927609D01*
X118242073Y-113873226D01*
X118223990Y-113848681D01*
X118183453Y-113815085D01*
X118138553Y-113798379D01*
X118092372Y-113797142D01*
X118047990Y-113809954D01*
X118008490Y-113835393D01*
X117976953Y-113872039D01*
X117956459Y-113918470D01*
X117950091Y-113973266D01*
X117950148Y-113974961D01*
X117949358Y-114010931D01*
X117942019Y-114031416D01*
X117925781Y-114040248D01*
X117909316Y-114041553D01*
X117879342Y-114032942D01*
X117856954Y-114009788D01*
X117842941Y-113976112D01*
X117838095Y-113935933D01*
X117843207Y-113893270D01*
X117859067Y-113852145D01*
X117868973Y-113836505D01*
X117909037Y-113791111D01*
X117960665Y-113751383D01*
X118008014Y-113723946D01*
X118032108Y-113712763D01*
X118056448Y-113705777D01*
X118086727Y-113702060D01*
X118128638Y-113700683D01*
X118151322Y-113700580D01*
X118198265Y-113701075D01*
X118231062Y-113703253D01*
X118255321Y-113708155D01*
X118276653Y-113716822D01*
X118295744Y-113727381D01*
X118355320Y-113772525D01*
X118399361Y-113829419D01*
X118421772Y-113877166D01*
X118444434Y-113964091D01*
X118449033Y-114051475D01*
X118437152Y-114137592D01*
X118410372Y-114220715D01*
X118370275Y-114299117D01*
X118318445Y-114371071D01*
X118256462Y-114434850D01*
X118185910Y-114488727D01*
X118108371Y-114530975D01*
X118025426Y-114559867D01*
X117938658Y-114573676D01*
X117849649Y-114570675D01*
X117796041Y-114560144D01*
X117706916Y-114527648D01*
X117619009Y-114478145D01*
X117535426Y-114414303D01*
X117459276Y-114338791D01*
X117393667Y-114254278D01*
X117347188Y-114174722D01*
X117316943Y-114110671D01*
X117295839Y-114056342D01*
X117282080Y-114004993D01*
X117273868Y-113949882D01*
X117269408Y-113884264D01*
X117269333Y-113882533D01*
X117268326Y-113810069D01*
X117273168Y-113750028D01*
X117285296Y-113695567D01*
X117306145Y-113639840D01*
X117331209Y-113587513D01*
X117389886Y-113493720D01*
X117465582Y-113407070D01*
X117556386Y-113329021D01*
X117660388Y-113261030D01*
X117775676Y-113204554D01*
X117884473Y-113165680D01*
X117922588Y-113154903D01*
X117956240Y-113147406D01*
X117990700Y-113142579D01*
X118031238Y-113139807D01*
X118083121Y-113138480D01*
X118121672Y-113138124D01*
X118206086Y-113139528D01*
X118276378Y-113145650D01*
X118337874Y-113157671D01*
X118395900Y-113176773D01*
X118455783Y-113204138D01*
X118482411Y-113218186D01*
X118581901Y-113283264D01*
X118672088Y-113364169D01*
X118751974Y-113458791D01*
X118820560Y-113565020D01*
X118876848Y-113680745D01*
X118919839Y-113803856D01*
X118948536Y-113932242D01*
X118961939Y-114063795D01*
X118959050Y-114196402D01*
X118956680Y-114220611D01*
X118932198Y-114355977D01*
X118889586Y-114483860D01*
X118829247Y-114603660D01*
X118751580Y-114714778D01*
X118656987Y-114816614D01*
X118545868Y-114908568D01*
X118457862Y-114967102D01*
X118329341Y-115035816D01*
X118199549Y-115085899D01*
X118065093Y-115118370D01*
X117922583Y-115134253D01*
X117899298Y-115135305D01*
X117832863Y-115138373D01*
X117782729Y-115142558D01*
X117745432Y-115148690D01*
X117717509Y-115157601D01*
X117695495Y-115170121D01*
X117675929Y-115187081D01*
X117673589Y-115189445D01*
X117644728Y-115231476D01*
X117631402Y-115279238D01*
X117632900Y-115328353D01*
X117648513Y-115374443D01*
X117677533Y-115413130D01*
X117713792Y-115437663D01*
X117751096Y-115448814D01*
X117803415Y-115455966D01*
X117866345Y-115458829D01*
X117935486Y-115457112D01*
X117969641Y-115454571D01*
X118137094Y-115429714D01*
X118300427Y-115386505D01*
X118457658Y-115325844D01*
X118606805Y-115248632D01*
X118745887Y-115155769D01*
X118872922Y-115048156D01*
X118881133Y-115040267D01*
X118989570Y-114924521D01*
X119079680Y-114804372D01*
X119152798Y-114677439D01*
X119210259Y-114541344D01*
X119253398Y-114393706D01*
X119259813Y-114365409D01*
X119269522Y-114303733D01*
X119275695Y-114228055D01*
X119278376Y-114143813D01*
X119277612Y-114056444D01*
X119273445Y-113971385D01*
X119265921Y-113894075D01*
X119255418Y-113831449D01*
X119211516Y-113669959D01*
X119154030Y-113520175D01*
X119083794Y-113382788D01*
X119001646Y-113258492D01*
X118908420Y-113147979D01*
X118804953Y-113051941D01*
X118692081Y-112971072D01*
X118570640Y-112906064D01*
X118441465Y-112857609D01*
X118305393Y-112826401D01*
X118163260Y-112813131D01*
X118031153Y-112817072D01*
G36*
X119354868Y-111357104D02*
X119295267Y-111361817D01*
X119228167Y-111368569D01*
X119165030Y-111376167D01*
X119144590Y-111379008D01*
X118915614Y-111420567D01*
X118696139Y-111476748D01*
X118487047Y-111547099D01*
X118289223Y-111631171D01*
X118103549Y-111728513D01*
X117930907Y-111838673D01*
X117772182Y-111961202D01*
X117628257Y-112095649D01*
X117532476Y-112201738D01*
X117503384Y-112237786D01*
X117470699Y-112280446D01*
X117436529Y-112326710D01*
X117402981Y-112373567D01*
X117372163Y-112418008D01*
X117346184Y-112457023D01*
X117327151Y-112487603D01*
X117317171Y-112506737D01*
X117316185Y-112510574D01*
X117324208Y-112517228D01*
X117345897Y-112531459D01*
X117377679Y-112551167D01*
X117415985Y-112574252D01*
X117457244Y-112598614D01*
X117497885Y-112622153D01*
X117534337Y-112642770D01*
X117563029Y-112658365D01*
X117580390Y-112666838D01*
X117583505Y-112667768D01*
X117590393Y-112659906D01*
X117603398Y-112639669D01*
X117614377Y-112620823D01*
X117677181Y-112523069D01*
X117756078Y-112422924D01*
X117848109Y-112323277D01*
X117950319Y-112227017D01*
X118059752Y-112137034D01*
X118173450Y-112056217D01*
X118225879Y-112023210D01*
X118392055Y-111932990D01*
X118571768Y-111854052D01*
X118761650Y-111787440D01*
X118958330Y-111734194D01*
X119158441Y-111695359D01*
X119358611Y-111671976D01*
X119362022Y-111671716D01*
X119455913Y-111664627D01*
X119458642Y-111507493D01*
X119461372Y-111350359D01*
X119354868Y-111357104D01*
X119354868Y-111357104D01*
G37*
X119354868Y-111357104D02*
X119295267Y-111361817D01*
X119228167Y-111368569D01*
X119165030Y-111376167D01*
X119144590Y-111379008D01*
X118915614Y-111420567D01*
X118696139Y-111476748D01*
X118487047Y-111547099D01*
X118289223Y-111631171D01*
X118103549Y-111728513D01*
X117930907Y-111838673D01*
X117772182Y-111961202D01*
X117628257Y-112095649D01*
X117532476Y-112201738D01*
X117503384Y-112237786D01*
X117470699Y-112280446D01*
X117436529Y-112326710D01*
X117402981Y-112373567D01*
X117372163Y-112418008D01*
X117346184Y-112457023D01*
X117327151Y-112487603D01*
X117317171Y-112506737D01*
X117316185Y-112510574D01*
X117324208Y-112517228D01*
X117345897Y-112531459D01*
X117377679Y-112551167D01*
X117415985Y-112574252D01*
X117457244Y-112598614D01*
X117497885Y-112622153D01*
X117534337Y-112642770D01*
X117563029Y-112658365D01*
X117580390Y-112666838D01*
X117583505Y-112667768D01*
X117590393Y-112659906D01*
X117603398Y-112639669D01*
X117614377Y-112620823D01*
X117677181Y-112523069D01*
X117756078Y-112422924D01*
X117848109Y-112323277D01*
X117950319Y-112227017D01*
X118059752Y-112137034D01*
X118173450Y-112056217D01*
X118225879Y-112023210D01*
X118392055Y-111932990D01*
X118571768Y-111854052D01*
X118761650Y-111787440D01*
X118958330Y-111734194D01*
X119158441Y-111695359D01*
X119358611Y-111671976D01*
X119362022Y-111671716D01*
X119455913Y-111664627D01*
X119458642Y-111507493D01*
X119461372Y-111350359D01*
X119354868Y-111357104D01*
G36*
X116994883Y-118768213D02*
X116959219Y-118772701D01*
X116930299Y-118779258D01*
X116915817Y-118785601D01*
X116904184Y-118806140D01*
X116901825Y-118834098D01*
X116908923Y-118859341D01*
X116914352Y-118866316D01*
X116920505Y-118876577D01*
X116917472Y-118891444D01*
X116903955Y-118915945D01*
X116899838Y-118922509D01*
X116882407Y-118953475D01*
X116878398Y-118972211D01*
X116888086Y-118981245D01*
X116906412Y-118983187D01*
X116925470Y-118977725D01*
X116942103Y-118958724D01*
X116950504Y-118943654D01*
X116968778Y-118915060D01*
X116984203Y-118904982D01*
X116995589Y-118913476D01*
X117001746Y-118940600D01*
X117001795Y-118941183D01*
X117005860Y-118966126D01*
X117015596Y-118977571D01*
X117032041Y-118981373D01*
X117059220Y-118984500D01*
X117059220Y-118840604D01*
X116999921Y-118840604D01*
X116994259Y-118858878D01*
X116981639Y-118863291D01*
X116968611Y-118854417D01*
X116962171Y-118837308D01*
X116964078Y-118819955D01*
X116979376Y-118815171D01*
X116979467Y-118815171D01*
X116995245Y-118820451D01*
X116999913Y-118839334D01*
X116999921Y-118840604D01*
X117059220Y-118840604D01*
X117059220Y-118763049D01*
X116994883Y-118768213D01*
X116994883Y-118768213D01*
G37*
X116994883Y-118768213D02*
X116959219Y-118772701D01*
X116930299Y-118779258D01*
X116915817Y-118785601D01*
X116904184Y-118806140D01*
X116901825Y-118834098D01*
X116908923Y-118859341D01*
X116914352Y-118866316D01*
X116920505Y-118876577D01*
X116917472Y-118891444D01*
X116903955Y-118915945D01*
X116899838Y-118922509D01*
X116882407Y-118953475D01*
X116878398Y-118972211D01*
X116888086Y-118981245D01*
X116906412Y-118983187D01*
X116925470Y-118977725D01*
X116942103Y-118958724D01*
X116950504Y-118943654D01*
X116968778Y-118915060D01*
X116984203Y-118904982D01*
X116995589Y-118913476D01*
X117001746Y-118940600D01*
X117001795Y-118941183D01*
X117005860Y-118966126D01*
X117015596Y-118977571D01*
X117032041Y-118981373D01*
X117059220Y-118984500D01*
X117059220Y-118840604D01*
X116999921Y-118840604D01*
X116994259Y-118858878D01*
X116981639Y-118863291D01*
X116968611Y-118854417D01*
X116962171Y-118837308D01*
X116964078Y-118819955D01*
X116979376Y-118815171D01*
X116979467Y-118815171D01*
X116995245Y-118820451D01*
X116999913Y-118839334D01*
X116999921Y-118840604D01*
X117059220Y-118840604D01*
X117059220Y-118763049D01*
X116994883Y-118768213D01*
G04 #@! TD*
M02*
