G04 #@! TF.GenerationSoftware,KiCad,Pcbnew,(5.0.2)-1*
G04 #@! TF.CreationDate,2019-12-16T12:52:27+02:00*
G04 #@! TF.ProjectId,2-relay-over-io,322d7265-6c61-4792-9d6f-7665722d696f,rev?*
G04 #@! TF.SameCoordinates,Original*
G04 #@! TF.FileFunction,Soldermask,Bot*
G04 #@! TF.FilePolarity,Negative*
%FSLAX46Y46*%
G04 Gerber Fmt 4.6, Leading zero omitted, Abs format (unit mm)*
G04 Created by KiCad (PCBNEW (5.0.2)-1) date 16.12.2019 12:52:27*
%MOMM*%
%LPD*%
G01*
G04 APERTURE LIST*
%ADD10C,0.100000*%
G04 APERTURE END LIST*
D10*
G36*
X119949083Y-141633975D02*
X119949085Y-141633976D01*
X119949086Y-141633976D01*
X120304145Y-141781046D01*
X120304146Y-141781047D01*
X120623693Y-141994561D01*
X120895439Y-142266307D01*
X120895441Y-142266310D01*
X121108954Y-142585855D01*
X121256024Y-142940914D01*
X121331000Y-143317843D01*
X121331000Y-143702157D01*
X121256024Y-144079086D01*
X121108954Y-144434145D01*
X121108953Y-144434146D01*
X120895439Y-144753693D01*
X120623693Y-145025439D01*
X120623690Y-145025441D01*
X120304145Y-145238954D01*
X119949086Y-145386024D01*
X119949085Y-145386024D01*
X119949083Y-145386025D01*
X119572158Y-145461000D01*
X119187842Y-145461000D01*
X118810917Y-145386025D01*
X118810915Y-145386024D01*
X118810914Y-145386024D01*
X118455855Y-145238954D01*
X118136310Y-145025441D01*
X118136307Y-145025439D01*
X117864561Y-144753693D01*
X117651047Y-144434146D01*
X117651046Y-144434145D01*
X117503976Y-144079086D01*
X117429000Y-143702157D01*
X117429000Y-143317843D01*
X117503976Y-142940914D01*
X117651046Y-142585855D01*
X117864559Y-142266310D01*
X117864561Y-142266307D01*
X118136307Y-141994561D01*
X118455854Y-141781047D01*
X118455855Y-141781046D01*
X118810914Y-141633976D01*
X118810915Y-141633976D01*
X118810917Y-141633975D01*
X119187842Y-141559000D01*
X119572158Y-141559000D01*
X119949083Y-141633975D01*
X119949083Y-141633975D01*
G37*
G36*
X143740734Y-139513232D02*
X143950202Y-139599996D01*
X144138723Y-139725962D01*
X144299038Y-139886277D01*
X144425004Y-140074798D01*
X144511768Y-140284266D01*
X144556000Y-140506635D01*
X144556000Y-140733365D01*
X144511768Y-140955734D01*
X144425004Y-141165202D01*
X144299038Y-141353723D01*
X144138723Y-141514038D01*
X143950202Y-141640004D01*
X143740734Y-141726768D01*
X143518365Y-141771000D01*
X143291635Y-141771000D01*
X143069266Y-141726768D01*
X142859798Y-141640004D01*
X142671277Y-141514038D01*
X142510962Y-141353723D01*
X142384996Y-141165202D01*
X142298232Y-140955734D01*
X142254000Y-140733365D01*
X142254000Y-140506635D01*
X142298232Y-140284266D01*
X142384996Y-140074798D01*
X142510962Y-139886277D01*
X142671277Y-139725962D01*
X142859798Y-139599996D01*
X143069266Y-139513232D01*
X143291635Y-139469000D01*
X143518365Y-139469000D01*
X143740734Y-139513232D01*
X143740734Y-139513232D01*
G37*
G36*
X95563734Y-139513232D02*
X95773202Y-139599996D01*
X95961723Y-139725962D01*
X96122038Y-139886277D01*
X96248004Y-140074798D01*
X96334768Y-140284266D01*
X96379000Y-140506635D01*
X96379000Y-140733365D01*
X96334768Y-140955734D01*
X96248004Y-141165202D01*
X96122038Y-141353723D01*
X95961723Y-141514038D01*
X95773202Y-141640004D01*
X95563734Y-141726768D01*
X95341365Y-141771000D01*
X95114635Y-141771000D01*
X94892266Y-141726768D01*
X94682798Y-141640004D01*
X94494277Y-141514038D01*
X94333962Y-141353723D01*
X94207996Y-141165202D01*
X94121232Y-140955734D01*
X94077000Y-140733365D01*
X94077000Y-140506635D01*
X94121232Y-140284266D01*
X94207996Y-140074798D01*
X94333962Y-139886277D01*
X94494277Y-139725962D01*
X94682798Y-139599996D01*
X94892266Y-139513232D01*
X95114635Y-139469000D01*
X95341365Y-139469000D01*
X95563734Y-139513232D01*
X95563734Y-139513232D01*
G37*
G36*
X108063734Y-139513232D02*
X108273202Y-139599996D01*
X108461723Y-139725962D01*
X108622038Y-139886277D01*
X108748004Y-140074798D01*
X108834768Y-140284266D01*
X108879000Y-140506635D01*
X108879000Y-140733365D01*
X108834768Y-140955734D01*
X108748004Y-141165202D01*
X108622038Y-141353723D01*
X108461723Y-141514038D01*
X108273202Y-141640004D01*
X108063734Y-141726768D01*
X107841365Y-141771000D01*
X107614635Y-141771000D01*
X107392266Y-141726768D01*
X107182798Y-141640004D01*
X106994277Y-141514038D01*
X106833962Y-141353723D01*
X106707996Y-141165202D01*
X106621232Y-140955734D01*
X106577000Y-140733365D01*
X106577000Y-140506635D01*
X106621232Y-140284266D01*
X106707996Y-140074798D01*
X106833962Y-139886277D01*
X106994277Y-139725962D01*
X107182798Y-139599996D01*
X107392266Y-139513232D01*
X107614635Y-139469000D01*
X107841365Y-139469000D01*
X108063734Y-139513232D01*
X108063734Y-139513232D01*
G37*
G36*
X131240734Y-139513232D02*
X131450202Y-139599996D01*
X131638723Y-139725962D01*
X131799038Y-139886277D01*
X131925004Y-140074798D01*
X132011768Y-140284266D01*
X132056000Y-140506635D01*
X132056000Y-140733365D01*
X132011768Y-140955734D01*
X131925004Y-141165202D01*
X131799038Y-141353723D01*
X131638723Y-141514038D01*
X131450202Y-141640004D01*
X131240734Y-141726768D01*
X131018365Y-141771000D01*
X130791635Y-141771000D01*
X130569266Y-141726768D01*
X130359798Y-141640004D01*
X130171277Y-141514038D01*
X130010962Y-141353723D01*
X129884996Y-141165202D01*
X129798232Y-140955734D01*
X129754000Y-140733365D01*
X129754000Y-140506635D01*
X129798232Y-140284266D01*
X129884996Y-140074798D01*
X130010962Y-139886277D01*
X130171277Y-139725962D01*
X130359798Y-139599996D01*
X130569266Y-139513232D01*
X130791635Y-139469000D01*
X131018365Y-139469000D01*
X131240734Y-139513232D01*
X131240734Y-139513232D01*
G37*
G36*
X80437250Y-138412843D02*
X80522322Y-138429765D01*
X80592735Y-138458931D01*
X80762728Y-138529344D01*
X80979092Y-138673914D01*
X81163086Y-138857908D01*
X81307656Y-139074272D01*
X81378069Y-139244265D01*
X81407235Y-139314678D01*
X81458000Y-139569893D01*
X81458000Y-139830107D01*
X81409329Y-140074797D01*
X81407235Y-140085321D01*
X81307656Y-140325728D01*
X81163086Y-140542092D01*
X80979092Y-140726086D01*
X80762728Y-140870656D01*
X80592735Y-140941069D01*
X80522322Y-140970235D01*
X80437250Y-140987157D01*
X80267109Y-141021000D01*
X80006891Y-141021000D01*
X79836750Y-140987157D01*
X79751678Y-140970235D01*
X79681265Y-140941069D01*
X79511272Y-140870656D01*
X79294908Y-140726086D01*
X79110914Y-140542092D01*
X78966344Y-140325728D01*
X78866765Y-140085321D01*
X78864672Y-140074797D01*
X78816000Y-139830107D01*
X78816000Y-139569893D01*
X78866765Y-139314678D01*
X78895931Y-139244265D01*
X78966344Y-139074272D01*
X79110914Y-138857908D01*
X79294908Y-138673914D01*
X79511272Y-138529344D01*
X79681265Y-138458931D01*
X79751678Y-138429765D01*
X79836750Y-138412843D01*
X80006891Y-138379000D01*
X80267109Y-138379000D01*
X80437250Y-138412843D01*
X80437250Y-138412843D01*
G37*
G36*
X88057250Y-138412843D02*
X88142322Y-138429765D01*
X88212735Y-138458931D01*
X88382728Y-138529344D01*
X88599092Y-138673914D01*
X88783086Y-138857908D01*
X88927656Y-139074272D01*
X88998069Y-139244265D01*
X89027235Y-139314678D01*
X89078000Y-139569893D01*
X89078000Y-139830107D01*
X89029329Y-140074797D01*
X89027235Y-140085321D01*
X88927656Y-140325728D01*
X88783086Y-140542092D01*
X88599092Y-140726086D01*
X88382728Y-140870656D01*
X88212735Y-140941069D01*
X88142322Y-140970235D01*
X88057250Y-140987157D01*
X87887109Y-141021000D01*
X87626891Y-141021000D01*
X87456750Y-140987157D01*
X87371678Y-140970235D01*
X87301265Y-140941069D01*
X87131272Y-140870656D01*
X86914908Y-140726086D01*
X86730914Y-140542092D01*
X86586344Y-140325728D01*
X86486765Y-140085321D01*
X86484672Y-140074797D01*
X86436000Y-139830107D01*
X86436000Y-139569893D01*
X86486765Y-139314678D01*
X86515931Y-139244265D01*
X86586344Y-139074272D01*
X86730914Y-138857908D01*
X86914908Y-138673914D01*
X87131272Y-138529344D01*
X87301265Y-138458931D01*
X87371678Y-138429765D01*
X87456750Y-138412843D01*
X87626891Y-138379000D01*
X87887109Y-138379000D01*
X88057250Y-138412843D01*
X88057250Y-138412843D01*
G37*
G36*
X151303250Y-138412843D02*
X151388322Y-138429765D01*
X151458735Y-138458931D01*
X151628728Y-138529344D01*
X151845092Y-138673914D01*
X152029086Y-138857908D01*
X152173656Y-139074272D01*
X152244069Y-139244265D01*
X152273235Y-139314678D01*
X152324000Y-139569893D01*
X152324000Y-139830107D01*
X152275329Y-140074797D01*
X152273235Y-140085321D01*
X152173656Y-140325728D01*
X152029086Y-140542092D01*
X151845092Y-140726086D01*
X151628728Y-140870656D01*
X151458735Y-140941069D01*
X151388322Y-140970235D01*
X151303250Y-140987157D01*
X151133109Y-141021000D01*
X150872891Y-141021000D01*
X150702750Y-140987157D01*
X150617678Y-140970235D01*
X150547265Y-140941069D01*
X150377272Y-140870656D01*
X150160908Y-140726086D01*
X149976914Y-140542092D01*
X149832344Y-140325728D01*
X149732765Y-140085321D01*
X149730672Y-140074797D01*
X149682000Y-139830107D01*
X149682000Y-139569893D01*
X149732765Y-139314678D01*
X149761931Y-139244265D01*
X149832344Y-139074272D01*
X149976914Y-138857908D01*
X150160908Y-138673914D01*
X150377272Y-138529344D01*
X150547265Y-138458931D01*
X150617678Y-138429765D01*
X150702750Y-138412843D01*
X150872891Y-138379000D01*
X151133109Y-138379000D01*
X151303250Y-138412843D01*
X151303250Y-138412843D01*
G37*
G36*
X158923250Y-138412843D02*
X159008322Y-138429765D01*
X159078735Y-138458931D01*
X159248728Y-138529344D01*
X159465092Y-138673914D01*
X159649086Y-138857908D01*
X159793656Y-139074272D01*
X159864069Y-139244265D01*
X159893235Y-139314678D01*
X159944000Y-139569893D01*
X159944000Y-139830107D01*
X159895329Y-140074797D01*
X159893235Y-140085321D01*
X159793656Y-140325728D01*
X159649086Y-140542092D01*
X159465092Y-140726086D01*
X159248728Y-140870656D01*
X159078735Y-140941069D01*
X159008322Y-140970235D01*
X158923250Y-140987157D01*
X158753109Y-141021000D01*
X158492891Y-141021000D01*
X158322750Y-140987157D01*
X158237678Y-140970235D01*
X158167265Y-140941069D01*
X157997272Y-140870656D01*
X157780908Y-140726086D01*
X157596914Y-140542092D01*
X157452344Y-140325728D01*
X157352765Y-140085321D01*
X157350672Y-140074797D01*
X157302000Y-139830107D01*
X157302000Y-139569893D01*
X157352765Y-139314678D01*
X157381931Y-139244265D01*
X157452344Y-139074272D01*
X157596914Y-138857908D01*
X157780908Y-138673914D01*
X157997272Y-138529344D01*
X158167265Y-138458931D01*
X158237678Y-138429765D01*
X158322750Y-138412843D01*
X158492891Y-138379000D01*
X158753109Y-138379000D01*
X158923250Y-138412843D01*
X158923250Y-138412843D01*
G37*
G36*
X151303250Y-133332843D02*
X151388322Y-133349765D01*
X151458735Y-133378931D01*
X151628728Y-133449344D01*
X151845092Y-133593914D01*
X152029086Y-133777908D01*
X152173656Y-133994272D01*
X152273235Y-134234679D01*
X152324000Y-134489891D01*
X152324000Y-134750109D01*
X152273235Y-135005321D01*
X152173656Y-135245728D01*
X152029086Y-135462092D01*
X151845092Y-135646086D01*
X151628728Y-135790656D01*
X151458735Y-135861069D01*
X151388322Y-135890235D01*
X151303250Y-135907157D01*
X151133109Y-135941000D01*
X150872891Y-135941000D01*
X150702750Y-135907157D01*
X150617678Y-135890235D01*
X150547265Y-135861069D01*
X150377272Y-135790656D01*
X150160908Y-135646086D01*
X149976914Y-135462092D01*
X149832344Y-135245728D01*
X149732765Y-135005321D01*
X149682000Y-134750109D01*
X149682000Y-134489891D01*
X149732765Y-134234679D01*
X149832344Y-133994272D01*
X149976914Y-133777908D01*
X150160908Y-133593914D01*
X150377272Y-133449344D01*
X150547265Y-133378931D01*
X150617678Y-133349765D01*
X150702750Y-133332843D01*
X150872891Y-133299000D01*
X151133109Y-133299000D01*
X151303250Y-133332843D01*
X151303250Y-133332843D01*
G37*
G36*
X158923250Y-133332843D02*
X159008322Y-133349765D01*
X159078735Y-133378931D01*
X159248728Y-133449344D01*
X159465092Y-133593914D01*
X159649086Y-133777908D01*
X159793656Y-133994272D01*
X159893235Y-134234679D01*
X159944000Y-134489891D01*
X159944000Y-134750109D01*
X159893235Y-135005321D01*
X159793656Y-135245728D01*
X159649086Y-135462092D01*
X159465092Y-135646086D01*
X159248728Y-135790656D01*
X159078735Y-135861069D01*
X159008322Y-135890235D01*
X158923250Y-135907157D01*
X158753109Y-135941000D01*
X158492891Y-135941000D01*
X158322750Y-135907157D01*
X158237678Y-135890235D01*
X158167265Y-135861069D01*
X157997272Y-135790656D01*
X157780908Y-135646086D01*
X157596914Y-135462092D01*
X157452344Y-135245728D01*
X157352765Y-135005321D01*
X157302000Y-134750109D01*
X157302000Y-134489891D01*
X157352765Y-134234679D01*
X157452344Y-133994272D01*
X157596914Y-133777908D01*
X157780908Y-133593914D01*
X157997272Y-133449344D01*
X158167265Y-133378931D01*
X158237678Y-133349765D01*
X158322750Y-133332843D01*
X158492891Y-133299000D01*
X158753109Y-133299000D01*
X158923250Y-133332843D01*
X158923250Y-133332843D01*
G37*
G36*
X88057250Y-133332843D02*
X88142322Y-133349765D01*
X88212735Y-133378931D01*
X88382728Y-133449344D01*
X88599092Y-133593914D01*
X88783086Y-133777908D01*
X88927656Y-133994272D01*
X89027235Y-134234679D01*
X89078000Y-134489891D01*
X89078000Y-134750109D01*
X89027235Y-135005321D01*
X88927656Y-135245728D01*
X88783086Y-135462092D01*
X88599092Y-135646086D01*
X88382728Y-135790656D01*
X88212735Y-135861069D01*
X88142322Y-135890235D01*
X88057250Y-135907157D01*
X87887109Y-135941000D01*
X87626891Y-135941000D01*
X87456750Y-135907157D01*
X87371678Y-135890235D01*
X87301265Y-135861069D01*
X87131272Y-135790656D01*
X86914908Y-135646086D01*
X86730914Y-135462092D01*
X86586344Y-135245728D01*
X86486765Y-135005321D01*
X86436000Y-134750109D01*
X86436000Y-134489891D01*
X86486765Y-134234679D01*
X86586344Y-133994272D01*
X86730914Y-133777908D01*
X86914908Y-133593914D01*
X87131272Y-133449344D01*
X87301265Y-133378931D01*
X87371678Y-133349765D01*
X87456750Y-133332843D01*
X87626891Y-133299000D01*
X87887109Y-133299000D01*
X88057250Y-133332843D01*
X88057250Y-133332843D01*
G37*
G36*
X80437250Y-133332843D02*
X80522322Y-133349765D01*
X80592735Y-133378931D01*
X80762728Y-133449344D01*
X80979092Y-133593914D01*
X81163086Y-133777908D01*
X81307656Y-133994272D01*
X81407235Y-134234679D01*
X81458000Y-134489891D01*
X81458000Y-134750109D01*
X81407235Y-135005321D01*
X81307656Y-135245728D01*
X81163086Y-135462092D01*
X80979092Y-135646086D01*
X80762728Y-135790656D01*
X80592735Y-135861069D01*
X80522322Y-135890235D01*
X80437250Y-135907157D01*
X80267109Y-135941000D01*
X80006891Y-135941000D01*
X79836750Y-135907157D01*
X79751678Y-135890235D01*
X79681265Y-135861069D01*
X79511272Y-135790656D01*
X79294908Y-135646086D01*
X79110914Y-135462092D01*
X78966344Y-135245728D01*
X78866765Y-135005321D01*
X78816000Y-134750109D01*
X78816000Y-134489891D01*
X78866765Y-134234679D01*
X78966344Y-133994272D01*
X79110914Y-133777908D01*
X79294908Y-133593914D01*
X79511272Y-133449344D01*
X79681265Y-133378931D01*
X79751678Y-133349765D01*
X79836750Y-133332843D01*
X80006891Y-133299000D01*
X80267109Y-133299000D01*
X80437250Y-133332843D01*
X80437250Y-133332843D01*
G37*
G36*
X110063734Y-133513232D02*
X110273202Y-133599996D01*
X110461723Y-133725962D01*
X110622038Y-133886277D01*
X110748004Y-134074798D01*
X110834768Y-134284266D01*
X110879000Y-134506635D01*
X110879000Y-134733365D01*
X110834768Y-134955734D01*
X110748004Y-135165202D01*
X110622038Y-135353723D01*
X110461723Y-135514038D01*
X110273202Y-135640004D01*
X110063734Y-135726768D01*
X109841365Y-135771000D01*
X109614635Y-135771000D01*
X109392266Y-135726768D01*
X109182798Y-135640004D01*
X108994277Y-135514038D01*
X108833962Y-135353723D01*
X108707996Y-135165202D01*
X108621232Y-134955734D01*
X108577000Y-134733365D01*
X108577000Y-134506635D01*
X108621232Y-134284266D01*
X108707996Y-134074798D01*
X108833962Y-133886277D01*
X108994277Y-133725962D01*
X109182798Y-133599996D01*
X109392266Y-133513232D01*
X109614635Y-133469000D01*
X109841365Y-133469000D01*
X110063734Y-133513232D01*
X110063734Y-133513232D01*
G37*
G36*
X129240734Y-133513232D02*
X129450202Y-133599996D01*
X129638723Y-133725962D01*
X129799038Y-133886277D01*
X129925004Y-134074798D01*
X130011768Y-134284266D01*
X130056000Y-134506635D01*
X130056000Y-134733365D01*
X130011768Y-134955734D01*
X129925004Y-135165202D01*
X129799038Y-135353723D01*
X129638723Y-135514038D01*
X129450202Y-135640004D01*
X129240734Y-135726768D01*
X129018365Y-135771000D01*
X128791635Y-135771000D01*
X128569266Y-135726768D01*
X128359798Y-135640004D01*
X128171277Y-135514038D01*
X128010962Y-135353723D01*
X127884996Y-135165202D01*
X127798232Y-134955734D01*
X127754000Y-134733365D01*
X127754000Y-134506635D01*
X127798232Y-134284266D01*
X127884996Y-134074798D01*
X128010962Y-133886277D01*
X128171277Y-133725962D01*
X128359798Y-133599996D01*
X128569266Y-133513232D01*
X128791635Y-133469000D01*
X129018365Y-133469000D01*
X129240734Y-133513232D01*
X129240734Y-133513232D01*
G37*
G36*
X151303250Y-128252843D02*
X151388322Y-128269765D01*
X151423330Y-128284266D01*
X151628728Y-128369344D01*
X151845092Y-128513914D01*
X152029086Y-128697908D01*
X152173656Y-128914272D01*
X152244069Y-129084265D01*
X152273235Y-129154678D01*
X152290157Y-129239750D01*
X152324000Y-129409891D01*
X152324000Y-129670109D01*
X152273235Y-129925321D01*
X152173656Y-130165728D01*
X152029086Y-130382092D01*
X151845092Y-130566086D01*
X151628728Y-130710656D01*
X151458735Y-130781069D01*
X151388322Y-130810235D01*
X151303250Y-130827157D01*
X151133109Y-130861000D01*
X150872891Y-130861000D01*
X150702750Y-130827157D01*
X150617678Y-130810235D01*
X150547265Y-130781069D01*
X150377272Y-130710656D01*
X150160908Y-130566086D01*
X149976914Y-130382092D01*
X149832344Y-130165728D01*
X149732765Y-129925321D01*
X149682000Y-129670109D01*
X149682000Y-129409891D01*
X149715843Y-129239750D01*
X149732765Y-129154678D01*
X149761931Y-129084265D01*
X149832344Y-128914272D01*
X149976914Y-128697908D01*
X150160908Y-128513914D01*
X150377272Y-128369344D01*
X150582670Y-128284266D01*
X150617678Y-128269765D01*
X150702750Y-128252843D01*
X150872891Y-128219000D01*
X151133109Y-128219000D01*
X151303250Y-128252843D01*
X151303250Y-128252843D01*
G37*
G36*
X158923250Y-128252843D02*
X159008322Y-128269765D01*
X159043330Y-128284266D01*
X159248728Y-128369344D01*
X159465092Y-128513914D01*
X159649086Y-128697908D01*
X159793656Y-128914272D01*
X159864069Y-129084265D01*
X159893235Y-129154678D01*
X159910157Y-129239750D01*
X159944000Y-129409891D01*
X159944000Y-129670109D01*
X159893235Y-129925321D01*
X159793656Y-130165728D01*
X159649086Y-130382092D01*
X159465092Y-130566086D01*
X159248728Y-130710656D01*
X159078735Y-130781069D01*
X159008322Y-130810235D01*
X158923250Y-130827157D01*
X158753109Y-130861000D01*
X158492891Y-130861000D01*
X158322750Y-130827157D01*
X158237678Y-130810235D01*
X158167265Y-130781069D01*
X157997272Y-130710656D01*
X157780908Y-130566086D01*
X157596914Y-130382092D01*
X157452344Y-130165728D01*
X157352765Y-129925321D01*
X157302000Y-129670109D01*
X157302000Y-129409891D01*
X157335843Y-129239750D01*
X157352765Y-129154678D01*
X157381931Y-129084265D01*
X157452344Y-128914272D01*
X157596914Y-128697908D01*
X157780908Y-128513914D01*
X157997272Y-128369344D01*
X158202670Y-128284266D01*
X158237678Y-128269765D01*
X158322750Y-128252843D01*
X158492891Y-128219000D01*
X158753109Y-128219000D01*
X158923250Y-128252843D01*
X158923250Y-128252843D01*
G37*
G36*
X88057250Y-128252843D02*
X88142322Y-128269765D01*
X88177330Y-128284266D01*
X88382728Y-128369344D01*
X88599092Y-128513914D01*
X88783086Y-128697908D01*
X88927656Y-128914272D01*
X88998069Y-129084265D01*
X89027235Y-129154678D01*
X89044157Y-129239750D01*
X89078000Y-129409891D01*
X89078000Y-129670109D01*
X89027235Y-129925321D01*
X88927656Y-130165728D01*
X88783086Y-130382092D01*
X88599092Y-130566086D01*
X88382728Y-130710656D01*
X88212735Y-130781069D01*
X88142322Y-130810235D01*
X88057250Y-130827157D01*
X87887109Y-130861000D01*
X87626891Y-130861000D01*
X87456750Y-130827157D01*
X87371678Y-130810235D01*
X87301265Y-130781069D01*
X87131272Y-130710656D01*
X86914908Y-130566086D01*
X86730914Y-130382092D01*
X86586344Y-130165728D01*
X86486765Y-129925321D01*
X86436000Y-129670109D01*
X86436000Y-129409891D01*
X86469843Y-129239750D01*
X86486765Y-129154678D01*
X86515931Y-129084265D01*
X86586344Y-128914272D01*
X86730914Y-128697908D01*
X86914908Y-128513914D01*
X87131272Y-128369344D01*
X87336670Y-128284266D01*
X87371678Y-128269765D01*
X87456750Y-128252843D01*
X87626891Y-128219000D01*
X87887109Y-128219000D01*
X88057250Y-128252843D01*
X88057250Y-128252843D01*
G37*
G36*
X80437250Y-128252843D02*
X80522322Y-128269765D01*
X80557330Y-128284266D01*
X80762728Y-128369344D01*
X80979092Y-128513914D01*
X81163086Y-128697908D01*
X81307656Y-128914272D01*
X81378069Y-129084265D01*
X81407235Y-129154678D01*
X81424157Y-129239750D01*
X81458000Y-129409891D01*
X81458000Y-129670109D01*
X81407235Y-129925321D01*
X81307656Y-130165728D01*
X81163086Y-130382092D01*
X80979092Y-130566086D01*
X80762728Y-130710656D01*
X80592735Y-130781069D01*
X80522322Y-130810235D01*
X80437250Y-130827157D01*
X80267109Y-130861000D01*
X80006891Y-130861000D01*
X79836750Y-130827157D01*
X79751678Y-130810235D01*
X79681265Y-130781069D01*
X79511272Y-130710656D01*
X79294908Y-130566086D01*
X79110914Y-130382092D01*
X78966344Y-130165728D01*
X78866765Y-129925321D01*
X78816000Y-129670109D01*
X78816000Y-129409891D01*
X78849843Y-129239750D01*
X78866765Y-129154678D01*
X78895931Y-129084265D01*
X78966344Y-128914272D01*
X79110914Y-128697908D01*
X79294908Y-128513914D01*
X79511272Y-128369344D01*
X79716670Y-128284266D01*
X79751678Y-128269765D01*
X79836750Y-128252843D01*
X80006891Y-128219000D01*
X80267109Y-128219000D01*
X80437250Y-128252843D01*
X80437250Y-128252843D01*
G37*
G36*
X95563734Y-127513232D02*
X95773202Y-127599996D01*
X95961723Y-127725962D01*
X96122038Y-127886277D01*
X96248004Y-128074798D01*
X96334768Y-128284266D01*
X96379000Y-128506635D01*
X96379000Y-128733365D01*
X96334768Y-128955734D01*
X96248004Y-129165202D01*
X96122038Y-129353723D01*
X95961723Y-129514038D01*
X95773202Y-129640004D01*
X95563734Y-129726768D01*
X95341365Y-129771000D01*
X95114635Y-129771000D01*
X94892266Y-129726768D01*
X94682798Y-129640004D01*
X94494277Y-129514038D01*
X94333962Y-129353723D01*
X94207996Y-129165202D01*
X94121232Y-128955734D01*
X94077000Y-128733365D01*
X94077000Y-128506635D01*
X94121232Y-128284266D01*
X94207996Y-128074798D01*
X94333962Y-127886277D01*
X94494277Y-127725962D01*
X94682798Y-127599996D01*
X94892266Y-127513232D01*
X95114635Y-127469000D01*
X95341365Y-127469000D01*
X95563734Y-127513232D01*
X95563734Y-127513232D01*
G37*
G36*
X108063734Y-127513232D02*
X108273202Y-127599996D01*
X108461723Y-127725962D01*
X108622038Y-127886277D01*
X108748004Y-128074798D01*
X108834768Y-128284266D01*
X108879000Y-128506635D01*
X108879000Y-128733365D01*
X108834768Y-128955734D01*
X108748004Y-129165202D01*
X108622038Y-129353723D01*
X108461723Y-129514038D01*
X108273202Y-129640004D01*
X108063734Y-129726768D01*
X107841365Y-129771000D01*
X107614635Y-129771000D01*
X107392266Y-129726768D01*
X107182798Y-129640004D01*
X106994277Y-129514038D01*
X106833962Y-129353723D01*
X106707996Y-129165202D01*
X106621232Y-128955734D01*
X106577000Y-128733365D01*
X106577000Y-128506635D01*
X106621232Y-128284266D01*
X106707996Y-128074798D01*
X106833962Y-127886277D01*
X106994277Y-127725962D01*
X107182798Y-127599996D01*
X107392266Y-127513232D01*
X107614635Y-127469000D01*
X107841365Y-127469000D01*
X108063734Y-127513232D01*
X108063734Y-127513232D01*
G37*
G36*
X143740734Y-127513232D02*
X143950202Y-127599996D01*
X144138723Y-127725962D01*
X144299038Y-127886277D01*
X144425004Y-128074798D01*
X144511768Y-128284266D01*
X144556000Y-128506635D01*
X144556000Y-128733365D01*
X144511768Y-128955734D01*
X144425004Y-129165202D01*
X144299038Y-129353723D01*
X144138723Y-129514038D01*
X143950202Y-129640004D01*
X143740734Y-129726768D01*
X143518365Y-129771000D01*
X143291635Y-129771000D01*
X143069266Y-129726768D01*
X142859798Y-129640004D01*
X142671277Y-129514038D01*
X142510962Y-129353723D01*
X142384996Y-129165202D01*
X142298232Y-128955734D01*
X142254000Y-128733365D01*
X142254000Y-128506635D01*
X142298232Y-128284266D01*
X142384996Y-128074798D01*
X142510962Y-127886277D01*
X142671277Y-127725962D01*
X142859798Y-127599996D01*
X143069266Y-127513232D01*
X143291635Y-127469000D01*
X143518365Y-127469000D01*
X143740734Y-127513232D01*
X143740734Y-127513232D01*
G37*
G36*
X131240734Y-127513232D02*
X131450202Y-127599996D01*
X131638723Y-127725962D01*
X131799038Y-127886277D01*
X131925004Y-128074798D01*
X132011768Y-128284266D01*
X132056000Y-128506635D01*
X132056000Y-128733365D01*
X132011768Y-128955734D01*
X131925004Y-129165202D01*
X131799038Y-129353723D01*
X131638723Y-129514038D01*
X131450202Y-129640004D01*
X131240734Y-129726768D01*
X131018365Y-129771000D01*
X130791635Y-129771000D01*
X130569266Y-129726768D01*
X130359798Y-129640004D01*
X130171277Y-129514038D01*
X130010962Y-129353723D01*
X129884996Y-129165202D01*
X129798232Y-128955734D01*
X129754000Y-128733365D01*
X129754000Y-128506635D01*
X129798232Y-128284266D01*
X129884996Y-128074798D01*
X130010962Y-127886277D01*
X130171277Y-127725962D01*
X130359798Y-127599996D01*
X130569266Y-127513232D01*
X130791635Y-127469000D01*
X131018365Y-127469000D01*
X131240734Y-127513232D01*
X131240734Y-127513232D01*
G37*
G36*
X132136991Y-124813101D02*
X132222321Y-124821505D01*
X132359172Y-124863019D01*
X132359174Y-124863020D01*
X132359177Y-124863021D01*
X132485296Y-124930432D01*
X132595843Y-125021157D01*
X132686568Y-125131704D01*
X132753979Y-125257823D01*
X132753980Y-125257826D01*
X132753981Y-125257828D01*
X132795495Y-125394679D01*
X132809512Y-125537000D01*
X132795495Y-125679321D01*
X132753981Y-125816172D01*
X132753979Y-125816177D01*
X132686568Y-125942296D01*
X132595843Y-126052843D01*
X132485296Y-126143568D01*
X132359177Y-126210979D01*
X132359174Y-126210980D01*
X132359172Y-126210981D01*
X132222321Y-126252495D01*
X132136991Y-126260899D01*
X132115660Y-126263000D01*
X132044340Y-126263000D01*
X132023009Y-126260899D01*
X131937679Y-126252495D01*
X131800828Y-126210981D01*
X131800826Y-126210980D01*
X131800823Y-126210979D01*
X131674704Y-126143568D01*
X131564157Y-126052843D01*
X131473432Y-125942296D01*
X131406021Y-125816177D01*
X131406019Y-125816172D01*
X131364505Y-125679321D01*
X131350488Y-125537000D01*
X131364505Y-125394679D01*
X131406019Y-125257828D01*
X131406020Y-125257826D01*
X131406021Y-125257823D01*
X131473432Y-125131704D01*
X131564157Y-125021157D01*
X131674704Y-124930432D01*
X131800823Y-124863021D01*
X131800826Y-124863020D01*
X131800828Y-124863019D01*
X131937679Y-124821505D01*
X132023009Y-124813101D01*
X132044340Y-124811000D01*
X132115660Y-124811000D01*
X132136991Y-124813101D01*
X132136991Y-124813101D01*
G37*
G36*
X106736991Y-124813101D02*
X106822321Y-124821505D01*
X106959172Y-124863019D01*
X106959174Y-124863020D01*
X106959177Y-124863021D01*
X107085296Y-124930432D01*
X107195843Y-125021157D01*
X107286568Y-125131704D01*
X107353979Y-125257823D01*
X107353980Y-125257826D01*
X107353981Y-125257828D01*
X107395495Y-125394679D01*
X107409512Y-125537000D01*
X107395495Y-125679321D01*
X107353981Y-125816172D01*
X107353979Y-125816177D01*
X107286568Y-125942296D01*
X107195843Y-126052843D01*
X107085296Y-126143568D01*
X106959177Y-126210979D01*
X106959174Y-126210980D01*
X106959172Y-126210981D01*
X106822321Y-126252495D01*
X106736991Y-126260899D01*
X106715660Y-126263000D01*
X106644340Y-126263000D01*
X106623009Y-126260899D01*
X106537679Y-126252495D01*
X106400828Y-126210981D01*
X106400826Y-126210980D01*
X106400823Y-126210979D01*
X106274704Y-126143568D01*
X106164157Y-126052843D01*
X106073432Y-125942296D01*
X106006021Y-125816177D01*
X106006019Y-125816172D01*
X105964505Y-125679321D01*
X105950488Y-125537000D01*
X105964505Y-125394679D01*
X106006019Y-125257828D01*
X106006020Y-125257826D01*
X106006021Y-125257823D01*
X106073432Y-125131704D01*
X106164157Y-125021157D01*
X106274704Y-124930432D01*
X106400823Y-124863021D01*
X106400826Y-124863020D01*
X106400828Y-124863019D01*
X106537679Y-124821505D01*
X106623009Y-124813101D01*
X106644340Y-124811000D01*
X106715660Y-124811000D01*
X106736991Y-124813101D01*
X106736991Y-124813101D01*
G37*
G36*
X108736991Y-124813101D02*
X108822321Y-124821505D01*
X108959172Y-124863019D01*
X108959174Y-124863020D01*
X108959177Y-124863021D01*
X109085296Y-124930432D01*
X109195843Y-125021157D01*
X109286568Y-125131704D01*
X109353979Y-125257823D01*
X109353980Y-125257826D01*
X109353981Y-125257828D01*
X109395495Y-125394679D01*
X109409512Y-125537000D01*
X109395495Y-125679321D01*
X109353981Y-125816172D01*
X109353979Y-125816177D01*
X109286568Y-125942296D01*
X109195843Y-126052843D01*
X109085296Y-126143568D01*
X108959177Y-126210979D01*
X108959174Y-126210980D01*
X108959172Y-126210981D01*
X108822321Y-126252495D01*
X108736991Y-126260899D01*
X108715660Y-126263000D01*
X108644340Y-126263000D01*
X108623009Y-126260899D01*
X108537679Y-126252495D01*
X108400828Y-126210981D01*
X108400826Y-126210980D01*
X108400823Y-126210979D01*
X108274704Y-126143568D01*
X108164157Y-126052843D01*
X108073432Y-125942296D01*
X108006021Y-125816177D01*
X108006019Y-125816172D01*
X107964505Y-125679321D01*
X107950488Y-125537000D01*
X107964505Y-125394679D01*
X108006019Y-125257828D01*
X108006020Y-125257826D01*
X108006021Y-125257823D01*
X108073432Y-125131704D01*
X108164157Y-125021157D01*
X108274704Y-124930432D01*
X108400823Y-124863021D01*
X108400826Y-124863020D01*
X108400828Y-124863019D01*
X108537679Y-124821505D01*
X108623009Y-124813101D01*
X108644340Y-124811000D01*
X108715660Y-124811000D01*
X108736991Y-124813101D01*
X108736991Y-124813101D01*
G37*
G36*
X130136991Y-124813101D02*
X130222321Y-124821505D01*
X130359172Y-124863019D01*
X130359174Y-124863020D01*
X130359177Y-124863021D01*
X130485296Y-124930432D01*
X130595843Y-125021157D01*
X130686568Y-125131704D01*
X130753979Y-125257823D01*
X130753980Y-125257826D01*
X130753981Y-125257828D01*
X130795495Y-125394679D01*
X130809512Y-125537000D01*
X130795495Y-125679321D01*
X130753981Y-125816172D01*
X130753979Y-125816177D01*
X130686568Y-125942296D01*
X130595843Y-126052843D01*
X130485296Y-126143568D01*
X130359177Y-126210979D01*
X130359174Y-126210980D01*
X130359172Y-126210981D01*
X130222321Y-126252495D01*
X130136991Y-126260899D01*
X130115660Y-126263000D01*
X130044340Y-126263000D01*
X130023009Y-126260899D01*
X129937679Y-126252495D01*
X129800828Y-126210981D01*
X129800826Y-126210980D01*
X129800823Y-126210979D01*
X129674704Y-126143568D01*
X129564157Y-126052843D01*
X129473432Y-125942296D01*
X129406021Y-125816177D01*
X129406019Y-125816172D01*
X129364505Y-125679321D01*
X129350488Y-125537000D01*
X129364505Y-125394679D01*
X129406019Y-125257828D01*
X129406020Y-125257826D01*
X129406021Y-125257823D01*
X129473432Y-125131704D01*
X129564157Y-125021157D01*
X129674704Y-124930432D01*
X129800823Y-124863021D01*
X129800826Y-124863020D01*
X129800828Y-124863019D01*
X129937679Y-124821505D01*
X130023009Y-124813101D01*
X130044340Y-124811000D01*
X130115660Y-124811000D01*
X130136991Y-124813101D01*
X130136991Y-124813101D01*
G37*
G36*
X92820443Y-124162419D02*
X92886627Y-124168937D01*
X92999853Y-124203284D01*
X93056467Y-124220457D01*
X93136058Y-124263000D01*
X93212991Y-124304122D01*
X93248729Y-124333452D01*
X93350186Y-124416714D01*
X93433448Y-124518171D01*
X93462778Y-124553909D01*
X93462779Y-124553911D01*
X93546443Y-124710433D01*
X93546443Y-124710434D01*
X93597963Y-124880273D01*
X93615359Y-125056900D01*
X93597963Y-125233527D01*
X93590591Y-125257828D01*
X93546443Y-125403367D01*
X93475014Y-125537000D01*
X93462778Y-125559891D01*
X93433448Y-125595629D01*
X93350186Y-125697086D01*
X93248729Y-125780348D01*
X93212991Y-125809678D01*
X93212989Y-125809679D01*
X93056467Y-125893343D01*
X92999853Y-125910516D01*
X92886627Y-125944863D01*
X92820443Y-125951381D01*
X92754260Y-125957900D01*
X92665740Y-125957900D01*
X92599557Y-125951381D01*
X92533373Y-125944863D01*
X92420147Y-125910516D01*
X92363533Y-125893343D01*
X92207011Y-125809679D01*
X92207009Y-125809678D01*
X92171271Y-125780348D01*
X92069814Y-125697086D01*
X91986552Y-125595629D01*
X91957222Y-125559891D01*
X91944986Y-125537000D01*
X91873557Y-125403367D01*
X91829409Y-125257828D01*
X91822037Y-125233527D01*
X91804641Y-125056900D01*
X91822037Y-124880273D01*
X91873557Y-124710434D01*
X91873557Y-124710433D01*
X91957221Y-124553911D01*
X91957222Y-124553909D01*
X91986552Y-124518171D01*
X92069814Y-124416714D01*
X92171271Y-124333452D01*
X92207009Y-124304122D01*
X92283942Y-124263000D01*
X92363533Y-124220457D01*
X92420147Y-124203284D01*
X92533373Y-124168937D01*
X92599557Y-124162419D01*
X92665740Y-124155900D01*
X92754260Y-124155900D01*
X92820443Y-124162419D01*
X92820443Y-124162419D01*
G37*
G36*
X95360443Y-124162419D02*
X95426627Y-124168937D01*
X95539853Y-124203284D01*
X95596467Y-124220457D01*
X95676058Y-124263000D01*
X95752991Y-124304122D01*
X95788729Y-124333452D01*
X95890186Y-124416714D01*
X95973448Y-124518171D01*
X96002778Y-124553909D01*
X96002779Y-124553911D01*
X96086443Y-124710433D01*
X96086443Y-124710434D01*
X96137963Y-124880273D01*
X96155359Y-125056900D01*
X96137963Y-125233527D01*
X96130591Y-125257828D01*
X96086443Y-125403367D01*
X96015014Y-125537000D01*
X96002778Y-125559891D01*
X95973448Y-125595629D01*
X95890186Y-125697086D01*
X95788729Y-125780348D01*
X95752991Y-125809678D01*
X95752989Y-125809679D01*
X95596467Y-125893343D01*
X95539853Y-125910516D01*
X95426627Y-125944863D01*
X95360443Y-125951381D01*
X95294260Y-125957900D01*
X95205740Y-125957900D01*
X95139557Y-125951381D01*
X95073373Y-125944863D01*
X94960147Y-125910516D01*
X94903533Y-125893343D01*
X94747011Y-125809679D01*
X94747009Y-125809678D01*
X94711271Y-125780348D01*
X94609814Y-125697086D01*
X94526552Y-125595629D01*
X94497222Y-125559891D01*
X94484986Y-125537000D01*
X94413557Y-125403367D01*
X94369409Y-125257828D01*
X94362037Y-125233527D01*
X94344641Y-125056900D01*
X94362037Y-124880273D01*
X94413557Y-124710434D01*
X94413557Y-124710433D01*
X94497221Y-124553911D01*
X94497222Y-124553909D01*
X94526552Y-124518171D01*
X94609814Y-124416714D01*
X94711271Y-124333452D01*
X94747009Y-124304122D01*
X94823942Y-124263000D01*
X94903533Y-124220457D01*
X94960147Y-124203284D01*
X95073373Y-124168937D01*
X95139557Y-124162419D01*
X95205740Y-124155900D01*
X95294260Y-124155900D01*
X95360443Y-124162419D01*
X95360443Y-124162419D01*
G37*
G36*
X143620443Y-124149719D02*
X143686627Y-124156237D01*
X143799853Y-124190584D01*
X143856467Y-124207757D01*
X143959818Y-124263000D01*
X144012991Y-124291422D01*
X144048729Y-124320752D01*
X144150186Y-124404014D01*
X144233448Y-124505471D01*
X144262778Y-124541209D01*
X144262779Y-124541211D01*
X144346443Y-124697733D01*
X144363616Y-124754347D01*
X144397963Y-124867573D01*
X144415359Y-125044200D01*
X144397963Y-125220827D01*
X144363616Y-125334053D01*
X144346443Y-125390667D01*
X144272348Y-125529287D01*
X144262778Y-125547191D01*
X144252357Y-125559889D01*
X144150186Y-125684386D01*
X144048729Y-125767648D01*
X144012991Y-125796978D01*
X144012989Y-125796979D01*
X143856467Y-125880643D01*
X143814600Y-125893343D01*
X143686627Y-125932163D01*
X143620442Y-125938682D01*
X143554260Y-125945200D01*
X143465740Y-125945200D01*
X143399558Y-125938682D01*
X143333373Y-125932163D01*
X143205400Y-125893343D01*
X143163533Y-125880643D01*
X143007011Y-125796979D01*
X143007009Y-125796978D01*
X142971271Y-125767648D01*
X142869814Y-125684386D01*
X142767643Y-125559889D01*
X142757222Y-125547191D01*
X142747652Y-125529287D01*
X142673557Y-125390667D01*
X142656384Y-125334053D01*
X142622037Y-125220827D01*
X142604641Y-125044200D01*
X142622037Y-124867573D01*
X142656384Y-124754347D01*
X142673557Y-124697733D01*
X142757221Y-124541211D01*
X142757222Y-124541209D01*
X142786552Y-124505471D01*
X142869814Y-124404014D01*
X142971271Y-124320752D01*
X143007009Y-124291422D01*
X143060182Y-124263000D01*
X143163533Y-124207757D01*
X143220147Y-124190584D01*
X143333373Y-124156237D01*
X143399557Y-124149719D01*
X143465740Y-124143200D01*
X143554260Y-124143200D01*
X143620443Y-124149719D01*
X143620443Y-124149719D01*
G37*
G36*
X146160443Y-124149719D02*
X146226627Y-124156237D01*
X146339853Y-124190584D01*
X146396467Y-124207757D01*
X146499818Y-124263000D01*
X146552991Y-124291422D01*
X146588729Y-124320752D01*
X146690186Y-124404014D01*
X146773448Y-124505471D01*
X146802778Y-124541209D01*
X146802779Y-124541211D01*
X146886443Y-124697733D01*
X146903616Y-124754347D01*
X146937963Y-124867573D01*
X146955359Y-125044200D01*
X146937963Y-125220827D01*
X146903616Y-125334053D01*
X146886443Y-125390667D01*
X146812348Y-125529287D01*
X146802778Y-125547191D01*
X146792357Y-125559889D01*
X146690186Y-125684386D01*
X146588729Y-125767648D01*
X146552991Y-125796978D01*
X146552989Y-125796979D01*
X146396467Y-125880643D01*
X146354600Y-125893343D01*
X146226627Y-125932163D01*
X146160442Y-125938682D01*
X146094260Y-125945200D01*
X146005740Y-125945200D01*
X145939558Y-125938682D01*
X145873373Y-125932163D01*
X145745400Y-125893343D01*
X145703533Y-125880643D01*
X145547011Y-125796979D01*
X145547009Y-125796978D01*
X145511271Y-125767648D01*
X145409814Y-125684386D01*
X145307643Y-125559889D01*
X145297222Y-125547191D01*
X145287652Y-125529287D01*
X145213557Y-125390667D01*
X145196384Y-125334053D01*
X145162037Y-125220827D01*
X145144641Y-125044200D01*
X145162037Y-124867573D01*
X145196384Y-124754347D01*
X145213557Y-124697733D01*
X145297221Y-124541211D01*
X145297222Y-124541209D01*
X145326552Y-124505471D01*
X145409814Y-124404014D01*
X145511271Y-124320752D01*
X145547009Y-124291422D01*
X145600182Y-124263000D01*
X145703533Y-124207757D01*
X145760147Y-124190584D01*
X145873373Y-124156237D01*
X145939557Y-124149719D01*
X146005740Y-124143200D01*
X146094260Y-124143200D01*
X146160443Y-124149719D01*
X146160443Y-124149719D01*
G37*
G36*
X132136991Y-122813101D02*
X132222321Y-122821505D01*
X132359172Y-122863019D01*
X132359174Y-122863020D01*
X132359177Y-122863021D01*
X132485296Y-122930432D01*
X132595843Y-123021157D01*
X132686568Y-123131704D01*
X132753979Y-123257823D01*
X132753980Y-123257826D01*
X132753981Y-123257828D01*
X132795495Y-123394679D01*
X132809512Y-123537000D01*
X132795495Y-123679321D01*
X132753981Y-123816172D01*
X132753979Y-123816177D01*
X132686568Y-123942296D01*
X132595843Y-124052843D01*
X132485296Y-124143568D01*
X132359177Y-124210979D01*
X132359174Y-124210980D01*
X132359172Y-124210981D01*
X132222321Y-124252495D01*
X132136991Y-124260899D01*
X132115660Y-124263000D01*
X132044340Y-124263000D01*
X132023009Y-124260899D01*
X131937679Y-124252495D01*
X131800828Y-124210981D01*
X131800826Y-124210980D01*
X131800823Y-124210979D01*
X131674704Y-124143568D01*
X131564157Y-124052843D01*
X131473432Y-123942296D01*
X131406021Y-123816177D01*
X131406019Y-123816172D01*
X131364505Y-123679321D01*
X131350488Y-123537000D01*
X131364505Y-123394679D01*
X131406019Y-123257828D01*
X131406020Y-123257826D01*
X131406021Y-123257823D01*
X131473432Y-123131704D01*
X131564157Y-123021157D01*
X131674704Y-122930432D01*
X131800823Y-122863021D01*
X131800826Y-122863020D01*
X131800828Y-122863019D01*
X131937679Y-122821505D01*
X132023009Y-122813101D01*
X132044340Y-122811000D01*
X132115660Y-122811000D01*
X132136991Y-122813101D01*
X132136991Y-122813101D01*
G37*
G36*
X130136991Y-122813101D02*
X130222321Y-122821505D01*
X130359172Y-122863019D01*
X130359174Y-122863020D01*
X130359177Y-122863021D01*
X130485296Y-122930432D01*
X130595843Y-123021157D01*
X130686568Y-123131704D01*
X130753979Y-123257823D01*
X130753980Y-123257826D01*
X130753981Y-123257828D01*
X130795495Y-123394679D01*
X130809512Y-123537000D01*
X130795495Y-123679321D01*
X130753981Y-123816172D01*
X130753979Y-123816177D01*
X130686568Y-123942296D01*
X130595843Y-124052843D01*
X130485296Y-124143568D01*
X130359177Y-124210979D01*
X130359174Y-124210980D01*
X130359172Y-124210981D01*
X130222321Y-124252495D01*
X130136991Y-124260899D01*
X130115660Y-124263000D01*
X130044340Y-124263000D01*
X130023009Y-124260899D01*
X129937679Y-124252495D01*
X129800828Y-124210981D01*
X129800826Y-124210980D01*
X129800823Y-124210979D01*
X129674704Y-124143568D01*
X129564157Y-124052843D01*
X129473432Y-123942296D01*
X129406021Y-123816177D01*
X129406019Y-123816172D01*
X129364505Y-123679321D01*
X129350488Y-123537000D01*
X129364505Y-123394679D01*
X129406019Y-123257828D01*
X129406020Y-123257826D01*
X129406021Y-123257823D01*
X129473432Y-123131704D01*
X129564157Y-123021157D01*
X129674704Y-122930432D01*
X129800823Y-122863021D01*
X129800826Y-122863020D01*
X129800828Y-122863019D01*
X129937679Y-122821505D01*
X130023009Y-122813101D01*
X130044340Y-122811000D01*
X130115660Y-122811000D01*
X130136991Y-122813101D01*
X130136991Y-122813101D01*
G37*
G36*
X106736991Y-122813101D02*
X106822321Y-122821505D01*
X106959172Y-122863019D01*
X106959174Y-122863020D01*
X106959177Y-122863021D01*
X107085296Y-122930432D01*
X107195843Y-123021157D01*
X107286568Y-123131704D01*
X107353979Y-123257823D01*
X107353980Y-123257826D01*
X107353981Y-123257828D01*
X107395495Y-123394679D01*
X107409512Y-123537000D01*
X107395495Y-123679321D01*
X107353981Y-123816172D01*
X107353979Y-123816177D01*
X107286568Y-123942296D01*
X107195843Y-124052843D01*
X107085296Y-124143568D01*
X106959177Y-124210979D01*
X106959174Y-124210980D01*
X106959172Y-124210981D01*
X106822321Y-124252495D01*
X106736991Y-124260899D01*
X106715660Y-124263000D01*
X106644340Y-124263000D01*
X106623009Y-124260899D01*
X106537679Y-124252495D01*
X106400828Y-124210981D01*
X106400826Y-124210980D01*
X106400823Y-124210979D01*
X106274704Y-124143568D01*
X106164157Y-124052843D01*
X106073432Y-123942296D01*
X106006021Y-123816177D01*
X106006019Y-123816172D01*
X105964505Y-123679321D01*
X105950488Y-123537000D01*
X105964505Y-123394679D01*
X106006019Y-123257828D01*
X106006020Y-123257826D01*
X106006021Y-123257823D01*
X106073432Y-123131704D01*
X106164157Y-123021157D01*
X106274704Y-122930432D01*
X106400823Y-122863021D01*
X106400826Y-122863020D01*
X106400828Y-122863019D01*
X106537679Y-122821505D01*
X106623009Y-122813101D01*
X106644340Y-122811000D01*
X106715660Y-122811000D01*
X106736991Y-122813101D01*
X106736991Y-122813101D01*
G37*
G36*
X108736991Y-122813101D02*
X108822321Y-122821505D01*
X108959172Y-122863019D01*
X108959174Y-122863020D01*
X108959177Y-122863021D01*
X109085296Y-122930432D01*
X109195843Y-123021157D01*
X109286568Y-123131704D01*
X109353979Y-123257823D01*
X109353980Y-123257826D01*
X109353981Y-123257828D01*
X109395495Y-123394679D01*
X109409512Y-123537000D01*
X109395495Y-123679321D01*
X109353981Y-123816172D01*
X109353979Y-123816177D01*
X109286568Y-123942296D01*
X109195843Y-124052843D01*
X109085296Y-124143568D01*
X108959177Y-124210979D01*
X108959174Y-124210980D01*
X108959172Y-124210981D01*
X108822321Y-124252495D01*
X108736991Y-124260899D01*
X108715660Y-124263000D01*
X108644340Y-124263000D01*
X108623009Y-124260899D01*
X108537679Y-124252495D01*
X108400828Y-124210981D01*
X108400826Y-124210980D01*
X108400823Y-124210979D01*
X108274704Y-124143568D01*
X108164157Y-124052843D01*
X108073432Y-123942296D01*
X108006021Y-123816177D01*
X108006019Y-123816172D01*
X107964505Y-123679321D01*
X107950488Y-123537000D01*
X107964505Y-123394679D01*
X108006019Y-123257828D01*
X108006020Y-123257826D01*
X108006021Y-123257823D01*
X108073432Y-123131704D01*
X108164157Y-123021157D01*
X108274704Y-122930432D01*
X108400823Y-122863021D01*
X108400826Y-122863020D01*
X108400828Y-122863019D01*
X108537679Y-122821505D01*
X108623009Y-122813101D01*
X108644340Y-122811000D01*
X108715660Y-122811000D01*
X108736991Y-122813101D01*
X108736991Y-122813101D01*
G37*
G36*
X92820443Y-121622419D02*
X92886627Y-121628937D01*
X92999853Y-121663284D01*
X93056467Y-121680457D01*
X93189229Y-121751421D01*
X93212991Y-121764122D01*
X93248729Y-121793452D01*
X93350186Y-121876714D01*
X93433448Y-121978171D01*
X93462778Y-122013909D01*
X93462779Y-122013911D01*
X93546443Y-122170433D01*
X93546443Y-122170434D01*
X93597963Y-122340273D01*
X93615359Y-122516900D01*
X93597963Y-122693527D01*
X93563616Y-122806753D01*
X93546443Y-122863367D01*
X93510595Y-122930432D01*
X93462778Y-123019891D01*
X93433448Y-123055629D01*
X93350186Y-123157086D01*
X93248729Y-123240348D01*
X93212991Y-123269678D01*
X93212989Y-123269679D01*
X93056467Y-123353343D01*
X92999853Y-123370516D01*
X92886627Y-123404863D01*
X92820442Y-123411382D01*
X92754260Y-123417900D01*
X92665740Y-123417900D01*
X92599558Y-123411382D01*
X92533373Y-123404863D01*
X92420147Y-123370516D01*
X92363533Y-123353343D01*
X92207011Y-123269679D01*
X92207009Y-123269678D01*
X92171271Y-123240348D01*
X92069814Y-123157086D01*
X91986552Y-123055629D01*
X91957222Y-123019891D01*
X91909405Y-122930432D01*
X91873557Y-122863367D01*
X91856384Y-122806753D01*
X91822037Y-122693527D01*
X91804641Y-122516900D01*
X91822037Y-122340273D01*
X91873557Y-122170434D01*
X91873557Y-122170433D01*
X91957221Y-122013911D01*
X91957222Y-122013909D01*
X91986552Y-121978171D01*
X92069814Y-121876714D01*
X92171271Y-121793452D01*
X92207009Y-121764122D01*
X92230771Y-121751421D01*
X92363533Y-121680457D01*
X92420147Y-121663284D01*
X92533373Y-121628937D01*
X92599557Y-121622419D01*
X92665740Y-121615900D01*
X92754260Y-121615900D01*
X92820443Y-121622419D01*
X92820443Y-121622419D01*
G37*
G36*
X95360443Y-121622419D02*
X95426627Y-121628937D01*
X95539853Y-121663284D01*
X95596467Y-121680457D01*
X95729229Y-121751421D01*
X95752991Y-121764122D01*
X95788729Y-121793452D01*
X95890186Y-121876714D01*
X95973448Y-121978171D01*
X96002778Y-122013909D01*
X96002779Y-122013911D01*
X96086443Y-122170433D01*
X96086443Y-122170434D01*
X96137963Y-122340273D01*
X96155359Y-122516900D01*
X96137963Y-122693527D01*
X96103616Y-122806753D01*
X96086443Y-122863367D01*
X96050595Y-122930432D01*
X96002778Y-123019891D01*
X95973448Y-123055629D01*
X95890186Y-123157086D01*
X95788729Y-123240348D01*
X95752991Y-123269678D01*
X95752989Y-123269679D01*
X95596467Y-123353343D01*
X95539853Y-123370516D01*
X95426627Y-123404863D01*
X95360442Y-123411382D01*
X95294260Y-123417900D01*
X95205740Y-123417900D01*
X95139558Y-123411382D01*
X95073373Y-123404863D01*
X94960147Y-123370516D01*
X94903533Y-123353343D01*
X94747011Y-123269679D01*
X94747009Y-123269678D01*
X94711271Y-123240348D01*
X94609814Y-123157086D01*
X94526552Y-123055629D01*
X94497222Y-123019891D01*
X94449405Y-122930432D01*
X94413557Y-122863367D01*
X94396384Y-122806753D01*
X94362037Y-122693527D01*
X94344641Y-122516900D01*
X94362037Y-122340273D01*
X94413557Y-122170434D01*
X94413557Y-122170433D01*
X94497221Y-122013911D01*
X94497222Y-122013909D01*
X94526552Y-121978171D01*
X94609814Y-121876714D01*
X94711271Y-121793452D01*
X94747009Y-121764122D01*
X94770771Y-121751421D01*
X94903533Y-121680457D01*
X94960147Y-121663284D01*
X95073373Y-121628937D01*
X95139557Y-121622419D01*
X95205740Y-121615900D01*
X95294260Y-121615900D01*
X95360443Y-121622419D01*
X95360443Y-121622419D01*
G37*
G36*
X146160442Y-121609718D02*
X146226627Y-121616237D01*
X146339853Y-121650584D01*
X146396467Y-121667757D01*
X146535087Y-121741852D01*
X146552991Y-121751422D01*
X146588729Y-121780752D01*
X146690186Y-121864014D01*
X146754429Y-121942296D01*
X146802778Y-122001209D01*
X146802779Y-122001211D01*
X146886443Y-122157733D01*
X146902595Y-122210979D01*
X146937963Y-122327573D01*
X146955359Y-122504200D01*
X146937963Y-122680827D01*
X146903616Y-122794053D01*
X146886443Y-122850667D01*
X146812348Y-122989287D01*
X146802778Y-123007191D01*
X146792357Y-123019889D01*
X146690186Y-123144386D01*
X146588729Y-123227648D01*
X146552991Y-123256978D01*
X146552989Y-123256979D01*
X146396467Y-123340643D01*
X146354600Y-123353343D01*
X146226627Y-123392163D01*
X146160443Y-123398681D01*
X146094260Y-123405200D01*
X146005740Y-123405200D01*
X145939557Y-123398681D01*
X145873373Y-123392163D01*
X145745400Y-123353343D01*
X145703533Y-123340643D01*
X145547011Y-123256979D01*
X145547009Y-123256978D01*
X145511271Y-123227648D01*
X145409814Y-123144386D01*
X145307643Y-123019889D01*
X145297222Y-123007191D01*
X145287652Y-122989287D01*
X145213557Y-122850667D01*
X145196384Y-122794053D01*
X145162037Y-122680827D01*
X145144641Y-122504200D01*
X145162037Y-122327573D01*
X145197405Y-122210979D01*
X145213557Y-122157733D01*
X145297221Y-122001211D01*
X145297222Y-122001209D01*
X145345571Y-121942296D01*
X145409814Y-121864014D01*
X145511271Y-121780752D01*
X145547009Y-121751422D01*
X145564913Y-121741852D01*
X145703533Y-121667757D01*
X145760147Y-121650584D01*
X145873373Y-121616237D01*
X145939558Y-121609718D01*
X146005740Y-121603200D01*
X146094260Y-121603200D01*
X146160442Y-121609718D01*
X146160442Y-121609718D01*
G37*
G36*
X143620442Y-121609718D02*
X143686627Y-121616237D01*
X143799853Y-121650584D01*
X143856467Y-121667757D01*
X143995087Y-121741852D01*
X144012991Y-121751422D01*
X144048729Y-121780752D01*
X144150186Y-121864014D01*
X144214429Y-121942296D01*
X144262778Y-122001209D01*
X144262779Y-122001211D01*
X144346443Y-122157733D01*
X144362595Y-122210979D01*
X144397963Y-122327573D01*
X144415359Y-122504200D01*
X144397963Y-122680827D01*
X144363616Y-122794053D01*
X144346443Y-122850667D01*
X144272348Y-122989287D01*
X144262778Y-123007191D01*
X144252357Y-123019889D01*
X144150186Y-123144386D01*
X144048729Y-123227648D01*
X144012991Y-123256978D01*
X144012989Y-123256979D01*
X143856467Y-123340643D01*
X143814600Y-123353343D01*
X143686627Y-123392163D01*
X143620443Y-123398681D01*
X143554260Y-123405200D01*
X143465740Y-123405200D01*
X143399557Y-123398681D01*
X143333373Y-123392163D01*
X143205400Y-123353343D01*
X143163533Y-123340643D01*
X143007011Y-123256979D01*
X143007009Y-123256978D01*
X142971271Y-123227648D01*
X142869814Y-123144386D01*
X142767643Y-123019889D01*
X142757222Y-123007191D01*
X142747652Y-122989287D01*
X142673557Y-122850667D01*
X142656384Y-122794053D01*
X142622037Y-122680827D01*
X142604641Y-122504200D01*
X142622037Y-122327573D01*
X142657405Y-122210979D01*
X142673557Y-122157733D01*
X142757221Y-122001211D01*
X142757222Y-122001209D01*
X142805571Y-121942296D01*
X142869814Y-121864014D01*
X142971271Y-121780752D01*
X143007009Y-121751422D01*
X143024913Y-121741852D01*
X143163533Y-121667757D01*
X143220147Y-121650584D01*
X143333373Y-121616237D01*
X143399558Y-121609718D01*
X143465740Y-121603200D01*
X143554260Y-121603200D01*
X143620442Y-121609718D01*
X143620442Y-121609718D01*
G37*
G36*
X108736991Y-120813101D02*
X108822321Y-120821505D01*
X108959172Y-120863019D01*
X108959174Y-120863020D01*
X108959177Y-120863021D01*
X109085296Y-120930432D01*
X109195843Y-121021157D01*
X109286568Y-121131704D01*
X109353979Y-121257823D01*
X109353980Y-121257826D01*
X109353981Y-121257828D01*
X109395495Y-121394679D01*
X109409512Y-121537000D01*
X109395495Y-121679321D01*
X109369770Y-121764122D01*
X109353979Y-121816177D01*
X109286568Y-121942296D01*
X109195843Y-122052843D01*
X109085296Y-122143568D01*
X108959177Y-122210979D01*
X108959174Y-122210980D01*
X108959172Y-122210981D01*
X108822321Y-122252495D01*
X108736991Y-122260899D01*
X108715660Y-122263000D01*
X108644340Y-122263000D01*
X108623009Y-122260899D01*
X108537679Y-122252495D01*
X108400828Y-122210981D01*
X108400826Y-122210980D01*
X108400823Y-122210979D01*
X108274704Y-122143568D01*
X108164157Y-122052843D01*
X108073432Y-121942296D01*
X108006021Y-121816177D01*
X107990230Y-121764122D01*
X107964505Y-121679321D01*
X107950488Y-121537000D01*
X107964505Y-121394679D01*
X108006019Y-121257828D01*
X108006020Y-121257826D01*
X108006021Y-121257823D01*
X108073432Y-121131704D01*
X108164157Y-121021157D01*
X108274704Y-120930432D01*
X108400823Y-120863021D01*
X108400826Y-120863020D01*
X108400828Y-120863019D01*
X108537679Y-120821505D01*
X108623009Y-120813101D01*
X108644340Y-120811000D01*
X108715660Y-120811000D01*
X108736991Y-120813101D01*
X108736991Y-120813101D01*
G37*
G36*
X106736991Y-120813101D02*
X106822321Y-120821505D01*
X106959172Y-120863019D01*
X106959174Y-120863020D01*
X106959177Y-120863021D01*
X107085296Y-120930432D01*
X107195843Y-121021157D01*
X107286568Y-121131704D01*
X107353979Y-121257823D01*
X107353980Y-121257826D01*
X107353981Y-121257828D01*
X107395495Y-121394679D01*
X107409512Y-121537000D01*
X107395495Y-121679321D01*
X107369770Y-121764122D01*
X107353979Y-121816177D01*
X107286568Y-121942296D01*
X107195843Y-122052843D01*
X107085296Y-122143568D01*
X106959177Y-122210979D01*
X106959174Y-122210980D01*
X106959172Y-122210981D01*
X106822321Y-122252495D01*
X106736991Y-122260899D01*
X106715660Y-122263000D01*
X106644340Y-122263000D01*
X106623009Y-122260899D01*
X106537679Y-122252495D01*
X106400828Y-122210981D01*
X106400826Y-122210980D01*
X106400823Y-122210979D01*
X106274704Y-122143568D01*
X106164157Y-122052843D01*
X106073432Y-121942296D01*
X106006021Y-121816177D01*
X105990230Y-121764122D01*
X105964505Y-121679321D01*
X105950488Y-121537000D01*
X105964505Y-121394679D01*
X106006019Y-121257828D01*
X106006020Y-121257826D01*
X106006021Y-121257823D01*
X106073432Y-121131704D01*
X106164157Y-121021157D01*
X106274704Y-120930432D01*
X106400823Y-120863021D01*
X106400826Y-120863020D01*
X106400828Y-120863019D01*
X106537679Y-120821505D01*
X106623009Y-120813101D01*
X106644340Y-120811000D01*
X106715660Y-120811000D01*
X106736991Y-120813101D01*
X106736991Y-120813101D01*
G37*
G36*
X132136991Y-120813101D02*
X132222321Y-120821505D01*
X132359172Y-120863019D01*
X132359174Y-120863020D01*
X132359177Y-120863021D01*
X132485296Y-120930432D01*
X132595843Y-121021157D01*
X132686568Y-121131704D01*
X132753979Y-121257823D01*
X132753980Y-121257826D01*
X132753981Y-121257828D01*
X132795495Y-121394679D01*
X132809512Y-121537000D01*
X132795495Y-121679321D01*
X132769770Y-121764122D01*
X132753979Y-121816177D01*
X132686568Y-121942296D01*
X132595843Y-122052843D01*
X132485296Y-122143568D01*
X132359177Y-122210979D01*
X132359174Y-122210980D01*
X132359172Y-122210981D01*
X132222321Y-122252495D01*
X132136991Y-122260899D01*
X132115660Y-122263000D01*
X132044340Y-122263000D01*
X132023009Y-122260899D01*
X131937679Y-122252495D01*
X131800828Y-122210981D01*
X131800826Y-122210980D01*
X131800823Y-122210979D01*
X131674704Y-122143568D01*
X131564157Y-122052843D01*
X131473432Y-121942296D01*
X131406021Y-121816177D01*
X131390230Y-121764122D01*
X131364505Y-121679321D01*
X131350488Y-121537000D01*
X131364505Y-121394679D01*
X131406019Y-121257828D01*
X131406020Y-121257826D01*
X131406021Y-121257823D01*
X131473432Y-121131704D01*
X131564157Y-121021157D01*
X131674704Y-120930432D01*
X131800823Y-120863021D01*
X131800826Y-120863020D01*
X131800828Y-120863019D01*
X131937679Y-120821505D01*
X132023009Y-120813101D01*
X132044340Y-120811000D01*
X132115660Y-120811000D01*
X132136991Y-120813101D01*
X132136991Y-120813101D01*
G37*
G36*
X130136991Y-120813101D02*
X130222321Y-120821505D01*
X130359172Y-120863019D01*
X130359174Y-120863020D01*
X130359177Y-120863021D01*
X130485296Y-120930432D01*
X130595843Y-121021157D01*
X130686568Y-121131704D01*
X130753979Y-121257823D01*
X130753980Y-121257826D01*
X130753981Y-121257828D01*
X130795495Y-121394679D01*
X130809512Y-121537000D01*
X130795495Y-121679321D01*
X130769770Y-121764122D01*
X130753979Y-121816177D01*
X130686568Y-121942296D01*
X130595843Y-122052843D01*
X130485296Y-122143568D01*
X130359177Y-122210979D01*
X130359174Y-122210980D01*
X130359172Y-122210981D01*
X130222321Y-122252495D01*
X130136991Y-122260899D01*
X130115660Y-122263000D01*
X130044340Y-122263000D01*
X130023009Y-122260899D01*
X129937679Y-122252495D01*
X129800828Y-122210981D01*
X129800826Y-122210980D01*
X129800823Y-122210979D01*
X129674704Y-122143568D01*
X129564157Y-122052843D01*
X129473432Y-121942296D01*
X129406021Y-121816177D01*
X129390230Y-121764122D01*
X129364505Y-121679321D01*
X129350488Y-121537000D01*
X129364505Y-121394679D01*
X129406019Y-121257828D01*
X129406020Y-121257826D01*
X129406021Y-121257823D01*
X129473432Y-121131704D01*
X129564157Y-121021157D01*
X129674704Y-120930432D01*
X129800823Y-120863021D01*
X129800826Y-120863020D01*
X129800828Y-120863019D01*
X129937679Y-120821505D01*
X130023009Y-120813101D01*
X130044340Y-120811000D01*
X130115660Y-120811000D01*
X130136991Y-120813101D01*
X130136991Y-120813101D01*
G37*
G36*
X95360443Y-119082419D02*
X95426627Y-119088937D01*
X95539853Y-119123284D01*
X95596467Y-119140457D01*
X95729229Y-119211421D01*
X95752991Y-119224122D01*
X95788729Y-119253452D01*
X95890186Y-119336714D01*
X95973448Y-119438171D01*
X96002778Y-119473909D01*
X96002779Y-119473911D01*
X96086443Y-119630433D01*
X96101273Y-119679321D01*
X96137963Y-119800273D01*
X96155359Y-119976900D01*
X96137963Y-120153527D01*
X96107941Y-120252495D01*
X96086443Y-120323367D01*
X96012348Y-120461987D01*
X96002778Y-120479891D01*
X95973448Y-120515629D01*
X95890186Y-120617086D01*
X95788729Y-120700348D01*
X95752991Y-120729678D01*
X95752989Y-120729679D01*
X95596467Y-120813343D01*
X95539853Y-120830516D01*
X95426627Y-120864863D01*
X95360443Y-120871381D01*
X95294260Y-120877900D01*
X95205740Y-120877900D01*
X95139557Y-120871381D01*
X95073373Y-120864863D01*
X94960147Y-120830516D01*
X94903533Y-120813343D01*
X94747011Y-120729679D01*
X94747009Y-120729678D01*
X94711271Y-120700348D01*
X94609814Y-120617086D01*
X94526552Y-120515629D01*
X94497222Y-120479891D01*
X94487652Y-120461987D01*
X94413557Y-120323367D01*
X94392059Y-120252495D01*
X94362037Y-120153527D01*
X94344641Y-119976900D01*
X94362037Y-119800273D01*
X94398727Y-119679321D01*
X94413557Y-119630433D01*
X94497221Y-119473911D01*
X94497222Y-119473909D01*
X94526552Y-119438171D01*
X94609814Y-119336714D01*
X94711271Y-119253452D01*
X94747009Y-119224122D01*
X94770771Y-119211421D01*
X94903533Y-119140457D01*
X94960147Y-119123284D01*
X95073373Y-119088937D01*
X95139557Y-119082419D01*
X95205740Y-119075900D01*
X95294260Y-119075900D01*
X95360443Y-119082419D01*
X95360443Y-119082419D01*
G37*
G36*
X92820443Y-119082419D02*
X92886627Y-119088937D01*
X92999853Y-119123284D01*
X93056467Y-119140457D01*
X93189229Y-119211421D01*
X93212991Y-119224122D01*
X93248729Y-119253452D01*
X93350186Y-119336714D01*
X93433448Y-119438171D01*
X93462778Y-119473909D01*
X93462779Y-119473911D01*
X93546443Y-119630433D01*
X93561273Y-119679321D01*
X93597963Y-119800273D01*
X93615359Y-119976900D01*
X93597963Y-120153527D01*
X93567941Y-120252495D01*
X93546443Y-120323367D01*
X93472348Y-120461987D01*
X93462778Y-120479891D01*
X93433448Y-120515629D01*
X93350186Y-120617086D01*
X93248729Y-120700348D01*
X93212991Y-120729678D01*
X93212989Y-120729679D01*
X93056467Y-120813343D01*
X92999853Y-120830516D01*
X92886627Y-120864863D01*
X92820443Y-120871381D01*
X92754260Y-120877900D01*
X92665740Y-120877900D01*
X92599557Y-120871381D01*
X92533373Y-120864863D01*
X92420147Y-120830516D01*
X92363533Y-120813343D01*
X92207011Y-120729679D01*
X92207009Y-120729678D01*
X92171271Y-120700348D01*
X92069814Y-120617086D01*
X91986552Y-120515629D01*
X91957222Y-120479891D01*
X91947652Y-120461987D01*
X91873557Y-120323367D01*
X91852059Y-120252495D01*
X91822037Y-120153527D01*
X91804641Y-119976900D01*
X91822037Y-119800273D01*
X91858727Y-119679321D01*
X91873557Y-119630433D01*
X91957221Y-119473911D01*
X91957222Y-119473909D01*
X91986552Y-119438171D01*
X92069814Y-119336714D01*
X92171271Y-119253452D01*
X92207009Y-119224122D01*
X92230771Y-119211421D01*
X92363533Y-119140457D01*
X92420147Y-119123284D01*
X92533373Y-119088937D01*
X92599557Y-119082419D01*
X92665740Y-119075900D01*
X92754260Y-119075900D01*
X92820443Y-119082419D01*
X92820443Y-119082419D01*
G37*
G36*
X146160442Y-119069718D02*
X146226627Y-119076237D01*
X146339853Y-119110584D01*
X146396467Y-119127757D01*
X146535087Y-119201852D01*
X146552991Y-119211422D01*
X146588729Y-119240752D01*
X146690186Y-119324014D01*
X146773448Y-119425471D01*
X146802778Y-119461209D01*
X146802779Y-119461211D01*
X146886443Y-119617733D01*
X146903616Y-119674347D01*
X146937963Y-119787573D01*
X146955359Y-119964200D01*
X146937963Y-120140827D01*
X146916682Y-120210981D01*
X146886443Y-120310667D01*
X146812348Y-120449287D01*
X146802778Y-120467191D01*
X146792357Y-120479889D01*
X146690186Y-120604386D01*
X146588729Y-120687648D01*
X146552991Y-120716978D01*
X146552989Y-120716979D01*
X146396467Y-120800643D01*
X146354600Y-120813343D01*
X146226627Y-120852163D01*
X146160443Y-120858681D01*
X146094260Y-120865200D01*
X146005740Y-120865200D01*
X145939557Y-120858681D01*
X145873373Y-120852163D01*
X145745400Y-120813343D01*
X145703533Y-120800643D01*
X145547011Y-120716979D01*
X145547009Y-120716978D01*
X145511271Y-120687648D01*
X145409814Y-120604386D01*
X145307643Y-120479889D01*
X145297222Y-120467191D01*
X145287652Y-120449287D01*
X145213557Y-120310667D01*
X145183318Y-120210981D01*
X145162037Y-120140827D01*
X145144641Y-119964200D01*
X145162037Y-119787573D01*
X145196384Y-119674347D01*
X145213557Y-119617733D01*
X145297221Y-119461211D01*
X145297222Y-119461209D01*
X145326552Y-119425471D01*
X145409814Y-119324014D01*
X145511271Y-119240752D01*
X145547009Y-119211422D01*
X145564913Y-119201852D01*
X145703533Y-119127757D01*
X145760147Y-119110584D01*
X145873373Y-119076237D01*
X145939558Y-119069718D01*
X146005740Y-119063200D01*
X146094260Y-119063200D01*
X146160442Y-119069718D01*
X146160442Y-119069718D01*
G37*
G36*
X143620442Y-119069718D02*
X143686627Y-119076237D01*
X143799853Y-119110584D01*
X143856467Y-119127757D01*
X143995087Y-119201852D01*
X144012991Y-119211422D01*
X144048729Y-119240752D01*
X144150186Y-119324014D01*
X144233448Y-119425471D01*
X144262778Y-119461209D01*
X144262779Y-119461211D01*
X144346443Y-119617733D01*
X144363616Y-119674347D01*
X144397963Y-119787573D01*
X144415359Y-119964200D01*
X144397963Y-120140827D01*
X144376682Y-120210981D01*
X144346443Y-120310667D01*
X144272348Y-120449287D01*
X144262778Y-120467191D01*
X144252357Y-120479889D01*
X144150186Y-120604386D01*
X144048729Y-120687648D01*
X144012991Y-120716978D01*
X144012989Y-120716979D01*
X143856467Y-120800643D01*
X143814600Y-120813343D01*
X143686627Y-120852163D01*
X143620443Y-120858681D01*
X143554260Y-120865200D01*
X143465740Y-120865200D01*
X143399557Y-120858681D01*
X143333373Y-120852163D01*
X143205400Y-120813343D01*
X143163533Y-120800643D01*
X143007011Y-120716979D01*
X143007009Y-120716978D01*
X142971271Y-120687648D01*
X142869814Y-120604386D01*
X142767643Y-120479889D01*
X142757222Y-120467191D01*
X142747652Y-120449287D01*
X142673557Y-120310667D01*
X142643318Y-120210981D01*
X142622037Y-120140827D01*
X142604641Y-119964200D01*
X142622037Y-119787573D01*
X142656384Y-119674347D01*
X142673557Y-119617733D01*
X142757221Y-119461211D01*
X142757222Y-119461209D01*
X142786552Y-119425471D01*
X142869814Y-119324014D01*
X142971271Y-119240752D01*
X143007009Y-119211422D01*
X143024913Y-119201852D01*
X143163533Y-119127757D01*
X143220147Y-119110584D01*
X143333373Y-119076237D01*
X143399558Y-119069718D01*
X143465740Y-119063200D01*
X143554260Y-119063200D01*
X143620442Y-119069718D01*
X143620442Y-119069718D01*
G37*
G36*
X108736991Y-118813101D02*
X108822321Y-118821505D01*
X108959172Y-118863019D01*
X108959174Y-118863020D01*
X108959177Y-118863021D01*
X109085296Y-118930432D01*
X109195843Y-119021157D01*
X109286568Y-119131704D01*
X109353979Y-119257823D01*
X109353980Y-119257826D01*
X109353981Y-119257828D01*
X109395495Y-119394679D01*
X109409512Y-119537000D01*
X109395495Y-119679321D01*
X109358803Y-119800275D01*
X109353979Y-119816177D01*
X109286568Y-119942296D01*
X109195843Y-120052843D01*
X109085296Y-120143568D01*
X108959177Y-120210979D01*
X108959174Y-120210980D01*
X108959172Y-120210981D01*
X108822321Y-120252495D01*
X108736991Y-120260899D01*
X108715660Y-120263000D01*
X108644340Y-120263000D01*
X108623009Y-120260899D01*
X108537679Y-120252495D01*
X108400828Y-120210981D01*
X108400826Y-120210980D01*
X108400823Y-120210979D01*
X108274704Y-120143568D01*
X108164157Y-120052843D01*
X108073432Y-119942296D01*
X108006021Y-119816177D01*
X108001197Y-119800275D01*
X107964505Y-119679321D01*
X107950488Y-119537000D01*
X107964505Y-119394679D01*
X108006019Y-119257828D01*
X108006020Y-119257826D01*
X108006021Y-119257823D01*
X108073432Y-119131704D01*
X108164157Y-119021157D01*
X108274704Y-118930432D01*
X108400823Y-118863021D01*
X108400826Y-118863020D01*
X108400828Y-118863019D01*
X108537679Y-118821505D01*
X108623009Y-118813101D01*
X108644340Y-118811000D01*
X108715660Y-118811000D01*
X108736991Y-118813101D01*
X108736991Y-118813101D01*
G37*
G36*
X132136991Y-118813101D02*
X132222321Y-118821505D01*
X132359172Y-118863019D01*
X132359174Y-118863020D01*
X132359177Y-118863021D01*
X132485296Y-118930432D01*
X132595843Y-119021157D01*
X132686568Y-119131704D01*
X132753979Y-119257823D01*
X132753980Y-119257826D01*
X132753981Y-119257828D01*
X132795495Y-119394679D01*
X132809512Y-119537000D01*
X132795495Y-119679321D01*
X132758803Y-119800275D01*
X132753979Y-119816177D01*
X132686568Y-119942296D01*
X132595843Y-120052843D01*
X132485296Y-120143568D01*
X132359177Y-120210979D01*
X132359174Y-120210980D01*
X132359172Y-120210981D01*
X132222321Y-120252495D01*
X132136991Y-120260899D01*
X132115660Y-120263000D01*
X132044340Y-120263000D01*
X132023009Y-120260899D01*
X131937679Y-120252495D01*
X131800828Y-120210981D01*
X131800826Y-120210980D01*
X131800823Y-120210979D01*
X131674704Y-120143568D01*
X131564157Y-120052843D01*
X131473432Y-119942296D01*
X131406021Y-119816177D01*
X131401197Y-119800275D01*
X131364505Y-119679321D01*
X131350488Y-119537000D01*
X131364505Y-119394679D01*
X131406019Y-119257828D01*
X131406020Y-119257826D01*
X131406021Y-119257823D01*
X131473432Y-119131704D01*
X131564157Y-119021157D01*
X131674704Y-118930432D01*
X131800823Y-118863021D01*
X131800826Y-118863020D01*
X131800828Y-118863019D01*
X131937679Y-118821505D01*
X132023009Y-118813101D01*
X132044340Y-118811000D01*
X132115660Y-118811000D01*
X132136991Y-118813101D01*
X132136991Y-118813101D01*
G37*
G36*
X106736991Y-118813101D02*
X106822321Y-118821505D01*
X106959172Y-118863019D01*
X106959174Y-118863020D01*
X106959177Y-118863021D01*
X107085296Y-118930432D01*
X107195843Y-119021157D01*
X107286568Y-119131704D01*
X107353979Y-119257823D01*
X107353980Y-119257826D01*
X107353981Y-119257828D01*
X107395495Y-119394679D01*
X107409512Y-119537000D01*
X107395495Y-119679321D01*
X107358803Y-119800275D01*
X107353979Y-119816177D01*
X107286568Y-119942296D01*
X107195843Y-120052843D01*
X107085296Y-120143568D01*
X106959177Y-120210979D01*
X106959174Y-120210980D01*
X106959172Y-120210981D01*
X106822321Y-120252495D01*
X106736991Y-120260899D01*
X106715660Y-120263000D01*
X106644340Y-120263000D01*
X106623009Y-120260899D01*
X106537679Y-120252495D01*
X106400828Y-120210981D01*
X106400826Y-120210980D01*
X106400823Y-120210979D01*
X106274704Y-120143568D01*
X106164157Y-120052843D01*
X106073432Y-119942296D01*
X106006021Y-119816177D01*
X106001197Y-119800275D01*
X105964505Y-119679321D01*
X105950488Y-119537000D01*
X105964505Y-119394679D01*
X106006019Y-119257828D01*
X106006020Y-119257826D01*
X106006021Y-119257823D01*
X106073432Y-119131704D01*
X106164157Y-119021157D01*
X106274704Y-118930432D01*
X106400823Y-118863021D01*
X106400826Y-118863020D01*
X106400828Y-118863019D01*
X106537679Y-118821505D01*
X106623009Y-118813101D01*
X106644340Y-118811000D01*
X106715660Y-118811000D01*
X106736991Y-118813101D01*
X106736991Y-118813101D01*
G37*
G36*
X130136991Y-118813101D02*
X130222321Y-118821505D01*
X130359172Y-118863019D01*
X130359174Y-118863020D01*
X130359177Y-118863021D01*
X130485296Y-118930432D01*
X130595843Y-119021157D01*
X130686568Y-119131704D01*
X130753979Y-119257823D01*
X130753980Y-119257826D01*
X130753981Y-119257828D01*
X130795495Y-119394679D01*
X130809512Y-119537000D01*
X130795495Y-119679321D01*
X130758803Y-119800275D01*
X130753979Y-119816177D01*
X130686568Y-119942296D01*
X130595843Y-120052843D01*
X130485296Y-120143568D01*
X130359177Y-120210979D01*
X130359174Y-120210980D01*
X130359172Y-120210981D01*
X130222321Y-120252495D01*
X130136991Y-120260899D01*
X130115660Y-120263000D01*
X130044340Y-120263000D01*
X130023009Y-120260899D01*
X129937679Y-120252495D01*
X129800828Y-120210981D01*
X129800826Y-120210980D01*
X129800823Y-120210979D01*
X129674704Y-120143568D01*
X129564157Y-120052843D01*
X129473432Y-119942296D01*
X129406021Y-119816177D01*
X129401197Y-119800275D01*
X129364505Y-119679321D01*
X129350488Y-119537000D01*
X129364505Y-119394679D01*
X129406019Y-119257828D01*
X129406020Y-119257826D01*
X129406021Y-119257823D01*
X129473432Y-119131704D01*
X129564157Y-119021157D01*
X129674704Y-118930432D01*
X129800823Y-118863021D01*
X129800826Y-118863020D01*
X129800828Y-118863019D01*
X129937679Y-118821505D01*
X130023009Y-118813101D01*
X130044340Y-118811000D01*
X130115660Y-118811000D01*
X130136991Y-118813101D01*
X130136991Y-118813101D01*
G37*
G36*
X95360442Y-116542418D02*
X95426627Y-116548937D01*
X95539853Y-116583284D01*
X95596467Y-116600457D01*
X95729229Y-116671421D01*
X95752991Y-116684122D01*
X95788729Y-116713452D01*
X95890186Y-116796714D01*
X95973448Y-116898171D01*
X96002778Y-116933909D01*
X96002779Y-116933911D01*
X96086443Y-117090433D01*
X96086443Y-117090434D01*
X96137963Y-117260273D01*
X96155359Y-117436900D01*
X96137963Y-117613527D01*
X96103616Y-117726753D01*
X96086443Y-117783367D01*
X96068908Y-117816172D01*
X96002778Y-117939891D01*
X96000804Y-117942296D01*
X95890186Y-118077086D01*
X95809177Y-118143567D01*
X95752991Y-118189678D01*
X95752989Y-118189679D01*
X95596467Y-118273343D01*
X95539853Y-118290516D01*
X95426627Y-118324863D01*
X95360443Y-118331381D01*
X95294260Y-118337900D01*
X95205740Y-118337900D01*
X95139557Y-118331381D01*
X95073373Y-118324863D01*
X94960147Y-118290516D01*
X94903533Y-118273343D01*
X94747011Y-118189679D01*
X94747009Y-118189678D01*
X94690823Y-118143567D01*
X94609814Y-118077086D01*
X94499196Y-117942296D01*
X94497222Y-117939891D01*
X94431092Y-117816172D01*
X94413557Y-117783367D01*
X94396384Y-117726753D01*
X94362037Y-117613527D01*
X94344641Y-117436900D01*
X94362037Y-117260273D01*
X94413557Y-117090434D01*
X94413557Y-117090433D01*
X94497221Y-116933911D01*
X94497222Y-116933909D01*
X94526552Y-116898171D01*
X94609814Y-116796714D01*
X94711271Y-116713452D01*
X94747009Y-116684122D01*
X94770771Y-116671421D01*
X94903533Y-116600457D01*
X94960147Y-116583284D01*
X95073373Y-116548937D01*
X95139558Y-116542418D01*
X95205740Y-116535900D01*
X95294260Y-116535900D01*
X95360442Y-116542418D01*
X95360442Y-116542418D01*
G37*
G36*
X92820442Y-116542418D02*
X92886627Y-116548937D01*
X92999853Y-116583284D01*
X93056467Y-116600457D01*
X93189229Y-116671421D01*
X93212991Y-116684122D01*
X93248729Y-116713452D01*
X93350186Y-116796714D01*
X93433448Y-116898171D01*
X93462778Y-116933909D01*
X93462779Y-116933911D01*
X93546443Y-117090433D01*
X93546443Y-117090434D01*
X93597963Y-117260273D01*
X93615359Y-117436900D01*
X93597963Y-117613527D01*
X93563616Y-117726753D01*
X93546443Y-117783367D01*
X93528908Y-117816172D01*
X93462778Y-117939891D01*
X93460804Y-117942296D01*
X93350186Y-118077086D01*
X93269177Y-118143567D01*
X93212991Y-118189678D01*
X93212989Y-118189679D01*
X93056467Y-118273343D01*
X92999853Y-118290516D01*
X92886627Y-118324863D01*
X92820443Y-118331381D01*
X92754260Y-118337900D01*
X92665740Y-118337900D01*
X92599557Y-118331381D01*
X92533373Y-118324863D01*
X92420147Y-118290516D01*
X92363533Y-118273343D01*
X92207011Y-118189679D01*
X92207009Y-118189678D01*
X92150823Y-118143567D01*
X92069814Y-118077086D01*
X91959196Y-117942296D01*
X91957222Y-117939891D01*
X91891092Y-117816172D01*
X91873557Y-117783367D01*
X91856384Y-117726753D01*
X91822037Y-117613527D01*
X91804641Y-117436900D01*
X91822037Y-117260273D01*
X91873557Y-117090434D01*
X91873557Y-117090433D01*
X91957221Y-116933911D01*
X91957222Y-116933909D01*
X91986552Y-116898171D01*
X92069814Y-116796714D01*
X92171271Y-116713452D01*
X92207009Y-116684122D01*
X92230771Y-116671421D01*
X92363533Y-116600457D01*
X92420147Y-116583284D01*
X92533373Y-116548937D01*
X92599558Y-116542418D01*
X92665740Y-116535900D01*
X92754260Y-116535900D01*
X92820442Y-116542418D01*
X92820442Y-116542418D01*
G37*
G36*
X143620442Y-116529718D02*
X143686627Y-116536237D01*
X143799853Y-116570584D01*
X143856467Y-116587757D01*
X143995087Y-116661852D01*
X144012991Y-116671422D01*
X144048729Y-116700752D01*
X144150186Y-116784014D01*
X144215024Y-116863021D01*
X144262778Y-116921209D01*
X144262779Y-116921211D01*
X144346443Y-117077733D01*
X144362815Y-117131704D01*
X144397963Y-117247573D01*
X144415359Y-117424200D01*
X144397963Y-117600827D01*
X144374153Y-117679317D01*
X144346443Y-117770667D01*
X144322117Y-117816177D01*
X144262778Y-117927191D01*
X144233448Y-117962929D01*
X144150186Y-118064386D01*
X144053702Y-118143567D01*
X144012991Y-118176978D01*
X144012989Y-118176979D01*
X143856467Y-118260643D01*
X143814600Y-118273343D01*
X143686627Y-118312163D01*
X143620442Y-118318682D01*
X143554260Y-118325200D01*
X143465740Y-118325200D01*
X143399558Y-118318682D01*
X143333373Y-118312163D01*
X143205400Y-118273343D01*
X143163533Y-118260643D01*
X143007011Y-118176979D01*
X143007009Y-118176978D01*
X142966298Y-118143567D01*
X142869814Y-118064386D01*
X142786552Y-117962929D01*
X142757222Y-117927191D01*
X142697883Y-117816177D01*
X142673557Y-117770667D01*
X142645847Y-117679317D01*
X142622037Y-117600827D01*
X142604641Y-117424200D01*
X142622037Y-117247573D01*
X142657185Y-117131704D01*
X142673557Y-117077733D01*
X142757221Y-116921211D01*
X142757222Y-116921209D01*
X142804976Y-116863021D01*
X142869814Y-116784014D01*
X142971271Y-116700752D01*
X143007009Y-116671422D01*
X143024913Y-116661852D01*
X143163533Y-116587757D01*
X143220147Y-116570584D01*
X143333373Y-116536237D01*
X143399558Y-116529718D01*
X143465740Y-116523200D01*
X143554260Y-116523200D01*
X143620442Y-116529718D01*
X143620442Y-116529718D01*
G37*
G36*
X146160442Y-116529718D02*
X146226627Y-116536237D01*
X146339853Y-116570584D01*
X146396467Y-116587757D01*
X146535087Y-116661852D01*
X146552991Y-116671422D01*
X146588729Y-116700752D01*
X146690186Y-116784014D01*
X146755024Y-116863021D01*
X146802778Y-116921209D01*
X146802779Y-116921211D01*
X146886443Y-117077733D01*
X146902815Y-117131704D01*
X146937963Y-117247573D01*
X146955359Y-117424200D01*
X146937963Y-117600827D01*
X146914153Y-117679317D01*
X146886443Y-117770667D01*
X146862117Y-117816177D01*
X146802778Y-117927191D01*
X146773448Y-117962929D01*
X146690186Y-118064386D01*
X146593702Y-118143567D01*
X146552991Y-118176978D01*
X146552989Y-118176979D01*
X146396467Y-118260643D01*
X146354600Y-118273343D01*
X146226627Y-118312163D01*
X146160442Y-118318682D01*
X146094260Y-118325200D01*
X146005740Y-118325200D01*
X145939558Y-118318682D01*
X145873373Y-118312163D01*
X145745400Y-118273343D01*
X145703533Y-118260643D01*
X145547011Y-118176979D01*
X145547009Y-118176978D01*
X145506298Y-118143567D01*
X145409814Y-118064386D01*
X145326552Y-117962929D01*
X145297222Y-117927191D01*
X145237883Y-117816177D01*
X145213557Y-117770667D01*
X145185847Y-117679317D01*
X145162037Y-117600827D01*
X145144641Y-117424200D01*
X145162037Y-117247573D01*
X145197185Y-117131704D01*
X145213557Y-117077733D01*
X145297221Y-116921211D01*
X145297222Y-116921209D01*
X145344976Y-116863021D01*
X145409814Y-116784014D01*
X145511271Y-116700752D01*
X145547009Y-116671422D01*
X145564913Y-116661852D01*
X145703533Y-116587757D01*
X145760147Y-116570584D01*
X145873373Y-116536237D01*
X145939558Y-116529718D01*
X146005740Y-116523200D01*
X146094260Y-116523200D01*
X146160442Y-116529718D01*
X146160442Y-116529718D01*
G37*
G36*
X132136991Y-116813101D02*
X132222321Y-116821505D01*
X132359172Y-116863019D01*
X132359174Y-116863020D01*
X132359177Y-116863021D01*
X132485296Y-116930432D01*
X132595843Y-117021157D01*
X132686568Y-117131704D01*
X132753979Y-117257823D01*
X132753980Y-117257826D01*
X132753981Y-117257828D01*
X132795495Y-117394679D01*
X132809512Y-117537000D01*
X132795495Y-117679321D01*
X132763932Y-117783367D01*
X132753979Y-117816177D01*
X132686568Y-117942296D01*
X132595843Y-118052843D01*
X132485296Y-118143568D01*
X132359177Y-118210979D01*
X132359174Y-118210980D01*
X132359172Y-118210981D01*
X132222321Y-118252495D01*
X132139591Y-118260643D01*
X132115660Y-118263000D01*
X132044340Y-118263000D01*
X132020409Y-118260643D01*
X131937679Y-118252495D01*
X131800828Y-118210981D01*
X131800826Y-118210980D01*
X131800823Y-118210979D01*
X131674704Y-118143568D01*
X131564157Y-118052843D01*
X131473432Y-117942296D01*
X131406021Y-117816177D01*
X131396068Y-117783367D01*
X131364505Y-117679321D01*
X131350488Y-117537000D01*
X131364505Y-117394679D01*
X131406019Y-117257828D01*
X131406020Y-117257826D01*
X131406021Y-117257823D01*
X131473432Y-117131704D01*
X131564157Y-117021157D01*
X131674704Y-116930432D01*
X131800823Y-116863021D01*
X131800826Y-116863020D01*
X131800828Y-116863019D01*
X131937679Y-116821505D01*
X132023009Y-116813101D01*
X132044340Y-116811000D01*
X132115660Y-116811000D01*
X132136991Y-116813101D01*
X132136991Y-116813101D01*
G37*
G36*
X130136991Y-116813101D02*
X130222321Y-116821505D01*
X130359172Y-116863019D01*
X130359174Y-116863020D01*
X130359177Y-116863021D01*
X130485296Y-116930432D01*
X130595843Y-117021157D01*
X130686568Y-117131704D01*
X130753979Y-117257823D01*
X130753980Y-117257826D01*
X130753981Y-117257828D01*
X130795495Y-117394679D01*
X130809512Y-117537000D01*
X130795495Y-117679321D01*
X130763932Y-117783367D01*
X130753979Y-117816177D01*
X130686568Y-117942296D01*
X130595843Y-118052843D01*
X130485296Y-118143568D01*
X130359177Y-118210979D01*
X130359174Y-118210980D01*
X130359172Y-118210981D01*
X130222321Y-118252495D01*
X130139591Y-118260643D01*
X130115660Y-118263000D01*
X130044340Y-118263000D01*
X130020409Y-118260643D01*
X129937679Y-118252495D01*
X129800828Y-118210981D01*
X129800826Y-118210980D01*
X129800823Y-118210979D01*
X129674704Y-118143568D01*
X129564157Y-118052843D01*
X129473432Y-117942296D01*
X129406021Y-117816177D01*
X129396068Y-117783367D01*
X129364505Y-117679321D01*
X129350488Y-117537000D01*
X129364505Y-117394679D01*
X129406019Y-117257828D01*
X129406020Y-117257826D01*
X129406021Y-117257823D01*
X129473432Y-117131704D01*
X129564157Y-117021157D01*
X129674704Y-116930432D01*
X129800823Y-116863021D01*
X129800826Y-116863020D01*
X129800828Y-116863019D01*
X129937679Y-116821505D01*
X130023009Y-116813101D01*
X130044340Y-116811000D01*
X130115660Y-116811000D01*
X130136991Y-116813101D01*
X130136991Y-116813101D01*
G37*
G36*
X108736991Y-116813101D02*
X108822321Y-116821505D01*
X108959172Y-116863019D01*
X108959174Y-116863020D01*
X108959177Y-116863021D01*
X109085296Y-116930432D01*
X109195843Y-117021157D01*
X109286568Y-117131704D01*
X109353979Y-117257823D01*
X109353980Y-117257826D01*
X109353981Y-117257828D01*
X109395495Y-117394679D01*
X109409512Y-117537000D01*
X109395495Y-117679321D01*
X109363932Y-117783367D01*
X109353979Y-117816177D01*
X109286568Y-117942296D01*
X109195843Y-118052843D01*
X109085296Y-118143568D01*
X108959177Y-118210979D01*
X108959174Y-118210980D01*
X108959172Y-118210981D01*
X108822321Y-118252495D01*
X108739591Y-118260643D01*
X108715660Y-118263000D01*
X108644340Y-118263000D01*
X108620409Y-118260643D01*
X108537679Y-118252495D01*
X108400828Y-118210981D01*
X108400826Y-118210980D01*
X108400823Y-118210979D01*
X108274704Y-118143568D01*
X108164157Y-118052843D01*
X108073432Y-117942296D01*
X108006021Y-117816177D01*
X107996068Y-117783367D01*
X107964505Y-117679321D01*
X107950488Y-117537000D01*
X107964505Y-117394679D01*
X108006019Y-117257828D01*
X108006020Y-117257826D01*
X108006021Y-117257823D01*
X108073432Y-117131704D01*
X108164157Y-117021157D01*
X108274704Y-116930432D01*
X108400823Y-116863021D01*
X108400826Y-116863020D01*
X108400828Y-116863019D01*
X108537679Y-116821505D01*
X108623009Y-116813101D01*
X108644340Y-116811000D01*
X108715660Y-116811000D01*
X108736991Y-116813101D01*
X108736991Y-116813101D01*
G37*
G36*
X106736991Y-116813101D02*
X106822321Y-116821505D01*
X106959172Y-116863019D01*
X106959174Y-116863020D01*
X106959177Y-116863021D01*
X107085296Y-116930432D01*
X107195843Y-117021157D01*
X107286568Y-117131704D01*
X107353979Y-117257823D01*
X107353980Y-117257826D01*
X107353981Y-117257828D01*
X107395495Y-117394679D01*
X107409512Y-117537000D01*
X107395495Y-117679321D01*
X107363932Y-117783367D01*
X107353979Y-117816177D01*
X107286568Y-117942296D01*
X107195843Y-118052843D01*
X107085296Y-118143568D01*
X106959177Y-118210979D01*
X106959174Y-118210980D01*
X106959172Y-118210981D01*
X106822321Y-118252495D01*
X106739591Y-118260643D01*
X106715660Y-118263000D01*
X106644340Y-118263000D01*
X106620409Y-118260643D01*
X106537679Y-118252495D01*
X106400828Y-118210981D01*
X106400826Y-118210980D01*
X106400823Y-118210979D01*
X106274704Y-118143568D01*
X106164157Y-118052843D01*
X106073432Y-117942296D01*
X106006021Y-117816177D01*
X105996068Y-117783367D01*
X105964505Y-117679321D01*
X105950488Y-117537000D01*
X105964505Y-117394679D01*
X106006019Y-117257828D01*
X106006020Y-117257826D01*
X106006021Y-117257823D01*
X106073432Y-117131704D01*
X106164157Y-117021157D01*
X106274704Y-116930432D01*
X106400823Y-116863021D01*
X106400826Y-116863020D01*
X106400828Y-116863019D01*
X106537679Y-116821505D01*
X106623009Y-116813101D01*
X106644340Y-116811000D01*
X106715660Y-116811000D01*
X106736991Y-116813101D01*
X106736991Y-116813101D01*
G37*
G36*
X108736991Y-114813101D02*
X108822321Y-114821505D01*
X108959172Y-114863019D01*
X108959174Y-114863020D01*
X108959177Y-114863021D01*
X109085296Y-114930432D01*
X109195843Y-115021157D01*
X109286568Y-115131704D01*
X109353979Y-115257823D01*
X109353980Y-115257826D01*
X109353981Y-115257828D01*
X109395495Y-115394679D01*
X109409512Y-115537000D01*
X109395495Y-115679321D01*
X109353981Y-115816172D01*
X109353979Y-115816177D01*
X109286568Y-115942296D01*
X109195843Y-116052843D01*
X109085296Y-116143568D01*
X108959177Y-116210979D01*
X108959174Y-116210980D01*
X108959172Y-116210981D01*
X108822321Y-116252495D01*
X108736991Y-116260899D01*
X108715660Y-116263000D01*
X108644340Y-116263000D01*
X108623009Y-116260899D01*
X108537679Y-116252495D01*
X108400828Y-116210981D01*
X108400826Y-116210980D01*
X108400823Y-116210979D01*
X108274704Y-116143568D01*
X108164157Y-116052843D01*
X108073432Y-115942296D01*
X108006021Y-115816177D01*
X108006019Y-115816172D01*
X107964505Y-115679321D01*
X107950488Y-115537000D01*
X107964505Y-115394679D01*
X108006019Y-115257828D01*
X108006020Y-115257826D01*
X108006021Y-115257823D01*
X108073432Y-115131704D01*
X108164157Y-115021157D01*
X108274704Y-114930432D01*
X108400823Y-114863021D01*
X108400826Y-114863020D01*
X108400828Y-114863019D01*
X108537679Y-114821505D01*
X108623009Y-114813101D01*
X108644340Y-114811000D01*
X108715660Y-114811000D01*
X108736991Y-114813101D01*
X108736991Y-114813101D01*
G37*
G36*
X132136991Y-114813101D02*
X132222321Y-114821505D01*
X132359172Y-114863019D01*
X132359174Y-114863020D01*
X132359177Y-114863021D01*
X132485296Y-114930432D01*
X132595843Y-115021157D01*
X132686568Y-115131704D01*
X132753979Y-115257823D01*
X132753980Y-115257826D01*
X132753981Y-115257828D01*
X132795495Y-115394679D01*
X132809512Y-115537000D01*
X132795495Y-115679321D01*
X132753981Y-115816172D01*
X132753979Y-115816177D01*
X132686568Y-115942296D01*
X132595843Y-116052843D01*
X132485296Y-116143568D01*
X132359177Y-116210979D01*
X132359174Y-116210980D01*
X132359172Y-116210981D01*
X132222321Y-116252495D01*
X132136991Y-116260899D01*
X132115660Y-116263000D01*
X132044340Y-116263000D01*
X132023009Y-116260899D01*
X131937679Y-116252495D01*
X131800828Y-116210981D01*
X131800826Y-116210980D01*
X131800823Y-116210979D01*
X131674704Y-116143568D01*
X131564157Y-116052843D01*
X131473432Y-115942296D01*
X131406021Y-115816177D01*
X131406019Y-115816172D01*
X131364505Y-115679321D01*
X131350488Y-115537000D01*
X131364505Y-115394679D01*
X131406019Y-115257828D01*
X131406020Y-115257826D01*
X131406021Y-115257823D01*
X131473432Y-115131704D01*
X131564157Y-115021157D01*
X131674704Y-114930432D01*
X131800823Y-114863021D01*
X131800826Y-114863020D01*
X131800828Y-114863019D01*
X131937679Y-114821505D01*
X132023009Y-114813101D01*
X132044340Y-114811000D01*
X132115660Y-114811000D01*
X132136991Y-114813101D01*
X132136991Y-114813101D01*
G37*
G36*
X106736991Y-114813101D02*
X106822321Y-114821505D01*
X106959172Y-114863019D01*
X106959174Y-114863020D01*
X106959177Y-114863021D01*
X107085296Y-114930432D01*
X107195843Y-115021157D01*
X107286568Y-115131704D01*
X107353979Y-115257823D01*
X107353980Y-115257826D01*
X107353981Y-115257828D01*
X107395495Y-115394679D01*
X107409512Y-115537000D01*
X107395495Y-115679321D01*
X107353981Y-115816172D01*
X107353979Y-115816177D01*
X107286568Y-115942296D01*
X107195843Y-116052843D01*
X107085296Y-116143568D01*
X106959177Y-116210979D01*
X106959174Y-116210980D01*
X106959172Y-116210981D01*
X106822321Y-116252495D01*
X106736991Y-116260899D01*
X106715660Y-116263000D01*
X106644340Y-116263000D01*
X106623009Y-116260899D01*
X106537679Y-116252495D01*
X106400828Y-116210981D01*
X106400826Y-116210980D01*
X106400823Y-116210979D01*
X106274704Y-116143568D01*
X106164157Y-116052843D01*
X106073432Y-115942296D01*
X106006021Y-115816177D01*
X106006019Y-115816172D01*
X105964505Y-115679321D01*
X105950488Y-115537000D01*
X105964505Y-115394679D01*
X106006019Y-115257828D01*
X106006020Y-115257826D01*
X106006021Y-115257823D01*
X106073432Y-115131704D01*
X106164157Y-115021157D01*
X106274704Y-114930432D01*
X106400823Y-114863021D01*
X106400826Y-114863020D01*
X106400828Y-114863019D01*
X106537679Y-114821505D01*
X106623009Y-114813101D01*
X106644340Y-114811000D01*
X106715660Y-114811000D01*
X106736991Y-114813101D01*
X106736991Y-114813101D01*
G37*
G36*
X130136991Y-114813101D02*
X130222321Y-114821505D01*
X130359172Y-114863019D01*
X130359174Y-114863020D01*
X130359177Y-114863021D01*
X130485296Y-114930432D01*
X130595843Y-115021157D01*
X130686568Y-115131704D01*
X130753979Y-115257823D01*
X130753980Y-115257826D01*
X130753981Y-115257828D01*
X130795495Y-115394679D01*
X130809512Y-115537000D01*
X130795495Y-115679321D01*
X130753981Y-115816172D01*
X130753979Y-115816177D01*
X130686568Y-115942296D01*
X130595843Y-116052843D01*
X130485296Y-116143568D01*
X130359177Y-116210979D01*
X130359174Y-116210980D01*
X130359172Y-116210981D01*
X130222321Y-116252495D01*
X130136991Y-116260899D01*
X130115660Y-116263000D01*
X130044340Y-116263000D01*
X130023009Y-116260899D01*
X129937679Y-116252495D01*
X129800828Y-116210981D01*
X129800826Y-116210980D01*
X129800823Y-116210979D01*
X129674704Y-116143568D01*
X129564157Y-116052843D01*
X129473432Y-115942296D01*
X129406021Y-115816177D01*
X129406019Y-115816172D01*
X129364505Y-115679321D01*
X129350488Y-115537000D01*
X129364505Y-115394679D01*
X129406019Y-115257828D01*
X129406020Y-115257826D01*
X129406021Y-115257823D01*
X129473432Y-115131704D01*
X129564157Y-115021157D01*
X129674704Y-114930432D01*
X129800823Y-114863021D01*
X129800826Y-114863020D01*
X129800828Y-114863019D01*
X129937679Y-114821505D01*
X130023009Y-114813101D01*
X130044340Y-114811000D01*
X130115660Y-114811000D01*
X130136991Y-114813101D01*
X130136991Y-114813101D01*
G37*
G36*
X95360442Y-114002418D02*
X95426627Y-114008937D01*
X95539853Y-114043284D01*
X95596467Y-114060457D01*
X95729229Y-114131421D01*
X95752991Y-114144122D01*
X95788729Y-114173452D01*
X95890186Y-114256714D01*
X95973448Y-114358171D01*
X96002778Y-114393909D01*
X96002779Y-114393911D01*
X96086443Y-114550433D01*
X96086443Y-114550434D01*
X96137963Y-114720273D01*
X96155359Y-114896900D01*
X96137963Y-115073527D01*
X96120315Y-115131704D01*
X96086443Y-115243367D01*
X96078716Y-115257823D01*
X96002778Y-115399891D01*
X95973448Y-115435629D01*
X95890186Y-115537086D01*
X95788729Y-115620348D01*
X95752991Y-115649678D01*
X95752989Y-115649679D01*
X95596467Y-115733343D01*
X95539853Y-115750516D01*
X95426627Y-115784863D01*
X95360442Y-115791382D01*
X95294260Y-115797900D01*
X95205740Y-115797900D01*
X95139558Y-115791382D01*
X95073373Y-115784863D01*
X94960147Y-115750516D01*
X94903533Y-115733343D01*
X94747011Y-115649679D01*
X94747009Y-115649678D01*
X94711271Y-115620348D01*
X94609814Y-115537086D01*
X94526552Y-115435629D01*
X94497222Y-115399891D01*
X94421284Y-115257823D01*
X94413557Y-115243367D01*
X94379685Y-115131704D01*
X94362037Y-115073527D01*
X94344641Y-114896900D01*
X94362037Y-114720273D01*
X94413557Y-114550434D01*
X94413557Y-114550433D01*
X94497221Y-114393911D01*
X94497222Y-114393909D01*
X94526552Y-114358171D01*
X94609814Y-114256714D01*
X94711271Y-114173452D01*
X94747009Y-114144122D01*
X94770771Y-114131421D01*
X94903533Y-114060457D01*
X94960147Y-114043284D01*
X95073373Y-114008937D01*
X95139558Y-114002418D01*
X95205740Y-113995900D01*
X95294260Y-113995900D01*
X95360442Y-114002418D01*
X95360442Y-114002418D01*
G37*
G36*
X92820442Y-114002418D02*
X92886627Y-114008937D01*
X92999853Y-114043284D01*
X93056467Y-114060457D01*
X93189229Y-114131421D01*
X93212991Y-114144122D01*
X93248729Y-114173452D01*
X93350186Y-114256714D01*
X93433448Y-114358171D01*
X93462778Y-114393909D01*
X93462779Y-114393911D01*
X93546443Y-114550433D01*
X93546443Y-114550434D01*
X93597963Y-114720273D01*
X93615359Y-114896900D01*
X93597963Y-115073527D01*
X93580315Y-115131704D01*
X93546443Y-115243367D01*
X93538716Y-115257823D01*
X93462778Y-115399891D01*
X93433448Y-115435629D01*
X93350186Y-115537086D01*
X93248729Y-115620348D01*
X93212991Y-115649678D01*
X93212989Y-115649679D01*
X93056467Y-115733343D01*
X92999853Y-115750516D01*
X92886627Y-115784863D01*
X92820442Y-115791382D01*
X92754260Y-115797900D01*
X92665740Y-115797900D01*
X92599558Y-115791382D01*
X92533373Y-115784863D01*
X92420147Y-115750516D01*
X92363533Y-115733343D01*
X92207011Y-115649679D01*
X92207009Y-115649678D01*
X92171271Y-115620348D01*
X92069814Y-115537086D01*
X91986552Y-115435629D01*
X91957222Y-115399891D01*
X91881284Y-115257823D01*
X91873557Y-115243367D01*
X91839685Y-115131704D01*
X91822037Y-115073527D01*
X91804641Y-114896900D01*
X91822037Y-114720273D01*
X91873557Y-114550434D01*
X91873557Y-114550433D01*
X91957221Y-114393911D01*
X91957222Y-114393909D01*
X91986552Y-114358171D01*
X92069814Y-114256714D01*
X92171271Y-114173452D01*
X92207009Y-114144122D01*
X92230771Y-114131421D01*
X92363533Y-114060457D01*
X92420147Y-114043284D01*
X92533373Y-114008937D01*
X92599558Y-114002418D01*
X92665740Y-113995900D01*
X92754260Y-113995900D01*
X92820442Y-114002418D01*
X92820442Y-114002418D01*
G37*
G36*
X146160443Y-113989719D02*
X146226627Y-113996237D01*
X146339853Y-114030584D01*
X146396467Y-114047757D01*
X146535087Y-114121852D01*
X146552991Y-114131422D01*
X146588729Y-114160752D01*
X146690186Y-114244014D01*
X146773448Y-114345471D01*
X146802778Y-114381209D01*
X146802779Y-114381211D01*
X146886443Y-114537733D01*
X146903616Y-114594347D01*
X146937963Y-114707573D01*
X146955359Y-114884200D01*
X146937963Y-115060827D01*
X146916463Y-115131704D01*
X146886443Y-115230667D01*
X146812348Y-115369287D01*
X146802778Y-115387191D01*
X146796629Y-115394683D01*
X146690186Y-115524386D01*
X146588729Y-115607648D01*
X146552991Y-115636978D01*
X146552989Y-115636979D01*
X146396467Y-115720643D01*
X146354600Y-115733343D01*
X146226627Y-115772163D01*
X146160442Y-115778682D01*
X146094260Y-115785200D01*
X146005740Y-115785200D01*
X145939558Y-115778682D01*
X145873373Y-115772163D01*
X145745400Y-115733343D01*
X145703533Y-115720643D01*
X145547011Y-115636979D01*
X145547009Y-115636978D01*
X145511271Y-115607648D01*
X145409814Y-115524386D01*
X145303371Y-115394683D01*
X145297222Y-115387191D01*
X145287652Y-115369287D01*
X145213557Y-115230667D01*
X145183537Y-115131704D01*
X145162037Y-115060827D01*
X145144641Y-114884200D01*
X145162037Y-114707573D01*
X145196384Y-114594347D01*
X145213557Y-114537733D01*
X145297221Y-114381211D01*
X145297222Y-114381209D01*
X145326552Y-114345471D01*
X145409814Y-114244014D01*
X145511271Y-114160752D01*
X145547009Y-114131422D01*
X145564913Y-114121852D01*
X145703533Y-114047757D01*
X145760147Y-114030584D01*
X145873373Y-113996237D01*
X145939557Y-113989719D01*
X146005740Y-113983200D01*
X146094260Y-113983200D01*
X146160443Y-113989719D01*
X146160443Y-113989719D01*
G37*
G36*
X143620443Y-113989719D02*
X143686627Y-113996237D01*
X143799853Y-114030584D01*
X143856467Y-114047757D01*
X143995087Y-114121852D01*
X144012991Y-114131422D01*
X144048729Y-114160752D01*
X144150186Y-114244014D01*
X144233448Y-114345471D01*
X144262778Y-114381209D01*
X144262779Y-114381211D01*
X144346443Y-114537733D01*
X144363616Y-114594347D01*
X144397963Y-114707573D01*
X144415359Y-114884200D01*
X144397963Y-115060827D01*
X144376463Y-115131704D01*
X144346443Y-115230667D01*
X144272348Y-115369287D01*
X144262778Y-115387191D01*
X144256629Y-115394683D01*
X144150186Y-115524386D01*
X144048729Y-115607648D01*
X144012991Y-115636978D01*
X144012989Y-115636979D01*
X143856467Y-115720643D01*
X143814600Y-115733343D01*
X143686627Y-115772163D01*
X143620442Y-115778682D01*
X143554260Y-115785200D01*
X143465740Y-115785200D01*
X143399558Y-115778682D01*
X143333373Y-115772163D01*
X143205400Y-115733343D01*
X143163533Y-115720643D01*
X143007011Y-115636979D01*
X143007009Y-115636978D01*
X142971271Y-115607648D01*
X142869814Y-115524386D01*
X142763371Y-115394683D01*
X142757222Y-115387191D01*
X142747652Y-115369287D01*
X142673557Y-115230667D01*
X142643537Y-115131704D01*
X142622037Y-115060827D01*
X142604641Y-114884200D01*
X142622037Y-114707573D01*
X142656384Y-114594347D01*
X142673557Y-114537733D01*
X142757221Y-114381211D01*
X142757222Y-114381209D01*
X142786552Y-114345471D01*
X142869814Y-114244014D01*
X142971271Y-114160752D01*
X143007009Y-114131422D01*
X143024913Y-114121852D01*
X143163533Y-114047757D01*
X143220147Y-114030584D01*
X143333373Y-113996237D01*
X143399557Y-113989719D01*
X143465740Y-113983200D01*
X143554260Y-113983200D01*
X143620443Y-113989719D01*
X143620443Y-113989719D01*
G37*
G36*
X132136991Y-112813101D02*
X132222321Y-112821505D01*
X132359172Y-112863019D01*
X132359174Y-112863020D01*
X132359177Y-112863021D01*
X132485296Y-112930432D01*
X132595843Y-113021157D01*
X132686568Y-113131704D01*
X132753979Y-113257823D01*
X132753980Y-113257826D01*
X132753981Y-113257828D01*
X132795495Y-113394679D01*
X132809512Y-113537000D01*
X132795495Y-113679321D01*
X132753981Y-113816172D01*
X132753979Y-113816177D01*
X132686568Y-113942296D01*
X132595843Y-114052843D01*
X132485296Y-114143568D01*
X132359177Y-114210979D01*
X132359174Y-114210980D01*
X132359172Y-114210981D01*
X132222321Y-114252495D01*
X132136991Y-114260899D01*
X132115660Y-114263000D01*
X132044340Y-114263000D01*
X132023009Y-114260899D01*
X131937679Y-114252495D01*
X131800828Y-114210981D01*
X131800826Y-114210980D01*
X131800823Y-114210979D01*
X131674704Y-114143568D01*
X131564157Y-114052843D01*
X131473432Y-113942296D01*
X131406021Y-113816177D01*
X131406019Y-113816172D01*
X131364505Y-113679321D01*
X131350488Y-113537000D01*
X131364505Y-113394679D01*
X131406019Y-113257828D01*
X131406020Y-113257826D01*
X131406021Y-113257823D01*
X131473432Y-113131704D01*
X131564157Y-113021157D01*
X131674704Y-112930432D01*
X131800823Y-112863021D01*
X131800826Y-112863020D01*
X131800828Y-112863019D01*
X131937679Y-112821505D01*
X132023009Y-112813101D01*
X132044340Y-112811000D01*
X132115660Y-112811000D01*
X132136991Y-112813101D01*
X132136991Y-112813101D01*
G37*
G36*
X108736991Y-112813101D02*
X108822321Y-112821505D01*
X108959172Y-112863019D01*
X108959174Y-112863020D01*
X108959177Y-112863021D01*
X109085296Y-112930432D01*
X109195843Y-113021157D01*
X109286568Y-113131704D01*
X109353979Y-113257823D01*
X109353980Y-113257826D01*
X109353981Y-113257828D01*
X109395495Y-113394679D01*
X109409512Y-113537000D01*
X109395495Y-113679321D01*
X109353981Y-113816172D01*
X109353979Y-113816177D01*
X109286568Y-113942296D01*
X109195843Y-114052843D01*
X109085296Y-114143568D01*
X108959177Y-114210979D01*
X108959174Y-114210980D01*
X108959172Y-114210981D01*
X108822321Y-114252495D01*
X108736991Y-114260899D01*
X108715660Y-114263000D01*
X108644340Y-114263000D01*
X108623009Y-114260899D01*
X108537679Y-114252495D01*
X108400828Y-114210981D01*
X108400826Y-114210980D01*
X108400823Y-114210979D01*
X108274704Y-114143568D01*
X108164157Y-114052843D01*
X108073432Y-113942296D01*
X108006021Y-113816177D01*
X108006019Y-113816172D01*
X107964505Y-113679321D01*
X107950488Y-113537000D01*
X107964505Y-113394679D01*
X108006019Y-113257828D01*
X108006020Y-113257826D01*
X108006021Y-113257823D01*
X108073432Y-113131704D01*
X108164157Y-113021157D01*
X108274704Y-112930432D01*
X108400823Y-112863021D01*
X108400826Y-112863020D01*
X108400828Y-112863019D01*
X108537679Y-112821505D01*
X108623009Y-112813101D01*
X108644340Y-112811000D01*
X108715660Y-112811000D01*
X108736991Y-112813101D01*
X108736991Y-112813101D01*
G37*
G36*
X130136991Y-112813101D02*
X130222321Y-112821505D01*
X130359172Y-112863019D01*
X130359174Y-112863020D01*
X130359177Y-112863021D01*
X130485296Y-112930432D01*
X130595843Y-113021157D01*
X130686568Y-113131704D01*
X130753979Y-113257823D01*
X130753980Y-113257826D01*
X130753981Y-113257828D01*
X130795495Y-113394679D01*
X130809512Y-113537000D01*
X130795495Y-113679321D01*
X130753981Y-113816172D01*
X130753979Y-113816177D01*
X130686568Y-113942296D01*
X130595843Y-114052843D01*
X130485296Y-114143568D01*
X130359177Y-114210979D01*
X130359174Y-114210980D01*
X130359172Y-114210981D01*
X130222321Y-114252495D01*
X130136991Y-114260899D01*
X130115660Y-114263000D01*
X130044340Y-114263000D01*
X130023009Y-114260899D01*
X129937679Y-114252495D01*
X129800828Y-114210981D01*
X129800826Y-114210980D01*
X129800823Y-114210979D01*
X129674704Y-114143568D01*
X129564157Y-114052843D01*
X129473432Y-113942296D01*
X129406021Y-113816177D01*
X129406019Y-113816172D01*
X129364505Y-113679321D01*
X129350488Y-113537000D01*
X129364505Y-113394679D01*
X129406019Y-113257828D01*
X129406020Y-113257826D01*
X129406021Y-113257823D01*
X129473432Y-113131704D01*
X129564157Y-113021157D01*
X129674704Y-112930432D01*
X129800823Y-112863021D01*
X129800826Y-112863020D01*
X129800828Y-112863019D01*
X129937679Y-112821505D01*
X130023009Y-112813101D01*
X130044340Y-112811000D01*
X130115660Y-112811000D01*
X130136991Y-112813101D01*
X130136991Y-112813101D01*
G37*
G36*
X106736991Y-112813101D02*
X106822321Y-112821505D01*
X106959172Y-112863019D01*
X106959174Y-112863020D01*
X106959177Y-112863021D01*
X107085296Y-112930432D01*
X107195843Y-113021157D01*
X107286568Y-113131704D01*
X107353979Y-113257823D01*
X107353980Y-113257826D01*
X107353981Y-113257828D01*
X107395495Y-113394679D01*
X107409512Y-113537000D01*
X107395495Y-113679321D01*
X107353981Y-113816172D01*
X107353979Y-113816177D01*
X107286568Y-113942296D01*
X107195843Y-114052843D01*
X107085296Y-114143568D01*
X106959177Y-114210979D01*
X106959174Y-114210980D01*
X106959172Y-114210981D01*
X106822321Y-114252495D01*
X106736991Y-114260899D01*
X106715660Y-114263000D01*
X106644340Y-114263000D01*
X106623009Y-114260899D01*
X106537679Y-114252495D01*
X106400828Y-114210981D01*
X106400826Y-114210980D01*
X106400823Y-114210979D01*
X106274704Y-114143568D01*
X106164157Y-114052843D01*
X106073432Y-113942296D01*
X106006021Y-113816177D01*
X106006019Y-113816172D01*
X105964505Y-113679321D01*
X105950488Y-113537000D01*
X105964505Y-113394679D01*
X106006019Y-113257828D01*
X106006020Y-113257826D01*
X106006021Y-113257823D01*
X106073432Y-113131704D01*
X106164157Y-113021157D01*
X106274704Y-112930432D01*
X106400823Y-112863021D01*
X106400826Y-112863020D01*
X106400828Y-112863019D01*
X106537679Y-112821505D01*
X106623009Y-112813101D01*
X106644340Y-112811000D01*
X106715660Y-112811000D01*
X106736991Y-112813101D01*
X106736991Y-112813101D01*
G37*
G36*
X95360443Y-111462419D02*
X95426627Y-111468937D01*
X95539853Y-111503284D01*
X95596467Y-111520457D01*
X95627416Y-111537000D01*
X95752991Y-111604122D01*
X95788729Y-111633452D01*
X95890186Y-111716714D01*
X95971808Y-111816172D01*
X96002778Y-111853909D01*
X96002779Y-111853911D01*
X96086443Y-112010433D01*
X96086443Y-112010434D01*
X96137963Y-112180273D01*
X96155359Y-112356900D01*
X96137963Y-112533527D01*
X96103616Y-112646753D01*
X96086443Y-112703367D01*
X96028911Y-112811000D01*
X96002778Y-112859891D01*
X96000209Y-112863021D01*
X95890186Y-112997086D01*
X95788729Y-113080348D01*
X95752991Y-113109678D01*
X95752989Y-113109679D01*
X95596467Y-113193343D01*
X95539853Y-113210516D01*
X95426627Y-113244863D01*
X95360442Y-113251382D01*
X95294260Y-113257900D01*
X95205740Y-113257900D01*
X95139558Y-113251382D01*
X95073373Y-113244863D01*
X94960147Y-113210516D01*
X94903533Y-113193343D01*
X94747011Y-113109679D01*
X94747009Y-113109678D01*
X94711271Y-113080348D01*
X94609814Y-112997086D01*
X94499791Y-112863021D01*
X94497222Y-112859891D01*
X94471089Y-112811000D01*
X94413557Y-112703367D01*
X94396384Y-112646753D01*
X94362037Y-112533527D01*
X94344641Y-112356900D01*
X94362037Y-112180273D01*
X94413557Y-112010434D01*
X94413557Y-112010433D01*
X94497221Y-111853911D01*
X94497222Y-111853909D01*
X94528192Y-111816172D01*
X94609814Y-111716714D01*
X94711271Y-111633452D01*
X94747009Y-111604122D01*
X94872584Y-111537000D01*
X94903533Y-111520457D01*
X94960147Y-111503284D01*
X95073373Y-111468937D01*
X95139557Y-111462419D01*
X95205740Y-111455900D01*
X95294260Y-111455900D01*
X95360443Y-111462419D01*
X95360443Y-111462419D01*
G37*
G36*
X92820443Y-111462419D02*
X92886627Y-111468937D01*
X92999853Y-111503284D01*
X93056467Y-111520457D01*
X93087416Y-111537000D01*
X93212991Y-111604122D01*
X93248729Y-111633452D01*
X93350186Y-111716714D01*
X93431808Y-111816172D01*
X93462778Y-111853909D01*
X93462779Y-111853911D01*
X93546443Y-112010433D01*
X93546443Y-112010434D01*
X93597963Y-112180273D01*
X93615359Y-112356900D01*
X93597963Y-112533527D01*
X93563616Y-112646753D01*
X93546443Y-112703367D01*
X93488911Y-112811000D01*
X93462778Y-112859891D01*
X93460209Y-112863021D01*
X93350186Y-112997086D01*
X93248729Y-113080348D01*
X93212991Y-113109678D01*
X93212989Y-113109679D01*
X93056467Y-113193343D01*
X92999853Y-113210516D01*
X92886627Y-113244863D01*
X92820442Y-113251382D01*
X92754260Y-113257900D01*
X92665740Y-113257900D01*
X92599558Y-113251382D01*
X92533373Y-113244863D01*
X92420147Y-113210516D01*
X92363533Y-113193343D01*
X92207011Y-113109679D01*
X92207009Y-113109678D01*
X92171271Y-113080348D01*
X92069814Y-112997086D01*
X91959791Y-112863021D01*
X91957222Y-112859891D01*
X91931089Y-112811000D01*
X91873557Y-112703367D01*
X91856384Y-112646753D01*
X91822037Y-112533527D01*
X91804641Y-112356900D01*
X91822037Y-112180273D01*
X91873557Y-112010434D01*
X91873557Y-112010433D01*
X91957221Y-111853911D01*
X91957222Y-111853909D01*
X91988192Y-111816172D01*
X92069814Y-111716714D01*
X92171271Y-111633452D01*
X92207009Y-111604122D01*
X92332584Y-111537000D01*
X92363533Y-111520457D01*
X92420147Y-111503284D01*
X92533373Y-111468937D01*
X92599557Y-111462419D01*
X92665740Y-111455900D01*
X92754260Y-111455900D01*
X92820443Y-111462419D01*
X92820443Y-111462419D01*
G37*
G36*
X146160443Y-111449719D02*
X146226627Y-111456237D01*
X146339853Y-111490584D01*
X146396467Y-111507757D01*
X146535087Y-111581852D01*
X146552991Y-111591422D01*
X146588729Y-111620752D01*
X146690186Y-111704014D01*
X146773448Y-111805471D01*
X146802778Y-111841209D01*
X146802779Y-111841211D01*
X146886443Y-111997733D01*
X146903160Y-112052843D01*
X146937963Y-112167573D01*
X146955359Y-112344200D01*
X146937963Y-112520827D01*
X146903616Y-112634053D01*
X146886443Y-112690667D01*
X146822123Y-112811000D01*
X146802778Y-112847191D01*
X146773448Y-112882929D01*
X146690186Y-112984386D01*
X146588729Y-113067648D01*
X146552991Y-113096978D01*
X146552989Y-113096979D01*
X146396467Y-113180643D01*
X146354600Y-113193343D01*
X146226627Y-113232163D01*
X146160443Y-113238681D01*
X146094260Y-113245200D01*
X146005740Y-113245200D01*
X145939557Y-113238681D01*
X145873373Y-113232163D01*
X145745400Y-113193343D01*
X145703533Y-113180643D01*
X145547011Y-113096979D01*
X145547009Y-113096978D01*
X145511271Y-113067648D01*
X145409814Y-112984386D01*
X145326552Y-112882929D01*
X145297222Y-112847191D01*
X145277877Y-112811000D01*
X145213557Y-112690667D01*
X145196384Y-112634053D01*
X145162037Y-112520827D01*
X145144641Y-112344200D01*
X145162037Y-112167573D01*
X145196840Y-112052843D01*
X145213557Y-111997733D01*
X145297221Y-111841211D01*
X145297222Y-111841209D01*
X145326552Y-111805471D01*
X145409814Y-111704014D01*
X145511271Y-111620752D01*
X145547009Y-111591422D01*
X145564913Y-111581852D01*
X145703533Y-111507757D01*
X145760147Y-111490584D01*
X145873373Y-111456237D01*
X145939557Y-111449719D01*
X146005740Y-111443200D01*
X146094260Y-111443200D01*
X146160443Y-111449719D01*
X146160443Y-111449719D01*
G37*
G36*
X143620443Y-111449719D02*
X143686627Y-111456237D01*
X143799853Y-111490584D01*
X143856467Y-111507757D01*
X143995087Y-111581852D01*
X144012991Y-111591422D01*
X144048729Y-111620752D01*
X144150186Y-111704014D01*
X144233448Y-111805471D01*
X144262778Y-111841209D01*
X144262779Y-111841211D01*
X144346443Y-111997733D01*
X144363160Y-112052843D01*
X144397963Y-112167573D01*
X144415359Y-112344200D01*
X144397963Y-112520827D01*
X144363616Y-112634053D01*
X144346443Y-112690667D01*
X144282123Y-112811000D01*
X144262778Y-112847191D01*
X144233448Y-112882929D01*
X144150186Y-112984386D01*
X144048729Y-113067648D01*
X144012991Y-113096978D01*
X144012989Y-113096979D01*
X143856467Y-113180643D01*
X143814600Y-113193343D01*
X143686627Y-113232163D01*
X143620443Y-113238681D01*
X143554260Y-113245200D01*
X143465740Y-113245200D01*
X143399557Y-113238681D01*
X143333373Y-113232163D01*
X143205400Y-113193343D01*
X143163533Y-113180643D01*
X143007011Y-113096979D01*
X143007009Y-113096978D01*
X142971271Y-113067648D01*
X142869814Y-112984386D01*
X142786552Y-112882929D01*
X142757222Y-112847191D01*
X142737877Y-112811000D01*
X142673557Y-112690667D01*
X142656384Y-112634053D01*
X142622037Y-112520827D01*
X142604641Y-112344200D01*
X142622037Y-112167573D01*
X142656840Y-112052843D01*
X142673557Y-111997733D01*
X142757221Y-111841211D01*
X142757222Y-111841209D01*
X142786552Y-111805471D01*
X142869814Y-111704014D01*
X142971271Y-111620752D01*
X143007009Y-111591422D01*
X143024913Y-111581852D01*
X143163533Y-111507757D01*
X143220147Y-111490584D01*
X143333373Y-111456237D01*
X143399557Y-111449719D01*
X143465740Y-111443200D01*
X143554260Y-111443200D01*
X143620443Y-111449719D01*
X143620443Y-111449719D01*
G37*
G36*
X106736991Y-110813101D02*
X106822321Y-110821505D01*
X106959172Y-110863019D01*
X106959174Y-110863020D01*
X106959177Y-110863021D01*
X107085296Y-110930432D01*
X107195843Y-111021157D01*
X107286568Y-111131704D01*
X107353979Y-111257823D01*
X107353980Y-111257826D01*
X107353981Y-111257828D01*
X107395495Y-111394679D01*
X107409512Y-111537000D01*
X107395495Y-111679321D01*
X107353981Y-111816172D01*
X107353979Y-111816177D01*
X107286568Y-111942296D01*
X107195843Y-112052843D01*
X107085296Y-112143568D01*
X106959177Y-112210979D01*
X106959174Y-112210980D01*
X106959172Y-112210981D01*
X106822321Y-112252495D01*
X106736991Y-112260899D01*
X106715660Y-112263000D01*
X106644340Y-112263000D01*
X106623009Y-112260899D01*
X106537679Y-112252495D01*
X106400828Y-112210981D01*
X106400826Y-112210980D01*
X106400823Y-112210979D01*
X106274704Y-112143568D01*
X106164157Y-112052843D01*
X106073432Y-111942296D01*
X106006021Y-111816177D01*
X106006019Y-111816172D01*
X105964505Y-111679321D01*
X105950488Y-111537000D01*
X105964505Y-111394679D01*
X106006019Y-111257828D01*
X106006020Y-111257826D01*
X106006021Y-111257823D01*
X106073432Y-111131704D01*
X106164157Y-111021157D01*
X106274704Y-110930432D01*
X106400823Y-110863021D01*
X106400826Y-110863020D01*
X106400828Y-110863019D01*
X106537679Y-110821505D01*
X106623009Y-110813101D01*
X106644340Y-110811000D01*
X106715660Y-110811000D01*
X106736991Y-110813101D01*
X106736991Y-110813101D01*
G37*
G36*
X108736991Y-110813101D02*
X108822321Y-110821505D01*
X108959172Y-110863019D01*
X108959174Y-110863020D01*
X108959177Y-110863021D01*
X109085296Y-110930432D01*
X109195843Y-111021157D01*
X109286568Y-111131704D01*
X109353979Y-111257823D01*
X109353980Y-111257826D01*
X109353981Y-111257828D01*
X109395495Y-111394679D01*
X109409512Y-111537000D01*
X109395495Y-111679321D01*
X109353981Y-111816172D01*
X109353979Y-111816177D01*
X109286568Y-111942296D01*
X109195843Y-112052843D01*
X109085296Y-112143568D01*
X108959177Y-112210979D01*
X108959174Y-112210980D01*
X108959172Y-112210981D01*
X108822321Y-112252495D01*
X108736991Y-112260899D01*
X108715660Y-112263000D01*
X108644340Y-112263000D01*
X108623009Y-112260899D01*
X108537679Y-112252495D01*
X108400828Y-112210981D01*
X108400826Y-112210980D01*
X108400823Y-112210979D01*
X108274704Y-112143568D01*
X108164157Y-112052843D01*
X108073432Y-111942296D01*
X108006021Y-111816177D01*
X108006019Y-111816172D01*
X107964505Y-111679321D01*
X107950488Y-111537000D01*
X107964505Y-111394679D01*
X108006019Y-111257828D01*
X108006020Y-111257826D01*
X108006021Y-111257823D01*
X108073432Y-111131704D01*
X108164157Y-111021157D01*
X108274704Y-110930432D01*
X108400823Y-110863021D01*
X108400826Y-110863020D01*
X108400828Y-110863019D01*
X108537679Y-110821505D01*
X108623009Y-110813101D01*
X108644340Y-110811000D01*
X108715660Y-110811000D01*
X108736991Y-110813101D01*
X108736991Y-110813101D01*
G37*
G36*
X132136991Y-110813101D02*
X132222321Y-110821505D01*
X132359172Y-110863019D01*
X132359174Y-110863020D01*
X132359177Y-110863021D01*
X132485296Y-110930432D01*
X132595843Y-111021157D01*
X132686568Y-111131704D01*
X132753979Y-111257823D01*
X132753980Y-111257826D01*
X132753981Y-111257828D01*
X132795495Y-111394679D01*
X132809512Y-111537000D01*
X132795495Y-111679321D01*
X132753981Y-111816172D01*
X132753979Y-111816177D01*
X132686568Y-111942296D01*
X132595843Y-112052843D01*
X132485296Y-112143568D01*
X132359177Y-112210979D01*
X132359174Y-112210980D01*
X132359172Y-112210981D01*
X132222321Y-112252495D01*
X132136991Y-112260899D01*
X132115660Y-112263000D01*
X132044340Y-112263000D01*
X132023009Y-112260899D01*
X131937679Y-112252495D01*
X131800828Y-112210981D01*
X131800826Y-112210980D01*
X131800823Y-112210979D01*
X131674704Y-112143568D01*
X131564157Y-112052843D01*
X131473432Y-111942296D01*
X131406021Y-111816177D01*
X131406019Y-111816172D01*
X131364505Y-111679321D01*
X131350488Y-111537000D01*
X131364505Y-111394679D01*
X131406019Y-111257828D01*
X131406020Y-111257826D01*
X131406021Y-111257823D01*
X131473432Y-111131704D01*
X131564157Y-111021157D01*
X131674704Y-110930432D01*
X131800823Y-110863021D01*
X131800826Y-110863020D01*
X131800828Y-110863019D01*
X131937679Y-110821505D01*
X132023009Y-110813101D01*
X132044340Y-110811000D01*
X132115660Y-110811000D01*
X132136991Y-110813101D01*
X132136991Y-110813101D01*
G37*
G36*
X130136991Y-110813101D02*
X130222321Y-110821505D01*
X130359172Y-110863019D01*
X130359174Y-110863020D01*
X130359177Y-110863021D01*
X130485296Y-110930432D01*
X130595843Y-111021157D01*
X130686568Y-111131704D01*
X130753979Y-111257823D01*
X130753980Y-111257826D01*
X130753981Y-111257828D01*
X130795495Y-111394679D01*
X130809512Y-111537000D01*
X130795495Y-111679321D01*
X130753981Y-111816172D01*
X130753979Y-111816177D01*
X130686568Y-111942296D01*
X130595843Y-112052843D01*
X130485296Y-112143568D01*
X130359177Y-112210979D01*
X130359174Y-112210980D01*
X130359172Y-112210981D01*
X130222321Y-112252495D01*
X130136991Y-112260899D01*
X130115660Y-112263000D01*
X130044340Y-112263000D01*
X130023009Y-112260899D01*
X129937679Y-112252495D01*
X129800828Y-112210981D01*
X129800826Y-112210980D01*
X129800823Y-112210979D01*
X129674704Y-112143568D01*
X129564157Y-112052843D01*
X129473432Y-111942296D01*
X129406021Y-111816177D01*
X129406019Y-111816172D01*
X129364505Y-111679321D01*
X129350488Y-111537000D01*
X129364505Y-111394679D01*
X129406019Y-111257828D01*
X129406020Y-111257826D01*
X129406021Y-111257823D01*
X129473432Y-111131704D01*
X129564157Y-111021157D01*
X129674704Y-110930432D01*
X129800823Y-110863021D01*
X129800826Y-110863020D01*
X129800828Y-110863019D01*
X129937679Y-110821505D01*
X130023009Y-110813101D01*
X130044340Y-110811000D01*
X130115660Y-110811000D01*
X130136991Y-110813101D01*
X130136991Y-110813101D01*
G37*
G36*
X92820442Y-108922418D02*
X92886627Y-108928937D01*
X92999853Y-108963284D01*
X93056467Y-108980457D01*
X93132610Y-109021157D01*
X93212991Y-109064122D01*
X93248729Y-109093452D01*
X93350186Y-109176714D01*
X93433448Y-109278171D01*
X93462778Y-109313909D01*
X93462779Y-109313911D01*
X93546443Y-109470433D01*
X93546443Y-109470434D01*
X93597963Y-109640273D01*
X93615359Y-109816900D01*
X93597963Y-109993527D01*
X93563616Y-110106753D01*
X93546443Y-110163367D01*
X93520993Y-110210979D01*
X93462778Y-110319891D01*
X93433448Y-110355629D01*
X93350186Y-110457086D01*
X93248729Y-110540348D01*
X93212991Y-110569678D01*
X93212989Y-110569679D01*
X93056467Y-110653343D01*
X92999853Y-110670516D01*
X92886627Y-110704863D01*
X92820443Y-110711381D01*
X92754260Y-110717900D01*
X92665740Y-110717900D01*
X92599557Y-110711381D01*
X92533373Y-110704863D01*
X92420147Y-110670516D01*
X92363533Y-110653343D01*
X92207011Y-110569679D01*
X92207009Y-110569678D01*
X92171271Y-110540348D01*
X92069814Y-110457086D01*
X91986552Y-110355629D01*
X91957222Y-110319891D01*
X91899007Y-110210979D01*
X91873557Y-110163367D01*
X91856384Y-110106753D01*
X91822037Y-109993527D01*
X91804641Y-109816900D01*
X91822037Y-109640273D01*
X91873557Y-109470434D01*
X91873557Y-109470433D01*
X91957221Y-109313911D01*
X91957222Y-109313909D01*
X91986552Y-109278171D01*
X92069814Y-109176714D01*
X92171271Y-109093452D01*
X92207009Y-109064122D01*
X92287390Y-109021157D01*
X92363533Y-108980457D01*
X92420147Y-108963284D01*
X92533373Y-108928937D01*
X92599558Y-108922418D01*
X92665740Y-108915900D01*
X92754260Y-108915900D01*
X92820442Y-108922418D01*
X92820442Y-108922418D01*
G37*
G36*
X95360442Y-108922418D02*
X95426627Y-108928937D01*
X95539853Y-108963284D01*
X95596467Y-108980457D01*
X95672610Y-109021157D01*
X95752991Y-109064122D01*
X95788729Y-109093452D01*
X95890186Y-109176714D01*
X95973448Y-109278171D01*
X96002778Y-109313909D01*
X96002779Y-109313911D01*
X96086443Y-109470433D01*
X96086443Y-109470434D01*
X96137963Y-109640273D01*
X96155359Y-109816900D01*
X96137963Y-109993527D01*
X96103616Y-110106753D01*
X96086443Y-110163367D01*
X96060993Y-110210979D01*
X96002778Y-110319891D01*
X95973448Y-110355629D01*
X95890186Y-110457086D01*
X95788729Y-110540348D01*
X95752991Y-110569678D01*
X95752989Y-110569679D01*
X95596467Y-110653343D01*
X95539853Y-110670516D01*
X95426627Y-110704863D01*
X95360443Y-110711381D01*
X95294260Y-110717900D01*
X95205740Y-110717900D01*
X95139557Y-110711381D01*
X95073373Y-110704863D01*
X94960147Y-110670516D01*
X94903533Y-110653343D01*
X94747011Y-110569679D01*
X94747009Y-110569678D01*
X94711271Y-110540348D01*
X94609814Y-110457086D01*
X94526552Y-110355629D01*
X94497222Y-110319891D01*
X94439007Y-110210979D01*
X94413557Y-110163367D01*
X94396384Y-110106753D01*
X94362037Y-109993527D01*
X94344641Y-109816900D01*
X94362037Y-109640273D01*
X94413557Y-109470434D01*
X94413557Y-109470433D01*
X94497221Y-109313911D01*
X94497222Y-109313909D01*
X94526552Y-109278171D01*
X94609814Y-109176714D01*
X94711271Y-109093452D01*
X94747009Y-109064122D01*
X94827390Y-109021157D01*
X94903533Y-108980457D01*
X94960147Y-108963284D01*
X95073373Y-108928937D01*
X95139558Y-108922418D01*
X95205740Y-108915900D01*
X95294260Y-108915900D01*
X95360442Y-108922418D01*
X95360442Y-108922418D01*
G37*
G36*
X146160442Y-108909718D02*
X146226627Y-108916237D01*
X146339853Y-108950584D01*
X146396467Y-108967757D01*
X146496370Y-109021157D01*
X146552991Y-109051422D01*
X146588729Y-109080752D01*
X146690186Y-109164014D01*
X146767172Y-109257823D01*
X146802778Y-109301209D01*
X146802779Y-109301211D01*
X146886443Y-109457733D01*
X146903616Y-109514347D01*
X146937963Y-109627573D01*
X146955359Y-109804200D01*
X146937963Y-109980827D01*
X146916117Y-110052843D01*
X146886443Y-110150667D01*
X146854205Y-110210979D01*
X146802778Y-110307191D01*
X146792357Y-110319889D01*
X146690186Y-110444386D01*
X146588729Y-110527648D01*
X146552991Y-110556978D01*
X146552989Y-110556979D01*
X146396467Y-110640643D01*
X146354600Y-110653343D01*
X146226627Y-110692163D01*
X146160442Y-110698682D01*
X146094260Y-110705200D01*
X146005740Y-110705200D01*
X145939558Y-110698682D01*
X145873373Y-110692163D01*
X145745400Y-110653343D01*
X145703533Y-110640643D01*
X145547011Y-110556979D01*
X145547009Y-110556978D01*
X145511271Y-110527648D01*
X145409814Y-110444386D01*
X145307643Y-110319889D01*
X145297222Y-110307191D01*
X145245795Y-110210979D01*
X145213557Y-110150667D01*
X145183883Y-110052843D01*
X145162037Y-109980827D01*
X145144641Y-109804200D01*
X145162037Y-109627573D01*
X145196384Y-109514347D01*
X145213557Y-109457733D01*
X145297221Y-109301211D01*
X145297222Y-109301209D01*
X145332828Y-109257823D01*
X145409814Y-109164014D01*
X145511271Y-109080752D01*
X145547009Y-109051422D01*
X145603630Y-109021157D01*
X145703533Y-108967757D01*
X145760147Y-108950584D01*
X145873373Y-108916237D01*
X145939558Y-108909718D01*
X146005740Y-108903200D01*
X146094260Y-108903200D01*
X146160442Y-108909718D01*
X146160442Y-108909718D01*
G37*
G36*
X143620442Y-108909718D02*
X143686627Y-108916237D01*
X143799853Y-108950584D01*
X143856467Y-108967757D01*
X143956370Y-109021157D01*
X144012991Y-109051422D01*
X144048729Y-109080752D01*
X144150186Y-109164014D01*
X144227172Y-109257823D01*
X144262778Y-109301209D01*
X144262779Y-109301211D01*
X144346443Y-109457733D01*
X144363616Y-109514347D01*
X144397963Y-109627573D01*
X144415359Y-109804200D01*
X144397963Y-109980827D01*
X144376117Y-110052843D01*
X144346443Y-110150667D01*
X144314205Y-110210979D01*
X144262778Y-110307191D01*
X144252357Y-110319889D01*
X144150186Y-110444386D01*
X144048729Y-110527648D01*
X144012991Y-110556978D01*
X144012989Y-110556979D01*
X143856467Y-110640643D01*
X143814600Y-110653343D01*
X143686627Y-110692163D01*
X143620442Y-110698682D01*
X143554260Y-110705200D01*
X143465740Y-110705200D01*
X143399558Y-110698682D01*
X143333373Y-110692163D01*
X143205400Y-110653343D01*
X143163533Y-110640643D01*
X143007011Y-110556979D01*
X143007009Y-110556978D01*
X142971271Y-110527648D01*
X142869814Y-110444386D01*
X142767643Y-110319889D01*
X142757222Y-110307191D01*
X142705795Y-110210979D01*
X142673557Y-110150667D01*
X142643883Y-110052843D01*
X142622037Y-109980827D01*
X142604641Y-109804200D01*
X142622037Y-109627573D01*
X142656384Y-109514347D01*
X142673557Y-109457733D01*
X142757221Y-109301211D01*
X142757222Y-109301209D01*
X142792828Y-109257823D01*
X142869814Y-109164014D01*
X142971271Y-109080752D01*
X143007009Y-109051422D01*
X143063630Y-109021157D01*
X143163533Y-108967757D01*
X143220147Y-108950584D01*
X143333373Y-108916237D01*
X143399558Y-108909718D01*
X143465740Y-108903200D01*
X143554260Y-108903200D01*
X143620442Y-108909718D01*
X143620442Y-108909718D01*
G37*
G36*
X132136991Y-108813101D02*
X132222321Y-108821505D01*
X132359172Y-108863019D01*
X132359174Y-108863020D01*
X132359177Y-108863021D01*
X132485296Y-108930432D01*
X132595843Y-109021157D01*
X132686568Y-109131704D01*
X132753979Y-109257823D01*
X132753980Y-109257826D01*
X132753981Y-109257828D01*
X132795495Y-109394679D01*
X132809512Y-109537000D01*
X132795495Y-109679321D01*
X132753981Y-109816172D01*
X132753979Y-109816177D01*
X132686568Y-109942296D01*
X132595843Y-110052843D01*
X132485296Y-110143568D01*
X132359177Y-110210979D01*
X132359174Y-110210980D01*
X132359172Y-110210981D01*
X132222321Y-110252495D01*
X132136991Y-110260899D01*
X132115660Y-110263000D01*
X132044340Y-110263000D01*
X132023009Y-110260899D01*
X131937679Y-110252495D01*
X131800828Y-110210981D01*
X131800826Y-110210980D01*
X131800823Y-110210979D01*
X131674704Y-110143568D01*
X131564157Y-110052843D01*
X131473432Y-109942296D01*
X131406021Y-109816177D01*
X131406019Y-109816172D01*
X131364505Y-109679321D01*
X131350488Y-109537000D01*
X131364505Y-109394679D01*
X131406019Y-109257828D01*
X131406020Y-109257826D01*
X131406021Y-109257823D01*
X131473432Y-109131704D01*
X131564157Y-109021157D01*
X131674704Y-108930432D01*
X131800823Y-108863021D01*
X131800826Y-108863020D01*
X131800828Y-108863019D01*
X131937679Y-108821505D01*
X132023009Y-108813101D01*
X132044340Y-108811000D01*
X132115660Y-108811000D01*
X132136991Y-108813101D01*
X132136991Y-108813101D01*
G37*
G36*
X106736991Y-108813101D02*
X106822321Y-108821505D01*
X106959172Y-108863019D01*
X106959174Y-108863020D01*
X106959177Y-108863021D01*
X107085296Y-108930432D01*
X107195843Y-109021157D01*
X107286568Y-109131704D01*
X107353979Y-109257823D01*
X107353980Y-109257826D01*
X107353981Y-109257828D01*
X107395495Y-109394679D01*
X107409512Y-109537000D01*
X107395495Y-109679321D01*
X107353981Y-109816172D01*
X107353979Y-109816177D01*
X107286568Y-109942296D01*
X107195843Y-110052843D01*
X107085296Y-110143568D01*
X106959177Y-110210979D01*
X106959174Y-110210980D01*
X106959172Y-110210981D01*
X106822321Y-110252495D01*
X106736991Y-110260899D01*
X106715660Y-110263000D01*
X106644340Y-110263000D01*
X106623009Y-110260899D01*
X106537679Y-110252495D01*
X106400828Y-110210981D01*
X106400826Y-110210980D01*
X106400823Y-110210979D01*
X106274704Y-110143568D01*
X106164157Y-110052843D01*
X106073432Y-109942296D01*
X106006021Y-109816177D01*
X106006019Y-109816172D01*
X105964505Y-109679321D01*
X105950488Y-109537000D01*
X105964505Y-109394679D01*
X106006019Y-109257828D01*
X106006020Y-109257826D01*
X106006021Y-109257823D01*
X106073432Y-109131704D01*
X106164157Y-109021157D01*
X106274704Y-108930432D01*
X106400823Y-108863021D01*
X106400826Y-108863020D01*
X106400828Y-108863019D01*
X106537679Y-108821505D01*
X106623009Y-108813101D01*
X106644340Y-108811000D01*
X106715660Y-108811000D01*
X106736991Y-108813101D01*
X106736991Y-108813101D01*
G37*
G36*
X108736991Y-108813101D02*
X108822321Y-108821505D01*
X108959172Y-108863019D01*
X108959174Y-108863020D01*
X108959177Y-108863021D01*
X109085296Y-108930432D01*
X109195843Y-109021157D01*
X109286568Y-109131704D01*
X109353979Y-109257823D01*
X109353980Y-109257826D01*
X109353981Y-109257828D01*
X109395495Y-109394679D01*
X109409512Y-109537000D01*
X109395495Y-109679321D01*
X109353981Y-109816172D01*
X109353979Y-109816177D01*
X109286568Y-109942296D01*
X109195843Y-110052843D01*
X109085296Y-110143568D01*
X108959177Y-110210979D01*
X108959174Y-110210980D01*
X108959172Y-110210981D01*
X108822321Y-110252495D01*
X108736991Y-110260899D01*
X108715660Y-110263000D01*
X108644340Y-110263000D01*
X108623009Y-110260899D01*
X108537679Y-110252495D01*
X108400828Y-110210981D01*
X108400826Y-110210980D01*
X108400823Y-110210979D01*
X108274704Y-110143568D01*
X108164157Y-110052843D01*
X108073432Y-109942296D01*
X108006021Y-109816177D01*
X108006019Y-109816172D01*
X107964505Y-109679321D01*
X107950488Y-109537000D01*
X107964505Y-109394679D01*
X108006019Y-109257828D01*
X108006020Y-109257826D01*
X108006021Y-109257823D01*
X108073432Y-109131704D01*
X108164157Y-109021157D01*
X108274704Y-108930432D01*
X108400823Y-108863021D01*
X108400826Y-108863020D01*
X108400828Y-108863019D01*
X108537679Y-108821505D01*
X108623009Y-108813101D01*
X108644340Y-108811000D01*
X108715660Y-108811000D01*
X108736991Y-108813101D01*
X108736991Y-108813101D01*
G37*
G36*
X130136991Y-108813101D02*
X130222321Y-108821505D01*
X130359172Y-108863019D01*
X130359174Y-108863020D01*
X130359177Y-108863021D01*
X130485296Y-108930432D01*
X130595843Y-109021157D01*
X130686568Y-109131704D01*
X130753979Y-109257823D01*
X130753980Y-109257826D01*
X130753981Y-109257828D01*
X130795495Y-109394679D01*
X130809512Y-109537000D01*
X130795495Y-109679321D01*
X130753981Y-109816172D01*
X130753979Y-109816177D01*
X130686568Y-109942296D01*
X130595843Y-110052843D01*
X130485296Y-110143568D01*
X130359177Y-110210979D01*
X130359174Y-110210980D01*
X130359172Y-110210981D01*
X130222321Y-110252495D01*
X130136991Y-110260899D01*
X130115660Y-110263000D01*
X130044340Y-110263000D01*
X130023009Y-110260899D01*
X129937679Y-110252495D01*
X129800828Y-110210981D01*
X129800826Y-110210980D01*
X129800823Y-110210979D01*
X129674704Y-110143568D01*
X129564157Y-110052843D01*
X129473432Y-109942296D01*
X129406021Y-109816177D01*
X129406019Y-109816172D01*
X129364505Y-109679321D01*
X129350488Y-109537000D01*
X129364505Y-109394679D01*
X129406019Y-109257828D01*
X129406020Y-109257826D01*
X129406021Y-109257823D01*
X129473432Y-109131704D01*
X129564157Y-109021157D01*
X129674704Y-108930432D01*
X129800823Y-108863021D01*
X129800826Y-108863020D01*
X129800828Y-108863019D01*
X129937679Y-108821505D01*
X130023009Y-108813101D01*
X130044340Y-108811000D01*
X130115660Y-108811000D01*
X130136991Y-108813101D01*
X130136991Y-108813101D01*
G37*
G36*
X130136991Y-106813101D02*
X130222321Y-106821505D01*
X130359172Y-106863019D01*
X130359174Y-106863020D01*
X130359177Y-106863021D01*
X130485296Y-106930432D01*
X130595843Y-107021157D01*
X130686568Y-107131704D01*
X130753979Y-107257823D01*
X130753980Y-107257826D01*
X130753981Y-107257828D01*
X130795495Y-107394679D01*
X130809512Y-107537000D01*
X130795495Y-107679321D01*
X130753981Y-107816172D01*
X130753979Y-107816177D01*
X130686568Y-107942296D01*
X130595843Y-108052843D01*
X130485296Y-108143568D01*
X130359177Y-108210979D01*
X130359174Y-108210980D01*
X130359172Y-108210981D01*
X130222321Y-108252495D01*
X130136991Y-108260899D01*
X130115660Y-108263000D01*
X130044340Y-108263000D01*
X130023009Y-108260899D01*
X129937679Y-108252495D01*
X129800828Y-108210981D01*
X129800826Y-108210980D01*
X129800823Y-108210979D01*
X129674704Y-108143568D01*
X129564157Y-108052843D01*
X129473432Y-107942296D01*
X129406021Y-107816177D01*
X129406019Y-107816172D01*
X129364505Y-107679321D01*
X129350488Y-107537000D01*
X129364505Y-107394679D01*
X129406019Y-107257828D01*
X129406020Y-107257826D01*
X129406021Y-107257823D01*
X129473432Y-107131704D01*
X129564157Y-107021157D01*
X129674704Y-106930432D01*
X129800823Y-106863021D01*
X129800826Y-106863020D01*
X129800828Y-106863019D01*
X129937679Y-106821505D01*
X130023009Y-106813101D01*
X130044340Y-106811000D01*
X130115660Y-106811000D01*
X130136991Y-106813101D01*
X130136991Y-106813101D01*
G37*
G36*
X132136991Y-106813101D02*
X132222321Y-106821505D01*
X132359172Y-106863019D01*
X132359174Y-106863020D01*
X132359177Y-106863021D01*
X132485296Y-106930432D01*
X132595843Y-107021157D01*
X132686568Y-107131704D01*
X132753979Y-107257823D01*
X132753980Y-107257826D01*
X132753981Y-107257828D01*
X132795495Y-107394679D01*
X132809512Y-107537000D01*
X132795495Y-107679321D01*
X132753981Y-107816172D01*
X132753979Y-107816177D01*
X132686568Y-107942296D01*
X132595843Y-108052843D01*
X132485296Y-108143568D01*
X132359177Y-108210979D01*
X132359174Y-108210980D01*
X132359172Y-108210981D01*
X132222321Y-108252495D01*
X132136991Y-108260899D01*
X132115660Y-108263000D01*
X132044340Y-108263000D01*
X132023009Y-108260899D01*
X131937679Y-108252495D01*
X131800828Y-108210981D01*
X131800826Y-108210980D01*
X131800823Y-108210979D01*
X131674704Y-108143568D01*
X131564157Y-108052843D01*
X131473432Y-107942296D01*
X131406021Y-107816177D01*
X131406019Y-107816172D01*
X131364505Y-107679321D01*
X131350488Y-107537000D01*
X131364505Y-107394679D01*
X131406019Y-107257828D01*
X131406020Y-107257826D01*
X131406021Y-107257823D01*
X131473432Y-107131704D01*
X131564157Y-107021157D01*
X131674704Y-106930432D01*
X131800823Y-106863021D01*
X131800826Y-106863020D01*
X131800828Y-106863019D01*
X131937679Y-106821505D01*
X132023009Y-106813101D01*
X132044340Y-106811000D01*
X132115660Y-106811000D01*
X132136991Y-106813101D01*
X132136991Y-106813101D01*
G37*
G36*
X108736991Y-106813101D02*
X108822321Y-106821505D01*
X108959172Y-106863019D01*
X108959174Y-106863020D01*
X108959177Y-106863021D01*
X109085296Y-106930432D01*
X109195843Y-107021157D01*
X109286568Y-107131704D01*
X109353979Y-107257823D01*
X109353980Y-107257826D01*
X109353981Y-107257828D01*
X109395495Y-107394679D01*
X109409512Y-107537000D01*
X109395495Y-107679321D01*
X109353981Y-107816172D01*
X109353979Y-107816177D01*
X109286568Y-107942296D01*
X109195843Y-108052843D01*
X109085296Y-108143568D01*
X108959177Y-108210979D01*
X108959174Y-108210980D01*
X108959172Y-108210981D01*
X108822321Y-108252495D01*
X108736991Y-108260899D01*
X108715660Y-108263000D01*
X108644340Y-108263000D01*
X108623009Y-108260899D01*
X108537679Y-108252495D01*
X108400828Y-108210981D01*
X108400826Y-108210980D01*
X108400823Y-108210979D01*
X108274704Y-108143568D01*
X108164157Y-108052843D01*
X108073432Y-107942296D01*
X108006021Y-107816177D01*
X108006019Y-107816172D01*
X107964505Y-107679321D01*
X107950488Y-107537000D01*
X107964505Y-107394679D01*
X108006019Y-107257828D01*
X108006020Y-107257826D01*
X108006021Y-107257823D01*
X108073432Y-107131704D01*
X108164157Y-107021157D01*
X108274704Y-106930432D01*
X108400823Y-106863021D01*
X108400826Y-106863020D01*
X108400828Y-106863019D01*
X108537679Y-106821505D01*
X108623009Y-106813101D01*
X108644340Y-106811000D01*
X108715660Y-106811000D01*
X108736991Y-106813101D01*
X108736991Y-106813101D01*
G37*
G36*
X106736991Y-106813101D02*
X106822321Y-106821505D01*
X106959172Y-106863019D01*
X106959174Y-106863020D01*
X106959177Y-106863021D01*
X107085296Y-106930432D01*
X107195843Y-107021157D01*
X107286568Y-107131704D01*
X107353979Y-107257823D01*
X107353980Y-107257826D01*
X107353981Y-107257828D01*
X107395495Y-107394679D01*
X107409512Y-107537000D01*
X107395495Y-107679321D01*
X107353981Y-107816172D01*
X107353979Y-107816177D01*
X107286568Y-107942296D01*
X107195843Y-108052843D01*
X107085296Y-108143568D01*
X106959177Y-108210979D01*
X106959174Y-108210980D01*
X106959172Y-108210981D01*
X106822321Y-108252495D01*
X106736991Y-108260899D01*
X106715660Y-108263000D01*
X106644340Y-108263000D01*
X106623009Y-108260899D01*
X106537679Y-108252495D01*
X106400828Y-108210981D01*
X106400826Y-108210980D01*
X106400823Y-108210979D01*
X106274704Y-108143568D01*
X106164157Y-108052843D01*
X106073432Y-107942296D01*
X106006021Y-107816177D01*
X106006019Y-107816172D01*
X105964505Y-107679321D01*
X105950488Y-107537000D01*
X105964505Y-107394679D01*
X106006019Y-107257828D01*
X106006020Y-107257826D01*
X106006021Y-107257823D01*
X106073432Y-107131704D01*
X106164157Y-107021157D01*
X106274704Y-106930432D01*
X106400823Y-106863021D01*
X106400826Y-106863020D01*
X106400828Y-106863019D01*
X106537679Y-106821505D01*
X106623009Y-106813101D01*
X106644340Y-106811000D01*
X106715660Y-106811000D01*
X106736991Y-106813101D01*
X106736991Y-106813101D01*
G37*
G36*
X95360442Y-106382418D02*
X95426627Y-106388937D01*
X95539853Y-106423284D01*
X95596467Y-106440457D01*
X95715258Y-106503953D01*
X95752991Y-106524122D01*
X95788729Y-106553452D01*
X95890186Y-106636714D01*
X95963460Y-106726000D01*
X96002778Y-106773909D01*
X96002779Y-106773911D01*
X96086443Y-106930433D01*
X96086443Y-106930434D01*
X96137963Y-107100273D01*
X96155359Y-107276900D01*
X96137963Y-107453527D01*
X96112642Y-107537000D01*
X96086443Y-107623367D01*
X96012348Y-107761987D01*
X96002778Y-107779891D01*
X95973448Y-107815629D01*
X95890186Y-107917086D01*
X95788729Y-108000348D01*
X95752991Y-108029678D01*
X95752989Y-108029679D01*
X95596467Y-108113343D01*
X95539853Y-108130516D01*
X95426627Y-108164863D01*
X95360442Y-108171382D01*
X95294260Y-108177900D01*
X95205740Y-108177900D01*
X95139558Y-108171382D01*
X95073373Y-108164863D01*
X94960147Y-108130516D01*
X94903533Y-108113343D01*
X94747011Y-108029679D01*
X94747009Y-108029678D01*
X94711271Y-108000348D01*
X94609814Y-107917086D01*
X94526552Y-107815629D01*
X94497222Y-107779891D01*
X94487652Y-107761987D01*
X94413557Y-107623367D01*
X94387358Y-107537000D01*
X94362037Y-107453527D01*
X94344641Y-107276900D01*
X94362037Y-107100273D01*
X94413557Y-106930434D01*
X94413557Y-106930433D01*
X94497221Y-106773911D01*
X94497222Y-106773909D01*
X94536540Y-106726000D01*
X94609814Y-106636714D01*
X94711271Y-106553452D01*
X94747009Y-106524122D01*
X94784742Y-106503953D01*
X94903533Y-106440457D01*
X94960147Y-106423284D01*
X95073373Y-106388937D01*
X95139558Y-106382418D01*
X95205740Y-106375900D01*
X95294260Y-106375900D01*
X95360442Y-106382418D01*
X95360442Y-106382418D01*
G37*
G36*
X93611000Y-108177900D02*
X91809000Y-108177900D01*
X91809000Y-106375900D01*
X93611000Y-106375900D01*
X93611000Y-108177900D01*
X93611000Y-108177900D01*
G37*
G36*
X144411000Y-108165200D02*
X142609000Y-108165200D01*
X142609000Y-106363200D01*
X144411000Y-106363200D01*
X144411000Y-108165200D01*
X144411000Y-108165200D01*
G37*
G36*
X146160443Y-106369719D02*
X146226627Y-106376237D01*
X146339853Y-106410584D01*
X146396467Y-106427757D01*
X146535087Y-106501852D01*
X146552991Y-106511422D01*
X146588729Y-106540752D01*
X146690186Y-106624014D01*
X146773448Y-106725471D01*
X146802778Y-106761209D01*
X146802779Y-106761211D01*
X146886443Y-106917733D01*
X146903616Y-106974347D01*
X146937963Y-107087573D01*
X146955359Y-107264200D01*
X146937963Y-107440827D01*
X146908789Y-107537000D01*
X146886443Y-107610667D01*
X146849748Y-107679317D01*
X146802778Y-107767191D01*
X146792357Y-107779889D01*
X146690186Y-107904386D01*
X146588729Y-107987648D01*
X146552991Y-108016978D01*
X146552989Y-108016979D01*
X146396467Y-108100643D01*
X146354600Y-108113343D01*
X146226627Y-108152163D01*
X146160443Y-108158681D01*
X146094260Y-108165200D01*
X146005740Y-108165200D01*
X145939557Y-108158681D01*
X145873373Y-108152163D01*
X145745400Y-108113343D01*
X145703533Y-108100643D01*
X145547011Y-108016979D01*
X145547009Y-108016978D01*
X145511271Y-107987648D01*
X145409814Y-107904386D01*
X145307643Y-107779889D01*
X145297222Y-107767191D01*
X145250252Y-107679317D01*
X145213557Y-107610667D01*
X145191211Y-107537000D01*
X145162037Y-107440827D01*
X145144641Y-107264200D01*
X145162037Y-107087573D01*
X145196384Y-106974347D01*
X145213557Y-106917733D01*
X145297221Y-106761211D01*
X145297222Y-106761209D01*
X145326552Y-106725471D01*
X145409814Y-106624014D01*
X145511271Y-106540752D01*
X145547009Y-106511422D01*
X145564913Y-106501852D01*
X145703533Y-106427757D01*
X145760147Y-106410584D01*
X145873373Y-106376237D01*
X145939557Y-106369719D01*
X146005740Y-106363200D01*
X146094260Y-106363200D01*
X146160443Y-106369719D01*
X146160443Y-106369719D01*
G37*
G36*
X137729083Y-102898975D02*
X137729085Y-102898976D01*
X137729086Y-102898976D01*
X138084145Y-103046046D01*
X138084146Y-103046047D01*
X138403693Y-103259561D01*
X138675439Y-103531307D01*
X138675441Y-103531310D01*
X138888954Y-103850855D01*
X139036024Y-104205914D01*
X139036025Y-104205917D01*
X139111000Y-104582842D01*
X139111000Y-104967158D01*
X139078270Y-105131705D01*
X139036024Y-105344086D01*
X138888954Y-105699145D01*
X138888953Y-105699146D01*
X138675439Y-106018693D01*
X138403693Y-106290439D01*
X138403690Y-106290441D01*
X138084145Y-106503954D01*
X137729086Y-106651024D01*
X137729085Y-106651024D01*
X137729083Y-106651025D01*
X137352158Y-106726000D01*
X136967842Y-106726000D01*
X136590917Y-106651025D01*
X136590915Y-106651024D01*
X136590914Y-106651024D01*
X136235855Y-106503954D01*
X135916310Y-106290441D01*
X135916307Y-106290439D01*
X135644561Y-106018693D01*
X135431047Y-105699146D01*
X135431046Y-105699145D01*
X135283976Y-105344086D01*
X135241731Y-105131705D01*
X135209000Y-104967158D01*
X135209000Y-104582842D01*
X135283975Y-104205917D01*
X135283976Y-104205914D01*
X135431046Y-103850855D01*
X135644559Y-103531310D01*
X135644561Y-103531307D01*
X135916307Y-103259561D01*
X136235854Y-103046047D01*
X136235855Y-103046046D01*
X136590914Y-102898976D01*
X136590915Y-102898976D01*
X136590917Y-102898975D01*
X136967842Y-102824000D01*
X137352158Y-102824000D01*
X137729083Y-102898975D01*
X137729083Y-102898975D01*
G37*
G36*
X102169083Y-102898975D02*
X102169085Y-102898976D01*
X102169086Y-102898976D01*
X102524145Y-103046046D01*
X102524146Y-103046047D01*
X102843693Y-103259561D01*
X103115439Y-103531307D01*
X103115441Y-103531310D01*
X103328954Y-103850855D01*
X103476024Y-104205914D01*
X103476025Y-104205917D01*
X103551000Y-104582842D01*
X103551000Y-104967158D01*
X103518270Y-105131705D01*
X103476024Y-105344086D01*
X103328954Y-105699145D01*
X103328953Y-105699146D01*
X103115439Y-106018693D01*
X102843693Y-106290439D01*
X102843690Y-106290441D01*
X102524145Y-106503954D01*
X102169086Y-106651024D01*
X102169085Y-106651024D01*
X102169083Y-106651025D01*
X101792158Y-106726000D01*
X101407842Y-106726000D01*
X101030917Y-106651025D01*
X101030915Y-106651024D01*
X101030914Y-106651024D01*
X100675855Y-106503954D01*
X100356310Y-106290441D01*
X100356307Y-106290439D01*
X100084561Y-106018693D01*
X99871047Y-105699146D01*
X99871046Y-105699145D01*
X99723976Y-105344086D01*
X99681731Y-105131705D01*
X99649000Y-104967158D01*
X99649000Y-104582842D01*
X99723975Y-104205917D01*
X99723976Y-104205914D01*
X99871046Y-103850855D01*
X100084559Y-103531310D01*
X100084561Y-103531307D01*
X100356307Y-103259561D01*
X100675854Y-103046047D01*
X100675855Y-103046046D01*
X101030914Y-102898976D01*
X101030915Y-102898976D01*
X101030917Y-102898975D01*
X101407842Y-102824000D01*
X101792158Y-102824000D01*
X102169083Y-102898975D01*
X102169083Y-102898975D01*
G37*
G36*
X130806000Y-106263000D02*
X129354000Y-106263000D01*
X129354000Y-104811000D01*
X130806000Y-104811000D01*
X130806000Y-106263000D01*
X130806000Y-106263000D01*
G37*
G36*
X132136991Y-104813101D02*
X132222321Y-104821505D01*
X132359172Y-104863019D01*
X132359174Y-104863020D01*
X132359177Y-104863021D01*
X132485296Y-104930432D01*
X132595843Y-105021157D01*
X132686568Y-105131704D01*
X132753979Y-105257823D01*
X132753980Y-105257826D01*
X132753981Y-105257828D01*
X132795495Y-105394679D01*
X132809512Y-105537000D01*
X132795495Y-105679321D01*
X132753981Y-105816172D01*
X132753979Y-105816177D01*
X132686568Y-105942296D01*
X132595843Y-106052843D01*
X132485296Y-106143568D01*
X132359177Y-106210979D01*
X132359174Y-106210980D01*
X132359172Y-106210981D01*
X132222321Y-106252495D01*
X132136991Y-106260899D01*
X132115660Y-106263000D01*
X132044340Y-106263000D01*
X132023009Y-106260899D01*
X131937679Y-106252495D01*
X131800828Y-106210981D01*
X131800826Y-106210980D01*
X131800823Y-106210979D01*
X131674704Y-106143568D01*
X131564157Y-106052843D01*
X131473432Y-105942296D01*
X131406021Y-105816177D01*
X131406019Y-105816172D01*
X131364505Y-105679321D01*
X131350488Y-105537000D01*
X131364505Y-105394679D01*
X131406019Y-105257828D01*
X131406020Y-105257826D01*
X131406021Y-105257823D01*
X131473432Y-105131704D01*
X131564157Y-105021157D01*
X131674704Y-104930432D01*
X131800823Y-104863021D01*
X131800826Y-104863020D01*
X131800828Y-104863019D01*
X131937679Y-104821505D01*
X132023009Y-104813101D01*
X132044340Y-104811000D01*
X132115660Y-104811000D01*
X132136991Y-104813101D01*
X132136991Y-104813101D01*
G37*
G36*
X107406000Y-106263000D02*
X105954000Y-106263000D01*
X105954000Y-104811000D01*
X107406000Y-104811000D01*
X107406000Y-106263000D01*
X107406000Y-106263000D01*
G37*
G36*
X108736991Y-104813101D02*
X108822321Y-104821505D01*
X108959172Y-104863019D01*
X108959174Y-104863020D01*
X108959177Y-104863021D01*
X109085296Y-104930432D01*
X109195843Y-105021157D01*
X109286568Y-105131704D01*
X109353979Y-105257823D01*
X109353980Y-105257826D01*
X109353981Y-105257828D01*
X109395495Y-105394679D01*
X109409512Y-105537000D01*
X109395495Y-105679321D01*
X109353981Y-105816172D01*
X109353979Y-105816177D01*
X109286568Y-105942296D01*
X109195843Y-106052843D01*
X109085296Y-106143568D01*
X108959177Y-106210979D01*
X108959174Y-106210980D01*
X108959172Y-106210981D01*
X108822321Y-106252495D01*
X108736991Y-106260899D01*
X108715660Y-106263000D01*
X108644340Y-106263000D01*
X108623009Y-106260899D01*
X108537679Y-106252495D01*
X108400828Y-106210981D01*
X108400826Y-106210980D01*
X108400823Y-106210979D01*
X108274704Y-106143568D01*
X108164157Y-106052843D01*
X108073432Y-105942296D01*
X108006021Y-105816177D01*
X108006019Y-105816172D01*
X107964505Y-105679321D01*
X107950488Y-105537000D01*
X107964505Y-105394679D01*
X108006019Y-105257828D01*
X108006020Y-105257826D01*
X108006021Y-105257823D01*
X108073432Y-105131704D01*
X108164157Y-105021157D01*
X108274704Y-104930432D01*
X108400823Y-104863021D01*
X108400826Y-104863020D01*
X108400828Y-104863019D01*
X108537679Y-104821505D01*
X108623009Y-104813101D01*
X108644340Y-104811000D01*
X108715660Y-104811000D01*
X108736991Y-104813101D01*
X108736991Y-104813101D01*
G37*
M02*
