G04 #@! TF.GenerationSoftware,KiCad,Pcbnew,(5.0.2)-1*
G04 #@! TF.CreationDate,2019-10-04T12:33:32+03:00*
G04 #@! TF.ProjectId,2-relay-over-io,322d7265-6c61-4792-9d6f-7665722d696f,rev?*
G04 #@! TF.SameCoordinates,Original*
G04 #@! TF.FileFunction,Soldermask,Bot*
G04 #@! TF.FilePolarity,Negative*
%FSLAX46Y46*%
G04 Gerber Fmt 4.6, Leading zero omitted, Abs format (unit mm)*
G04 Created by KiCad (PCBNEW (5.0.2)-1) date 04.10.2019 12:33:32*
%MOMM*%
%LPD*%
G01*
G04 APERTURE LIST*
%ADD10C,0.100000*%
G04 APERTURE END LIST*
D10*
G36*
X119949083Y-141633975D02*
X119949085Y-141633976D01*
X119949086Y-141633976D01*
X120304145Y-141781046D01*
X120600017Y-141978741D01*
X120623693Y-141994561D01*
X120895439Y-142266307D01*
X120895441Y-142266310D01*
X121108954Y-142585855D01*
X121256024Y-142940914D01*
X121331000Y-143317843D01*
X121331000Y-143702157D01*
X121256024Y-144079086D01*
X121108954Y-144434145D01*
X121108953Y-144434146D01*
X120895439Y-144753693D01*
X120623693Y-145025439D01*
X120623690Y-145025441D01*
X120304145Y-145238954D01*
X119949086Y-145386024D01*
X119949085Y-145386024D01*
X119949083Y-145386025D01*
X119572158Y-145461000D01*
X119187842Y-145461000D01*
X118810917Y-145386025D01*
X118810915Y-145386024D01*
X118810914Y-145386024D01*
X118455855Y-145238954D01*
X118136310Y-145025441D01*
X118136307Y-145025439D01*
X117864561Y-144753693D01*
X117651047Y-144434146D01*
X117651046Y-144434145D01*
X117503976Y-144079086D01*
X117429000Y-143702157D01*
X117429000Y-143317843D01*
X117503976Y-142940914D01*
X117651046Y-142585855D01*
X117864559Y-142266310D01*
X117864561Y-142266307D01*
X118136307Y-141994561D01*
X118159983Y-141978741D01*
X118455855Y-141781046D01*
X118810914Y-141633976D01*
X118810915Y-141633976D01*
X118810917Y-141633975D01*
X119187842Y-141559000D01*
X119572158Y-141559000D01*
X119949083Y-141633975D01*
X119949083Y-141633975D01*
G37*
G36*
X143702812Y-141023624D02*
X143866784Y-141091544D01*
X144014354Y-141190147D01*
X144139853Y-141315646D01*
X144238456Y-141463216D01*
X144306376Y-141627188D01*
X144341000Y-141801259D01*
X144341000Y-141978741D01*
X144306376Y-142152812D01*
X144238456Y-142316784D01*
X144139853Y-142464354D01*
X144014354Y-142589853D01*
X143866784Y-142688456D01*
X143702812Y-142756376D01*
X143528741Y-142791000D01*
X143351259Y-142791000D01*
X143177188Y-142756376D01*
X143013216Y-142688456D01*
X142865646Y-142589853D01*
X142740147Y-142464354D01*
X142641544Y-142316784D01*
X142573624Y-142152812D01*
X142539000Y-141978741D01*
X142539000Y-141801259D01*
X142573624Y-141627188D01*
X142641544Y-141463216D01*
X142740147Y-141315646D01*
X142865646Y-141190147D01*
X143013216Y-141091544D01*
X143177188Y-141023624D01*
X143351259Y-140989000D01*
X143528741Y-140989000D01*
X143702812Y-141023624D01*
X143702812Y-141023624D01*
G37*
G36*
X131202812Y-141023624D02*
X131366784Y-141091544D01*
X131514354Y-141190147D01*
X131639853Y-141315646D01*
X131738456Y-141463216D01*
X131806376Y-141627188D01*
X131841000Y-141801259D01*
X131841000Y-141978741D01*
X131806376Y-142152812D01*
X131738456Y-142316784D01*
X131639853Y-142464354D01*
X131514354Y-142589853D01*
X131366784Y-142688456D01*
X131202812Y-142756376D01*
X131028741Y-142791000D01*
X130851259Y-142791000D01*
X130677188Y-142756376D01*
X130513216Y-142688456D01*
X130365646Y-142589853D01*
X130240147Y-142464354D01*
X130141544Y-142316784D01*
X130073624Y-142152812D01*
X130039000Y-141978741D01*
X130039000Y-141801259D01*
X130073624Y-141627188D01*
X130141544Y-141463216D01*
X130240147Y-141315646D01*
X130365646Y-141190147D01*
X130513216Y-141091544D01*
X130677188Y-141023624D01*
X130851259Y-140989000D01*
X131028741Y-140989000D01*
X131202812Y-141023624D01*
X131202812Y-141023624D01*
G37*
G36*
X108054312Y-141023624D02*
X108218284Y-141091544D01*
X108365854Y-141190147D01*
X108491353Y-141315646D01*
X108589956Y-141463216D01*
X108657876Y-141627188D01*
X108692500Y-141801259D01*
X108692500Y-141978741D01*
X108657876Y-142152812D01*
X108589956Y-142316784D01*
X108491353Y-142464354D01*
X108365854Y-142589853D01*
X108218284Y-142688456D01*
X108054312Y-142756376D01*
X107880241Y-142791000D01*
X107702759Y-142791000D01*
X107528688Y-142756376D01*
X107364716Y-142688456D01*
X107217146Y-142589853D01*
X107091647Y-142464354D01*
X106993044Y-142316784D01*
X106925124Y-142152812D01*
X106890500Y-141978741D01*
X106890500Y-141801259D01*
X106925124Y-141627188D01*
X106993044Y-141463216D01*
X107091647Y-141315646D01*
X107217146Y-141190147D01*
X107364716Y-141091544D01*
X107528688Y-141023624D01*
X107702759Y-140989000D01*
X107880241Y-140989000D01*
X108054312Y-141023624D01*
X108054312Y-141023624D01*
G37*
G36*
X95554312Y-141023624D02*
X95718284Y-141091544D01*
X95865854Y-141190147D01*
X95991353Y-141315646D01*
X96089956Y-141463216D01*
X96157876Y-141627188D01*
X96192500Y-141801259D01*
X96192500Y-141978741D01*
X96157876Y-142152812D01*
X96089956Y-142316784D01*
X95991353Y-142464354D01*
X95865854Y-142589853D01*
X95718284Y-142688456D01*
X95554312Y-142756376D01*
X95380241Y-142791000D01*
X95202759Y-142791000D01*
X95028688Y-142756376D01*
X94864716Y-142688456D01*
X94717146Y-142589853D01*
X94591647Y-142464354D01*
X94493044Y-142316784D01*
X94425124Y-142152812D01*
X94390500Y-141978741D01*
X94390500Y-141801259D01*
X94425124Y-141627188D01*
X94493044Y-141463216D01*
X94591647Y-141315646D01*
X94717146Y-141190147D01*
X94864716Y-141091544D01*
X95028688Y-141023624D01*
X95202759Y-140989000D01*
X95380241Y-140989000D01*
X95554312Y-141023624D01*
X95554312Y-141023624D01*
G37*
G36*
X80437250Y-139682843D02*
X80522322Y-139699765D01*
X80592735Y-139728931D01*
X80762728Y-139799344D01*
X80979092Y-139943914D01*
X81163086Y-140127908D01*
X81307656Y-140344272D01*
X81407235Y-140584679D01*
X81458000Y-140839891D01*
X81458000Y-141100109D01*
X81424157Y-141270250D01*
X81415128Y-141315643D01*
X81407235Y-141355321D01*
X81307656Y-141595728D01*
X81163086Y-141812092D01*
X80979092Y-141996086D01*
X80762728Y-142140656D01*
X80592735Y-142211069D01*
X80522322Y-142240235D01*
X80437250Y-142257157D01*
X80267109Y-142291000D01*
X80006891Y-142291000D01*
X79836750Y-142257157D01*
X79751678Y-142240235D01*
X79681265Y-142211069D01*
X79511272Y-142140656D01*
X79294908Y-141996086D01*
X79110914Y-141812092D01*
X78966344Y-141595728D01*
X78866765Y-141355321D01*
X78858873Y-141315643D01*
X78849843Y-141270250D01*
X78816000Y-141100109D01*
X78816000Y-140839891D01*
X78866765Y-140584679D01*
X78966344Y-140344272D01*
X79110914Y-140127908D01*
X79294908Y-139943914D01*
X79511272Y-139799344D01*
X79681265Y-139728931D01*
X79751678Y-139699765D01*
X79836750Y-139682843D01*
X80006891Y-139649000D01*
X80267109Y-139649000D01*
X80437250Y-139682843D01*
X80437250Y-139682843D01*
G37*
G36*
X158923250Y-139682843D02*
X159008322Y-139699765D01*
X159078735Y-139728931D01*
X159248728Y-139799344D01*
X159465092Y-139943914D01*
X159649086Y-140127908D01*
X159793656Y-140344272D01*
X159893235Y-140584679D01*
X159944000Y-140839891D01*
X159944000Y-141100109D01*
X159910157Y-141270250D01*
X159901128Y-141315643D01*
X159893235Y-141355321D01*
X159793656Y-141595728D01*
X159649086Y-141812092D01*
X159465092Y-141996086D01*
X159248728Y-142140656D01*
X159078735Y-142211069D01*
X159008322Y-142240235D01*
X158923250Y-142257157D01*
X158753109Y-142291000D01*
X158492891Y-142291000D01*
X158322750Y-142257157D01*
X158237678Y-142240235D01*
X158167265Y-142211069D01*
X157997272Y-142140656D01*
X157780908Y-141996086D01*
X157596914Y-141812092D01*
X157452344Y-141595728D01*
X157352765Y-141355321D01*
X157344873Y-141315643D01*
X157335843Y-141270250D01*
X157302000Y-141100109D01*
X157302000Y-140839891D01*
X157352765Y-140584679D01*
X157452344Y-140344272D01*
X157596914Y-140127908D01*
X157780908Y-139943914D01*
X157997272Y-139799344D01*
X158167265Y-139728931D01*
X158237678Y-139699765D01*
X158322750Y-139682843D01*
X158492891Y-139649000D01*
X158753109Y-139649000D01*
X158923250Y-139682843D01*
X158923250Y-139682843D01*
G37*
G36*
X151303250Y-139682843D02*
X151388322Y-139699765D01*
X151458735Y-139728931D01*
X151628728Y-139799344D01*
X151845092Y-139943914D01*
X152029086Y-140127908D01*
X152173656Y-140344272D01*
X152273235Y-140584679D01*
X152324000Y-140839891D01*
X152324000Y-141100109D01*
X152290157Y-141270250D01*
X152281128Y-141315643D01*
X152273235Y-141355321D01*
X152173656Y-141595728D01*
X152029086Y-141812092D01*
X151845092Y-141996086D01*
X151628728Y-142140656D01*
X151458735Y-142211069D01*
X151388322Y-142240235D01*
X151303250Y-142257157D01*
X151133109Y-142291000D01*
X150872891Y-142291000D01*
X150702750Y-142257157D01*
X150617678Y-142240235D01*
X150547265Y-142211069D01*
X150377272Y-142140656D01*
X150160908Y-141996086D01*
X149976914Y-141812092D01*
X149832344Y-141595728D01*
X149732765Y-141355321D01*
X149724873Y-141315643D01*
X149715843Y-141270250D01*
X149682000Y-141100109D01*
X149682000Y-140839891D01*
X149732765Y-140584679D01*
X149832344Y-140344272D01*
X149976914Y-140127908D01*
X150160908Y-139943914D01*
X150377272Y-139799344D01*
X150547265Y-139728931D01*
X150617678Y-139699765D01*
X150702750Y-139682843D01*
X150872891Y-139649000D01*
X151133109Y-139649000D01*
X151303250Y-139682843D01*
X151303250Y-139682843D01*
G37*
G36*
X88057250Y-139682843D02*
X88142322Y-139699765D01*
X88212735Y-139728931D01*
X88382728Y-139799344D01*
X88599092Y-139943914D01*
X88783086Y-140127908D01*
X88927656Y-140344272D01*
X89027235Y-140584679D01*
X89078000Y-140839891D01*
X89078000Y-141100109D01*
X89044157Y-141270250D01*
X89035128Y-141315643D01*
X89027235Y-141355321D01*
X88927656Y-141595728D01*
X88783086Y-141812092D01*
X88599092Y-141996086D01*
X88382728Y-142140656D01*
X88212735Y-142211069D01*
X88142322Y-142240235D01*
X88057250Y-142257157D01*
X87887109Y-142291000D01*
X87626891Y-142291000D01*
X87456750Y-142257157D01*
X87371678Y-142240235D01*
X87301265Y-142211069D01*
X87131272Y-142140656D01*
X86914908Y-141996086D01*
X86730914Y-141812092D01*
X86586344Y-141595728D01*
X86486765Y-141355321D01*
X86478873Y-141315643D01*
X86469843Y-141270250D01*
X86436000Y-141100109D01*
X86436000Y-140839891D01*
X86486765Y-140584679D01*
X86586344Y-140344272D01*
X86730914Y-140127908D01*
X86914908Y-139943914D01*
X87131272Y-139799344D01*
X87301265Y-139728931D01*
X87371678Y-139699765D01*
X87456750Y-139682843D01*
X87626891Y-139649000D01*
X87887109Y-139649000D01*
X88057250Y-139682843D01*
X88057250Y-139682843D01*
G37*
G36*
X80437250Y-134602843D02*
X80522322Y-134619765D01*
X80592735Y-134648931D01*
X80762728Y-134719344D01*
X80979092Y-134863914D01*
X81163086Y-135047908D01*
X81307656Y-135264272D01*
X81378069Y-135434265D01*
X81407235Y-135504678D01*
X81458000Y-135759893D01*
X81458000Y-136020107D01*
X81407235Y-136275322D01*
X81390061Y-136316784D01*
X81307656Y-136515728D01*
X81163086Y-136732092D01*
X80979092Y-136916086D01*
X80762728Y-137060656D01*
X80592735Y-137131069D01*
X80522322Y-137160235D01*
X80437250Y-137177157D01*
X80267109Y-137211000D01*
X80006891Y-137211000D01*
X79836750Y-137177157D01*
X79751678Y-137160235D01*
X79681265Y-137131069D01*
X79511272Y-137060656D01*
X79294908Y-136916086D01*
X79110914Y-136732092D01*
X78966344Y-136515728D01*
X78883939Y-136316784D01*
X78866765Y-136275322D01*
X78816000Y-136020107D01*
X78816000Y-135759893D01*
X78866765Y-135504678D01*
X78895931Y-135434265D01*
X78966344Y-135264272D01*
X79110914Y-135047908D01*
X79294908Y-134863914D01*
X79511272Y-134719344D01*
X79681265Y-134648931D01*
X79751678Y-134619765D01*
X79836750Y-134602843D01*
X80006891Y-134569000D01*
X80267109Y-134569000D01*
X80437250Y-134602843D01*
X80437250Y-134602843D01*
G37*
G36*
X88057250Y-134602843D02*
X88142322Y-134619765D01*
X88212735Y-134648931D01*
X88382728Y-134719344D01*
X88599092Y-134863914D01*
X88783086Y-135047908D01*
X88927656Y-135264272D01*
X88998069Y-135434265D01*
X89027235Y-135504678D01*
X89078000Y-135759893D01*
X89078000Y-136020107D01*
X89027235Y-136275322D01*
X89010061Y-136316784D01*
X88927656Y-136515728D01*
X88783086Y-136732092D01*
X88599092Y-136916086D01*
X88382728Y-137060656D01*
X88212735Y-137131069D01*
X88142322Y-137160235D01*
X88057250Y-137177157D01*
X87887109Y-137211000D01*
X87626891Y-137211000D01*
X87456750Y-137177157D01*
X87371678Y-137160235D01*
X87301265Y-137131069D01*
X87131272Y-137060656D01*
X86914908Y-136916086D01*
X86730914Y-136732092D01*
X86586344Y-136515728D01*
X86503939Y-136316784D01*
X86486765Y-136275322D01*
X86436000Y-136020107D01*
X86436000Y-135759893D01*
X86486765Y-135504678D01*
X86515931Y-135434265D01*
X86586344Y-135264272D01*
X86730914Y-135047908D01*
X86914908Y-134863914D01*
X87131272Y-134719344D01*
X87301265Y-134648931D01*
X87371678Y-134619765D01*
X87456750Y-134602843D01*
X87626891Y-134569000D01*
X87887109Y-134569000D01*
X88057250Y-134602843D01*
X88057250Y-134602843D01*
G37*
G36*
X151303250Y-134602843D02*
X151388322Y-134619765D01*
X151458735Y-134648931D01*
X151628728Y-134719344D01*
X151845092Y-134863914D01*
X152029086Y-135047908D01*
X152173656Y-135264272D01*
X152244069Y-135434265D01*
X152273235Y-135504678D01*
X152324000Y-135759893D01*
X152324000Y-136020107D01*
X152273235Y-136275322D01*
X152256061Y-136316784D01*
X152173656Y-136515728D01*
X152029086Y-136732092D01*
X151845092Y-136916086D01*
X151628728Y-137060656D01*
X151458735Y-137131069D01*
X151388322Y-137160235D01*
X151303250Y-137177157D01*
X151133109Y-137211000D01*
X150872891Y-137211000D01*
X150702750Y-137177157D01*
X150617678Y-137160235D01*
X150547265Y-137131069D01*
X150377272Y-137060656D01*
X150160908Y-136916086D01*
X149976914Y-136732092D01*
X149832344Y-136515728D01*
X149749939Y-136316784D01*
X149732765Y-136275322D01*
X149682000Y-136020107D01*
X149682000Y-135759893D01*
X149732765Y-135504678D01*
X149761931Y-135434265D01*
X149832344Y-135264272D01*
X149976914Y-135047908D01*
X150160908Y-134863914D01*
X150377272Y-134719344D01*
X150547265Y-134648931D01*
X150617678Y-134619765D01*
X150702750Y-134602843D01*
X150872891Y-134569000D01*
X151133109Y-134569000D01*
X151303250Y-134602843D01*
X151303250Y-134602843D01*
G37*
G36*
X158923250Y-134602843D02*
X159008322Y-134619765D01*
X159078735Y-134648931D01*
X159248728Y-134719344D01*
X159465092Y-134863914D01*
X159649086Y-135047908D01*
X159793656Y-135264272D01*
X159864069Y-135434265D01*
X159893235Y-135504678D01*
X159944000Y-135759893D01*
X159944000Y-136020107D01*
X159893235Y-136275322D01*
X159876061Y-136316784D01*
X159793656Y-136515728D01*
X159649086Y-136732092D01*
X159465092Y-136916086D01*
X159248728Y-137060656D01*
X159078735Y-137131069D01*
X159008322Y-137160235D01*
X158923250Y-137177157D01*
X158753109Y-137211000D01*
X158492891Y-137211000D01*
X158322750Y-137177157D01*
X158237678Y-137160235D01*
X158167265Y-137131069D01*
X157997272Y-137060656D01*
X157780908Y-136916086D01*
X157596914Y-136732092D01*
X157452344Y-136515728D01*
X157369939Y-136316784D01*
X157352765Y-136275322D01*
X157302000Y-136020107D01*
X157302000Y-135759893D01*
X157352765Y-135504678D01*
X157381931Y-135434265D01*
X157452344Y-135264272D01*
X157596914Y-135047908D01*
X157780908Y-134863914D01*
X157997272Y-134719344D01*
X158167265Y-134648931D01*
X158237678Y-134619765D01*
X158322750Y-134602843D01*
X158492891Y-134569000D01*
X158753109Y-134569000D01*
X158923250Y-134602843D01*
X158923250Y-134602843D01*
G37*
G36*
X110054312Y-135023624D02*
X110218284Y-135091544D01*
X110365854Y-135190147D01*
X110491353Y-135315646D01*
X110589956Y-135463216D01*
X110657876Y-135627188D01*
X110692500Y-135801259D01*
X110692500Y-135978741D01*
X110657876Y-136152812D01*
X110589956Y-136316784D01*
X110491353Y-136464354D01*
X110365854Y-136589853D01*
X110218284Y-136688456D01*
X110054312Y-136756376D01*
X109880241Y-136791000D01*
X109702759Y-136791000D01*
X109528688Y-136756376D01*
X109364716Y-136688456D01*
X109217146Y-136589853D01*
X109091647Y-136464354D01*
X108993044Y-136316784D01*
X108925124Y-136152812D01*
X108890500Y-135978741D01*
X108890500Y-135801259D01*
X108925124Y-135627188D01*
X108993044Y-135463216D01*
X109091647Y-135315646D01*
X109217146Y-135190147D01*
X109364716Y-135091544D01*
X109528688Y-135023624D01*
X109702759Y-134989000D01*
X109880241Y-134989000D01*
X110054312Y-135023624D01*
X110054312Y-135023624D01*
G37*
G36*
X129202812Y-135023624D02*
X129366784Y-135091544D01*
X129514354Y-135190147D01*
X129639853Y-135315646D01*
X129738456Y-135463216D01*
X129806376Y-135627188D01*
X129841000Y-135801259D01*
X129841000Y-135978741D01*
X129806376Y-136152812D01*
X129738456Y-136316784D01*
X129639853Y-136464354D01*
X129514354Y-136589853D01*
X129366784Y-136688456D01*
X129202812Y-136756376D01*
X129028741Y-136791000D01*
X128851259Y-136791000D01*
X128677188Y-136756376D01*
X128513216Y-136688456D01*
X128365646Y-136589853D01*
X128240147Y-136464354D01*
X128141544Y-136316784D01*
X128073624Y-136152812D01*
X128039000Y-135978741D01*
X128039000Y-135801259D01*
X128073624Y-135627188D01*
X128141544Y-135463216D01*
X128240147Y-135315646D01*
X128365646Y-135190147D01*
X128513216Y-135091544D01*
X128677188Y-135023624D01*
X128851259Y-134989000D01*
X129028741Y-134989000D01*
X129202812Y-135023624D01*
X129202812Y-135023624D01*
G37*
G36*
X158923250Y-129522843D02*
X159008322Y-129539765D01*
X159078735Y-129568931D01*
X159248728Y-129639344D01*
X159465092Y-129783914D01*
X159649086Y-129967908D01*
X159793656Y-130184272D01*
X159848543Y-130316782D01*
X159893235Y-130424678D01*
X159910157Y-130509750D01*
X159944000Y-130679891D01*
X159944000Y-130940109D01*
X159893235Y-131195321D01*
X159793656Y-131435728D01*
X159649086Y-131652092D01*
X159465092Y-131836086D01*
X159248728Y-131980656D01*
X159078735Y-132051069D01*
X159008322Y-132080235D01*
X158923250Y-132097157D01*
X158753109Y-132131000D01*
X158492891Y-132131000D01*
X158322750Y-132097157D01*
X158237678Y-132080235D01*
X158167265Y-132051069D01*
X157997272Y-131980656D01*
X157780908Y-131836086D01*
X157596914Y-131652092D01*
X157452344Y-131435728D01*
X157352765Y-131195321D01*
X157302000Y-130940109D01*
X157302000Y-130679891D01*
X157335843Y-130509750D01*
X157352765Y-130424678D01*
X157397457Y-130316782D01*
X157452344Y-130184272D01*
X157596914Y-129967908D01*
X157780908Y-129783914D01*
X157997272Y-129639344D01*
X158167265Y-129568931D01*
X158237678Y-129539765D01*
X158322750Y-129522843D01*
X158492891Y-129489000D01*
X158753109Y-129489000D01*
X158923250Y-129522843D01*
X158923250Y-129522843D01*
G37*
G36*
X88057250Y-129522843D02*
X88142322Y-129539765D01*
X88212735Y-129568931D01*
X88382728Y-129639344D01*
X88599092Y-129783914D01*
X88783086Y-129967908D01*
X88927656Y-130184272D01*
X88982543Y-130316782D01*
X89027235Y-130424678D01*
X89044157Y-130509750D01*
X89078000Y-130679891D01*
X89078000Y-130940109D01*
X89027235Y-131195321D01*
X88927656Y-131435728D01*
X88783086Y-131652092D01*
X88599092Y-131836086D01*
X88382728Y-131980656D01*
X88212735Y-132051069D01*
X88142322Y-132080235D01*
X88057250Y-132097157D01*
X87887109Y-132131000D01*
X87626891Y-132131000D01*
X87456750Y-132097157D01*
X87371678Y-132080235D01*
X87301265Y-132051069D01*
X87131272Y-131980656D01*
X86914908Y-131836086D01*
X86730914Y-131652092D01*
X86586344Y-131435728D01*
X86486765Y-131195321D01*
X86436000Y-130940109D01*
X86436000Y-130679891D01*
X86469843Y-130509750D01*
X86486765Y-130424678D01*
X86531457Y-130316782D01*
X86586344Y-130184272D01*
X86730914Y-129967908D01*
X86914908Y-129783914D01*
X87131272Y-129639344D01*
X87301265Y-129568931D01*
X87371678Y-129539765D01*
X87456750Y-129522843D01*
X87626891Y-129489000D01*
X87887109Y-129489000D01*
X88057250Y-129522843D01*
X88057250Y-129522843D01*
G37*
G36*
X80437250Y-129522843D02*
X80522322Y-129539765D01*
X80592735Y-129568931D01*
X80762728Y-129639344D01*
X80979092Y-129783914D01*
X81163086Y-129967908D01*
X81307656Y-130184272D01*
X81362543Y-130316782D01*
X81407235Y-130424678D01*
X81424157Y-130509750D01*
X81458000Y-130679891D01*
X81458000Y-130940109D01*
X81407235Y-131195321D01*
X81307656Y-131435728D01*
X81163086Y-131652092D01*
X80979092Y-131836086D01*
X80762728Y-131980656D01*
X80592735Y-132051069D01*
X80522322Y-132080235D01*
X80437250Y-132097157D01*
X80267109Y-132131000D01*
X80006891Y-132131000D01*
X79836750Y-132097157D01*
X79751678Y-132080235D01*
X79681265Y-132051069D01*
X79511272Y-131980656D01*
X79294908Y-131836086D01*
X79110914Y-131652092D01*
X78966344Y-131435728D01*
X78866765Y-131195321D01*
X78816000Y-130940109D01*
X78816000Y-130679891D01*
X78849843Y-130509750D01*
X78866765Y-130424678D01*
X78911457Y-130316782D01*
X78966344Y-130184272D01*
X79110914Y-129967908D01*
X79294908Y-129783914D01*
X79511272Y-129639344D01*
X79681265Y-129568931D01*
X79751678Y-129539765D01*
X79836750Y-129522843D01*
X80006891Y-129489000D01*
X80267109Y-129489000D01*
X80437250Y-129522843D01*
X80437250Y-129522843D01*
G37*
G36*
X151303250Y-129522843D02*
X151388322Y-129539765D01*
X151458735Y-129568931D01*
X151628728Y-129639344D01*
X151845092Y-129783914D01*
X152029086Y-129967908D01*
X152173656Y-130184272D01*
X152228543Y-130316782D01*
X152273235Y-130424678D01*
X152290157Y-130509750D01*
X152324000Y-130679891D01*
X152324000Y-130940109D01*
X152273235Y-131195321D01*
X152173656Y-131435728D01*
X152029086Y-131652092D01*
X151845092Y-131836086D01*
X151628728Y-131980656D01*
X151458735Y-132051069D01*
X151388322Y-132080235D01*
X151303250Y-132097157D01*
X151133109Y-132131000D01*
X150872891Y-132131000D01*
X150702750Y-132097157D01*
X150617678Y-132080235D01*
X150547265Y-132051069D01*
X150377272Y-131980656D01*
X150160908Y-131836086D01*
X149976914Y-131652092D01*
X149832344Y-131435728D01*
X149732765Y-131195321D01*
X149682000Y-130940109D01*
X149682000Y-130679891D01*
X149715843Y-130509750D01*
X149732765Y-130424678D01*
X149777457Y-130316782D01*
X149832344Y-130184272D01*
X149976914Y-129967908D01*
X150160908Y-129783914D01*
X150377272Y-129639344D01*
X150547265Y-129568931D01*
X150617678Y-129539765D01*
X150702750Y-129522843D01*
X150872891Y-129489000D01*
X151133109Y-129489000D01*
X151303250Y-129522843D01*
X151303250Y-129522843D01*
G37*
G36*
X95554312Y-129023624D02*
X95718284Y-129091544D01*
X95865854Y-129190147D01*
X95991353Y-129315646D01*
X96089956Y-129463216D01*
X96157876Y-129627188D01*
X96192500Y-129801259D01*
X96192500Y-129978741D01*
X96157876Y-130152812D01*
X96089956Y-130316784D01*
X95991353Y-130464354D01*
X95865854Y-130589853D01*
X95718284Y-130688456D01*
X95554312Y-130756376D01*
X95380241Y-130791000D01*
X95202759Y-130791000D01*
X95028688Y-130756376D01*
X94864716Y-130688456D01*
X94717146Y-130589853D01*
X94591647Y-130464354D01*
X94493044Y-130316784D01*
X94425124Y-130152812D01*
X94390500Y-129978741D01*
X94390500Y-129801259D01*
X94425124Y-129627188D01*
X94493044Y-129463216D01*
X94591647Y-129315646D01*
X94717146Y-129190147D01*
X94864716Y-129091544D01*
X95028688Y-129023624D01*
X95202759Y-128989000D01*
X95380241Y-128989000D01*
X95554312Y-129023624D01*
X95554312Y-129023624D01*
G37*
G36*
X131202812Y-129023624D02*
X131366784Y-129091544D01*
X131514354Y-129190147D01*
X131639853Y-129315646D01*
X131738456Y-129463216D01*
X131806376Y-129627188D01*
X131841000Y-129801259D01*
X131841000Y-129978741D01*
X131806376Y-130152812D01*
X131738456Y-130316784D01*
X131639853Y-130464354D01*
X131514354Y-130589853D01*
X131366784Y-130688456D01*
X131202812Y-130756376D01*
X131028741Y-130791000D01*
X130851259Y-130791000D01*
X130677188Y-130756376D01*
X130513216Y-130688456D01*
X130365646Y-130589853D01*
X130240147Y-130464354D01*
X130141544Y-130316784D01*
X130073624Y-130152812D01*
X130039000Y-129978741D01*
X130039000Y-129801259D01*
X130073624Y-129627188D01*
X130141544Y-129463216D01*
X130240147Y-129315646D01*
X130365646Y-129190147D01*
X130513216Y-129091544D01*
X130677188Y-129023624D01*
X130851259Y-128989000D01*
X131028741Y-128989000D01*
X131202812Y-129023624D01*
X131202812Y-129023624D01*
G37*
G36*
X108054312Y-129023624D02*
X108218284Y-129091544D01*
X108365854Y-129190147D01*
X108491353Y-129315646D01*
X108589956Y-129463216D01*
X108657876Y-129627188D01*
X108692500Y-129801259D01*
X108692500Y-129978741D01*
X108657876Y-130152812D01*
X108589956Y-130316784D01*
X108491353Y-130464354D01*
X108365854Y-130589853D01*
X108218284Y-130688456D01*
X108054312Y-130756376D01*
X107880241Y-130791000D01*
X107702759Y-130791000D01*
X107528688Y-130756376D01*
X107364716Y-130688456D01*
X107217146Y-130589853D01*
X107091647Y-130464354D01*
X106993044Y-130316784D01*
X106925124Y-130152812D01*
X106890500Y-129978741D01*
X106890500Y-129801259D01*
X106925124Y-129627188D01*
X106993044Y-129463216D01*
X107091647Y-129315646D01*
X107217146Y-129190147D01*
X107364716Y-129091544D01*
X107528688Y-129023624D01*
X107702759Y-128989000D01*
X107880241Y-128989000D01*
X108054312Y-129023624D01*
X108054312Y-129023624D01*
G37*
G36*
X143702812Y-129023623D02*
X143866784Y-129091543D01*
X144014354Y-129190146D01*
X144139853Y-129315645D01*
X144238456Y-129463215D01*
X144306376Y-129627187D01*
X144341000Y-129801258D01*
X144341000Y-129978740D01*
X144306376Y-130152811D01*
X144238456Y-130316783D01*
X144139853Y-130464353D01*
X144014354Y-130589852D01*
X143866784Y-130688455D01*
X143702812Y-130756375D01*
X143528741Y-130790999D01*
X143351259Y-130790999D01*
X143177188Y-130756375D01*
X143013216Y-130688455D01*
X142865646Y-130589852D01*
X142740147Y-130464353D01*
X142641544Y-130316783D01*
X142573624Y-130152811D01*
X142539000Y-129978740D01*
X142539000Y-129801258D01*
X142573624Y-129627187D01*
X142641544Y-129463215D01*
X142740147Y-129315645D01*
X142865646Y-129190146D01*
X143013216Y-129091543D01*
X143177188Y-129023623D01*
X143351259Y-128988999D01*
X143528741Y-128988999D01*
X143702812Y-129023623D01*
X143702812Y-129023623D01*
G37*
G36*
X146160442Y-124200518D02*
X146226627Y-124207037D01*
X146339853Y-124241384D01*
X146396467Y-124258557D01*
X146535087Y-124332652D01*
X146552991Y-124342222D01*
X146588729Y-124371552D01*
X146690186Y-124454814D01*
X146773448Y-124556271D01*
X146802778Y-124592009D01*
X146802779Y-124592011D01*
X146886443Y-124748533D01*
X146886443Y-124748534D01*
X146937963Y-124918373D01*
X146955359Y-125095000D01*
X146937963Y-125271627D01*
X146903616Y-125384853D01*
X146886443Y-125441467D01*
X146812348Y-125580087D01*
X146802778Y-125597991D01*
X146773448Y-125633729D01*
X146690186Y-125735186D01*
X146588729Y-125818448D01*
X146552991Y-125847778D01*
X146552989Y-125847779D01*
X146396467Y-125931443D01*
X146339853Y-125948616D01*
X146226627Y-125982963D01*
X146160442Y-125989482D01*
X146094260Y-125996000D01*
X146005740Y-125996000D01*
X145939558Y-125989482D01*
X145873373Y-125982963D01*
X145760147Y-125948616D01*
X145703533Y-125931443D01*
X145547011Y-125847779D01*
X145547009Y-125847778D01*
X145511271Y-125818448D01*
X145409814Y-125735186D01*
X145326552Y-125633729D01*
X145297222Y-125597991D01*
X145287652Y-125580087D01*
X145213557Y-125441467D01*
X145196384Y-125384853D01*
X145162037Y-125271627D01*
X145144641Y-125095000D01*
X145162037Y-124918373D01*
X145213557Y-124748534D01*
X145213557Y-124748533D01*
X145297221Y-124592011D01*
X145297222Y-124592009D01*
X145326552Y-124556271D01*
X145409814Y-124454814D01*
X145511271Y-124371552D01*
X145547009Y-124342222D01*
X145564913Y-124332652D01*
X145703533Y-124258557D01*
X145760147Y-124241384D01*
X145873373Y-124207037D01*
X145939558Y-124200518D01*
X146005740Y-124194000D01*
X146094260Y-124194000D01*
X146160442Y-124200518D01*
X146160442Y-124200518D01*
G37*
G36*
X143620442Y-124200518D02*
X143686627Y-124207037D01*
X143799853Y-124241384D01*
X143856467Y-124258557D01*
X143995087Y-124332652D01*
X144012991Y-124342222D01*
X144048729Y-124371552D01*
X144150186Y-124454814D01*
X144233448Y-124556271D01*
X144262778Y-124592009D01*
X144262779Y-124592011D01*
X144346443Y-124748533D01*
X144346443Y-124748534D01*
X144397963Y-124918373D01*
X144415359Y-125095000D01*
X144397963Y-125271627D01*
X144363616Y-125384853D01*
X144346443Y-125441467D01*
X144272348Y-125580087D01*
X144262778Y-125597991D01*
X144233448Y-125633729D01*
X144150186Y-125735186D01*
X144048729Y-125818448D01*
X144012991Y-125847778D01*
X144012989Y-125847779D01*
X143856467Y-125931443D01*
X143799853Y-125948616D01*
X143686627Y-125982963D01*
X143620442Y-125989482D01*
X143554260Y-125996000D01*
X143465740Y-125996000D01*
X143399558Y-125989482D01*
X143333373Y-125982963D01*
X143220147Y-125948616D01*
X143163533Y-125931443D01*
X143007011Y-125847779D01*
X143007009Y-125847778D01*
X142971271Y-125818448D01*
X142869814Y-125735186D01*
X142786552Y-125633729D01*
X142757222Y-125597991D01*
X142747652Y-125580087D01*
X142673557Y-125441467D01*
X142656384Y-125384853D01*
X142622037Y-125271627D01*
X142604641Y-125095000D01*
X142622037Y-124918373D01*
X142673557Y-124748534D01*
X142673557Y-124748533D01*
X142757221Y-124592011D01*
X142757222Y-124592009D01*
X142786552Y-124556271D01*
X142869814Y-124454814D01*
X142971271Y-124371552D01*
X143007009Y-124342222D01*
X143024913Y-124332652D01*
X143163533Y-124258557D01*
X143220147Y-124241384D01*
X143333373Y-124207037D01*
X143399558Y-124200518D01*
X143465740Y-124194000D01*
X143554260Y-124194000D01*
X143620442Y-124200518D01*
X143620442Y-124200518D01*
G37*
G36*
X95360442Y-124200518D02*
X95426627Y-124207037D01*
X95539853Y-124241384D01*
X95596467Y-124258557D01*
X95735087Y-124332652D01*
X95752991Y-124342222D01*
X95788729Y-124371552D01*
X95890186Y-124454814D01*
X95973448Y-124556271D01*
X96002778Y-124592009D01*
X96002779Y-124592011D01*
X96086443Y-124748533D01*
X96086443Y-124748534D01*
X96137963Y-124918373D01*
X96155359Y-125095000D01*
X96137963Y-125271627D01*
X96103616Y-125384853D01*
X96086443Y-125441467D01*
X96012348Y-125580087D01*
X96002778Y-125597991D01*
X95973448Y-125633729D01*
X95890186Y-125735186D01*
X95788729Y-125818448D01*
X95752991Y-125847778D01*
X95752989Y-125847779D01*
X95596467Y-125931443D01*
X95539853Y-125948616D01*
X95426627Y-125982963D01*
X95360442Y-125989482D01*
X95294260Y-125996000D01*
X95205740Y-125996000D01*
X95139558Y-125989482D01*
X95073373Y-125982963D01*
X94960147Y-125948616D01*
X94903533Y-125931443D01*
X94747011Y-125847779D01*
X94747009Y-125847778D01*
X94711271Y-125818448D01*
X94609814Y-125735186D01*
X94526552Y-125633729D01*
X94497222Y-125597991D01*
X94487652Y-125580087D01*
X94413557Y-125441467D01*
X94396384Y-125384853D01*
X94362037Y-125271627D01*
X94344641Y-125095000D01*
X94362037Y-124918373D01*
X94413557Y-124748534D01*
X94413557Y-124748533D01*
X94497221Y-124592011D01*
X94497222Y-124592009D01*
X94526552Y-124556271D01*
X94609814Y-124454814D01*
X94711271Y-124371552D01*
X94747009Y-124342222D01*
X94764913Y-124332652D01*
X94903533Y-124258557D01*
X94960147Y-124241384D01*
X95073373Y-124207037D01*
X95139558Y-124200518D01*
X95205740Y-124194000D01*
X95294260Y-124194000D01*
X95360442Y-124200518D01*
X95360442Y-124200518D01*
G37*
G36*
X92820442Y-124200518D02*
X92886627Y-124207037D01*
X92999853Y-124241384D01*
X93056467Y-124258557D01*
X93195087Y-124332652D01*
X93212991Y-124342222D01*
X93248729Y-124371552D01*
X93350186Y-124454814D01*
X93433448Y-124556271D01*
X93462778Y-124592009D01*
X93462779Y-124592011D01*
X93546443Y-124748533D01*
X93546443Y-124748534D01*
X93597963Y-124918373D01*
X93615359Y-125095000D01*
X93597963Y-125271627D01*
X93563616Y-125384853D01*
X93546443Y-125441467D01*
X93472348Y-125580087D01*
X93462778Y-125597991D01*
X93433448Y-125633729D01*
X93350186Y-125735186D01*
X93248729Y-125818448D01*
X93212991Y-125847778D01*
X93212989Y-125847779D01*
X93056467Y-125931443D01*
X92999853Y-125948616D01*
X92886627Y-125982963D01*
X92820442Y-125989482D01*
X92754260Y-125996000D01*
X92665740Y-125996000D01*
X92599558Y-125989482D01*
X92533373Y-125982963D01*
X92420147Y-125948616D01*
X92363533Y-125931443D01*
X92207011Y-125847779D01*
X92207009Y-125847778D01*
X92171271Y-125818448D01*
X92069814Y-125735186D01*
X91986552Y-125633729D01*
X91957222Y-125597991D01*
X91947652Y-125580087D01*
X91873557Y-125441467D01*
X91856384Y-125384853D01*
X91822037Y-125271627D01*
X91804641Y-125095000D01*
X91822037Y-124918373D01*
X91873557Y-124748534D01*
X91873557Y-124748533D01*
X91957221Y-124592011D01*
X91957222Y-124592009D01*
X91986552Y-124556271D01*
X92069814Y-124454814D01*
X92171271Y-124371552D01*
X92207009Y-124342222D01*
X92224913Y-124332652D01*
X92363533Y-124258557D01*
X92420147Y-124241384D01*
X92533373Y-124207037D01*
X92599558Y-124200518D01*
X92665740Y-124194000D01*
X92754260Y-124194000D01*
X92820442Y-124200518D01*
X92820442Y-124200518D01*
G37*
G36*
X143620442Y-121660518D02*
X143686627Y-121667037D01*
X143799853Y-121701384D01*
X143856467Y-121718557D01*
X143995087Y-121792652D01*
X144012991Y-121802222D01*
X144048729Y-121831552D01*
X144150186Y-121914814D01*
X144233448Y-122016271D01*
X144262778Y-122052009D01*
X144262779Y-122052011D01*
X144346443Y-122208533D01*
X144346443Y-122208534D01*
X144397963Y-122378373D01*
X144415359Y-122555000D01*
X144397963Y-122731627D01*
X144363616Y-122844853D01*
X144346443Y-122901467D01*
X144272348Y-123040087D01*
X144262778Y-123057991D01*
X144233448Y-123093729D01*
X144150186Y-123195186D01*
X144048729Y-123278448D01*
X144012991Y-123307778D01*
X144012989Y-123307779D01*
X143856467Y-123391443D01*
X143799853Y-123408616D01*
X143686627Y-123442963D01*
X143620442Y-123449482D01*
X143554260Y-123456000D01*
X143465740Y-123456000D01*
X143399558Y-123449482D01*
X143333373Y-123442963D01*
X143220147Y-123408616D01*
X143163533Y-123391443D01*
X143007011Y-123307779D01*
X143007009Y-123307778D01*
X142971271Y-123278448D01*
X142869814Y-123195186D01*
X142786552Y-123093729D01*
X142757222Y-123057991D01*
X142747652Y-123040087D01*
X142673557Y-122901467D01*
X142656384Y-122844853D01*
X142622037Y-122731627D01*
X142604641Y-122555000D01*
X142622037Y-122378373D01*
X142673557Y-122208534D01*
X142673557Y-122208533D01*
X142757221Y-122052011D01*
X142757222Y-122052009D01*
X142786552Y-122016271D01*
X142869814Y-121914814D01*
X142971271Y-121831552D01*
X143007009Y-121802222D01*
X143024913Y-121792652D01*
X143163533Y-121718557D01*
X143220147Y-121701384D01*
X143333373Y-121667037D01*
X143399558Y-121660518D01*
X143465740Y-121654000D01*
X143554260Y-121654000D01*
X143620442Y-121660518D01*
X143620442Y-121660518D01*
G37*
G36*
X146160442Y-121660518D02*
X146226627Y-121667037D01*
X146339853Y-121701384D01*
X146396467Y-121718557D01*
X146535087Y-121792652D01*
X146552991Y-121802222D01*
X146588729Y-121831552D01*
X146690186Y-121914814D01*
X146773448Y-122016271D01*
X146802778Y-122052009D01*
X146802779Y-122052011D01*
X146886443Y-122208533D01*
X146886443Y-122208534D01*
X146937963Y-122378373D01*
X146955359Y-122555000D01*
X146937963Y-122731627D01*
X146903616Y-122844853D01*
X146886443Y-122901467D01*
X146812348Y-123040087D01*
X146802778Y-123057991D01*
X146773448Y-123093729D01*
X146690186Y-123195186D01*
X146588729Y-123278448D01*
X146552991Y-123307778D01*
X146552989Y-123307779D01*
X146396467Y-123391443D01*
X146339853Y-123408616D01*
X146226627Y-123442963D01*
X146160442Y-123449482D01*
X146094260Y-123456000D01*
X146005740Y-123456000D01*
X145939558Y-123449482D01*
X145873373Y-123442963D01*
X145760147Y-123408616D01*
X145703533Y-123391443D01*
X145547011Y-123307779D01*
X145547009Y-123307778D01*
X145511271Y-123278448D01*
X145409814Y-123195186D01*
X145326552Y-123093729D01*
X145297222Y-123057991D01*
X145287652Y-123040087D01*
X145213557Y-122901467D01*
X145196384Y-122844853D01*
X145162037Y-122731627D01*
X145144641Y-122555000D01*
X145162037Y-122378373D01*
X145213557Y-122208534D01*
X145213557Y-122208533D01*
X145297221Y-122052011D01*
X145297222Y-122052009D01*
X145326552Y-122016271D01*
X145409814Y-121914814D01*
X145511271Y-121831552D01*
X145547009Y-121802222D01*
X145564913Y-121792652D01*
X145703533Y-121718557D01*
X145760147Y-121701384D01*
X145873373Y-121667037D01*
X145939558Y-121660518D01*
X146005740Y-121654000D01*
X146094260Y-121654000D01*
X146160442Y-121660518D01*
X146160442Y-121660518D01*
G37*
G36*
X92820442Y-121660518D02*
X92886627Y-121667037D01*
X92999853Y-121701384D01*
X93056467Y-121718557D01*
X93195087Y-121792652D01*
X93212991Y-121802222D01*
X93248729Y-121831552D01*
X93350186Y-121914814D01*
X93433448Y-122016271D01*
X93462778Y-122052009D01*
X93462779Y-122052011D01*
X93546443Y-122208533D01*
X93546443Y-122208534D01*
X93597963Y-122378373D01*
X93615359Y-122555000D01*
X93597963Y-122731627D01*
X93563616Y-122844853D01*
X93546443Y-122901467D01*
X93472348Y-123040087D01*
X93462778Y-123057991D01*
X93433448Y-123093729D01*
X93350186Y-123195186D01*
X93248729Y-123278448D01*
X93212991Y-123307778D01*
X93212989Y-123307779D01*
X93056467Y-123391443D01*
X92999853Y-123408616D01*
X92886627Y-123442963D01*
X92820442Y-123449482D01*
X92754260Y-123456000D01*
X92665740Y-123456000D01*
X92599558Y-123449482D01*
X92533373Y-123442963D01*
X92420147Y-123408616D01*
X92363533Y-123391443D01*
X92207011Y-123307779D01*
X92207009Y-123307778D01*
X92171271Y-123278448D01*
X92069814Y-123195186D01*
X91986552Y-123093729D01*
X91957222Y-123057991D01*
X91947652Y-123040087D01*
X91873557Y-122901467D01*
X91856384Y-122844853D01*
X91822037Y-122731627D01*
X91804641Y-122555000D01*
X91822037Y-122378373D01*
X91873557Y-122208534D01*
X91873557Y-122208533D01*
X91957221Y-122052011D01*
X91957222Y-122052009D01*
X91986552Y-122016271D01*
X92069814Y-121914814D01*
X92171271Y-121831552D01*
X92207009Y-121802222D01*
X92224913Y-121792652D01*
X92363533Y-121718557D01*
X92420147Y-121701384D01*
X92533373Y-121667037D01*
X92599558Y-121660518D01*
X92665740Y-121654000D01*
X92754260Y-121654000D01*
X92820442Y-121660518D01*
X92820442Y-121660518D01*
G37*
G36*
X95360442Y-121660518D02*
X95426627Y-121667037D01*
X95539853Y-121701384D01*
X95596467Y-121718557D01*
X95735087Y-121792652D01*
X95752991Y-121802222D01*
X95788729Y-121831552D01*
X95890186Y-121914814D01*
X95973448Y-122016271D01*
X96002778Y-122052009D01*
X96002779Y-122052011D01*
X96086443Y-122208533D01*
X96086443Y-122208534D01*
X96137963Y-122378373D01*
X96155359Y-122555000D01*
X96137963Y-122731627D01*
X96103616Y-122844853D01*
X96086443Y-122901467D01*
X96012348Y-123040087D01*
X96002778Y-123057991D01*
X95973448Y-123093729D01*
X95890186Y-123195186D01*
X95788729Y-123278448D01*
X95752991Y-123307778D01*
X95752989Y-123307779D01*
X95596467Y-123391443D01*
X95539853Y-123408616D01*
X95426627Y-123442963D01*
X95360442Y-123449482D01*
X95294260Y-123456000D01*
X95205740Y-123456000D01*
X95139558Y-123449482D01*
X95073373Y-123442963D01*
X94960147Y-123408616D01*
X94903533Y-123391443D01*
X94747011Y-123307779D01*
X94747009Y-123307778D01*
X94711271Y-123278448D01*
X94609814Y-123195186D01*
X94526552Y-123093729D01*
X94497222Y-123057991D01*
X94487652Y-123040087D01*
X94413557Y-122901467D01*
X94396384Y-122844853D01*
X94362037Y-122731627D01*
X94344641Y-122555000D01*
X94362037Y-122378373D01*
X94413557Y-122208534D01*
X94413557Y-122208533D01*
X94497221Y-122052011D01*
X94497222Y-122052009D01*
X94526552Y-122016271D01*
X94609814Y-121914814D01*
X94711271Y-121831552D01*
X94747009Y-121802222D01*
X94764913Y-121792652D01*
X94903533Y-121718557D01*
X94960147Y-121701384D01*
X95073373Y-121667037D01*
X95139558Y-121660518D01*
X95205740Y-121654000D01*
X95294260Y-121654000D01*
X95360442Y-121660518D01*
X95360442Y-121660518D01*
G37*
G36*
X133936000Y-121156000D02*
X130034000Y-121156000D01*
X130034000Y-111254000D01*
X133936000Y-111254000D01*
X133936000Y-121156000D01*
X133936000Y-121156000D01*
G37*
G36*
X109631000Y-121156000D02*
X105729000Y-121156000D01*
X105729000Y-111254000D01*
X109631000Y-111254000D01*
X109631000Y-121156000D01*
X109631000Y-121156000D01*
G37*
G36*
X92820443Y-119120519D02*
X92886627Y-119127037D01*
X92982105Y-119156000D01*
X93056467Y-119178557D01*
X93195087Y-119252652D01*
X93212991Y-119262222D01*
X93248729Y-119291552D01*
X93350186Y-119374814D01*
X93433448Y-119476271D01*
X93462778Y-119512009D01*
X93462779Y-119512011D01*
X93546443Y-119668533D01*
X93546443Y-119668534D01*
X93597963Y-119838373D01*
X93615359Y-120015000D01*
X93597963Y-120191627D01*
X93563616Y-120304853D01*
X93546443Y-120361467D01*
X93472348Y-120500087D01*
X93462778Y-120517991D01*
X93433448Y-120553729D01*
X93350186Y-120655186D01*
X93248729Y-120738448D01*
X93212991Y-120767778D01*
X93212989Y-120767779D01*
X93056467Y-120851443D01*
X92999853Y-120868616D01*
X92886627Y-120902963D01*
X92820442Y-120909482D01*
X92754260Y-120916000D01*
X92665740Y-120916000D01*
X92599558Y-120909482D01*
X92533373Y-120902963D01*
X92420147Y-120868616D01*
X92363533Y-120851443D01*
X92207011Y-120767779D01*
X92207009Y-120767778D01*
X92171271Y-120738448D01*
X92069814Y-120655186D01*
X91986552Y-120553729D01*
X91957222Y-120517991D01*
X91947652Y-120500087D01*
X91873557Y-120361467D01*
X91856384Y-120304853D01*
X91822037Y-120191627D01*
X91804641Y-120015000D01*
X91822037Y-119838373D01*
X91873557Y-119668534D01*
X91873557Y-119668533D01*
X91957221Y-119512011D01*
X91957222Y-119512009D01*
X91986552Y-119476271D01*
X92069814Y-119374814D01*
X92171271Y-119291552D01*
X92207009Y-119262222D01*
X92224913Y-119252652D01*
X92363533Y-119178557D01*
X92437895Y-119156000D01*
X92533373Y-119127037D01*
X92599557Y-119120519D01*
X92665740Y-119114000D01*
X92754260Y-119114000D01*
X92820443Y-119120519D01*
X92820443Y-119120519D01*
G37*
G36*
X95360443Y-119120519D02*
X95426627Y-119127037D01*
X95522105Y-119156000D01*
X95596467Y-119178557D01*
X95735087Y-119252652D01*
X95752991Y-119262222D01*
X95788729Y-119291552D01*
X95890186Y-119374814D01*
X95973448Y-119476271D01*
X96002778Y-119512009D01*
X96002779Y-119512011D01*
X96086443Y-119668533D01*
X96086443Y-119668534D01*
X96137963Y-119838373D01*
X96155359Y-120015000D01*
X96137963Y-120191627D01*
X96103616Y-120304853D01*
X96086443Y-120361467D01*
X96012348Y-120500087D01*
X96002778Y-120517991D01*
X95973448Y-120553729D01*
X95890186Y-120655186D01*
X95788729Y-120738448D01*
X95752991Y-120767778D01*
X95752989Y-120767779D01*
X95596467Y-120851443D01*
X95539853Y-120868616D01*
X95426627Y-120902963D01*
X95360442Y-120909482D01*
X95294260Y-120916000D01*
X95205740Y-120916000D01*
X95139558Y-120909482D01*
X95073373Y-120902963D01*
X94960147Y-120868616D01*
X94903533Y-120851443D01*
X94747011Y-120767779D01*
X94747009Y-120767778D01*
X94711271Y-120738448D01*
X94609814Y-120655186D01*
X94526552Y-120553729D01*
X94497222Y-120517991D01*
X94487652Y-120500087D01*
X94413557Y-120361467D01*
X94396384Y-120304853D01*
X94362037Y-120191627D01*
X94344641Y-120015000D01*
X94362037Y-119838373D01*
X94413557Y-119668534D01*
X94413557Y-119668533D01*
X94497221Y-119512011D01*
X94497222Y-119512009D01*
X94526552Y-119476271D01*
X94609814Y-119374814D01*
X94711271Y-119291552D01*
X94747009Y-119262222D01*
X94764913Y-119252652D01*
X94903533Y-119178557D01*
X94977895Y-119156000D01*
X95073373Y-119127037D01*
X95139557Y-119120519D01*
X95205740Y-119114000D01*
X95294260Y-119114000D01*
X95360443Y-119120519D01*
X95360443Y-119120519D01*
G37*
G36*
X146160443Y-119120519D02*
X146226627Y-119127037D01*
X146322105Y-119156000D01*
X146396467Y-119178557D01*
X146535087Y-119252652D01*
X146552991Y-119262222D01*
X146588729Y-119291552D01*
X146690186Y-119374814D01*
X146773448Y-119476271D01*
X146802778Y-119512009D01*
X146802779Y-119512011D01*
X146886443Y-119668533D01*
X146886443Y-119668534D01*
X146937963Y-119838373D01*
X146955359Y-120015000D01*
X146937963Y-120191627D01*
X146903616Y-120304853D01*
X146886443Y-120361467D01*
X146812348Y-120500087D01*
X146802778Y-120517991D01*
X146773448Y-120553729D01*
X146690186Y-120655186D01*
X146588729Y-120738448D01*
X146552991Y-120767778D01*
X146552989Y-120767779D01*
X146396467Y-120851443D01*
X146339853Y-120868616D01*
X146226627Y-120902963D01*
X146160442Y-120909482D01*
X146094260Y-120916000D01*
X146005740Y-120916000D01*
X145939558Y-120909482D01*
X145873373Y-120902963D01*
X145760147Y-120868616D01*
X145703533Y-120851443D01*
X145547011Y-120767779D01*
X145547009Y-120767778D01*
X145511271Y-120738448D01*
X145409814Y-120655186D01*
X145326552Y-120553729D01*
X145297222Y-120517991D01*
X145287652Y-120500087D01*
X145213557Y-120361467D01*
X145196384Y-120304853D01*
X145162037Y-120191627D01*
X145144641Y-120015000D01*
X145162037Y-119838373D01*
X145213557Y-119668534D01*
X145213557Y-119668533D01*
X145297221Y-119512011D01*
X145297222Y-119512009D01*
X145326552Y-119476271D01*
X145409814Y-119374814D01*
X145511271Y-119291552D01*
X145547009Y-119262222D01*
X145564913Y-119252652D01*
X145703533Y-119178557D01*
X145777895Y-119156000D01*
X145873373Y-119127037D01*
X145939557Y-119120519D01*
X146005740Y-119114000D01*
X146094260Y-119114000D01*
X146160443Y-119120519D01*
X146160443Y-119120519D01*
G37*
G36*
X143620443Y-119120519D02*
X143686627Y-119127037D01*
X143782105Y-119156000D01*
X143856467Y-119178557D01*
X143995087Y-119252652D01*
X144012991Y-119262222D01*
X144048729Y-119291552D01*
X144150186Y-119374814D01*
X144233448Y-119476271D01*
X144262778Y-119512009D01*
X144262779Y-119512011D01*
X144346443Y-119668533D01*
X144346443Y-119668534D01*
X144397963Y-119838373D01*
X144415359Y-120015000D01*
X144397963Y-120191627D01*
X144363616Y-120304853D01*
X144346443Y-120361467D01*
X144272348Y-120500087D01*
X144262778Y-120517991D01*
X144233448Y-120553729D01*
X144150186Y-120655186D01*
X144048729Y-120738448D01*
X144012991Y-120767778D01*
X144012989Y-120767779D01*
X143856467Y-120851443D01*
X143799853Y-120868616D01*
X143686627Y-120902963D01*
X143620442Y-120909482D01*
X143554260Y-120916000D01*
X143465740Y-120916000D01*
X143399558Y-120909482D01*
X143333373Y-120902963D01*
X143220147Y-120868616D01*
X143163533Y-120851443D01*
X143007011Y-120767779D01*
X143007009Y-120767778D01*
X142971271Y-120738448D01*
X142869814Y-120655186D01*
X142786552Y-120553729D01*
X142757222Y-120517991D01*
X142747652Y-120500087D01*
X142673557Y-120361467D01*
X142656384Y-120304853D01*
X142622037Y-120191627D01*
X142604641Y-120015000D01*
X142622037Y-119838373D01*
X142673557Y-119668534D01*
X142673557Y-119668533D01*
X142757221Y-119512011D01*
X142757222Y-119512009D01*
X142786552Y-119476271D01*
X142869814Y-119374814D01*
X142971271Y-119291552D01*
X143007009Y-119262222D01*
X143024913Y-119252652D01*
X143163533Y-119178557D01*
X143237895Y-119156000D01*
X143333373Y-119127037D01*
X143399557Y-119120519D01*
X143465740Y-119114000D01*
X143554260Y-119114000D01*
X143620443Y-119120519D01*
X143620443Y-119120519D01*
G37*
G36*
X143620443Y-116580519D02*
X143686627Y-116587037D01*
X143799853Y-116621384D01*
X143856467Y-116638557D01*
X143995087Y-116712652D01*
X144012991Y-116722222D01*
X144048729Y-116751552D01*
X144150186Y-116834814D01*
X144233448Y-116936271D01*
X144262778Y-116972009D01*
X144262779Y-116972011D01*
X144346443Y-117128533D01*
X144346443Y-117128534D01*
X144397963Y-117298373D01*
X144415359Y-117475000D01*
X144397963Y-117651627D01*
X144363616Y-117764853D01*
X144346443Y-117821467D01*
X144272348Y-117960087D01*
X144262778Y-117977991D01*
X144233448Y-118013729D01*
X144150186Y-118115186D01*
X144048729Y-118198448D01*
X144012991Y-118227778D01*
X144012989Y-118227779D01*
X143856467Y-118311443D01*
X143799853Y-118328616D01*
X143686627Y-118362963D01*
X143620442Y-118369482D01*
X143554260Y-118376000D01*
X143465740Y-118376000D01*
X143399558Y-118369482D01*
X143333373Y-118362963D01*
X143220147Y-118328616D01*
X143163533Y-118311443D01*
X143007011Y-118227779D01*
X143007009Y-118227778D01*
X142971271Y-118198448D01*
X142869814Y-118115186D01*
X142786552Y-118013729D01*
X142757222Y-117977991D01*
X142747652Y-117960087D01*
X142673557Y-117821467D01*
X142656384Y-117764853D01*
X142622037Y-117651627D01*
X142604641Y-117475000D01*
X142622037Y-117298373D01*
X142673557Y-117128534D01*
X142673557Y-117128533D01*
X142757221Y-116972011D01*
X142757222Y-116972009D01*
X142786552Y-116936271D01*
X142869814Y-116834814D01*
X142971271Y-116751552D01*
X143007009Y-116722222D01*
X143024913Y-116712652D01*
X143163533Y-116638557D01*
X143220147Y-116621384D01*
X143333373Y-116587037D01*
X143399557Y-116580519D01*
X143465740Y-116574000D01*
X143554260Y-116574000D01*
X143620443Y-116580519D01*
X143620443Y-116580519D01*
G37*
G36*
X95360443Y-116580519D02*
X95426627Y-116587037D01*
X95539853Y-116621384D01*
X95596467Y-116638557D01*
X95735087Y-116712652D01*
X95752991Y-116722222D01*
X95788729Y-116751552D01*
X95890186Y-116834814D01*
X95973448Y-116936271D01*
X96002778Y-116972009D01*
X96002779Y-116972011D01*
X96086443Y-117128533D01*
X96086443Y-117128534D01*
X96137963Y-117298373D01*
X96155359Y-117475000D01*
X96137963Y-117651627D01*
X96103616Y-117764853D01*
X96086443Y-117821467D01*
X96012348Y-117960087D01*
X96002778Y-117977991D01*
X95973448Y-118013729D01*
X95890186Y-118115186D01*
X95788729Y-118198448D01*
X95752991Y-118227778D01*
X95752989Y-118227779D01*
X95596467Y-118311443D01*
X95539853Y-118328616D01*
X95426627Y-118362963D01*
X95360442Y-118369482D01*
X95294260Y-118376000D01*
X95205740Y-118376000D01*
X95139558Y-118369482D01*
X95073373Y-118362963D01*
X94960147Y-118328616D01*
X94903533Y-118311443D01*
X94747011Y-118227779D01*
X94747009Y-118227778D01*
X94711271Y-118198448D01*
X94609814Y-118115186D01*
X94526552Y-118013729D01*
X94497222Y-117977991D01*
X94487652Y-117960087D01*
X94413557Y-117821467D01*
X94396384Y-117764853D01*
X94362037Y-117651627D01*
X94344641Y-117475000D01*
X94362037Y-117298373D01*
X94413557Y-117128534D01*
X94413557Y-117128533D01*
X94497221Y-116972011D01*
X94497222Y-116972009D01*
X94526552Y-116936271D01*
X94609814Y-116834814D01*
X94711271Y-116751552D01*
X94747009Y-116722222D01*
X94764913Y-116712652D01*
X94903533Y-116638557D01*
X94960147Y-116621384D01*
X95073373Y-116587037D01*
X95139557Y-116580519D01*
X95205740Y-116574000D01*
X95294260Y-116574000D01*
X95360443Y-116580519D01*
X95360443Y-116580519D01*
G37*
G36*
X92820443Y-116580519D02*
X92886627Y-116587037D01*
X92999853Y-116621384D01*
X93056467Y-116638557D01*
X93195087Y-116712652D01*
X93212991Y-116722222D01*
X93248729Y-116751552D01*
X93350186Y-116834814D01*
X93433448Y-116936271D01*
X93462778Y-116972009D01*
X93462779Y-116972011D01*
X93546443Y-117128533D01*
X93546443Y-117128534D01*
X93597963Y-117298373D01*
X93615359Y-117475000D01*
X93597963Y-117651627D01*
X93563616Y-117764853D01*
X93546443Y-117821467D01*
X93472348Y-117960087D01*
X93462778Y-117977991D01*
X93433448Y-118013729D01*
X93350186Y-118115186D01*
X93248729Y-118198448D01*
X93212991Y-118227778D01*
X93212989Y-118227779D01*
X93056467Y-118311443D01*
X92999853Y-118328616D01*
X92886627Y-118362963D01*
X92820442Y-118369482D01*
X92754260Y-118376000D01*
X92665740Y-118376000D01*
X92599558Y-118369482D01*
X92533373Y-118362963D01*
X92420147Y-118328616D01*
X92363533Y-118311443D01*
X92207011Y-118227779D01*
X92207009Y-118227778D01*
X92171271Y-118198448D01*
X92069814Y-118115186D01*
X91986552Y-118013729D01*
X91957222Y-117977991D01*
X91947652Y-117960087D01*
X91873557Y-117821467D01*
X91856384Y-117764853D01*
X91822037Y-117651627D01*
X91804641Y-117475000D01*
X91822037Y-117298373D01*
X91873557Y-117128534D01*
X91873557Y-117128533D01*
X91957221Y-116972011D01*
X91957222Y-116972009D01*
X91986552Y-116936271D01*
X92069814Y-116834814D01*
X92171271Y-116751552D01*
X92207009Y-116722222D01*
X92224913Y-116712652D01*
X92363533Y-116638557D01*
X92420147Y-116621384D01*
X92533373Y-116587037D01*
X92599557Y-116580519D01*
X92665740Y-116574000D01*
X92754260Y-116574000D01*
X92820443Y-116580519D01*
X92820443Y-116580519D01*
G37*
G36*
X146160443Y-116580519D02*
X146226627Y-116587037D01*
X146339853Y-116621384D01*
X146396467Y-116638557D01*
X146535087Y-116712652D01*
X146552991Y-116722222D01*
X146588729Y-116751552D01*
X146690186Y-116834814D01*
X146773448Y-116936271D01*
X146802778Y-116972009D01*
X146802779Y-116972011D01*
X146886443Y-117128533D01*
X146886443Y-117128534D01*
X146937963Y-117298373D01*
X146955359Y-117475000D01*
X146937963Y-117651627D01*
X146903616Y-117764853D01*
X146886443Y-117821467D01*
X146812348Y-117960087D01*
X146802778Y-117977991D01*
X146773448Y-118013729D01*
X146690186Y-118115186D01*
X146588729Y-118198448D01*
X146552991Y-118227778D01*
X146552989Y-118227779D01*
X146396467Y-118311443D01*
X146339853Y-118328616D01*
X146226627Y-118362963D01*
X146160442Y-118369482D01*
X146094260Y-118376000D01*
X146005740Y-118376000D01*
X145939558Y-118369482D01*
X145873373Y-118362963D01*
X145760147Y-118328616D01*
X145703533Y-118311443D01*
X145547011Y-118227779D01*
X145547009Y-118227778D01*
X145511271Y-118198448D01*
X145409814Y-118115186D01*
X145326552Y-118013729D01*
X145297222Y-117977991D01*
X145287652Y-117960087D01*
X145213557Y-117821467D01*
X145196384Y-117764853D01*
X145162037Y-117651627D01*
X145144641Y-117475000D01*
X145162037Y-117298373D01*
X145213557Y-117128534D01*
X145213557Y-117128533D01*
X145297221Y-116972011D01*
X145297222Y-116972009D01*
X145326552Y-116936271D01*
X145409814Y-116834814D01*
X145511271Y-116751552D01*
X145547009Y-116722222D01*
X145564913Y-116712652D01*
X145703533Y-116638557D01*
X145760147Y-116621384D01*
X145873373Y-116587037D01*
X145939557Y-116580519D01*
X146005740Y-116574000D01*
X146094260Y-116574000D01*
X146160443Y-116580519D01*
X146160443Y-116580519D01*
G37*
G36*
X95360442Y-114040518D02*
X95426627Y-114047037D01*
X95539853Y-114081384D01*
X95596467Y-114098557D01*
X95735087Y-114172652D01*
X95752991Y-114182222D01*
X95788729Y-114211552D01*
X95890186Y-114294814D01*
X95973448Y-114396271D01*
X96002778Y-114432009D01*
X96002779Y-114432011D01*
X96086443Y-114588533D01*
X96086443Y-114588534D01*
X96137963Y-114758373D01*
X96155359Y-114935000D01*
X96137963Y-115111627D01*
X96103616Y-115224853D01*
X96086443Y-115281467D01*
X96012348Y-115420087D01*
X96002778Y-115437991D01*
X95973448Y-115473729D01*
X95890186Y-115575186D01*
X95788729Y-115658448D01*
X95752991Y-115687778D01*
X95752989Y-115687779D01*
X95596467Y-115771443D01*
X95539853Y-115788616D01*
X95426627Y-115822963D01*
X95360443Y-115829481D01*
X95294260Y-115836000D01*
X95205740Y-115836000D01*
X95139557Y-115829481D01*
X95073373Y-115822963D01*
X94960147Y-115788616D01*
X94903533Y-115771443D01*
X94747011Y-115687779D01*
X94747009Y-115687778D01*
X94711271Y-115658448D01*
X94609814Y-115575186D01*
X94526552Y-115473729D01*
X94497222Y-115437991D01*
X94487652Y-115420087D01*
X94413557Y-115281467D01*
X94396384Y-115224853D01*
X94362037Y-115111627D01*
X94344641Y-114935000D01*
X94362037Y-114758373D01*
X94413557Y-114588534D01*
X94413557Y-114588533D01*
X94497221Y-114432011D01*
X94497222Y-114432009D01*
X94526552Y-114396271D01*
X94609814Y-114294814D01*
X94711271Y-114211552D01*
X94747009Y-114182222D01*
X94764913Y-114172652D01*
X94903533Y-114098557D01*
X94960147Y-114081384D01*
X95073373Y-114047037D01*
X95139558Y-114040518D01*
X95205740Y-114034000D01*
X95294260Y-114034000D01*
X95360442Y-114040518D01*
X95360442Y-114040518D01*
G37*
G36*
X92820442Y-114040518D02*
X92886627Y-114047037D01*
X92999853Y-114081384D01*
X93056467Y-114098557D01*
X93195087Y-114172652D01*
X93212991Y-114182222D01*
X93248729Y-114211552D01*
X93350186Y-114294814D01*
X93433448Y-114396271D01*
X93462778Y-114432009D01*
X93462779Y-114432011D01*
X93546443Y-114588533D01*
X93546443Y-114588534D01*
X93597963Y-114758373D01*
X93615359Y-114935000D01*
X93597963Y-115111627D01*
X93563616Y-115224853D01*
X93546443Y-115281467D01*
X93472348Y-115420087D01*
X93462778Y-115437991D01*
X93433448Y-115473729D01*
X93350186Y-115575186D01*
X93248729Y-115658448D01*
X93212991Y-115687778D01*
X93212989Y-115687779D01*
X93056467Y-115771443D01*
X92999853Y-115788616D01*
X92886627Y-115822963D01*
X92820443Y-115829481D01*
X92754260Y-115836000D01*
X92665740Y-115836000D01*
X92599557Y-115829481D01*
X92533373Y-115822963D01*
X92420147Y-115788616D01*
X92363533Y-115771443D01*
X92207011Y-115687779D01*
X92207009Y-115687778D01*
X92171271Y-115658448D01*
X92069814Y-115575186D01*
X91986552Y-115473729D01*
X91957222Y-115437991D01*
X91947652Y-115420087D01*
X91873557Y-115281467D01*
X91856384Y-115224853D01*
X91822037Y-115111627D01*
X91804641Y-114935000D01*
X91822037Y-114758373D01*
X91873557Y-114588534D01*
X91873557Y-114588533D01*
X91957221Y-114432011D01*
X91957222Y-114432009D01*
X91986552Y-114396271D01*
X92069814Y-114294814D01*
X92171271Y-114211552D01*
X92207009Y-114182222D01*
X92224913Y-114172652D01*
X92363533Y-114098557D01*
X92420147Y-114081384D01*
X92533373Y-114047037D01*
X92599558Y-114040518D01*
X92665740Y-114034000D01*
X92754260Y-114034000D01*
X92820442Y-114040518D01*
X92820442Y-114040518D01*
G37*
G36*
X146160442Y-114040518D02*
X146226627Y-114047037D01*
X146339853Y-114081384D01*
X146396467Y-114098557D01*
X146535087Y-114172652D01*
X146552991Y-114182222D01*
X146588729Y-114211552D01*
X146690186Y-114294814D01*
X146773448Y-114396271D01*
X146802778Y-114432009D01*
X146802779Y-114432011D01*
X146886443Y-114588533D01*
X146886443Y-114588534D01*
X146937963Y-114758373D01*
X146955359Y-114935000D01*
X146937963Y-115111627D01*
X146903616Y-115224853D01*
X146886443Y-115281467D01*
X146812348Y-115420087D01*
X146802778Y-115437991D01*
X146773448Y-115473729D01*
X146690186Y-115575186D01*
X146588729Y-115658448D01*
X146552991Y-115687778D01*
X146552989Y-115687779D01*
X146396467Y-115771443D01*
X146339853Y-115788616D01*
X146226627Y-115822963D01*
X146160443Y-115829481D01*
X146094260Y-115836000D01*
X146005740Y-115836000D01*
X145939557Y-115829481D01*
X145873373Y-115822963D01*
X145760147Y-115788616D01*
X145703533Y-115771443D01*
X145547011Y-115687779D01*
X145547009Y-115687778D01*
X145511271Y-115658448D01*
X145409814Y-115575186D01*
X145326552Y-115473729D01*
X145297222Y-115437991D01*
X145287652Y-115420087D01*
X145213557Y-115281467D01*
X145196384Y-115224853D01*
X145162037Y-115111627D01*
X145144641Y-114935000D01*
X145162037Y-114758373D01*
X145213557Y-114588534D01*
X145213557Y-114588533D01*
X145297221Y-114432011D01*
X145297222Y-114432009D01*
X145326552Y-114396271D01*
X145409814Y-114294814D01*
X145511271Y-114211552D01*
X145547009Y-114182222D01*
X145564913Y-114172652D01*
X145703533Y-114098557D01*
X145760147Y-114081384D01*
X145873373Y-114047037D01*
X145939558Y-114040518D01*
X146005740Y-114034000D01*
X146094260Y-114034000D01*
X146160442Y-114040518D01*
X146160442Y-114040518D01*
G37*
G36*
X143620442Y-114040518D02*
X143686627Y-114047037D01*
X143799853Y-114081384D01*
X143856467Y-114098557D01*
X143995087Y-114172652D01*
X144012991Y-114182222D01*
X144048729Y-114211552D01*
X144150186Y-114294814D01*
X144233448Y-114396271D01*
X144262778Y-114432009D01*
X144262779Y-114432011D01*
X144346443Y-114588533D01*
X144346443Y-114588534D01*
X144397963Y-114758373D01*
X144415359Y-114935000D01*
X144397963Y-115111627D01*
X144363616Y-115224853D01*
X144346443Y-115281467D01*
X144272348Y-115420087D01*
X144262778Y-115437991D01*
X144233448Y-115473729D01*
X144150186Y-115575186D01*
X144048729Y-115658448D01*
X144012991Y-115687778D01*
X144012989Y-115687779D01*
X143856467Y-115771443D01*
X143799853Y-115788616D01*
X143686627Y-115822963D01*
X143620443Y-115829481D01*
X143554260Y-115836000D01*
X143465740Y-115836000D01*
X143399557Y-115829481D01*
X143333373Y-115822963D01*
X143220147Y-115788616D01*
X143163533Y-115771443D01*
X143007011Y-115687779D01*
X143007009Y-115687778D01*
X142971271Y-115658448D01*
X142869814Y-115575186D01*
X142786552Y-115473729D01*
X142757222Y-115437991D01*
X142747652Y-115420087D01*
X142673557Y-115281467D01*
X142656384Y-115224853D01*
X142622037Y-115111627D01*
X142604641Y-114935000D01*
X142622037Y-114758373D01*
X142673557Y-114588534D01*
X142673557Y-114588533D01*
X142757221Y-114432011D01*
X142757222Y-114432009D01*
X142786552Y-114396271D01*
X142869814Y-114294814D01*
X142971271Y-114211552D01*
X143007009Y-114182222D01*
X143024913Y-114172652D01*
X143163533Y-114098557D01*
X143220147Y-114081384D01*
X143333373Y-114047037D01*
X143399558Y-114040518D01*
X143465740Y-114034000D01*
X143554260Y-114034000D01*
X143620442Y-114040518D01*
X143620442Y-114040518D01*
G37*
G36*
X92820443Y-111500519D02*
X92886627Y-111507037D01*
X92999853Y-111541384D01*
X93056467Y-111558557D01*
X93195087Y-111632652D01*
X93212991Y-111642222D01*
X93248729Y-111671552D01*
X93350186Y-111754814D01*
X93433448Y-111856271D01*
X93462778Y-111892009D01*
X93462779Y-111892011D01*
X93546443Y-112048533D01*
X93546443Y-112048534D01*
X93597963Y-112218373D01*
X93615359Y-112395000D01*
X93597963Y-112571627D01*
X93563616Y-112684853D01*
X93546443Y-112741467D01*
X93472348Y-112880087D01*
X93462778Y-112897991D01*
X93433448Y-112933729D01*
X93350186Y-113035186D01*
X93248729Y-113118448D01*
X93212991Y-113147778D01*
X93212989Y-113147779D01*
X93056467Y-113231443D01*
X92999853Y-113248616D01*
X92886627Y-113282963D01*
X92820443Y-113289481D01*
X92754260Y-113296000D01*
X92665740Y-113296000D01*
X92599557Y-113289481D01*
X92533373Y-113282963D01*
X92420147Y-113248616D01*
X92363533Y-113231443D01*
X92207011Y-113147779D01*
X92207009Y-113147778D01*
X92171271Y-113118448D01*
X92069814Y-113035186D01*
X91986552Y-112933729D01*
X91957222Y-112897991D01*
X91947652Y-112880087D01*
X91873557Y-112741467D01*
X91856384Y-112684853D01*
X91822037Y-112571627D01*
X91804641Y-112395000D01*
X91822037Y-112218373D01*
X91873557Y-112048534D01*
X91873557Y-112048533D01*
X91957221Y-111892011D01*
X91957222Y-111892009D01*
X91986552Y-111856271D01*
X92069814Y-111754814D01*
X92171271Y-111671552D01*
X92207009Y-111642222D01*
X92224913Y-111632652D01*
X92363533Y-111558557D01*
X92420147Y-111541384D01*
X92533373Y-111507037D01*
X92599557Y-111500519D01*
X92665740Y-111494000D01*
X92754260Y-111494000D01*
X92820443Y-111500519D01*
X92820443Y-111500519D01*
G37*
G36*
X143620443Y-111500519D02*
X143686627Y-111507037D01*
X143799853Y-111541384D01*
X143856467Y-111558557D01*
X143995087Y-111632652D01*
X144012991Y-111642222D01*
X144048729Y-111671552D01*
X144150186Y-111754814D01*
X144233448Y-111856271D01*
X144262778Y-111892009D01*
X144262779Y-111892011D01*
X144346443Y-112048533D01*
X144346443Y-112048534D01*
X144397963Y-112218373D01*
X144415359Y-112395000D01*
X144397963Y-112571627D01*
X144363616Y-112684853D01*
X144346443Y-112741467D01*
X144272348Y-112880087D01*
X144262778Y-112897991D01*
X144233448Y-112933729D01*
X144150186Y-113035186D01*
X144048729Y-113118448D01*
X144012991Y-113147778D01*
X144012989Y-113147779D01*
X143856467Y-113231443D01*
X143799853Y-113248616D01*
X143686627Y-113282963D01*
X143620443Y-113289481D01*
X143554260Y-113296000D01*
X143465740Y-113296000D01*
X143399557Y-113289481D01*
X143333373Y-113282963D01*
X143220147Y-113248616D01*
X143163533Y-113231443D01*
X143007011Y-113147779D01*
X143007009Y-113147778D01*
X142971271Y-113118448D01*
X142869814Y-113035186D01*
X142786552Y-112933729D01*
X142757222Y-112897991D01*
X142747652Y-112880087D01*
X142673557Y-112741467D01*
X142656384Y-112684853D01*
X142622037Y-112571627D01*
X142604641Y-112395000D01*
X142622037Y-112218373D01*
X142673557Y-112048534D01*
X142673557Y-112048533D01*
X142757221Y-111892011D01*
X142757222Y-111892009D01*
X142786552Y-111856271D01*
X142869814Y-111754814D01*
X142971271Y-111671552D01*
X143007009Y-111642222D01*
X143024913Y-111632652D01*
X143163533Y-111558557D01*
X143220147Y-111541384D01*
X143333373Y-111507037D01*
X143399557Y-111500519D01*
X143465740Y-111494000D01*
X143554260Y-111494000D01*
X143620443Y-111500519D01*
X143620443Y-111500519D01*
G37*
G36*
X146160443Y-111500519D02*
X146226627Y-111507037D01*
X146339853Y-111541384D01*
X146396467Y-111558557D01*
X146535087Y-111632652D01*
X146552991Y-111642222D01*
X146588729Y-111671552D01*
X146690186Y-111754814D01*
X146773448Y-111856271D01*
X146802778Y-111892009D01*
X146802779Y-111892011D01*
X146886443Y-112048533D01*
X146886443Y-112048534D01*
X146937963Y-112218373D01*
X146955359Y-112395000D01*
X146937963Y-112571627D01*
X146903616Y-112684853D01*
X146886443Y-112741467D01*
X146812348Y-112880087D01*
X146802778Y-112897991D01*
X146773448Y-112933729D01*
X146690186Y-113035186D01*
X146588729Y-113118448D01*
X146552991Y-113147778D01*
X146552989Y-113147779D01*
X146396467Y-113231443D01*
X146339853Y-113248616D01*
X146226627Y-113282963D01*
X146160443Y-113289481D01*
X146094260Y-113296000D01*
X146005740Y-113296000D01*
X145939557Y-113289481D01*
X145873373Y-113282963D01*
X145760147Y-113248616D01*
X145703533Y-113231443D01*
X145547011Y-113147779D01*
X145547009Y-113147778D01*
X145511271Y-113118448D01*
X145409814Y-113035186D01*
X145326552Y-112933729D01*
X145297222Y-112897991D01*
X145287652Y-112880087D01*
X145213557Y-112741467D01*
X145196384Y-112684853D01*
X145162037Y-112571627D01*
X145144641Y-112395000D01*
X145162037Y-112218373D01*
X145213557Y-112048534D01*
X145213557Y-112048533D01*
X145297221Y-111892011D01*
X145297222Y-111892009D01*
X145326552Y-111856271D01*
X145409814Y-111754814D01*
X145511271Y-111671552D01*
X145547009Y-111642222D01*
X145564913Y-111632652D01*
X145703533Y-111558557D01*
X145760147Y-111541384D01*
X145873373Y-111507037D01*
X145939557Y-111500519D01*
X146005740Y-111494000D01*
X146094260Y-111494000D01*
X146160443Y-111500519D01*
X146160443Y-111500519D01*
G37*
G36*
X95360443Y-111500519D02*
X95426627Y-111507037D01*
X95539853Y-111541384D01*
X95596467Y-111558557D01*
X95735087Y-111632652D01*
X95752991Y-111642222D01*
X95788729Y-111671552D01*
X95890186Y-111754814D01*
X95973448Y-111856271D01*
X96002778Y-111892009D01*
X96002779Y-111892011D01*
X96086443Y-112048533D01*
X96086443Y-112048534D01*
X96137963Y-112218373D01*
X96155359Y-112395000D01*
X96137963Y-112571627D01*
X96103616Y-112684853D01*
X96086443Y-112741467D01*
X96012348Y-112880087D01*
X96002778Y-112897991D01*
X95973448Y-112933729D01*
X95890186Y-113035186D01*
X95788729Y-113118448D01*
X95752991Y-113147778D01*
X95752989Y-113147779D01*
X95596467Y-113231443D01*
X95539853Y-113248616D01*
X95426627Y-113282963D01*
X95360443Y-113289481D01*
X95294260Y-113296000D01*
X95205740Y-113296000D01*
X95139557Y-113289481D01*
X95073373Y-113282963D01*
X94960147Y-113248616D01*
X94903533Y-113231443D01*
X94747011Y-113147779D01*
X94747009Y-113147778D01*
X94711271Y-113118448D01*
X94609814Y-113035186D01*
X94526552Y-112933729D01*
X94497222Y-112897991D01*
X94487652Y-112880087D01*
X94413557Y-112741467D01*
X94396384Y-112684853D01*
X94362037Y-112571627D01*
X94344641Y-112395000D01*
X94362037Y-112218373D01*
X94413557Y-112048534D01*
X94413557Y-112048533D01*
X94497221Y-111892011D01*
X94497222Y-111892009D01*
X94526552Y-111856271D01*
X94609814Y-111754814D01*
X94711271Y-111671552D01*
X94747009Y-111642222D01*
X94764913Y-111632652D01*
X94903533Y-111558557D01*
X94960147Y-111541384D01*
X95073373Y-111507037D01*
X95139557Y-111500519D01*
X95205740Y-111494000D01*
X95294260Y-111494000D01*
X95360443Y-111500519D01*
X95360443Y-111500519D01*
G37*
G36*
X146160443Y-108960519D02*
X146226627Y-108967037D01*
X146339853Y-109001384D01*
X146396467Y-109018557D01*
X146535087Y-109092652D01*
X146552991Y-109102222D01*
X146588729Y-109131552D01*
X146690186Y-109214814D01*
X146773448Y-109316271D01*
X146802778Y-109352009D01*
X146802779Y-109352011D01*
X146886443Y-109508533D01*
X146886443Y-109508534D01*
X146937963Y-109678373D01*
X146955359Y-109855000D01*
X146937963Y-110031627D01*
X146903616Y-110144853D01*
X146886443Y-110201467D01*
X146812348Y-110340087D01*
X146802778Y-110357991D01*
X146773448Y-110393729D01*
X146690186Y-110495186D01*
X146588729Y-110578448D01*
X146552991Y-110607778D01*
X146552989Y-110607779D01*
X146396467Y-110691443D01*
X146339853Y-110708616D01*
X146226627Y-110742963D01*
X146160442Y-110749482D01*
X146094260Y-110756000D01*
X146005740Y-110756000D01*
X145939558Y-110749482D01*
X145873373Y-110742963D01*
X145760147Y-110708616D01*
X145703533Y-110691443D01*
X145547011Y-110607779D01*
X145547009Y-110607778D01*
X145511271Y-110578448D01*
X145409814Y-110495186D01*
X145326552Y-110393729D01*
X145297222Y-110357991D01*
X145287652Y-110340087D01*
X145213557Y-110201467D01*
X145196384Y-110144853D01*
X145162037Y-110031627D01*
X145144641Y-109855000D01*
X145162037Y-109678373D01*
X145213557Y-109508534D01*
X145213557Y-109508533D01*
X145297221Y-109352011D01*
X145297222Y-109352009D01*
X145326552Y-109316271D01*
X145409814Y-109214814D01*
X145511271Y-109131552D01*
X145547009Y-109102222D01*
X145564913Y-109092652D01*
X145703533Y-109018557D01*
X145760147Y-109001384D01*
X145873373Y-108967037D01*
X145939557Y-108960519D01*
X146005740Y-108954000D01*
X146094260Y-108954000D01*
X146160443Y-108960519D01*
X146160443Y-108960519D01*
G37*
G36*
X143620443Y-108960519D02*
X143686627Y-108967037D01*
X143799853Y-109001384D01*
X143856467Y-109018557D01*
X143995087Y-109092652D01*
X144012991Y-109102222D01*
X144048729Y-109131552D01*
X144150186Y-109214814D01*
X144233448Y-109316271D01*
X144262778Y-109352009D01*
X144262779Y-109352011D01*
X144346443Y-109508533D01*
X144346443Y-109508534D01*
X144397963Y-109678373D01*
X144415359Y-109855000D01*
X144397963Y-110031627D01*
X144363616Y-110144853D01*
X144346443Y-110201467D01*
X144272348Y-110340087D01*
X144262778Y-110357991D01*
X144233448Y-110393729D01*
X144150186Y-110495186D01*
X144048729Y-110578448D01*
X144012991Y-110607778D01*
X144012989Y-110607779D01*
X143856467Y-110691443D01*
X143799853Y-110708616D01*
X143686627Y-110742963D01*
X143620442Y-110749482D01*
X143554260Y-110756000D01*
X143465740Y-110756000D01*
X143399558Y-110749482D01*
X143333373Y-110742963D01*
X143220147Y-110708616D01*
X143163533Y-110691443D01*
X143007011Y-110607779D01*
X143007009Y-110607778D01*
X142971271Y-110578448D01*
X142869814Y-110495186D01*
X142786552Y-110393729D01*
X142757222Y-110357991D01*
X142747652Y-110340087D01*
X142673557Y-110201467D01*
X142656384Y-110144853D01*
X142622037Y-110031627D01*
X142604641Y-109855000D01*
X142622037Y-109678373D01*
X142673557Y-109508534D01*
X142673557Y-109508533D01*
X142757221Y-109352011D01*
X142757222Y-109352009D01*
X142786552Y-109316271D01*
X142869814Y-109214814D01*
X142971271Y-109131552D01*
X143007009Y-109102222D01*
X143024913Y-109092652D01*
X143163533Y-109018557D01*
X143220147Y-109001384D01*
X143333373Y-108967037D01*
X143399557Y-108960519D01*
X143465740Y-108954000D01*
X143554260Y-108954000D01*
X143620443Y-108960519D01*
X143620443Y-108960519D01*
G37*
G36*
X92820443Y-108960519D02*
X92886627Y-108967037D01*
X92999853Y-109001384D01*
X93056467Y-109018557D01*
X93195087Y-109092652D01*
X93212991Y-109102222D01*
X93248729Y-109131552D01*
X93350186Y-109214814D01*
X93433448Y-109316271D01*
X93462778Y-109352009D01*
X93462779Y-109352011D01*
X93546443Y-109508533D01*
X93546443Y-109508534D01*
X93597963Y-109678373D01*
X93615359Y-109855000D01*
X93597963Y-110031627D01*
X93563616Y-110144853D01*
X93546443Y-110201467D01*
X93472348Y-110340087D01*
X93462778Y-110357991D01*
X93433448Y-110393729D01*
X93350186Y-110495186D01*
X93248729Y-110578448D01*
X93212991Y-110607778D01*
X93212989Y-110607779D01*
X93056467Y-110691443D01*
X92999853Y-110708616D01*
X92886627Y-110742963D01*
X92820442Y-110749482D01*
X92754260Y-110756000D01*
X92665740Y-110756000D01*
X92599558Y-110749482D01*
X92533373Y-110742963D01*
X92420147Y-110708616D01*
X92363533Y-110691443D01*
X92207011Y-110607779D01*
X92207009Y-110607778D01*
X92171271Y-110578448D01*
X92069814Y-110495186D01*
X91986552Y-110393729D01*
X91957222Y-110357991D01*
X91947652Y-110340087D01*
X91873557Y-110201467D01*
X91856384Y-110144853D01*
X91822037Y-110031627D01*
X91804641Y-109855000D01*
X91822037Y-109678373D01*
X91873557Y-109508534D01*
X91873557Y-109508533D01*
X91957221Y-109352011D01*
X91957222Y-109352009D01*
X91986552Y-109316271D01*
X92069814Y-109214814D01*
X92171271Y-109131552D01*
X92207009Y-109102222D01*
X92224913Y-109092652D01*
X92363533Y-109018557D01*
X92420147Y-109001384D01*
X92533373Y-108967037D01*
X92599557Y-108960519D01*
X92665740Y-108954000D01*
X92754260Y-108954000D01*
X92820443Y-108960519D01*
X92820443Y-108960519D01*
G37*
G36*
X95360443Y-108960519D02*
X95426627Y-108967037D01*
X95539853Y-109001384D01*
X95596467Y-109018557D01*
X95735087Y-109092652D01*
X95752991Y-109102222D01*
X95788729Y-109131552D01*
X95890186Y-109214814D01*
X95973448Y-109316271D01*
X96002778Y-109352009D01*
X96002779Y-109352011D01*
X96086443Y-109508533D01*
X96086443Y-109508534D01*
X96137963Y-109678373D01*
X96155359Y-109855000D01*
X96137963Y-110031627D01*
X96103616Y-110144853D01*
X96086443Y-110201467D01*
X96012348Y-110340087D01*
X96002778Y-110357991D01*
X95973448Y-110393729D01*
X95890186Y-110495186D01*
X95788729Y-110578448D01*
X95752991Y-110607778D01*
X95752989Y-110607779D01*
X95596467Y-110691443D01*
X95539853Y-110708616D01*
X95426627Y-110742963D01*
X95360442Y-110749482D01*
X95294260Y-110756000D01*
X95205740Y-110756000D01*
X95139558Y-110749482D01*
X95073373Y-110742963D01*
X94960147Y-110708616D01*
X94903533Y-110691443D01*
X94747011Y-110607779D01*
X94747009Y-110607778D01*
X94711271Y-110578448D01*
X94609814Y-110495186D01*
X94526552Y-110393729D01*
X94497222Y-110357991D01*
X94487652Y-110340087D01*
X94413557Y-110201467D01*
X94396384Y-110144853D01*
X94362037Y-110031627D01*
X94344641Y-109855000D01*
X94362037Y-109678373D01*
X94413557Y-109508534D01*
X94413557Y-109508533D01*
X94497221Y-109352011D01*
X94497222Y-109352009D01*
X94526552Y-109316271D01*
X94609814Y-109214814D01*
X94711271Y-109131552D01*
X94747009Y-109102222D01*
X94764913Y-109092652D01*
X94903533Y-109018557D01*
X94960147Y-109001384D01*
X95073373Y-108967037D01*
X95139557Y-108960519D01*
X95205740Y-108954000D01*
X95294260Y-108954000D01*
X95360443Y-108960519D01*
X95360443Y-108960519D01*
G37*
G36*
X146160443Y-106420519D02*
X146226627Y-106427037D01*
X146339853Y-106461384D01*
X146396467Y-106478557D01*
X146535087Y-106552652D01*
X146552991Y-106562222D01*
X146588729Y-106591552D01*
X146690186Y-106674814D01*
X146773448Y-106776271D01*
X146802778Y-106812009D01*
X146802779Y-106812011D01*
X146886443Y-106968533D01*
X146886443Y-106968534D01*
X146937963Y-107138373D01*
X146955359Y-107315000D01*
X146937963Y-107491627D01*
X146903616Y-107604853D01*
X146886443Y-107661467D01*
X146812348Y-107800087D01*
X146802778Y-107817991D01*
X146773448Y-107853729D01*
X146690186Y-107955186D01*
X146588729Y-108038448D01*
X146552991Y-108067778D01*
X146552989Y-108067779D01*
X146396467Y-108151443D01*
X146339853Y-108168616D01*
X146226627Y-108202963D01*
X146160443Y-108209481D01*
X146094260Y-108216000D01*
X146005740Y-108216000D01*
X145939557Y-108209481D01*
X145873373Y-108202963D01*
X145760147Y-108168616D01*
X145703533Y-108151443D01*
X145547011Y-108067779D01*
X145547009Y-108067778D01*
X145511271Y-108038448D01*
X145409814Y-107955186D01*
X145326552Y-107853729D01*
X145297222Y-107817991D01*
X145287652Y-107800087D01*
X145213557Y-107661467D01*
X145196384Y-107604853D01*
X145162037Y-107491627D01*
X145144641Y-107315000D01*
X145162037Y-107138373D01*
X145213557Y-106968534D01*
X145213557Y-106968533D01*
X145297221Y-106812011D01*
X145297222Y-106812009D01*
X145326552Y-106776271D01*
X145409814Y-106674814D01*
X145511271Y-106591552D01*
X145547009Y-106562222D01*
X145564913Y-106552652D01*
X145703533Y-106478557D01*
X145760147Y-106461384D01*
X145873373Y-106427037D01*
X145939557Y-106420519D01*
X146005740Y-106414000D01*
X146094260Y-106414000D01*
X146160443Y-106420519D01*
X146160443Y-106420519D01*
G37*
G36*
X144411000Y-108216000D02*
X142609000Y-108216000D01*
X142609000Y-106414000D01*
X144411000Y-106414000D01*
X144411000Y-108216000D01*
X144411000Y-108216000D01*
G37*
G36*
X95360443Y-106420519D02*
X95426627Y-106427037D01*
X95539853Y-106461384D01*
X95596467Y-106478557D01*
X95735087Y-106552652D01*
X95752991Y-106562222D01*
X95788729Y-106591552D01*
X95890186Y-106674814D01*
X95973448Y-106776271D01*
X96002778Y-106812009D01*
X96002779Y-106812011D01*
X96086443Y-106968533D01*
X96086443Y-106968534D01*
X96137963Y-107138373D01*
X96155359Y-107315000D01*
X96137963Y-107491627D01*
X96103616Y-107604853D01*
X96086443Y-107661467D01*
X96012348Y-107800087D01*
X96002778Y-107817991D01*
X95973448Y-107853729D01*
X95890186Y-107955186D01*
X95788729Y-108038448D01*
X95752991Y-108067778D01*
X95752989Y-108067779D01*
X95596467Y-108151443D01*
X95539853Y-108168616D01*
X95426627Y-108202963D01*
X95360443Y-108209481D01*
X95294260Y-108216000D01*
X95205740Y-108216000D01*
X95139557Y-108209481D01*
X95073373Y-108202963D01*
X94960147Y-108168616D01*
X94903533Y-108151443D01*
X94747011Y-108067779D01*
X94747009Y-108067778D01*
X94711271Y-108038448D01*
X94609814Y-107955186D01*
X94526552Y-107853729D01*
X94497222Y-107817991D01*
X94487652Y-107800087D01*
X94413557Y-107661467D01*
X94396384Y-107604853D01*
X94362037Y-107491627D01*
X94344641Y-107315000D01*
X94362037Y-107138373D01*
X94413557Y-106968534D01*
X94413557Y-106968533D01*
X94497221Y-106812011D01*
X94497222Y-106812009D01*
X94526552Y-106776271D01*
X94609814Y-106674814D01*
X94711271Y-106591552D01*
X94747009Y-106562222D01*
X94764913Y-106552652D01*
X94903533Y-106478557D01*
X94960147Y-106461384D01*
X95073373Y-106427037D01*
X95139557Y-106420519D01*
X95205740Y-106414000D01*
X95294260Y-106414000D01*
X95360443Y-106420519D01*
X95360443Y-106420519D01*
G37*
G36*
X93611000Y-108216000D02*
X91809000Y-108216000D01*
X91809000Y-106414000D01*
X93611000Y-106414000D01*
X93611000Y-108216000D01*
X93611000Y-108216000D01*
G37*
G36*
X137729083Y-102898975D02*
X137729085Y-102898976D01*
X137729086Y-102898976D01*
X138084145Y-103046046D01*
X138084146Y-103046047D01*
X138403693Y-103259561D01*
X138675439Y-103531307D01*
X138675441Y-103531310D01*
X138888954Y-103850855D01*
X139036024Y-104205914D01*
X139111000Y-104582843D01*
X139111000Y-104967157D01*
X139036024Y-105344086D01*
X138888954Y-105699145D01*
X138888953Y-105699146D01*
X138675439Y-106018693D01*
X138403693Y-106290439D01*
X138403690Y-106290441D01*
X138084145Y-106503954D01*
X137729086Y-106651024D01*
X137729085Y-106651024D01*
X137729083Y-106651025D01*
X137352158Y-106726000D01*
X136967842Y-106726000D01*
X136590917Y-106651025D01*
X136590915Y-106651024D01*
X136590914Y-106651024D01*
X136235855Y-106503954D01*
X135916310Y-106290441D01*
X135916307Y-106290439D01*
X135644561Y-106018693D01*
X135431047Y-105699146D01*
X135431046Y-105699145D01*
X135283976Y-105344086D01*
X135209000Y-104967157D01*
X135209000Y-104582843D01*
X135283976Y-104205914D01*
X135431046Y-103850855D01*
X135644559Y-103531310D01*
X135644561Y-103531307D01*
X135916307Y-103259561D01*
X136235854Y-103046047D01*
X136235855Y-103046046D01*
X136590914Y-102898976D01*
X136590915Y-102898976D01*
X136590917Y-102898975D01*
X136967842Y-102824000D01*
X137352158Y-102824000D01*
X137729083Y-102898975D01*
X137729083Y-102898975D01*
G37*
G36*
X102169083Y-102898975D02*
X102169085Y-102898976D01*
X102169086Y-102898976D01*
X102524145Y-103046046D01*
X102524146Y-103046047D01*
X102843693Y-103259561D01*
X103115439Y-103531307D01*
X103115441Y-103531310D01*
X103328954Y-103850855D01*
X103476024Y-104205914D01*
X103551000Y-104582843D01*
X103551000Y-104967157D01*
X103476024Y-105344086D01*
X103328954Y-105699145D01*
X103328953Y-105699146D01*
X103115439Y-106018693D01*
X102843693Y-106290439D01*
X102843690Y-106290441D01*
X102524145Y-106503954D01*
X102169086Y-106651024D01*
X102169085Y-106651024D01*
X102169083Y-106651025D01*
X101792158Y-106726000D01*
X101407842Y-106726000D01*
X101030917Y-106651025D01*
X101030915Y-106651024D01*
X101030914Y-106651024D01*
X100675855Y-106503954D01*
X100356310Y-106290441D01*
X100356307Y-106290439D01*
X100084561Y-106018693D01*
X99871047Y-105699146D01*
X99871046Y-105699145D01*
X99723976Y-105344086D01*
X99649000Y-104967157D01*
X99649000Y-104582843D01*
X99723976Y-104205914D01*
X99871046Y-103850855D01*
X100084559Y-103531310D01*
X100084561Y-103531307D01*
X100356307Y-103259561D01*
X100675854Y-103046047D01*
X100675855Y-103046046D01*
X101030914Y-102898976D01*
X101030915Y-102898976D01*
X101030917Y-102898975D01*
X101407842Y-102824000D01*
X101792158Y-102824000D01*
X102169083Y-102898975D01*
X102169083Y-102898975D01*
G37*
M02*
