G04 #@! TF.GenerationSoftware,KiCad,Pcbnew,(5.0.2)-1*
G04 #@! TF.CreationDate,2019-10-28T10:13:21+02:00*
G04 #@! TF.ProjectId,2-relay-over-io,322d7265-6c61-4792-9d6f-7665722d696f,rev?*
G04 #@! TF.SameCoordinates,Original*
G04 #@! TF.FileFunction,Legend,Top*
G04 #@! TF.FilePolarity,Positive*
%FSLAX46Y46*%
G04 Gerber Fmt 4.6, Leading zero omitted, Abs format (unit mm)*
G04 Created by KiCad (PCBNEW (5.0.2)-1) date 28.10.2019 10:13:21*
%MOMM*%
%LPD*%
G01*
G04 APERTURE LIST*
%ADD10C,0.120000*%
%ADD11C,0.200000*%
%ADD12C,0.050000*%
%ADD13C,0.150000*%
%ADD14C,0.254000*%
G04 APERTURE END LIST*
D10*
G04 #@! TO.C,R2*
X108112779Y-97665000D02*
X107787221Y-97665000D01*
X108112779Y-96645000D02*
X107787221Y-96645000D01*
G04 #@! TO.C,R3*
X130647221Y-97665000D02*
X130972779Y-97665000D01*
X130647221Y-96645000D02*
X130972779Y-96645000D01*
G04 #@! TO.C,R6*
X126875000Y-125952721D02*
X126875000Y-126278279D01*
X125855000Y-125952721D02*
X125855000Y-126278279D01*
G04 #@! TO.C,Q3*
X122430000Y-124785000D02*
X122430000Y-125715000D01*
X122430000Y-127945000D02*
X122430000Y-127015000D01*
X122430000Y-127945000D02*
X124590000Y-127945000D01*
X122430000Y-124785000D02*
X123890000Y-124785000D01*
D11*
G04 #@! TO.C,D5*
X115550000Y-134830000D02*
X115550000Y-137355000D01*
X114320000Y-135695000D02*
X114320000Y-137355000D01*
G04 #@! TO.C,D6*
X123170000Y-137355000D02*
X123170000Y-135695000D01*
X121940000Y-138220000D02*
X121940000Y-135695000D01*
D10*
G04 #@! TO.C,DS1*
X105825000Y-96195000D02*
X103140000Y-96195000D01*
X105825000Y-98115000D02*
X105825000Y-96195000D01*
X103140000Y-98115000D02*
X105825000Y-98115000D01*
G04 #@! TO.C,DS2*
X135620000Y-96195000D02*
X132935000Y-96195000D01*
X132935000Y-96195000D02*
X132935000Y-98115000D01*
X132935000Y-98115000D02*
X135620000Y-98115000D01*
G04 #@! TO.C,Q2*
X116060000Y-127625000D02*
X116060000Y-126695000D01*
X116060000Y-124465000D02*
X116060000Y-125395000D01*
X116060000Y-124465000D02*
X113900000Y-124465000D01*
X116060000Y-127625000D02*
X114600000Y-127625000D01*
G04 #@! TO.C,R5*
X111885000Y-125952721D02*
X111885000Y-126278279D01*
X112905000Y-125952721D02*
X112905000Y-126278279D01*
G04 #@! TO.C,J1*
X91380000Y-126425000D02*
X96580000Y-126425000D01*
X91380000Y-108585000D02*
X91380000Y-126425000D01*
X96580000Y-105985000D02*
X96580000Y-126425000D01*
X91380000Y-108585000D02*
X93980000Y-108585000D01*
X93980000Y-108585000D02*
X93980000Y-105985000D01*
X93980000Y-105985000D02*
X96580000Y-105985000D01*
X91380000Y-107315000D02*
X91380000Y-105985000D01*
X91380000Y-105985000D02*
X92710000Y-105985000D01*
G04 #@! TO.C,J2*
X142180000Y-105985000D02*
X143510000Y-105985000D01*
X142180000Y-107315000D02*
X142180000Y-105985000D01*
X144780000Y-105985000D02*
X147380000Y-105985000D01*
X144780000Y-108585000D02*
X144780000Y-105985000D01*
X142180000Y-108585000D02*
X144780000Y-108585000D01*
X147380000Y-105985000D02*
X147380000Y-126425000D01*
X142180000Y-108585000D02*
X142180000Y-126425000D01*
X142180000Y-126425000D02*
X147380000Y-126425000D01*
D12*
G04 #@! TO.C,TB1*
X76327000Y-146050000D02*
X76327000Y-128270000D01*
X76200000Y-146050000D02*
X76200000Y-143510000D01*
X90297000Y-146050000D02*
X76200000Y-146050000D01*
X90297000Y-146050000D02*
X90297000Y-143510000D01*
X90297000Y-133350000D02*
X76200000Y-133350000D01*
X90297000Y-138430000D02*
X76200000Y-138430000D01*
X90297000Y-128270000D02*
X90297000Y-143510000D01*
X76200000Y-128270000D02*
X90297000Y-128270000D01*
X76200000Y-143510000D02*
X76200000Y-128270000D01*
X90297000Y-143510000D02*
X76200000Y-143510000D01*
G04 #@! TO.C,TB2*
X148463000Y-128270000D02*
X162560000Y-128270000D01*
X162560000Y-128270000D02*
X162560000Y-143510000D01*
X162560000Y-143510000D02*
X148463000Y-143510000D01*
X148463000Y-143510000D02*
X148463000Y-128270000D01*
X148463000Y-133350000D02*
X162560000Y-133350000D01*
X148463000Y-138430000D02*
X162560000Y-138430000D01*
X148463000Y-125730000D02*
X148463000Y-128270000D01*
X148463000Y-125730000D02*
X162560000Y-125730000D01*
X162560000Y-125730000D02*
X162560000Y-128270000D01*
X162433000Y-125730000D02*
X162433000Y-143510000D01*
D13*
G04 #@! TO.C,U1*
X92273100Y-143394700D02*
X92273100Y-128394700D01*
X111273100Y-143394700D02*
X92273100Y-143394700D01*
X111273100Y-128394700D02*
X111273100Y-143394700D01*
X92273100Y-128394700D02*
X111273100Y-128394700D01*
X103773100Y-141894700D02*
X106273100Y-141894700D01*
X103773100Y-129894700D02*
X103773100Y-141894700D01*
X106273100Y-129894700D02*
X103773100Y-129894700D01*
G04 #@! TO.C,U2*
X132410700Y-141898000D02*
X134910700Y-141898000D01*
X134910700Y-141898000D02*
X134910700Y-129898000D01*
X134910700Y-129898000D02*
X132410700Y-129898000D01*
X146410700Y-143398000D02*
X127410700Y-143398000D01*
X127410700Y-143398000D02*
X127410700Y-128398000D01*
X127410700Y-128398000D02*
X146410700Y-128398000D01*
X146410700Y-128398000D02*
X146410700Y-143398000D01*
G04 #@! TO.C,U7*
X75438095Y-146772380D02*
X75438095Y-147581904D01*
X75485714Y-147677142D01*
X75533333Y-147724761D01*
X75628571Y-147772380D01*
X75819047Y-147772380D01*
X75914285Y-147724761D01*
X75961904Y-147677142D01*
X76009523Y-147581904D01*
X76009523Y-146772380D01*
X76390476Y-146772380D02*
X77057142Y-146772380D01*
X76628571Y-147772380D01*
G04 #@! TO.C,R2*
X107783333Y-96083380D02*
X107450000Y-95607190D01*
X107211904Y-96083380D02*
X107211904Y-95083380D01*
X107592857Y-95083380D01*
X107688095Y-95131000D01*
X107735714Y-95178619D01*
X107783333Y-95273857D01*
X107783333Y-95416714D01*
X107735714Y-95511952D01*
X107688095Y-95559571D01*
X107592857Y-95607190D01*
X107211904Y-95607190D01*
X108164285Y-95178619D02*
X108211904Y-95131000D01*
X108307142Y-95083380D01*
X108545238Y-95083380D01*
X108640476Y-95131000D01*
X108688095Y-95178619D01*
X108735714Y-95273857D01*
X108735714Y-95369095D01*
X108688095Y-95511952D01*
X108116666Y-96083380D01*
X108735714Y-96083380D01*
G04 #@! TO.C,FID1*
X113442857Y-143452857D02*
X113176190Y-143452857D01*
X113176190Y-143871904D02*
X113176190Y-143071904D01*
X113557142Y-143071904D01*
X113861904Y-143871904D02*
X113861904Y-143071904D01*
X114242857Y-143871904D02*
X114242857Y-143071904D01*
X114433333Y-143071904D01*
X114547619Y-143110000D01*
X114623809Y-143186190D01*
X114661904Y-143262380D01*
X114700000Y-143414761D01*
X114700000Y-143529047D01*
X114661904Y-143681428D01*
X114623809Y-143757619D01*
X114547619Y-143833809D01*
X114433333Y-143871904D01*
X114242857Y-143871904D01*
X115461904Y-143871904D02*
X115004761Y-143871904D01*
X115233333Y-143871904D02*
X115233333Y-143071904D01*
X115157142Y-143186190D01*
X115080952Y-143262380D01*
X115004761Y-143300476D01*
G04 #@! TO.C,FID2*
X124872857Y-97097857D02*
X124606190Y-97097857D01*
X124606190Y-97516904D02*
X124606190Y-96716904D01*
X124987142Y-96716904D01*
X125291904Y-97516904D02*
X125291904Y-96716904D01*
X125672857Y-97516904D02*
X125672857Y-96716904D01*
X125863333Y-96716904D01*
X125977619Y-96755000D01*
X126053809Y-96831190D01*
X126091904Y-96907380D01*
X126130000Y-97059761D01*
X126130000Y-97174047D01*
X126091904Y-97326428D01*
X126053809Y-97402619D01*
X125977619Y-97478809D01*
X125863333Y-97516904D01*
X125672857Y-97516904D01*
X126434761Y-96793095D02*
X126472857Y-96755000D01*
X126549047Y-96716904D01*
X126739523Y-96716904D01*
X126815714Y-96755000D01*
X126853809Y-96793095D01*
X126891904Y-96869285D01*
X126891904Y-96945476D01*
X126853809Y-97059761D01*
X126396666Y-97516904D01*
X126891904Y-97516904D01*
G04 #@! TO.C,H1*
X100838095Y-107894380D02*
X100838095Y-106894380D01*
X100838095Y-107370571D02*
X101409523Y-107370571D01*
X101409523Y-107894380D02*
X101409523Y-106894380D01*
X102409523Y-107894380D02*
X101838095Y-107894380D01*
X102123809Y-107894380D02*
X102123809Y-106894380D01*
X102028571Y-107037238D01*
X101933333Y-107132476D01*
X101838095Y-107180095D01*
G04 #@! TO.C,H2*
X136398095Y-108508379D02*
X136398095Y-107508379D01*
X136398095Y-107984570D02*
X136969523Y-107984570D01*
X136969523Y-108508379D02*
X136969523Y-107508379D01*
X137398095Y-107603618D02*
X137445714Y-107555999D01*
X137540952Y-107508379D01*
X137779047Y-107508379D01*
X137874285Y-107555999D01*
X137921904Y-107603618D01*
X137969523Y-107698856D01*
X137969523Y-107794094D01*
X137921904Y-107936951D01*
X137350476Y-108508379D01*
X137969523Y-108508379D01*
G04 #@! TO.C,H3*
X121941096Y-144216380D02*
X121941096Y-143216380D01*
X121941096Y-143692571D02*
X122512524Y-143692571D01*
X122512524Y-144216380D02*
X122512524Y-143216380D01*
X122893477Y-143216380D02*
X123512524Y-143216380D01*
X123179191Y-143597333D01*
X123322048Y-143597333D01*
X123417286Y-143644952D01*
X123464905Y-143692571D01*
X123512524Y-143787809D01*
X123512524Y-144025904D01*
X123464905Y-144121142D01*
X123417286Y-144168761D01*
X123322048Y-144216380D01*
X123036334Y-144216380D01*
X122941096Y-144168761D01*
X122893477Y-144121142D01*
G04 #@! TO.C,R3*
X130643333Y-96177380D02*
X130310000Y-95701190D01*
X130071904Y-96177380D02*
X130071904Y-95177380D01*
X130452857Y-95177380D01*
X130548095Y-95225000D01*
X130595714Y-95272619D01*
X130643333Y-95367857D01*
X130643333Y-95510714D01*
X130595714Y-95605952D01*
X130548095Y-95653571D01*
X130452857Y-95701190D01*
X130071904Y-95701190D01*
X130976666Y-95177380D02*
X131595714Y-95177380D01*
X131262380Y-95558333D01*
X131405238Y-95558333D01*
X131500476Y-95605952D01*
X131548095Y-95653571D01*
X131595714Y-95748809D01*
X131595714Y-95986904D01*
X131548095Y-96082142D01*
X131500476Y-96129761D01*
X131405238Y-96177380D01*
X131119523Y-96177380D01*
X131024285Y-96129761D01*
X130976666Y-96082142D01*
G04 #@! TO.C,R6*
X126817380Y-123356666D02*
X126341190Y-123690000D01*
X126817380Y-123928095D02*
X125817380Y-123928095D01*
X125817380Y-123547142D01*
X125865000Y-123451904D01*
X125912619Y-123404285D01*
X126007857Y-123356666D01*
X126150714Y-123356666D01*
X126245952Y-123404285D01*
X126293571Y-123451904D01*
X126341190Y-123547142D01*
X126341190Y-123928095D01*
X125817380Y-122499523D02*
X125817380Y-122690000D01*
X125865000Y-122785238D01*
X125912619Y-122832857D01*
X126055476Y-122928095D01*
X126245952Y-122975714D01*
X126626904Y-122975714D01*
X126722142Y-122928095D01*
X126769761Y-122880476D01*
X126817380Y-122785238D01*
X126817380Y-122594761D01*
X126769761Y-122499523D01*
X126722142Y-122451904D01*
X126626904Y-122404285D01*
X126388809Y-122404285D01*
X126293571Y-122451904D01*
X126245952Y-122499523D01*
X126198333Y-122594761D01*
X126198333Y-122785238D01*
X126245952Y-122880476D01*
X126293571Y-122928095D01*
X126388809Y-122975714D01*
G04 #@! TO.C,Q3*
X123094761Y-129452619D02*
X122999523Y-129405000D01*
X122904285Y-129309761D01*
X122761428Y-129166904D01*
X122666190Y-129119285D01*
X122570952Y-129119285D01*
X122618571Y-129357380D02*
X122523333Y-129309761D01*
X122428095Y-129214523D01*
X122380476Y-129024047D01*
X122380476Y-128690714D01*
X122428095Y-128500238D01*
X122523333Y-128405000D01*
X122618571Y-128357380D01*
X122809047Y-128357380D01*
X122904285Y-128405000D01*
X122999523Y-128500238D01*
X123047142Y-128690714D01*
X123047142Y-129024047D01*
X122999523Y-129214523D01*
X122904285Y-129309761D01*
X122809047Y-129357380D01*
X122618571Y-129357380D01*
X123380476Y-128357380D02*
X123999523Y-128357380D01*
X123666190Y-128738333D01*
X123809047Y-128738333D01*
X123904285Y-128785952D01*
X123951904Y-128833571D01*
X123999523Y-128928809D01*
X123999523Y-129166904D01*
X123951904Y-129262142D01*
X123904285Y-129309761D01*
X123809047Y-129357380D01*
X123523333Y-129357380D01*
X123428095Y-129309761D01*
X123380476Y-129262142D01*
G04 #@! TO.C,D5*
D14*
X117414523Y-137462380D02*
X116144523Y-137462380D01*
X116144523Y-137160000D01*
X116205000Y-136978571D01*
X116325952Y-136857619D01*
X116446904Y-136797142D01*
X116688809Y-136736666D01*
X116870238Y-136736666D01*
X117112142Y-136797142D01*
X117233095Y-136857619D01*
X117354047Y-136978571D01*
X117414523Y-137160000D01*
X117414523Y-137462380D01*
X116144523Y-135587619D02*
X116144523Y-136192380D01*
X116749285Y-136252857D01*
X116688809Y-136192380D01*
X116628333Y-136071428D01*
X116628333Y-135769047D01*
X116688809Y-135648095D01*
X116749285Y-135587619D01*
X116870238Y-135527142D01*
X117172619Y-135527142D01*
X117293571Y-135587619D01*
X117354047Y-135648095D01*
X117414523Y-135769047D01*
X117414523Y-136071428D01*
X117354047Y-136192380D01*
X117293571Y-136252857D01*
G04 #@! TO.C,D6*
X121224523Y-137462380D02*
X119954523Y-137462380D01*
X119954523Y-137160000D01*
X120015000Y-136978571D01*
X120135952Y-136857619D01*
X120256904Y-136797142D01*
X120498809Y-136736666D01*
X120680238Y-136736666D01*
X120922142Y-136797142D01*
X121043095Y-136857619D01*
X121164047Y-136978571D01*
X121224523Y-137160000D01*
X121224523Y-137462380D01*
X119954523Y-135648095D02*
X119954523Y-135890000D01*
X120015000Y-136010952D01*
X120075476Y-136071428D01*
X120256904Y-136192380D01*
X120498809Y-136252857D01*
X120982619Y-136252857D01*
X121103571Y-136192380D01*
X121164047Y-136131904D01*
X121224523Y-136010952D01*
X121224523Y-135769047D01*
X121164047Y-135648095D01*
X121103571Y-135587619D01*
X120982619Y-135527142D01*
X120680238Y-135527142D01*
X120559285Y-135587619D01*
X120498809Y-135648095D01*
X120438333Y-135769047D01*
X120438333Y-136010952D01*
X120498809Y-136131904D01*
X120559285Y-136192380D01*
X120680238Y-136252857D01*
G04 #@! TO.C,DS1*
D13*
X102925714Y-95892880D02*
X102925714Y-94892880D01*
X103163809Y-94892880D01*
X103306666Y-94940500D01*
X103401904Y-95035738D01*
X103449523Y-95130976D01*
X103497142Y-95321452D01*
X103497142Y-95464309D01*
X103449523Y-95654785D01*
X103401904Y-95750023D01*
X103306666Y-95845261D01*
X103163809Y-95892880D01*
X102925714Y-95892880D01*
X103878095Y-95845261D02*
X104020952Y-95892880D01*
X104259047Y-95892880D01*
X104354285Y-95845261D01*
X104401904Y-95797642D01*
X104449523Y-95702404D01*
X104449523Y-95607166D01*
X104401904Y-95511928D01*
X104354285Y-95464309D01*
X104259047Y-95416690D01*
X104068571Y-95369071D01*
X103973333Y-95321452D01*
X103925714Y-95273833D01*
X103878095Y-95178595D01*
X103878095Y-95083357D01*
X103925714Y-94988119D01*
X103973333Y-94940500D01*
X104068571Y-94892880D01*
X104306666Y-94892880D01*
X104449523Y-94940500D01*
X105401904Y-95892880D02*
X104830476Y-95892880D01*
X105116190Y-95892880D02*
X105116190Y-94892880D01*
X105020952Y-95035738D01*
X104925714Y-95130976D01*
X104830476Y-95178595D01*
G04 #@! TO.C,DS2*
X133405714Y-95957380D02*
X133405714Y-94957380D01*
X133643809Y-94957380D01*
X133786666Y-95005000D01*
X133881904Y-95100238D01*
X133929523Y-95195476D01*
X133977142Y-95385952D01*
X133977142Y-95528809D01*
X133929523Y-95719285D01*
X133881904Y-95814523D01*
X133786666Y-95909761D01*
X133643809Y-95957380D01*
X133405714Y-95957380D01*
X134358095Y-95909761D02*
X134500952Y-95957380D01*
X134739047Y-95957380D01*
X134834285Y-95909761D01*
X134881904Y-95862142D01*
X134929523Y-95766904D01*
X134929523Y-95671666D01*
X134881904Y-95576428D01*
X134834285Y-95528809D01*
X134739047Y-95481190D01*
X134548571Y-95433571D01*
X134453333Y-95385952D01*
X134405714Y-95338333D01*
X134358095Y-95243095D01*
X134358095Y-95147857D01*
X134405714Y-95052619D01*
X134453333Y-95005000D01*
X134548571Y-94957380D01*
X134786666Y-94957380D01*
X134929523Y-95005000D01*
X135310476Y-95052619D02*
X135358095Y-95005000D01*
X135453333Y-94957380D01*
X135691428Y-94957380D01*
X135786666Y-95005000D01*
X135834285Y-95052619D01*
X135881904Y-95147857D01*
X135881904Y-95243095D01*
X135834285Y-95385952D01*
X135262857Y-95957380D01*
X135881904Y-95957380D01*
G04 #@! TO.C,Q2*
X115204761Y-124092619D02*
X115109523Y-124045000D01*
X115014285Y-123949761D01*
X114871428Y-123806904D01*
X114776190Y-123759285D01*
X114680952Y-123759285D01*
X114728571Y-123997380D02*
X114633333Y-123949761D01*
X114538095Y-123854523D01*
X114490476Y-123664047D01*
X114490476Y-123330714D01*
X114538095Y-123140238D01*
X114633333Y-123045000D01*
X114728571Y-122997380D01*
X114919047Y-122997380D01*
X115014285Y-123045000D01*
X115109523Y-123140238D01*
X115157142Y-123330714D01*
X115157142Y-123664047D01*
X115109523Y-123854523D01*
X115014285Y-123949761D01*
X114919047Y-123997380D01*
X114728571Y-123997380D01*
X115538095Y-123092619D02*
X115585714Y-123045000D01*
X115680952Y-122997380D01*
X115919047Y-122997380D01*
X116014285Y-123045000D01*
X116061904Y-123092619D01*
X116109523Y-123187857D01*
X116109523Y-123283095D01*
X116061904Y-123425952D01*
X115490476Y-123997380D01*
X116109523Y-123997380D01*
G04 #@! TO.C,R5*
X112847380Y-123356666D02*
X112371190Y-123690000D01*
X112847380Y-123928095D02*
X111847380Y-123928095D01*
X111847380Y-123547142D01*
X111895000Y-123451904D01*
X111942619Y-123404285D01*
X112037857Y-123356666D01*
X112180714Y-123356666D01*
X112275952Y-123404285D01*
X112323571Y-123451904D01*
X112371190Y-123547142D01*
X112371190Y-123928095D01*
X111847380Y-122451904D02*
X111847380Y-122928095D01*
X112323571Y-122975714D01*
X112275952Y-122928095D01*
X112228333Y-122832857D01*
X112228333Y-122594761D01*
X112275952Y-122499523D01*
X112323571Y-122451904D01*
X112418809Y-122404285D01*
X112656904Y-122404285D01*
X112752142Y-122451904D01*
X112799761Y-122499523D01*
X112847380Y-122594761D01*
X112847380Y-122832857D01*
X112799761Y-122928095D01*
X112752142Y-122975714D01*
G04 #@! TO.C,U7*
X75438095Y-146772380D02*
X75438095Y-147581904D01*
X75485714Y-147677142D01*
X75533333Y-147724761D01*
X75628571Y-147772380D01*
X75819047Y-147772380D01*
X75914285Y-147724761D01*
X75961904Y-147677142D01*
X76009523Y-147581904D01*
X76009523Y-146772380D01*
X76390476Y-146772380D02*
X77057142Y-146772380D01*
X76628571Y-147772380D01*
G04 #@! TO.C,JP1*
X106799166Y-109815380D02*
X106799166Y-110529666D01*
X106751547Y-110672523D01*
X106656309Y-110767761D01*
X106513452Y-110815380D01*
X106418214Y-110815380D01*
X107275357Y-110815380D02*
X107275357Y-109815380D01*
X107656309Y-109815380D01*
X107751547Y-109863000D01*
X107799166Y-109910619D01*
X107846785Y-110005857D01*
X107846785Y-110148714D01*
X107799166Y-110243952D01*
X107751547Y-110291571D01*
X107656309Y-110339190D01*
X107275357Y-110339190D01*
X108799166Y-110815380D02*
X108227738Y-110815380D01*
X108513452Y-110815380D02*
X108513452Y-109815380D01*
X108418214Y-109958238D01*
X108322976Y-110053476D01*
X108227738Y-110101095D01*
G04 #@! TO.C,JP2*
X130992666Y-109815380D02*
X130992666Y-110529666D01*
X130945047Y-110672523D01*
X130849809Y-110767761D01*
X130706952Y-110815380D01*
X130611714Y-110815380D01*
X131468857Y-110815380D02*
X131468857Y-109815380D01*
X131849809Y-109815380D01*
X131945047Y-109863000D01*
X131992666Y-109910619D01*
X132040285Y-110005857D01*
X132040285Y-110148714D01*
X131992666Y-110243952D01*
X131945047Y-110291571D01*
X131849809Y-110339190D01*
X131468857Y-110339190D01*
X132421238Y-109910619D02*
X132468857Y-109863000D01*
X132564095Y-109815380D01*
X132802190Y-109815380D01*
X132897428Y-109863000D01*
X132945047Y-109910619D01*
X132992666Y-110005857D01*
X132992666Y-110101095D01*
X132945047Y-110243952D01*
X132373619Y-110815380D01*
X132992666Y-110815380D01*
G04 #@! TO.C,J1*
X93646666Y-127087380D02*
X93646666Y-127801666D01*
X93599047Y-127944523D01*
X93503809Y-128039761D01*
X93360952Y-128087380D01*
X93265714Y-128087380D01*
X94646666Y-128087380D02*
X94075238Y-128087380D01*
X94360952Y-128087380D02*
X94360952Y-127087380D01*
X94265714Y-127230238D01*
X94170476Y-127325476D01*
X94075238Y-127373095D01*
G04 #@! TO.C,J2*
X144573666Y-127087380D02*
X144573666Y-127801666D01*
X144526047Y-127944523D01*
X144430809Y-128039761D01*
X144287952Y-128087380D01*
X144192714Y-128087380D01*
X145002238Y-127182619D02*
X145049857Y-127135000D01*
X145145095Y-127087380D01*
X145383190Y-127087380D01*
X145478428Y-127135000D01*
X145526047Y-127182619D01*
X145573666Y-127277857D01*
X145573666Y-127373095D01*
X145526047Y-127515952D01*
X144954619Y-128087380D01*
X145573666Y-128087380D01*
G04 #@! TO.C,TB1*
X83383595Y-144232380D02*
X83955023Y-144232380D01*
X83669309Y-145232380D02*
X83669309Y-144232380D01*
X84621690Y-144708571D02*
X84764547Y-144756190D01*
X84812166Y-144803809D01*
X84859785Y-144899047D01*
X84859785Y-145041904D01*
X84812166Y-145137142D01*
X84764547Y-145184761D01*
X84669309Y-145232380D01*
X84288357Y-145232380D01*
X84288357Y-144232380D01*
X84621690Y-144232380D01*
X84716928Y-144280000D01*
X84764547Y-144327619D01*
X84812166Y-144422857D01*
X84812166Y-144518095D01*
X84764547Y-144613333D01*
X84716928Y-144660952D01*
X84621690Y-144708571D01*
X84288357Y-144708571D01*
X85812166Y-145232380D02*
X85240738Y-145232380D01*
X85526452Y-145232380D02*
X85526452Y-144232380D01*
X85431214Y-144375238D01*
X85335976Y-144470476D01*
X85240738Y-144518095D01*
G04 #@! TO.C,TB2*
X153487595Y-144232380D02*
X154059023Y-144232380D01*
X153773309Y-145232380D02*
X153773309Y-144232380D01*
X154725690Y-144708571D02*
X154868547Y-144756190D01*
X154916166Y-144803809D01*
X154963785Y-144899047D01*
X154963785Y-145041904D01*
X154916166Y-145137142D01*
X154868547Y-145184761D01*
X154773309Y-145232380D01*
X154392357Y-145232380D01*
X154392357Y-144232380D01*
X154725690Y-144232380D01*
X154820928Y-144280000D01*
X154868547Y-144327619D01*
X154916166Y-144422857D01*
X154916166Y-144518095D01*
X154868547Y-144613333D01*
X154820928Y-144660952D01*
X154725690Y-144708571D01*
X154392357Y-144708571D01*
X155344738Y-144327619D02*
X155392357Y-144280000D01*
X155487595Y-144232380D01*
X155725690Y-144232380D01*
X155820928Y-144280000D01*
X155868547Y-144327619D01*
X155916166Y-144422857D01*
X155916166Y-144518095D01*
X155868547Y-144660952D01*
X155297119Y-145232380D01*
X155916166Y-145232380D01*
G04 #@! TO.C,U1*
X102011195Y-126847080D02*
X102011195Y-127656604D01*
X102058814Y-127751842D01*
X102106433Y-127799461D01*
X102201671Y-127847080D01*
X102392147Y-127847080D01*
X102487385Y-127799461D01*
X102535004Y-127751842D01*
X102582623Y-127656604D01*
X102582623Y-126847080D01*
X103582623Y-127847080D02*
X103011195Y-127847080D01*
X103296909Y-127847080D02*
X103296909Y-126847080D01*
X103201671Y-126989938D01*
X103106433Y-127085176D01*
X103011195Y-127132795D01*
X90725480Y-139061366D02*
X90725480Y-138442319D01*
X91106433Y-138775652D01*
X91106433Y-138632795D01*
X91154052Y-138537557D01*
X91201671Y-138489938D01*
X91296909Y-138442319D01*
X91535004Y-138442319D01*
X91630242Y-138489938D01*
X91677861Y-138537557D01*
X91725480Y-138632795D01*
X91725480Y-138918509D01*
X91677861Y-139013747D01*
X91630242Y-139061366D01*
X90725480Y-138156604D02*
X91725480Y-137823271D01*
X90725480Y-137489938D01*
X91725480Y-135823271D02*
X91249290Y-136156604D01*
X91725480Y-136394700D02*
X90725480Y-136394700D01*
X90725480Y-136013747D01*
X90773100Y-135918509D01*
X90820719Y-135870890D01*
X90915957Y-135823271D01*
X91058814Y-135823271D01*
X91154052Y-135870890D01*
X91201671Y-135918509D01*
X91249290Y-136013747D01*
X91249290Y-136394700D01*
X91677861Y-135013747D02*
X91725480Y-135108985D01*
X91725480Y-135299461D01*
X91677861Y-135394700D01*
X91582623Y-135442319D01*
X91201671Y-135442319D01*
X91106433Y-135394700D01*
X91058814Y-135299461D01*
X91058814Y-135108985D01*
X91106433Y-135013747D01*
X91201671Y-134966128D01*
X91296909Y-134966128D01*
X91392147Y-135442319D01*
X91725480Y-134394700D02*
X91677861Y-134489938D01*
X91582623Y-134537557D01*
X90725480Y-134537557D01*
X91725480Y-133585176D02*
X91201671Y-133585176D01*
X91106433Y-133632795D01*
X91058814Y-133728033D01*
X91058814Y-133918509D01*
X91106433Y-134013747D01*
X91677861Y-133585176D02*
X91725480Y-133680414D01*
X91725480Y-133918509D01*
X91677861Y-134013747D01*
X91582623Y-134061366D01*
X91487385Y-134061366D01*
X91392147Y-134013747D01*
X91344528Y-133918509D01*
X91344528Y-133680414D01*
X91296909Y-133585176D01*
X91058814Y-133204223D02*
X91725480Y-132966128D01*
X91058814Y-132728033D02*
X91725480Y-132966128D01*
X91963576Y-133061366D01*
X92011195Y-133108985D01*
X92058814Y-133204223D01*
X103177861Y-136394700D02*
X103225480Y-136461366D01*
X103225480Y-136594700D01*
X103177861Y-136661366D01*
X103130242Y-136694700D01*
X103035004Y-136728033D01*
X102749290Y-136728033D01*
X102654052Y-136694700D01*
X102606433Y-136661366D01*
X102558814Y-136594700D01*
X102558814Y-136461366D01*
X102606433Y-136394700D01*
X103225480Y-135994700D02*
X103177861Y-136061366D01*
X103130242Y-136094700D01*
X103035004Y-136128033D01*
X102749290Y-136128033D01*
X102654052Y-136094700D01*
X102606433Y-136061366D01*
X102558814Y-135994700D01*
X102558814Y-135894700D01*
X102606433Y-135828033D01*
X102654052Y-135794700D01*
X102749290Y-135761366D01*
X103035004Y-135761366D01*
X103130242Y-135794700D01*
X103177861Y-135828033D01*
X103225480Y-135894700D01*
X103225480Y-135994700D01*
X103225480Y-135461366D02*
X102558814Y-135461366D01*
X102225480Y-135461366D02*
X102273100Y-135494700D01*
X102320719Y-135461366D01*
X102273100Y-135428033D01*
X102225480Y-135461366D01*
X102320719Y-135461366D01*
X103225480Y-135028033D02*
X103177861Y-135094700D01*
X103082623Y-135128033D01*
X102225480Y-135128033D01*
X108177861Y-137611366D02*
X108225480Y-137678033D01*
X108225480Y-137811366D01*
X108177861Y-137878033D01*
X108130242Y-137911366D01*
X108035004Y-137944700D01*
X107749290Y-137944700D01*
X107654052Y-137911366D01*
X107606433Y-137878033D01*
X107558814Y-137811366D01*
X107558814Y-137678033D01*
X107606433Y-137611366D01*
X108225480Y-137211366D02*
X108177861Y-137278033D01*
X108130242Y-137311366D01*
X108035004Y-137344700D01*
X107749290Y-137344700D01*
X107654052Y-137311366D01*
X107606433Y-137278033D01*
X107558814Y-137211366D01*
X107558814Y-137111366D01*
X107606433Y-137044700D01*
X107654052Y-137011366D01*
X107749290Y-136978033D01*
X108035004Y-136978033D01*
X108130242Y-137011366D01*
X108177861Y-137044700D01*
X108225480Y-137111366D01*
X108225480Y-137211366D01*
X108225480Y-136678033D02*
X107558814Y-136678033D01*
X107654052Y-136678033D02*
X107606433Y-136644700D01*
X107558814Y-136578033D01*
X107558814Y-136478033D01*
X107606433Y-136411366D01*
X107701671Y-136378033D01*
X108225480Y-136378033D01*
X107701671Y-136378033D02*
X107606433Y-136344700D01*
X107558814Y-136278033D01*
X107558814Y-136178033D01*
X107606433Y-136111366D01*
X107701671Y-136078033D01*
X108225480Y-136078033D01*
X108225480Y-135744700D02*
X107558814Y-135744700D01*
X107654052Y-135744700D02*
X107606433Y-135711366D01*
X107558814Y-135644700D01*
X107558814Y-135544700D01*
X107606433Y-135478033D01*
X107701671Y-135444700D01*
X108225480Y-135444700D01*
X107701671Y-135444700D02*
X107606433Y-135411366D01*
X107558814Y-135344700D01*
X107558814Y-135244700D01*
X107606433Y-135178033D01*
X107701671Y-135144700D01*
X108225480Y-135144700D01*
X108225480Y-134711366D02*
X108177861Y-134778033D01*
X108130242Y-134811366D01*
X108035004Y-134844700D01*
X107749290Y-134844700D01*
X107654052Y-134811366D01*
X107606433Y-134778033D01*
X107558814Y-134711366D01*
X107558814Y-134611366D01*
X107606433Y-134544700D01*
X107654052Y-134511366D01*
X107749290Y-134478033D01*
X108035004Y-134478033D01*
X108130242Y-134511366D01*
X108177861Y-134544700D01*
X108225480Y-134611366D01*
X108225480Y-134711366D01*
X107558814Y-134178033D02*
X108225480Y-134178033D01*
X107654052Y-134178033D02*
X107606433Y-134144700D01*
X107558814Y-134078033D01*
X107558814Y-133978033D01*
X107606433Y-133911366D01*
X107701671Y-133878033D01*
X108225480Y-133878033D01*
X97225480Y-142378033D02*
X97177861Y-142444700D01*
X97130242Y-142478033D01*
X97035004Y-142511366D01*
X96749290Y-142511366D01*
X96654052Y-142478033D01*
X96606433Y-142444700D01*
X96558814Y-142378033D01*
X96558814Y-142278033D01*
X96606433Y-142211366D01*
X96654052Y-142178033D01*
X96749290Y-142144700D01*
X97035004Y-142144700D01*
X97130242Y-142178033D01*
X97177861Y-142211366D01*
X97225480Y-142278033D01*
X97225480Y-142378033D01*
X96558814Y-141844700D02*
X97558814Y-141844700D01*
X96606433Y-141844700D02*
X96558814Y-141778033D01*
X96558814Y-141644700D01*
X96606433Y-141578033D01*
X96654052Y-141544700D01*
X96749290Y-141511366D01*
X97035004Y-141511366D01*
X97130242Y-141544700D01*
X97177861Y-141578033D01*
X97225480Y-141644700D01*
X97225480Y-141778033D01*
X97177861Y-141844700D01*
X97177861Y-140944700D02*
X97225480Y-141011366D01*
X97225480Y-141144700D01*
X97177861Y-141211366D01*
X97082623Y-141244700D01*
X96701671Y-141244700D01*
X96606433Y-141211366D01*
X96558814Y-141144700D01*
X96558814Y-141011366D01*
X96606433Y-140944700D01*
X96701671Y-140911366D01*
X96796909Y-140911366D01*
X96892147Y-141244700D01*
X96558814Y-140611366D02*
X97225480Y-140611366D01*
X96654052Y-140611366D02*
X96606433Y-140578033D01*
X96558814Y-140511366D01*
X96558814Y-140411366D01*
X96606433Y-140344700D01*
X96701671Y-140311366D01*
X97225480Y-140311366D01*
X97177861Y-131811366D02*
X97225480Y-131878033D01*
X97225480Y-132011366D01*
X97177861Y-132078033D01*
X97130242Y-132111366D01*
X97035004Y-132144700D01*
X96749290Y-132144700D01*
X96654052Y-132111366D01*
X96606433Y-132078033D01*
X96558814Y-132011366D01*
X96558814Y-131878033D01*
X96606433Y-131811366D01*
X97225480Y-131411366D02*
X97177861Y-131478033D01*
X97082623Y-131511366D01*
X96225480Y-131511366D01*
X97225480Y-131044700D02*
X97177861Y-131111366D01*
X97130242Y-131144700D01*
X97035004Y-131178033D01*
X96749290Y-131178033D01*
X96654052Y-131144700D01*
X96606433Y-131111366D01*
X96558814Y-131044700D01*
X96558814Y-130944700D01*
X96606433Y-130878033D01*
X96654052Y-130844700D01*
X96749290Y-130811366D01*
X97035004Y-130811366D01*
X97130242Y-130844700D01*
X97177861Y-130878033D01*
X97225480Y-130944700D01*
X97225480Y-131044700D01*
X97177861Y-130544700D02*
X97225480Y-130478033D01*
X97225480Y-130344700D01*
X97177861Y-130278033D01*
X97082623Y-130244700D01*
X97035004Y-130244700D01*
X96939766Y-130278033D01*
X96892147Y-130344700D01*
X96892147Y-130444700D01*
X96844528Y-130511366D01*
X96749290Y-130544700D01*
X96701671Y-130544700D01*
X96606433Y-130511366D01*
X96558814Y-130444700D01*
X96558814Y-130344700D01*
X96606433Y-130278033D01*
X97177861Y-129678033D02*
X97225480Y-129744700D01*
X97225480Y-129878033D01*
X97177861Y-129944700D01*
X97082623Y-129978033D01*
X96701671Y-129978033D01*
X96606433Y-129944700D01*
X96558814Y-129878033D01*
X96558814Y-129744700D01*
X96606433Y-129678033D01*
X96701671Y-129644700D01*
X96796909Y-129644700D01*
X96892147Y-129978033D01*
G04 #@! TO.C,U2*
X135148795Y-143850380D02*
X135148795Y-144659904D01*
X135196414Y-144755142D01*
X135244033Y-144802761D01*
X135339271Y-144850380D01*
X135529747Y-144850380D01*
X135624985Y-144802761D01*
X135672604Y-144755142D01*
X135720223Y-144659904D01*
X135720223Y-143850380D01*
X136148795Y-143945619D02*
X136196414Y-143898000D01*
X136291652Y-143850380D01*
X136529747Y-143850380D01*
X136624985Y-143898000D01*
X136672604Y-143945619D01*
X136720223Y-144040857D01*
X136720223Y-144136095D01*
X136672604Y-144278952D01*
X136101176Y-144850380D01*
X136720223Y-144850380D01*
X142315461Y-141814666D02*
X142363080Y-141881333D01*
X142363080Y-142014666D01*
X142315461Y-142081333D01*
X142267842Y-142114666D01*
X142172604Y-142148000D01*
X141886890Y-142148000D01*
X141791652Y-142114666D01*
X141744033Y-142081333D01*
X141696414Y-142014666D01*
X141696414Y-141881333D01*
X141744033Y-141814666D01*
X142363080Y-141414666D02*
X142315461Y-141481333D01*
X142220223Y-141514666D01*
X141363080Y-141514666D01*
X142363080Y-141048000D02*
X142315461Y-141114666D01*
X142267842Y-141148000D01*
X142172604Y-141181333D01*
X141886890Y-141181333D01*
X141791652Y-141148000D01*
X141744033Y-141114666D01*
X141696414Y-141048000D01*
X141696414Y-140948000D01*
X141744033Y-140881333D01*
X141791652Y-140848000D01*
X141886890Y-140814666D01*
X142172604Y-140814666D01*
X142267842Y-140848000D01*
X142315461Y-140881333D01*
X142363080Y-140948000D01*
X142363080Y-141048000D01*
X142315461Y-140548000D02*
X142363080Y-140481333D01*
X142363080Y-140348000D01*
X142315461Y-140281333D01*
X142220223Y-140248000D01*
X142172604Y-140248000D01*
X142077366Y-140281333D01*
X142029747Y-140348000D01*
X142029747Y-140448000D01*
X141982128Y-140514666D01*
X141886890Y-140548000D01*
X141839271Y-140548000D01*
X141744033Y-140514666D01*
X141696414Y-140448000D01*
X141696414Y-140348000D01*
X141744033Y-140281333D01*
X142315461Y-139681333D02*
X142363080Y-139748000D01*
X142363080Y-139881333D01*
X142315461Y-139948000D01*
X142220223Y-139981333D01*
X141839271Y-139981333D01*
X141744033Y-139948000D01*
X141696414Y-139881333D01*
X141696414Y-139748000D01*
X141744033Y-139681333D01*
X141839271Y-139648000D01*
X141934509Y-139648000D01*
X142029747Y-139981333D01*
X142363080Y-131381333D02*
X142315461Y-131448000D01*
X142267842Y-131481333D01*
X142172604Y-131514666D01*
X141886890Y-131514666D01*
X141791652Y-131481333D01*
X141744033Y-131448000D01*
X141696414Y-131381333D01*
X141696414Y-131281333D01*
X141744033Y-131214666D01*
X141791652Y-131181333D01*
X141886890Y-131148000D01*
X142172604Y-131148000D01*
X142267842Y-131181333D01*
X142315461Y-131214666D01*
X142363080Y-131281333D01*
X142363080Y-131381333D01*
X141696414Y-130848000D02*
X142696414Y-130848000D01*
X141744033Y-130848000D02*
X141696414Y-130781333D01*
X141696414Y-130648000D01*
X141744033Y-130581333D01*
X141791652Y-130548000D01*
X141886890Y-130514666D01*
X142172604Y-130514666D01*
X142267842Y-130548000D01*
X142315461Y-130581333D01*
X142363080Y-130648000D01*
X142363080Y-130781333D01*
X142315461Y-130848000D01*
X142315461Y-129948000D02*
X142363080Y-130014666D01*
X142363080Y-130148000D01*
X142315461Y-130214666D01*
X142220223Y-130248000D01*
X141839271Y-130248000D01*
X141744033Y-130214666D01*
X141696414Y-130148000D01*
X141696414Y-130014666D01*
X141744033Y-129948000D01*
X141839271Y-129914666D01*
X141934509Y-129914666D01*
X142029747Y-130248000D01*
X141696414Y-129614666D02*
X142363080Y-129614666D01*
X141791652Y-129614666D02*
X141744033Y-129581333D01*
X141696414Y-129514666D01*
X141696414Y-129414666D01*
X141744033Y-129348000D01*
X141839271Y-129314666D01*
X142363080Y-129314666D01*
X131315461Y-137614666D02*
X131363080Y-137681333D01*
X131363080Y-137814666D01*
X131315461Y-137881333D01*
X131267842Y-137914666D01*
X131172604Y-137948000D01*
X130886890Y-137948000D01*
X130791652Y-137914666D01*
X130744033Y-137881333D01*
X130696414Y-137814666D01*
X130696414Y-137681333D01*
X130744033Y-137614666D01*
X131363080Y-137214666D02*
X131315461Y-137281333D01*
X131267842Y-137314666D01*
X131172604Y-137348000D01*
X130886890Y-137348000D01*
X130791652Y-137314666D01*
X130744033Y-137281333D01*
X130696414Y-137214666D01*
X130696414Y-137114666D01*
X130744033Y-137048000D01*
X130791652Y-137014666D01*
X130886890Y-136981333D01*
X131172604Y-136981333D01*
X131267842Y-137014666D01*
X131315461Y-137048000D01*
X131363080Y-137114666D01*
X131363080Y-137214666D01*
X131363080Y-136681333D02*
X130696414Y-136681333D01*
X130791652Y-136681333D02*
X130744033Y-136648000D01*
X130696414Y-136581333D01*
X130696414Y-136481333D01*
X130744033Y-136414666D01*
X130839271Y-136381333D01*
X131363080Y-136381333D01*
X130839271Y-136381333D02*
X130744033Y-136348000D01*
X130696414Y-136281333D01*
X130696414Y-136181333D01*
X130744033Y-136114666D01*
X130839271Y-136081333D01*
X131363080Y-136081333D01*
X131363080Y-135748000D02*
X130696414Y-135748000D01*
X130791652Y-135748000D02*
X130744033Y-135714666D01*
X130696414Y-135648000D01*
X130696414Y-135548000D01*
X130744033Y-135481333D01*
X130839271Y-135448000D01*
X131363080Y-135448000D01*
X130839271Y-135448000D02*
X130744033Y-135414666D01*
X130696414Y-135348000D01*
X130696414Y-135248000D01*
X130744033Y-135181333D01*
X130839271Y-135148000D01*
X131363080Y-135148000D01*
X131363080Y-134714666D02*
X131315461Y-134781333D01*
X131267842Y-134814666D01*
X131172604Y-134848000D01*
X130886890Y-134848000D01*
X130791652Y-134814666D01*
X130744033Y-134781333D01*
X130696414Y-134714666D01*
X130696414Y-134614666D01*
X130744033Y-134548000D01*
X130791652Y-134514666D01*
X130886890Y-134481333D01*
X131172604Y-134481333D01*
X131267842Y-134514666D01*
X131315461Y-134548000D01*
X131363080Y-134614666D01*
X131363080Y-134714666D01*
X130696414Y-134181333D02*
X131363080Y-134181333D01*
X130791652Y-134181333D02*
X130744033Y-134148000D01*
X130696414Y-134081333D01*
X130696414Y-133981333D01*
X130744033Y-133914666D01*
X130839271Y-133881333D01*
X131363080Y-133881333D01*
X136315461Y-136398000D02*
X136363080Y-136464666D01*
X136363080Y-136598000D01*
X136315461Y-136664666D01*
X136267842Y-136698000D01*
X136172604Y-136731333D01*
X135886890Y-136731333D01*
X135791652Y-136698000D01*
X135744033Y-136664666D01*
X135696414Y-136598000D01*
X135696414Y-136464666D01*
X135744033Y-136398000D01*
X136363080Y-135998000D02*
X136315461Y-136064666D01*
X136267842Y-136098000D01*
X136172604Y-136131333D01*
X135886890Y-136131333D01*
X135791652Y-136098000D01*
X135744033Y-136064666D01*
X135696414Y-135998000D01*
X135696414Y-135898000D01*
X135744033Y-135831333D01*
X135791652Y-135798000D01*
X135886890Y-135764666D01*
X136172604Y-135764666D01*
X136267842Y-135798000D01*
X136315461Y-135831333D01*
X136363080Y-135898000D01*
X136363080Y-135998000D01*
X136363080Y-135464666D02*
X135696414Y-135464666D01*
X135363080Y-135464666D02*
X135410700Y-135498000D01*
X135458319Y-135464666D01*
X135410700Y-135431333D01*
X135363080Y-135464666D01*
X135458319Y-135464666D01*
X136363080Y-135031333D02*
X136315461Y-135098000D01*
X136220223Y-135131333D01*
X135363080Y-135131333D01*
X146863080Y-139064666D02*
X146863080Y-138445619D01*
X147244033Y-138778952D01*
X147244033Y-138636095D01*
X147291652Y-138540857D01*
X147339271Y-138493238D01*
X147434509Y-138445619D01*
X147672604Y-138445619D01*
X147767842Y-138493238D01*
X147815461Y-138540857D01*
X147863080Y-138636095D01*
X147863080Y-138921809D01*
X147815461Y-139017047D01*
X147767842Y-139064666D01*
X146863080Y-138159904D02*
X147863080Y-137826571D01*
X146863080Y-137493238D01*
X147863080Y-135826571D02*
X147386890Y-136159904D01*
X147863080Y-136398000D02*
X146863080Y-136398000D01*
X146863080Y-136017047D01*
X146910700Y-135921809D01*
X146958319Y-135874190D01*
X147053557Y-135826571D01*
X147196414Y-135826571D01*
X147291652Y-135874190D01*
X147339271Y-135921809D01*
X147386890Y-136017047D01*
X147386890Y-136398000D01*
X147815461Y-135017047D02*
X147863080Y-135112285D01*
X147863080Y-135302761D01*
X147815461Y-135398000D01*
X147720223Y-135445619D01*
X147339271Y-135445619D01*
X147244033Y-135398000D01*
X147196414Y-135302761D01*
X147196414Y-135112285D01*
X147244033Y-135017047D01*
X147339271Y-134969428D01*
X147434509Y-134969428D01*
X147529747Y-135445619D01*
X147863080Y-134398000D02*
X147815461Y-134493238D01*
X147720223Y-134540857D01*
X146863080Y-134540857D01*
X147863080Y-133588476D02*
X147339271Y-133588476D01*
X147244033Y-133636095D01*
X147196414Y-133731333D01*
X147196414Y-133921809D01*
X147244033Y-134017047D01*
X147815461Y-133588476D02*
X147863080Y-133683714D01*
X147863080Y-133921809D01*
X147815461Y-134017047D01*
X147720223Y-134064666D01*
X147624985Y-134064666D01*
X147529747Y-134017047D01*
X147482128Y-133921809D01*
X147482128Y-133683714D01*
X147434509Y-133588476D01*
X147196414Y-133207523D02*
X147863080Y-132969428D01*
X147196414Y-132731333D02*
X147863080Y-132969428D01*
X148101176Y-133064666D01*
X148148795Y-133112285D01*
X148196414Y-133207523D01*
G04 #@! TD*
M02*
