G04 #@! TF.GenerationSoftware,KiCad,Pcbnew,(5.0.2)-1*
G04 #@! TF.CreationDate,2019-12-16T12:52:27+02:00*
G04 #@! TF.ProjectId,2-relay-over-io,322d7265-6c61-4792-9d6f-7665722d696f,rev?*
G04 #@! TF.SameCoordinates,Original*
G04 #@! TF.FileFunction,Copper,L1,Top*
G04 #@! TF.FilePolarity,Positive*
%FSLAX46Y46*%
G04 Gerber Fmt 4.6, Leading zero omitted, Abs format (unit mm)*
G04 Created by KiCad (PCBNEW (5.0.2)-1) date 16.12.2019 12:52:27*
%MOMM*%
%LPD*%
G01*
G04 APERTURE LIST*
G04 #@! TA.AperFunction,Conductor*
%ADD10C,0.100000*%
G04 #@! TD*
G04 #@! TA.AperFunction,SMDPad,CuDef*
%ADD11C,0.875000*%
G04 #@! TD*
G04 #@! TA.AperFunction,BGAPad,CuDef*
%ADD12C,1.500000*%
G04 #@! TD*
G04 #@! TA.AperFunction,ComponentPad*
%ADD13C,3.800000*%
G04 #@! TD*
G04 #@! TA.AperFunction,SMDPad,CuDef*
%ADD14R,0.900000X0.800000*%
G04 #@! TD*
G04 #@! TA.AperFunction,SMDPad,CuDef*
%ADD15R,0.550000X1.110000*%
G04 #@! TD*
G04 #@! TA.AperFunction,SMDPad,CuDef*
%ADD16C,0.975000*%
G04 #@! TD*
G04 #@! TA.AperFunction,ComponentPad*
%ADD17C,2.540000*%
G04 #@! TD*
G04 #@! TA.AperFunction,ComponentPad*
%ADD18R,1.350000X1.350000*%
G04 #@! TD*
G04 #@! TA.AperFunction,ComponentPad*
%ADD19O,1.350000X1.350000*%
G04 #@! TD*
G04 #@! TA.AperFunction,ComponentPad*
%ADD20C,2.200000*%
G04 #@! TD*
G04 #@! TA.AperFunction,ComponentPad*
%ADD21O,1.700000X1.700000*%
G04 #@! TD*
G04 #@! TA.AperFunction,ComponentPad*
%ADD22R,1.700000X1.700000*%
G04 #@! TD*
G04 #@! TA.AperFunction,ViaPad*
%ADD23C,0.800000*%
G04 #@! TD*
G04 #@! TA.AperFunction,Conductor*
%ADD24C,0.508000*%
G04 #@! TD*
G04 #@! TA.AperFunction,Conductor*
%ADD25C,0.310000*%
G04 #@! TD*
G04 #@! TA.AperFunction,Conductor*
%ADD26C,3.000000*%
G04 #@! TD*
G04 APERTURE END LIST*
D10*
G04 #@! TO.N,Net-(D5-Pad2)*
G04 #@! TO.C,R2*
G36*
X111517691Y-96681053D02*
X111538926Y-96684203D01*
X111559750Y-96689419D01*
X111579962Y-96696651D01*
X111599368Y-96705830D01*
X111617781Y-96716866D01*
X111635024Y-96729654D01*
X111650930Y-96744070D01*
X111665346Y-96759976D01*
X111678134Y-96777219D01*
X111689170Y-96795632D01*
X111698349Y-96815038D01*
X111705581Y-96835250D01*
X111710797Y-96856074D01*
X111713947Y-96877309D01*
X111715000Y-96898750D01*
X111715000Y-97411250D01*
X111713947Y-97432691D01*
X111710797Y-97453926D01*
X111705581Y-97474750D01*
X111698349Y-97494962D01*
X111689170Y-97514368D01*
X111678134Y-97532781D01*
X111665346Y-97550024D01*
X111650930Y-97565930D01*
X111635024Y-97580346D01*
X111617781Y-97593134D01*
X111599368Y-97604170D01*
X111579962Y-97613349D01*
X111559750Y-97620581D01*
X111538926Y-97625797D01*
X111517691Y-97628947D01*
X111496250Y-97630000D01*
X111058750Y-97630000D01*
X111037309Y-97628947D01*
X111016074Y-97625797D01*
X110995250Y-97620581D01*
X110975038Y-97613349D01*
X110955632Y-97604170D01*
X110937219Y-97593134D01*
X110919976Y-97580346D01*
X110904070Y-97565930D01*
X110889654Y-97550024D01*
X110876866Y-97532781D01*
X110865830Y-97514368D01*
X110856651Y-97494962D01*
X110849419Y-97474750D01*
X110844203Y-97453926D01*
X110841053Y-97432691D01*
X110840000Y-97411250D01*
X110840000Y-96898750D01*
X110841053Y-96877309D01*
X110844203Y-96856074D01*
X110849419Y-96835250D01*
X110856651Y-96815038D01*
X110865830Y-96795632D01*
X110876866Y-96777219D01*
X110889654Y-96759976D01*
X110904070Y-96744070D01*
X110919976Y-96729654D01*
X110937219Y-96716866D01*
X110955632Y-96705830D01*
X110975038Y-96696651D01*
X110995250Y-96689419D01*
X111016074Y-96684203D01*
X111037309Y-96681053D01*
X111058750Y-96680000D01*
X111496250Y-96680000D01*
X111517691Y-96681053D01*
X111517691Y-96681053D01*
G37*
D11*
G04 #@! TD*
G04 #@! TO.P,R2,1*
G04 #@! TO.N,Net-(D5-Pad2)*
X111277500Y-97155000D03*
D10*
G04 #@! TO.N,Net-(DS1-Pad1)*
G04 #@! TO.C,R2*
G36*
X109942691Y-96681053D02*
X109963926Y-96684203D01*
X109984750Y-96689419D01*
X110004962Y-96696651D01*
X110024368Y-96705830D01*
X110042781Y-96716866D01*
X110060024Y-96729654D01*
X110075930Y-96744070D01*
X110090346Y-96759976D01*
X110103134Y-96777219D01*
X110114170Y-96795632D01*
X110123349Y-96815038D01*
X110130581Y-96835250D01*
X110135797Y-96856074D01*
X110138947Y-96877309D01*
X110140000Y-96898750D01*
X110140000Y-97411250D01*
X110138947Y-97432691D01*
X110135797Y-97453926D01*
X110130581Y-97474750D01*
X110123349Y-97494962D01*
X110114170Y-97514368D01*
X110103134Y-97532781D01*
X110090346Y-97550024D01*
X110075930Y-97565930D01*
X110060024Y-97580346D01*
X110042781Y-97593134D01*
X110024368Y-97604170D01*
X110004962Y-97613349D01*
X109984750Y-97620581D01*
X109963926Y-97625797D01*
X109942691Y-97628947D01*
X109921250Y-97630000D01*
X109483750Y-97630000D01*
X109462309Y-97628947D01*
X109441074Y-97625797D01*
X109420250Y-97620581D01*
X109400038Y-97613349D01*
X109380632Y-97604170D01*
X109362219Y-97593134D01*
X109344976Y-97580346D01*
X109329070Y-97565930D01*
X109314654Y-97550024D01*
X109301866Y-97532781D01*
X109290830Y-97514368D01*
X109281651Y-97494962D01*
X109274419Y-97474750D01*
X109269203Y-97453926D01*
X109266053Y-97432691D01*
X109265000Y-97411250D01*
X109265000Y-96898750D01*
X109266053Y-96877309D01*
X109269203Y-96856074D01*
X109274419Y-96835250D01*
X109281651Y-96815038D01*
X109290830Y-96795632D01*
X109301866Y-96777219D01*
X109314654Y-96759976D01*
X109329070Y-96744070D01*
X109344976Y-96729654D01*
X109362219Y-96716866D01*
X109380632Y-96705830D01*
X109400038Y-96696651D01*
X109420250Y-96689419D01*
X109441074Y-96684203D01*
X109462309Y-96681053D01*
X109483750Y-96680000D01*
X109921250Y-96680000D01*
X109942691Y-96681053D01*
X109942691Y-96681053D01*
G37*
D11*
G04 #@! TD*
G04 #@! TO.P,R2,2*
G04 #@! TO.N,Net-(DS1-Pad1)*
X109702500Y-97155000D03*
D12*
G04 #@! TO.P,FID1,1*
G04 #@! TO.N,N/C*
X83566000Y-143764000D03*
G04 #@! TD*
G04 #@! TO.P,FID2,1*
G04 #@! TO.N,N/C*
X137160000Y-98933000D03*
G04 #@! TD*
D13*
G04 #@! TO.P,H1,1*
G04 #@! TO.N,N/C*
X101600000Y-104775000D03*
G04 #@! TD*
G04 #@! TO.P,H2,1*
G04 #@! TO.N,N/C*
X137160000Y-104775000D03*
G04 #@! TD*
G04 #@! TO.P,H3,1*
G04 #@! TO.N,N/C*
X119380000Y-143510000D03*
G04 #@! TD*
D10*
G04 #@! TO.N,Net-(DS2-Pad1)*
G04 #@! TO.C,R3*
G36*
X129297691Y-96681053D02*
X129318926Y-96684203D01*
X129339750Y-96689419D01*
X129359962Y-96696651D01*
X129379368Y-96705830D01*
X129397781Y-96716866D01*
X129415024Y-96729654D01*
X129430930Y-96744070D01*
X129445346Y-96759976D01*
X129458134Y-96777219D01*
X129469170Y-96795632D01*
X129478349Y-96815038D01*
X129485581Y-96835250D01*
X129490797Y-96856074D01*
X129493947Y-96877309D01*
X129495000Y-96898750D01*
X129495000Y-97411250D01*
X129493947Y-97432691D01*
X129490797Y-97453926D01*
X129485581Y-97474750D01*
X129478349Y-97494962D01*
X129469170Y-97514368D01*
X129458134Y-97532781D01*
X129445346Y-97550024D01*
X129430930Y-97565930D01*
X129415024Y-97580346D01*
X129397781Y-97593134D01*
X129379368Y-97604170D01*
X129359962Y-97613349D01*
X129339750Y-97620581D01*
X129318926Y-97625797D01*
X129297691Y-97628947D01*
X129276250Y-97630000D01*
X128838750Y-97630000D01*
X128817309Y-97628947D01*
X128796074Y-97625797D01*
X128775250Y-97620581D01*
X128755038Y-97613349D01*
X128735632Y-97604170D01*
X128717219Y-97593134D01*
X128699976Y-97580346D01*
X128684070Y-97565930D01*
X128669654Y-97550024D01*
X128656866Y-97532781D01*
X128645830Y-97514368D01*
X128636651Y-97494962D01*
X128629419Y-97474750D01*
X128624203Y-97453926D01*
X128621053Y-97432691D01*
X128620000Y-97411250D01*
X128620000Y-96898750D01*
X128621053Y-96877309D01*
X128624203Y-96856074D01*
X128629419Y-96835250D01*
X128636651Y-96815038D01*
X128645830Y-96795632D01*
X128656866Y-96777219D01*
X128669654Y-96759976D01*
X128684070Y-96744070D01*
X128699976Y-96729654D01*
X128717219Y-96716866D01*
X128735632Y-96705830D01*
X128755038Y-96696651D01*
X128775250Y-96689419D01*
X128796074Y-96684203D01*
X128817309Y-96681053D01*
X128838750Y-96680000D01*
X129276250Y-96680000D01*
X129297691Y-96681053D01*
X129297691Y-96681053D01*
G37*
D11*
G04 #@! TD*
G04 #@! TO.P,R3,2*
G04 #@! TO.N,Net-(DS2-Pad1)*
X129057500Y-97155000D03*
D10*
G04 #@! TO.N,Net-(D6-Pad2)*
G04 #@! TO.C,R3*
G36*
X127722691Y-96681053D02*
X127743926Y-96684203D01*
X127764750Y-96689419D01*
X127784962Y-96696651D01*
X127804368Y-96705830D01*
X127822781Y-96716866D01*
X127840024Y-96729654D01*
X127855930Y-96744070D01*
X127870346Y-96759976D01*
X127883134Y-96777219D01*
X127894170Y-96795632D01*
X127903349Y-96815038D01*
X127910581Y-96835250D01*
X127915797Y-96856074D01*
X127918947Y-96877309D01*
X127920000Y-96898750D01*
X127920000Y-97411250D01*
X127918947Y-97432691D01*
X127915797Y-97453926D01*
X127910581Y-97474750D01*
X127903349Y-97494962D01*
X127894170Y-97514368D01*
X127883134Y-97532781D01*
X127870346Y-97550024D01*
X127855930Y-97565930D01*
X127840024Y-97580346D01*
X127822781Y-97593134D01*
X127804368Y-97604170D01*
X127784962Y-97613349D01*
X127764750Y-97620581D01*
X127743926Y-97625797D01*
X127722691Y-97628947D01*
X127701250Y-97630000D01*
X127263750Y-97630000D01*
X127242309Y-97628947D01*
X127221074Y-97625797D01*
X127200250Y-97620581D01*
X127180038Y-97613349D01*
X127160632Y-97604170D01*
X127142219Y-97593134D01*
X127124976Y-97580346D01*
X127109070Y-97565930D01*
X127094654Y-97550024D01*
X127081866Y-97532781D01*
X127070830Y-97514368D01*
X127061651Y-97494962D01*
X127054419Y-97474750D01*
X127049203Y-97453926D01*
X127046053Y-97432691D01*
X127045000Y-97411250D01*
X127045000Y-96898750D01*
X127046053Y-96877309D01*
X127049203Y-96856074D01*
X127054419Y-96835250D01*
X127061651Y-96815038D01*
X127070830Y-96795632D01*
X127081866Y-96777219D01*
X127094654Y-96759976D01*
X127109070Y-96744070D01*
X127124976Y-96729654D01*
X127142219Y-96716866D01*
X127160632Y-96705830D01*
X127180038Y-96696651D01*
X127200250Y-96689419D01*
X127221074Y-96684203D01*
X127242309Y-96681053D01*
X127263750Y-96680000D01*
X127701250Y-96680000D01*
X127722691Y-96681053D01*
X127722691Y-96681053D01*
G37*
D11*
G04 #@! TD*
G04 #@! TO.P,R3,1*
G04 #@! TO.N,Net-(D6-Pad2)*
X127482500Y-97155000D03*
D10*
G04 #@! TO.N,RELAY2_CTR*
G04 #@! TO.C,R6*
G36*
X126642691Y-124891553D02*
X126663926Y-124894703D01*
X126684750Y-124899919D01*
X126704962Y-124907151D01*
X126724368Y-124916330D01*
X126742781Y-124927366D01*
X126760024Y-124940154D01*
X126775930Y-124954570D01*
X126790346Y-124970476D01*
X126803134Y-124987719D01*
X126814170Y-125006132D01*
X126823349Y-125025538D01*
X126830581Y-125045750D01*
X126835797Y-125066574D01*
X126838947Y-125087809D01*
X126840000Y-125109250D01*
X126840000Y-125546750D01*
X126838947Y-125568191D01*
X126835797Y-125589426D01*
X126830581Y-125610250D01*
X126823349Y-125630462D01*
X126814170Y-125649868D01*
X126803134Y-125668281D01*
X126790346Y-125685524D01*
X126775930Y-125701430D01*
X126760024Y-125715846D01*
X126742781Y-125728634D01*
X126724368Y-125739670D01*
X126704962Y-125748849D01*
X126684750Y-125756081D01*
X126663926Y-125761297D01*
X126642691Y-125764447D01*
X126621250Y-125765500D01*
X126108750Y-125765500D01*
X126087309Y-125764447D01*
X126066074Y-125761297D01*
X126045250Y-125756081D01*
X126025038Y-125748849D01*
X126005632Y-125739670D01*
X125987219Y-125728634D01*
X125969976Y-125715846D01*
X125954070Y-125701430D01*
X125939654Y-125685524D01*
X125926866Y-125668281D01*
X125915830Y-125649868D01*
X125906651Y-125630462D01*
X125899419Y-125610250D01*
X125894203Y-125589426D01*
X125891053Y-125568191D01*
X125890000Y-125546750D01*
X125890000Y-125109250D01*
X125891053Y-125087809D01*
X125894203Y-125066574D01*
X125899419Y-125045750D01*
X125906651Y-125025538D01*
X125915830Y-125006132D01*
X125926866Y-124987719D01*
X125939654Y-124970476D01*
X125954070Y-124954570D01*
X125969976Y-124940154D01*
X125987219Y-124927366D01*
X126005632Y-124916330D01*
X126025038Y-124907151D01*
X126045250Y-124899919D01*
X126066074Y-124894703D01*
X126087309Y-124891553D01*
X126108750Y-124890500D01*
X126621250Y-124890500D01*
X126642691Y-124891553D01*
X126642691Y-124891553D01*
G37*
D11*
G04 #@! TD*
G04 #@! TO.P,R6,1*
G04 #@! TO.N,RELAY2_CTR*
X126365000Y-125328000D03*
D10*
G04 #@! TO.N,Net-(Q3-Pad1)*
G04 #@! TO.C,R6*
G36*
X126642691Y-126466553D02*
X126663926Y-126469703D01*
X126684750Y-126474919D01*
X126704962Y-126482151D01*
X126724368Y-126491330D01*
X126742781Y-126502366D01*
X126760024Y-126515154D01*
X126775930Y-126529570D01*
X126790346Y-126545476D01*
X126803134Y-126562719D01*
X126814170Y-126581132D01*
X126823349Y-126600538D01*
X126830581Y-126620750D01*
X126835797Y-126641574D01*
X126838947Y-126662809D01*
X126840000Y-126684250D01*
X126840000Y-127121750D01*
X126838947Y-127143191D01*
X126835797Y-127164426D01*
X126830581Y-127185250D01*
X126823349Y-127205462D01*
X126814170Y-127224868D01*
X126803134Y-127243281D01*
X126790346Y-127260524D01*
X126775930Y-127276430D01*
X126760024Y-127290846D01*
X126742781Y-127303634D01*
X126724368Y-127314670D01*
X126704962Y-127323849D01*
X126684750Y-127331081D01*
X126663926Y-127336297D01*
X126642691Y-127339447D01*
X126621250Y-127340500D01*
X126108750Y-127340500D01*
X126087309Y-127339447D01*
X126066074Y-127336297D01*
X126045250Y-127331081D01*
X126025038Y-127323849D01*
X126005632Y-127314670D01*
X125987219Y-127303634D01*
X125969976Y-127290846D01*
X125954070Y-127276430D01*
X125939654Y-127260524D01*
X125926866Y-127243281D01*
X125915830Y-127224868D01*
X125906651Y-127205462D01*
X125899419Y-127185250D01*
X125894203Y-127164426D01*
X125891053Y-127143191D01*
X125890000Y-127121750D01*
X125890000Y-126684250D01*
X125891053Y-126662809D01*
X125894203Y-126641574D01*
X125899419Y-126620750D01*
X125906651Y-126600538D01*
X125915830Y-126581132D01*
X125926866Y-126562719D01*
X125939654Y-126545476D01*
X125954070Y-126529570D01*
X125969976Y-126515154D01*
X125987219Y-126502366D01*
X126005632Y-126491330D01*
X126025038Y-126482151D01*
X126045250Y-126474919D01*
X126066074Y-126469703D01*
X126087309Y-126466553D01*
X126108750Y-126465500D01*
X126621250Y-126465500D01*
X126642691Y-126466553D01*
X126642691Y-126466553D01*
G37*
D11*
G04 #@! TD*
G04 #@! TO.P,R6,2*
G04 #@! TO.N,Net-(Q3-Pad1)*
X126365000Y-126903000D03*
D14*
G04 #@! TO.P,Q3,1*
G04 #@! TO.N,Net-(Q3-Pad1)*
X124190000Y-127315000D03*
G04 #@! TO.P,Q3,2*
G04 #@! TO.N,GND*
X124190000Y-125415000D03*
G04 #@! TO.P,Q3,3*
G04 #@! TO.N,Net-(D6-Pad2)*
X122190000Y-126365000D03*
G04 #@! TD*
D15*
G04 #@! TO.P,D5,1*
G04 #@! TO.N,EXT_5V*
X114935000Y-133480000D03*
G04 #@! TO.P,D5,2*
G04 #@! TO.N,Net-(D5-Pad2)*
X114935000Y-135760000D03*
G04 #@! TD*
G04 #@! TO.P,D6,2*
G04 #@! TO.N,Net-(D6-Pad2)*
X122555000Y-133480000D03*
G04 #@! TO.P,D6,1*
G04 #@! TO.N,EXT_5V*
X122555000Y-135760000D03*
G04 #@! TD*
D10*
G04 #@! TO.N,EXT_5V*
G04 #@! TO.C,DS1*
G36*
X106010142Y-96456174D02*
X106033803Y-96459684D01*
X106057007Y-96465496D01*
X106079529Y-96473554D01*
X106101153Y-96483782D01*
X106121670Y-96496079D01*
X106140883Y-96510329D01*
X106158607Y-96526393D01*
X106174671Y-96544117D01*
X106188921Y-96563330D01*
X106201218Y-96583847D01*
X106211446Y-96605471D01*
X106219504Y-96627993D01*
X106225316Y-96651197D01*
X106228826Y-96674858D01*
X106230000Y-96698750D01*
X106230000Y-97611250D01*
X106228826Y-97635142D01*
X106225316Y-97658803D01*
X106219504Y-97682007D01*
X106211446Y-97704529D01*
X106201218Y-97726153D01*
X106188921Y-97746670D01*
X106174671Y-97765883D01*
X106158607Y-97783607D01*
X106140883Y-97799671D01*
X106121670Y-97813921D01*
X106101153Y-97826218D01*
X106079529Y-97836446D01*
X106057007Y-97844504D01*
X106033803Y-97850316D01*
X106010142Y-97853826D01*
X105986250Y-97855000D01*
X105498750Y-97855000D01*
X105474858Y-97853826D01*
X105451197Y-97850316D01*
X105427993Y-97844504D01*
X105405471Y-97836446D01*
X105383847Y-97826218D01*
X105363330Y-97813921D01*
X105344117Y-97799671D01*
X105326393Y-97783607D01*
X105310329Y-97765883D01*
X105296079Y-97746670D01*
X105283782Y-97726153D01*
X105273554Y-97704529D01*
X105265496Y-97682007D01*
X105259684Y-97658803D01*
X105256174Y-97635142D01*
X105255000Y-97611250D01*
X105255000Y-96698750D01*
X105256174Y-96674858D01*
X105259684Y-96651197D01*
X105265496Y-96627993D01*
X105273554Y-96605471D01*
X105283782Y-96583847D01*
X105296079Y-96563330D01*
X105310329Y-96544117D01*
X105326393Y-96526393D01*
X105344117Y-96510329D01*
X105363330Y-96496079D01*
X105383847Y-96483782D01*
X105405471Y-96473554D01*
X105427993Y-96465496D01*
X105451197Y-96459684D01*
X105474858Y-96456174D01*
X105498750Y-96455000D01*
X105986250Y-96455000D01*
X106010142Y-96456174D01*
X106010142Y-96456174D01*
G37*
D16*
G04 #@! TD*
G04 #@! TO.P,DS1,2*
G04 #@! TO.N,EXT_5V*
X105742500Y-97155000D03*
D10*
G04 #@! TO.N,Net-(DS1-Pad1)*
G04 #@! TO.C,DS1*
G36*
X107885142Y-96456174D02*
X107908803Y-96459684D01*
X107932007Y-96465496D01*
X107954529Y-96473554D01*
X107976153Y-96483782D01*
X107996670Y-96496079D01*
X108015883Y-96510329D01*
X108033607Y-96526393D01*
X108049671Y-96544117D01*
X108063921Y-96563330D01*
X108076218Y-96583847D01*
X108086446Y-96605471D01*
X108094504Y-96627993D01*
X108100316Y-96651197D01*
X108103826Y-96674858D01*
X108105000Y-96698750D01*
X108105000Y-97611250D01*
X108103826Y-97635142D01*
X108100316Y-97658803D01*
X108094504Y-97682007D01*
X108086446Y-97704529D01*
X108076218Y-97726153D01*
X108063921Y-97746670D01*
X108049671Y-97765883D01*
X108033607Y-97783607D01*
X108015883Y-97799671D01*
X107996670Y-97813921D01*
X107976153Y-97826218D01*
X107954529Y-97836446D01*
X107932007Y-97844504D01*
X107908803Y-97850316D01*
X107885142Y-97853826D01*
X107861250Y-97855000D01*
X107373750Y-97855000D01*
X107349858Y-97853826D01*
X107326197Y-97850316D01*
X107302993Y-97844504D01*
X107280471Y-97836446D01*
X107258847Y-97826218D01*
X107238330Y-97813921D01*
X107219117Y-97799671D01*
X107201393Y-97783607D01*
X107185329Y-97765883D01*
X107171079Y-97746670D01*
X107158782Y-97726153D01*
X107148554Y-97704529D01*
X107140496Y-97682007D01*
X107134684Y-97658803D01*
X107131174Y-97635142D01*
X107130000Y-97611250D01*
X107130000Y-96698750D01*
X107131174Y-96674858D01*
X107134684Y-96651197D01*
X107140496Y-96627993D01*
X107148554Y-96605471D01*
X107158782Y-96583847D01*
X107171079Y-96563330D01*
X107185329Y-96544117D01*
X107201393Y-96526393D01*
X107219117Y-96510329D01*
X107238330Y-96496079D01*
X107258847Y-96483782D01*
X107280471Y-96473554D01*
X107302993Y-96465496D01*
X107326197Y-96459684D01*
X107349858Y-96456174D01*
X107373750Y-96455000D01*
X107861250Y-96455000D01*
X107885142Y-96456174D01*
X107885142Y-96456174D01*
G37*
D16*
G04 #@! TD*
G04 #@! TO.P,DS1,1*
G04 #@! TO.N,Net-(DS1-Pad1)*
X107617500Y-97155000D03*
D10*
G04 #@! TO.N,Net-(DS2-Pad1)*
G04 #@! TO.C,DS2*
G36*
X131410142Y-96456174D02*
X131433803Y-96459684D01*
X131457007Y-96465496D01*
X131479529Y-96473554D01*
X131501153Y-96483782D01*
X131521670Y-96496079D01*
X131540883Y-96510329D01*
X131558607Y-96526393D01*
X131574671Y-96544117D01*
X131588921Y-96563330D01*
X131601218Y-96583847D01*
X131611446Y-96605471D01*
X131619504Y-96627993D01*
X131625316Y-96651197D01*
X131628826Y-96674858D01*
X131630000Y-96698750D01*
X131630000Y-97611250D01*
X131628826Y-97635142D01*
X131625316Y-97658803D01*
X131619504Y-97682007D01*
X131611446Y-97704529D01*
X131601218Y-97726153D01*
X131588921Y-97746670D01*
X131574671Y-97765883D01*
X131558607Y-97783607D01*
X131540883Y-97799671D01*
X131521670Y-97813921D01*
X131501153Y-97826218D01*
X131479529Y-97836446D01*
X131457007Y-97844504D01*
X131433803Y-97850316D01*
X131410142Y-97853826D01*
X131386250Y-97855000D01*
X130898750Y-97855000D01*
X130874858Y-97853826D01*
X130851197Y-97850316D01*
X130827993Y-97844504D01*
X130805471Y-97836446D01*
X130783847Y-97826218D01*
X130763330Y-97813921D01*
X130744117Y-97799671D01*
X130726393Y-97783607D01*
X130710329Y-97765883D01*
X130696079Y-97746670D01*
X130683782Y-97726153D01*
X130673554Y-97704529D01*
X130665496Y-97682007D01*
X130659684Y-97658803D01*
X130656174Y-97635142D01*
X130655000Y-97611250D01*
X130655000Y-96698750D01*
X130656174Y-96674858D01*
X130659684Y-96651197D01*
X130665496Y-96627993D01*
X130673554Y-96605471D01*
X130683782Y-96583847D01*
X130696079Y-96563330D01*
X130710329Y-96544117D01*
X130726393Y-96526393D01*
X130744117Y-96510329D01*
X130763330Y-96496079D01*
X130783847Y-96483782D01*
X130805471Y-96473554D01*
X130827993Y-96465496D01*
X130851197Y-96459684D01*
X130874858Y-96456174D01*
X130898750Y-96455000D01*
X131386250Y-96455000D01*
X131410142Y-96456174D01*
X131410142Y-96456174D01*
G37*
D16*
G04 #@! TD*
G04 #@! TO.P,DS2,1*
G04 #@! TO.N,Net-(DS2-Pad1)*
X131142500Y-97155000D03*
D10*
G04 #@! TO.N,EXT_5V*
G04 #@! TO.C,DS2*
G36*
X133285142Y-96456174D02*
X133308803Y-96459684D01*
X133332007Y-96465496D01*
X133354529Y-96473554D01*
X133376153Y-96483782D01*
X133396670Y-96496079D01*
X133415883Y-96510329D01*
X133433607Y-96526393D01*
X133449671Y-96544117D01*
X133463921Y-96563330D01*
X133476218Y-96583847D01*
X133486446Y-96605471D01*
X133494504Y-96627993D01*
X133500316Y-96651197D01*
X133503826Y-96674858D01*
X133505000Y-96698750D01*
X133505000Y-97611250D01*
X133503826Y-97635142D01*
X133500316Y-97658803D01*
X133494504Y-97682007D01*
X133486446Y-97704529D01*
X133476218Y-97726153D01*
X133463921Y-97746670D01*
X133449671Y-97765883D01*
X133433607Y-97783607D01*
X133415883Y-97799671D01*
X133396670Y-97813921D01*
X133376153Y-97826218D01*
X133354529Y-97836446D01*
X133332007Y-97844504D01*
X133308803Y-97850316D01*
X133285142Y-97853826D01*
X133261250Y-97855000D01*
X132773750Y-97855000D01*
X132749858Y-97853826D01*
X132726197Y-97850316D01*
X132702993Y-97844504D01*
X132680471Y-97836446D01*
X132658847Y-97826218D01*
X132638330Y-97813921D01*
X132619117Y-97799671D01*
X132601393Y-97783607D01*
X132585329Y-97765883D01*
X132571079Y-97746670D01*
X132558782Y-97726153D01*
X132548554Y-97704529D01*
X132540496Y-97682007D01*
X132534684Y-97658803D01*
X132531174Y-97635142D01*
X132530000Y-97611250D01*
X132530000Y-96698750D01*
X132531174Y-96674858D01*
X132534684Y-96651197D01*
X132540496Y-96627993D01*
X132548554Y-96605471D01*
X132558782Y-96583847D01*
X132571079Y-96563330D01*
X132585329Y-96544117D01*
X132601393Y-96526393D01*
X132619117Y-96510329D01*
X132638330Y-96496079D01*
X132658847Y-96483782D01*
X132680471Y-96473554D01*
X132702993Y-96465496D01*
X132726197Y-96459684D01*
X132749858Y-96456174D01*
X132773750Y-96455000D01*
X133261250Y-96455000D01*
X133285142Y-96456174D01*
X133285142Y-96456174D01*
G37*
D16*
G04 #@! TD*
G04 #@! TO.P,DS2,2*
G04 #@! TO.N,EXT_5V*
X133017500Y-97155000D03*
D14*
G04 #@! TO.P,Q2,1*
G04 #@! TO.N,Net-(Q2-Pad1)*
X114300000Y-125095000D03*
G04 #@! TO.P,Q2,2*
G04 #@! TO.N,GND*
X114300000Y-126995000D03*
G04 #@! TO.P,Q2,3*
G04 #@! TO.N,Net-(D5-Pad2)*
X116300000Y-126045000D03*
G04 #@! TD*
D10*
G04 #@! TO.N,Net-(Q2-Pad1)*
G04 #@! TO.C,R5*
G36*
X112672691Y-126466553D02*
X112693926Y-126469703D01*
X112714750Y-126474919D01*
X112734962Y-126482151D01*
X112754368Y-126491330D01*
X112772781Y-126502366D01*
X112790024Y-126515154D01*
X112805930Y-126529570D01*
X112820346Y-126545476D01*
X112833134Y-126562719D01*
X112844170Y-126581132D01*
X112853349Y-126600538D01*
X112860581Y-126620750D01*
X112865797Y-126641574D01*
X112868947Y-126662809D01*
X112870000Y-126684250D01*
X112870000Y-127121750D01*
X112868947Y-127143191D01*
X112865797Y-127164426D01*
X112860581Y-127185250D01*
X112853349Y-127205462D01*
X112844170Y-127224868D01*
X112833134Y-127243281D01*
X112820346Y-127260524D01*
X112805930Y-127276430D01*
X112790024Y-127290846D01*
X112772781Y-127303634D01*
X112754368Y-127314670D01*
X112734962Y-127323849D01*
X112714750Y-127331081D01*
X112693926Y-127336297D01*
X112672691Y-127339447D01*
X112651250Y-127340500D01*
X112138750Y-127340500D01*
X112117309Y-127339447D01*
X112096074Y-127336297D01*
X112075250Y-127331081D01*
X112055038Y-127323849D01*
X112035632Y-127314670D01*
X112017219Y-127303634D01*
X111999976Y-127290846D01*
X111984070Y-127276430D01*
X111969654Y-127260524D01*
X111956866Y-127243281D01*
X111945830Y-127224868D01*
X111936651Y-127205462D01*
X111929419Y-127185250D01*
X111924203Y-127164426D01*
X111921053Y-127143191D01*
X111920000Y-127121750D01*
X111920000Y-126684250D01*
X111921053Y-126662809D01*
X111924203Y-126641574D01*
X111929419Y-126620750D01*
X111936651Y-126600538D01*
X111945830Y-126581132D01*
X111956866Y-126562719D01*
X111969654Y-126545476D01*
X111984070Y-126529570D01*
X111999976Y-126515154D01*
X112017219Y-126502366D01*
X112035632Y-126491330D01*
X112055038Y-126482151D01*
X112075250Y-126474919D01*
X112096074Y-126469703D01*
X112117309Y-126466553D01*
X112138750Y-126465500D01*
X112651250Y-126465500D01*
X112672691Y-126466553D01*
X112672691Y-126466553D01*
G37*
D11*
G04 #@! TD*
G04 #@! TO.P,R5,2*
G04 #@! TO.N,Net-(Q2-Pad1)*
X112395000Y-126903000D03*
D10*
G04 #@! TO.N,RELAY1_CTR*
G04 #@! TO.C,R5*
G36*
X112672691Y-124891553D02*
X112693926Y-124894703D01*
X112714750Y-124899919D01*
X112734962Y-124907151D01*
X112754368Y-124916330D01*
X112772781Y-124927366D01*
X112790024Y-124940154D01*
X112805930Y-124954570D01*
X112820346Y-124970476D01*
X112833134Y-124987719D01*
X112844170Y-125006132D01*
X112853349Y-125025538D01*
X112860581Y-125045750D01*
X112865797Y-125066574D01*
X112868947Y-125087809D01*
X112870000Y-125109250D01*
X112870000Y-125546750D01*
X112868947Y-125568191D01*
X112865797Y-125589426D01*
X112860581Y-125610250D01*
X112853349Y-125630462D01*
X112844170Y-125649868D01*
X112833134Y-125668281D01*
X112820346Y-125685524D01*
X112805930Y-125701430D01*
X112790024Y-125715846D01*
X112772781Y-125728634D01*
X112754368Y-125739670D01*
X112734962Y-125748849D01*
X112714750Y-125756081D01*
X112693926Y-125761297D01*
X112672691Y-125764447D01*
X112651250Y-125765500D01*
X112138750Y-125765500D01*
X112117309Y-125764447D01*
X112096074Y-125761297D01*
X112075250Y-125756081D01*
X112055038Y-125748849D01*
X112035632Y-125739670D01*
X112017219Y-125728634D01*
X111999976Y-125715846D01*
X111984070Y-125701430D01*
X111969654Y-125685524D01*
X111956866Y-125668281D01*
X111945830Y-125649868D01*
X111936651Y-125630462D01*
X111929419Y-125610250D01*
X111924203Y-125589426D01*
X111921053Y-125568191D01*
X111920000Y-125546750D01*
X111920000Y-125109250D01*
X111921053Y-125087809D01*
X111924203Y-125066574D01*
X111929419Y-125045750D01*
X111936651Y-125025538D01*
X111945830Y-125006132D01*
X111956866Y-124987719D01*
X111969654Y-124970476D01*
X111984070Y-124954570D01*
X111999976Y-124940154D01*
X112017219Y-124927366D01*
X112035632Y-124916330D01*
X112055038Y-124907151D01*
X112075250Y-124899919D01*
X112096074Y-124894703D01*
X112117309Y-124891553D01*
X112138750Y-124890500D01*
X112651250Y-124890500D01*
X112672691Y-124891553D01*
X112672691Y-124891553D01*
G37*
D11*
G04 #@! TD*
G04 #@! TO.P,R5,1*
G04 #@! TO.N,RELAY1_CTR*
X112395000Y-125328000D03*
D17*
G04 #@! TO.P,TB1,3*
G04 #@! TO.N,Net-(TB1-Pad3)*
X80137000Y-129540000D03*
X87757000Y-129540000D03*
G04 #@! TO.P,TB1,2*
G04 #@! TO.N,Net-(TB1-Pad2)*
X80137000Y-134620000D03*
X87757000Y-134620000D03*
G04 #@! TO.P,TB1,1*
G04 #@! TO.N,Net-(TB1-Pad1)*
X80137000Y-139700000D03*
X87757000Y-139700000D03*
G04 #@! TD*
G04 #@! TO.P,TB2,1*
G04 #@! TO.N,Net-(TB2-Pad1)*
X151003000Y-129540000D03*
X158623000Y-129540000D03*
G04 #@! TO.P,TB2,2*
G04 #@! TO.N,Net-(TB2-Pad2)*
X151003000Y-134620000D03*
X158623000Y-134620000D03*
G04 #@! TO.P,TB2,3*
G04 #@! TO.N,Net-(TB2-Pad3)*
X151003000Y-139700000D03*
X158623000Y-139700000D03*
G04 #@! TD*
D18*
G04 #@! TO.P,JP1,1*
G04 #@! TO.N,IO16*
X106680000Y-105537000D03*
D19*
G04 #@! TO.P,JP1,2*
G04 #@! TO.N,RELAY1_CTR*
X108680000Y-105537000D03*
G04 #@! TO.P,JP1,3*
G04 #@! TO.N,IO25*
X106680000Y-107537000D03*
G04 #@! TO.P,JP1,4*
G04 #@! TO.N,RELAY1_CTR*
X108680000Y-107537000D03*
G04 #@! TO.P,JP1,5*
G04 #@! TO.N,HSPI_MOSI*
X106680000Y-109537000D03*
G04 #@! TO.P,JP1,6*
G04 #@! TO.N,RELAY1_CTR*
X108680000Y-109537000D03*
G04 #@! TO.P,JP1,7*
G04 #@! TO.N,HSPI_CLK*
X106680000Y-111537000D03*
G04 #@! TO.P,JP1,8*
G04 #@! TO.N,RELAY1_CTR*
X108680000Y-111537000D03*
G04 #@! TO.P,JP1,9*
G04 #@! TO.N,IO26*
X106680000Y-113537000D03*
G04 #@! TO.P,JP1,10*
G04 #@! TO.N,RELAY1_CTR*
X108680000Y-113537000D03*
G04 #@! TO.P,JP1,11*
G04 #@! TO.N,IO27*
X106680000Y-115537000D03*
G04 #@! TO.P,JP1,12*
G04 #@! TO.N,RELAY1_CTR*
X108680000Y-115537000D03*
G04 #@! TO.P,JP1,13*
G04 #@! TO.N,IO17*
X106680000Y-117537000D03*
G04 #@! TO.P,JP1,14*
G04 #@! TO.N,RELAY1_CTR*
X108680000Y-117537000D03*
G04 #@! TO.P,JP1,15*
G04 #@! TO.N,IO33*
X106680000Y-119537000D03*
G04 #@! TO.P,JP1,16*
G04 #@! TO.N,RELAY1_CTR*
X108680000Y-119537000D03*
G04 #@! TO.P,JP1,17*
G04 #@! TO.N,HSPI_MISO*
X106680000Y-121537000D03*
G04 #@! TO.P,JP1,18*
G04 #@! TO.N,RELAY1_CTR*
X108680000Y-121537000D03*
G04 #@! TO.P,JP1,19*
G04 #@! TO.N,IO15*
X106680000Y-123537000D03*
G04 #@! TO.P,JP1,20*
G04 #@! TO.N,RELAY1_CTR*
X108680000Y-123537000D03*
G04 #@! TO.P,JP1,21*
G04 #@! TO.N,IO32*
X106680000Y-125537000D03*
G04 #@! TO.P,JP1,22*
G04 #@! TO.N,RELAY1_CTR*
X108680000Y-125537000D03*
G04 #@! TD*
G04 #@! TO.P,JP2,22*
G04 #@! TO.N,IO0*
X132080000Y-125537000D03*
G04 #@! TO.P,JP2,21*
G04 #@! TO.N,RELAY2_CTR*
X130080000Y-125537000D03*
G04 #@! TO.P,JP2,20*
G04 #@! TO.N,IO5*
X132080000Y-123537000D03*
G04 #@! TO.P,JP2,19*
G04 #@! TO.N,RELAY2_CTR*
X130080000Y-123537000D03*
G04 #@! TO.P,JP2,18*
G04 #@! TO.N,VSPI_MISO*
X132080000Y-121537000D03*
G04 #@! TO.P,JP2,17*
G04 #@! TO.N,RELAY2_CTR*
X130080000Y-121537000D03*
G04 #@! TO.P,JP2,16*
G04 #@! TO.N,I2C_SCL*
X132080000Y-119537000D03*
G04 #@! TO.P,JP2,15*
G04 #@! TO.N,RELAY2_CTR*
X130080000Y-119537000D03*
G04 #@! TO.P,JP2,14*
G04 #@! TO.N,IO1*
X132080000Y-117537000D03*
G04 #@! TO.P,JP2,13*
G04 #@! TO.N,RELAY2_CTR*
X130080000Y-117537000D03*
G04 #@! TO.P,JP2,12*
G04 #@! TO.N,IO2*
X132080000Y-115537000D03*
G04 #@! TO.P,JP2,11*
G04 #@! TO.N,RELAY2_CTR*
X130080000Y-115537000D03*
G04 #@! TO.P,JP2,10*
G04 #@! TO.N,IO4*
X132080000Y-113537000D03*
G04 #@! TO.P,JP2,9*
G04 #@! TO.N,RELAY2_CTR*
X130080000Y-113537000D03*
G04 #@! TO.P,JP2,8*
G04 #@! TO.N,VSPI_CLK*
X132080000Y-111537000D03*
G04 #@! TO.P,JP2,7*
G04 #@! TO.N,RELAY2_CTR*
X130080000Y-111537000D03*
G04 #@! TO.P,JP2,6*
G04 #@! TO.N,VSPI_MOSI*
X132080000Y-109537000D03*
G04 #@! TO.P,JP2,5*
G04 #@! TO.N,RELAY2_CTR*
X130080000Y-109537000D03*
G04 #@! TO.P,JP2,4*
G04 #@! TO.N,I2C_SDA*
X132080000Y-107537000D03*
G04 #@! TO.P,JP2,3*
G04 #@! TO.N,RELAY2_CTR*
X130080000Y-107537000D03*
G04 #@! TO.P,JP2,2*
G04 #@! TO.N,IO3*
X132080000Y-105537000D03*
D18*
G04 #@! TO.P,JP2,1*
G04 #@! TO.N,RELAY2_CTR*
X130080000Y-105537000D03*
G04 #@! TD*
D20*
G04 #@! TO.P,U1,4*
G04 #@! TO.N,Net-(TB1-Pad3)*
X95228000Y-128620000D03*
G04 #@! TO.P,U1,5*
G04 #@! TO.N,Net-(TB1-Pad1)*
X95228000Y-140620000D03*
G04 #@! TO.P,U1,2*
G04 #@! TO.N,Net-(D5-Pad2)*
X107728000Y-140620000D03*
G04 #@! TO.P,U1,3*
G04 #@! TO.N,Net-(TB1-Pad2)*
X109728000Y-134620000D03*
G04 #@! TO.P,U1,1*
G04 #@! TO.N,EXT_5V*
X107728000Y-128620000D03*
G04 #@! TD*
G04 #@! TO.P,U2,1*
G04 #@! TO.N,EXT_5V*
X130905000Y-140620000D03*
G04 #@! TO.P,U2,3*
G04 #@! TO.N,Net-(TB2-Pad2)*
X128905000Y-134620000D03*
G04 #@! TO.P,U2,2*
G04 #@! TO.N,Net-(D6-Pad2)*
X130905000Y-128620000D03*
G04 #@! TO.P,U2,5*
G04 #@! TO.N,Net-(TB2-Pad1)*
X143405000Y-128620000D03*
G04 #@! TO.P,U2,4*
G04 #@! TO.N,Net-(TB2-Pad3)*
X143405000Y-140620000D03*
G04 #@! TD*
D21*
G04 #@! TO.P,J1,16*
G04 #@! TO.N,N/C*
X95250000Y-125056900D03*
G04 #@! TO.P,J1,15*
G04 #@! TO.N,GND*
X92710000Y-125056900D03*
G04 #@! TO.P,J1,14*
G04 #@! TO.N,N/C*
X95250000Y-122516900D03*
G04 #@! TO.P,J1,13*
G04 #@! TO.N,IO27*
X92710000Y-122516900D03*
G04 #@! TO.P,J1,12*
G04 #@! TO.N,IO32*
X95250000Y-119976900D03*
G04 #@! TO.P,J1,11*
G04 #@! TO.N,IO26*
X92710000Y-119976900D03*
G04 #@! TO.P,J1,10*
G04 #@! TO.N,IO15*
X95250000Y-117436900D03*
G04 #@! TO.P,J1,9*
G04 #@! TO.N,HSPI_CLK*
X92710000Y-117436900D03*
G04 #@! TO.P,J1,8*
G04 #@! TO.N,HSPI_MISO*
X95250000Y-114896900D03*
G04 #@! TO.P,J1,7*
G04 #@! TO.N,HSPI_MOSI*
X92710000Y-114896900D03*
G04 #@! TO.P,J1,6*
G04 #@! TO.N,IO33*
X95250000Y-112356900D03*
G04 #@! TO.P,J1,5*
G04 #@! TO.N,IO25*
X92710000Y-112356900D03*
G04 #@! TO.P,J1,4*
G04 #@! TO.N,IO17*
X95250000Y-109816900D03*
G04 #@! TO.P,J1,3*
G04 #@! TO.N,IO16*
X92710000Y-109816900D03*
G04 #@! TO.P,J1,2*
G04 #@! TO.N,N/C*
X95250000Y-107276900D03*
D22*
G04 #@! TO.P,J1,1*
X92710000Y-107276900D03*
G04 #@! TD*
G04 #@! TO.P,J2,1*
G04 #@! TO.N,N/C*
X143510000Y-107264200D03*
D21*
G04 #@! TO.P,J2,2*
X146050000Y-107264200D03*
G04 #@! TO.P,J2,3*
G04 #@! TO.N,IO1*
X143510000Y-109804200D03*
G04 #@! TO.P,J2,4*
G04 #@! TO.N,IO3*
X146050000Y-109804200D03*
G04 #@! TO.P,J2,5*
G04 #@! TO.N,I2C_SCL*
X143510000Y-112344200D03*
G04 #@! TO.P,J2,6*
G04 #@! TO.N,I2C_SDA*
X146050000Y-112344200D03*
G04 #@! TO.P,J2,7*
G04 #@! TO.N,VSPI_MISO*
X143510000Y-114884200D03*
G04 #@! TO.P,J2,8*
G04 #@! TO.N,VSPI_MOSI*
X146050000Y-114884200D03*
G04 #@! TO.P,J2,9*
G04 #@! TO.N,IO5*
X143510000Y-117424200D03*
G04 #@! TO.P,J2,10*
G04 #@! TO.N,VSPI_CLK*
X146050000Y-117424200D03*
G04 #@! TO.P,J2,11*
G04 #@! TO.N,IO0*
X143510000Y-119964200D03*
G04 #@! TO.P,J2,12*
G04 #@! TO.N,IO4*
X146050000Y-119964200D03*
G04 #@! TO.P,J2,13*
G04 #@! TO.N,EXT_5V*
X143510000Y-122504200D03*
G04 #@! TO.P,J2,14*
G04 #@! TO.N,IO2*
X146050000Y-122504200D03*
G04 #@! TO.P,J2,15*
G04 #@! TO.N,N/C*
X143510000Y-125044200D03*
G04 #@! TO.P,J2,16*
G04 #@! TO.N,GND*
X146050000Y-125044200D03*
G04 #@! TD*
D23*
G04 #@! TO.N,GND*
X124206000Y-125349000D03*
X114300000Y-127000000D03*
G04 #@! TO.N,Net-(D6-Pad2)*
X122190000Y-126365000D03*
G04 #@! TO.N,Net-(D5-Pad2)*
X116300000Y-125984000D03*
X114935000Y-136017000D03*
G04 #@! TD*
D24*
G04 #@! TO.N,GND*
X94014001Y-126360901D02*
X101096099Y-126360901D01*
X92710000Y-125056900D02*
X94014001Y-126360901D01*
X114300000Y-127000000D02*
X114300000Y-126995000D01*
X113397000Y-127903000D02*
X114300000Y-127000000D01*
X111968570Y-127903000D02*
X113397000Y-127903000D01*
X111131569Y-127065999D02*
X111968570Y-127903000D01*
X101801197Y-127065999D02*
X111131569Y-127065999D01*
X101096099Y-126360901D02*
X101801197Y-127065999D01*
D25*
G04 #@! TO.N,IO25*
X93559999Y-111506901D02*
X92710000Y-112356900D01*
X94044999Y-111021901D02*
X93559999Y-111506901D01*
X102240505Y-111021901D02*
X94044999Y-111021901D01*
X105725406Y-107537000D02*
X102240505Y-111021901D01*
X106680000Y-107537000D02*
X105725406Y-107537000D01*
G04 #@! TO.N,IO26*
X106680000Y-113537000D02*
X105665000Y-113537000D01*
X93559999Y-119126901D02*
X92710000Y-119976900D01*
X93915001Y-118771899D02*
X93559999Y-119126901D01*
X100430101Y-118771899D02*
X93915001Y-118771899D01*
X105665000Y-113537000D02*
X100430101Y-118771899D01*
G04 #@! TO.N,IO27*
X106005001Y-116211999D02*
X105149001Y-116211999D01*
X106680000Y-115537000D02*
X106005001Y-116211999D01*
X93559999Y-121666901D02*
X92710000Y-122516900D01*
X93915001Y-121311899D02*
X93559999Y-121666901D01*
X100049101Y-121311899D02*
X93915001Y-121311899D01*
X105149001Y-116211999D02*
X100049101Y-121311899D01*
G04 #@! TO.N,IO4*
X145200001Y-119114201D02*
X146050000Y-119964200D01*
X144715001Y-118629201D02*
X145200001Y-119114201D01*
X137172201Y-118629201D02*
X144715001Y-118629201D01*
X132080000Y-113537000D02*
X137172201Y-118629201D01*
G04 #@! TO.N,IO16*
X105695000Y-105537000D02*
X102620101Y-108611899D01*
X106680000Y-105537000D02*
X105695000Y-105537000D01*
X102620101Y-108611899D02*
X93915001Y-108611899D01*
X93915001Y-108611899D02*
X93559999Y-108966901D01*
X93559999Y-108966901D02*
X92710000Y-109816900D01*
G04 #@! TO.N,Net-(Q2-Pad1)*
X112492000Y-126903000D02*
X114300000Y-125095000D01*
X112395000Y-126903000D02*
X112492000Y-126903000D01*
G04 #@! TO.N,Net-(D6-Pad2)*
X122190000Y-133115000D02*
X122555000Y-133480000D01*
X122190000Y-126365000D02*
X122190000Y-133115000D01*
X122190000Y-126365000D02*
X122190000Y-126365000D01*
X122190000Y-102447500D02*
X127482500Y-97155000D01*
X122190000Y-126365000D02*
X122190000Y-102447500D01*
G04 #@! TO.N,Net-(D5-Pad2)*
X116300000Y-125335000D02*
X116300000Y-125984000D01*
X116300000Y-105292500D02*
X116300000Y-125335000D01*
X109283634Y-140620000D02*
X107728000Y-140620000D01*
X111130625Y-140620000D02*
X109283634Y-140620000D01*
X114935000Y-136815625D02*
X111130625Y-140620000D01*
X114935000Y-135760000D02*
X114935000Y-136017000D01*
X116300000Y-125984000D02*
X116300000Y-126045000D01*
X114935000Y-136017000D02*
X114935000Y-136815625D01*
X111277500Y-100270000D02*
X116300000Y-105292500D01*
X111277500Y-97155000D02*
X111277500Y-100270000D01*
D24*
G04 #@! TO.N,Net-(DS1-Pad1)*
X107617500Y-97155000D02*
X109702500Y-97155000D01*
D25*
G04 #@! TO.N,Net-(DS2-Pad1)*
X131142500Y-97155000D02*
X129057500Y-97155000D01*
G04 #@! TO.N,Net-(Q3-Pad1)*
X125953000Y-127315000D02*
X126365000Y-126903000D01*
X124190000Y-127315000D02*
X125953000Y-127315000D01*
G04 #@! TO.N,RELAY1_CTR*
X112186000Y-125537000D02*
X112395000Y-125328000D01*
X108680000Y-125537000D02*
X112186000Y-125537000D01*
G04 #@! TO.N,RELAY2_CTR*
X126574000Y-125537000D02*
X126365000Y-125328000D01*
X130080000Y-125537000D02*
X126574000Y-125537000D01*
D26*
G04 #@! TO.N,Net-(TB1-Pad3)*
X94308000Y-129540000D02*
X95228000Y-128620000D01*
X80137000Y-129540000D02*
X94308000Y-129540000D01*
G04 #@! TO.N,Net-(TB1-Pad2)*
X109728000Y-134620000D02*
X80137000Y-134620000D01*
G04 #@! TO.N,Net-(TB1-Pad1)*
X94308000Y-139700000D02*
X95228000Y-140620000D01*
X80137000Y-139700000D02*
X94308000Y-139700000D01*
G04 #@! TO.N,Net-(TB2-Pad1)*
X150083000Y-128620000D02*
X151003000Y-129540000D01*
X143405000Y-128620000D02*
X150083000Y-128620000D01*
X151003000Y-129540000D02*
X158623000Y-129540000D01*
G04 #@! TO.N,Net-(TB2-Pad2)*
X158623000Y-134620000D02*
X128905000Y-134620000D01*
G04 #@! TO.N,Net-(TB2-Pad3)*
X158623000Y-139700000D02*
X151003000Y-139700000D01*
X150083000Y-140620000D02*
X151003000Y-139700000D01*
X143405000Y-140620000D02*
X150083000Y-140620000D01*
D24*
G04 #@! TO.N,EXT_5V*
X114935000Y-132284367D02*
X114935000Y-132417000D01*
X112370632Y-129719999D02*
X114935000Y-132284367D01*
X108827999Y-129719999D02*
X112370632Y-129719999D01*
X107728000Y-128620000D02*
X108827999Y-129719999D01*
X114935000Y-132417000D02*
X114935000Y-133480000D01*
X115204001Y-132147999D02*
X114935000Y-132417000D01*
X115204001Y-109156501D02*
X115204001Y-132147999D01*
X114935000Y-108887500D02*
X115204001Y-109156501D01*
X123285999Y-135029001D02*
X122555000Y-135760000D01*
X123285999Y-132696368D02*
X123285999Y-133604000D01*
X129316366Y-126666001D02*
X123285999Y-132696368D01*
X139348199Y-126666001D02*
X129316366Y-126666001D01*
X143510000Y-122504200D02*
X139348199Y-126666001D01*
X123285999Y-133604000D02*
X123285999Y-135029001D01*
X122555000Y-136040000D02*
X122555000Y-135760000D01*
X127135000Y-140620000D02*
X122555000Y-136040000D01*
X130905000Y-140620000D02*
X127135000Y-140620000D01*
X122555000Y-135480000D02*
X122555000Y-135760000D01*
X120555000Y-133480000D02*
X122555000Y-135480000D01*
X114935000Y-133480000D02*
X120555000Y-133480000D01*
X105742500Y-99695000D02*
X110236000Y-104188500D01*
X105742500Y-97155000D02*
X105742500Y-99695000D01*
X110236000Y-104188500D02*
X114935000Y-108887500D01*
X123285999Y-106886501D02*
X133017500Y-97155000D01*
X123285999Y-133604000D02*
X123285999Y-106886501D01*
D25*
G04 #@! TO.N,HSPI_MOSI*
X93559999Y-114046901D02*
X92710000Y-114896900D01*
X94044999Y-113561901D02*
X93559999Y-114046901D01*
X101700505Y-113561901D02*
X94044999Y-113561901D01*
X105725406Y-109537000D02*
X101700505Y-113561901D01*
X106680000Y-109537000D02*
X105725406Y-109537000D01*
G04 #@! TO.N,HSPI_CLK*
X106005001Y-112211999D02*
X105466001Y-112211999D01*
X106680000Y-111537000D02*
X106005001Y-112211999D01*
X93559999Y-116586901D02*
X92710000Y-117436900D01*
X94044999Y-116101901D02*
X93559999Y-116586901D01*
X101576099Y-116101901D02*
X94044999Y-116101901D01*
X105466001Y-112211999D02*
X101576099Y-116101901D01*
G04 #@! TO.N,IO2*
X145200001Y-121654201D02*
X146050000Y-122504200D01*
X144715001Y-121169201D02*
X145200001Y-121654201D01*
X137712201Y-121169201D02*
X144715001Y-121169201D01*
X132080000Y-115537000D02*
X137712201Y-121169201D01*
G04 #@! TO.N,VSPI_CLK*
X145200001Y-116574201D02*
X146050000Y-117424200D01*
X144715001Y-116089201D02*
X145200001Y-116574201D01*
X136632201Y-116089201D02*
X144715001Y-116089201D01*
X132080000Y-111537000D02*
X136632201Y-116089201D01*
G04 #@! TO.N,VSPI_MOSI*
X145200001Y-114034201D02*
X146050000Y-114884200D01*
X144715001Y-113549201D02*
X145200001Y-114034201D01*
X136092201Y-113549201D02*
X144715001Y-113549201D01*
X132080000Y-109537000D02*
X136092201Y-113549201D01*
G04 #@! TO.N,I2C_SDA*
X145200001Y-111494201D02*
X146050000Y-112344200D01*
X139465533Y-111139199D02*
X144844999Y-111139199D01*
X135863334Y-107537000D02*
X139465533Y-111139199D01*
X132080000Y-107537000D02*
X135863334Y-107537000D01*
X144844999Y-111139199D02*
X145200001Y-111494201D01*
G04 #@! TO.N,IO3*
X144715001Y-108469201D02*
X145200001Y-108954201D01*
X145200001Y-108954201D02*
X146050000Y-109804200D01*
X134584598Y-105537000D02*
X137516799Y-108469201D01*
X137516799Y-108469201D02*
X144715001Y-108469201D01*
X132080000Y-105537000D02*
X134584598Y-105537000D01*
G04 #@! TD*
M02*
