G04 #@! TF.GenerationSoftware,KiCad,Pcbnew,(5.0.2)-1*
G04 #@! TF.CreationDate,2019-10-28T10:13:20+02:00*
G04 #@! TF.ProjectId,2-relay-over-io,322d7265-6c61-4792-9d6f-7665722d696f,rev?*
G04 #@! TF.SameCoordinates,Original*
G04 #@! TF.FileFunction,Copper,L2,Bot*
G04 #@! TF.FilePolarity,Positive*
%FSLAX46Y46*%
G04 Gerber Fmt 4.6, Leading zero omitted, Abs format (unit mm)*
G04 Created by KiCad (PCBNEW (5.0.2)-1) date 28.10.2019 10:13:20*
%MOMM*%
%LPD*%
G01*
G04 APERTURE LIST*
G04 #@! TA.AperFunction,ComponentPad*
%ADD10C,3.800000*%
G04 #@! TD*
G04 #@! TA.AperFunction,ComponentPad*
%ADD11R,1.800000X1.800000*%
G04 #@! TD*
G04 #@! TA.AperFunction,ComponentPad*
%ADD12R,1.700000X1.700000*%
G04 #@! TD*
G04 #@! TA.AperFunction,ComponentPad*
%ADD13O,1.700000X1.700000*%
G04 #@! TD*
G04 #@! TA.AperFunction,ComponentPad*
%ADD14C,2.540000*%
G04 #@! TD*
G04 #@! TA.AperFunction,ComponentPad*
%ADD15C,2.200000*%
G04 #@! TD*
G04 #@! TA.AperFunction,ViaPad*
%ADD16C,0.800000*%
G04 #@! TD*
G04 #@! TA.AperFunction,Conductor*
%ADD17C,0.310000*%
G04 #@! TD*
G04 #@! TA.AperFunction,Conductor*
%ADD18C,0.508000*%
G04 #@! TD*
G04 #@! TA.AperFunction,Conductor*
%ADD19C,3.000000*%
G04 #@! TD*
G04 #@! TA.AperFunction,Conductor*
%ADD20C,0.254000*%
G04 #@! TD*
G04 APERTURE END LIST*
D10*
G04 #@! TO.P,H1,1*
G04 #@! TO.N,N/C*
X101600000Y-104775000D03*
G04 #@! TD*
G04 #@! TO.P,H2,1*
G04 #@! TO.N,N/C*
X137160000Y-104775000D03*
G04 #@! TD*
G04 #@! TO.P,H3,1*
G04 #@! TO.N,N/C*
X119380000Y-143510000D03*
G04 #@! TD*
D11*
G04 #@! TO.P,JP1,1*
G04 #@! TO.N,IO26*
X106680000Y-112205000D03*
G04 #@! TO.P,JP1,2*
G04 #@! TO.N,RELAY1_CTR*
X108680000Y-112205000D03*
G04 #@! TO.P,JP1,3*
G04 #@! TO.N,IO32*
X106680000Y-114205000D03*
G04 #@! TO.P,JP1,4*
G04 #@! TO.N,RELAY1_CTR*
X108680000Y-114205000D03*
G04 #@! TO.P,JP1,5*
G04 #@! TO.N,IO25*
X106680000Y-116205000D03*
G04 #@! TO.P,JP1,6*
G04 #@! TO.N,RELAY1_CTR*
X108680000Y-116205000D03*
G04 #@! TO.P,JP1,7*
G04 #@! TO.N,IO27*
X106680000Y-118205000D03*
G04 #@! TO.P,JP1,8*
G04 #@! TO.N,RELAY1_CTR*
X108680000Y-118205000D03*
G04 #@! TO.P,JP1,9*
G04 #@! TO.N,IO15*
X106680000Y-120205000D03*
G04 #@! TO.P,JP1,10*
G04 #@! TO.N,RELAY1_CTR*
X108680000Y-120205000D03*
G04 #@! TD*
G04 #@! TO.P,JP2,10*
G04 #@! TO.N,RELAY2_CTR*
X130985000Y-112205000D03*
G04 #@! TO.P,JP2,9*
G04 #@! TO.N,IO33*
X132985000Y-112205000D03*
G04 #@! TO.P,JP2,8*
G04 #@! TO.N,RELAY2_CTR*
X130985000Y-114205000D03*
G04 #@! TO.P,JP2,7*
G04 #@! TO.N,IO17*
X132985000Y-114205000D03*
G04 #@! TO.P,JP2,6*
G04 #@! TO.N,RELAY2_CTR*
X130985000Y-116205000D03*
G04 #@! TO.P,JP2,5*
G04 #@! TO.N,IO16*
X132985000Y-116205000D03*
G04 #@! TO.P,JP2,4*
G04 #@! TO.N,RELAY2_CTR*
X130985000Y-118205000D03*
G04 #@! TO.P,JP2,3*
G04 #@! TO.N,IO4*
X132985000Y-118205000D03*
G04 #@! TO.P,JP2,2*
G04 #@! TO.N,RELAY2_CTR*
X130985000Y-120205000D03*
G04 #@! TO.P,JP2,1*
G04 #@! TO.N,IO5*
X132985000Y-120205000D03*
G04 #@! TD*
D12*
G04 #@! TO.P,J1,1*
G04 #@! TO.N,N/C*
X92710000Y-107315000D03*
D13*
G04 #@! TO.P,J1,2*
X95250000Y-107315000D03*
G04 #@! TO.P,J1,3*
G04 #@! TO.N,IO33*
X92710000Y-109855000D03*
G04 #@! TO.P,J1,4*
G04 #@! TO.N,N/C*
X95250000Y-109855000D03*
G04 #@! TO.P,J1,5*
G04 #@! TO.N,IO26*
X92710000Y-112395000D03*
G04 #@! TO.P,J1,6*
G04 #@! TO.N,IO32*
X95250000Y-112395000D03*
G04 #@! TO.P,J1,7*
G04 #@! TO.N,N/C*
X92710000Y-114935000D03*
G04 #@! TO.P,J1,8*
G04 #@! TO.N,IO25*
X95250000Y-114935000D03*
G04 #@! TO.P,J1,9*
G04 #@! TO.N,N/C*
X92710000Y-117475000D03*
G04 #@! TO.P,J1,10*
G04 #@! TO.N,IO27*
X95250000Y-117475000D03*
G04 #@! TO.P,J1,11*
G04 #@! TO.N,IO15*
X92710000Y-120015000D03*
G04 #@! TO.P,J1,12*
G04 #@! TO.N,N/C*
X95250000Y-120015000D03*
G04 #@! TO.P,J1,13*
X92710000Y-122555000D03*
G04 #@! TO.P,J1,14*
G04 #@! TO.N,+3V3*
X95250000Y-122555000D03*
G04 #@! TO.P,J1,15*
G04 #@! TO.N,N/C*
X92710000Y-125095000D03*
G04 #@! TO.P,J1,16*
G04 #@! TO.N,GND*
X95250000Y-125095000D03*
G04 #@! TD*
G04 #@! TO.P,J2,16*
G04 #@! TO.N,N/C*
X146050000Y-125095000D03*
G04 #@! TO.P,J2,15*
G04 #@! TO.N,GND*
X143510000Y-125095000D03*
G04 #@! TO.P,J2,14*
G04 #@! TO.N,N/C*
X146050000Y-122555000D03*
G04 #@! TO.P,J2,13*
G04 #@! TO.N,+3V3*
X143510000Y-122555000D03*
G04 #@! TO.P,J2,12*
G04 #@! TO.N,N/C*
X146050000Y-120015000D03*
G04 #@! TO.P,J2,11*
G04 #@! TO.N,IO4*
X143510000Y-120015000D03*
G04 #@! TO.P,J2,10*
G04 #@! TO.N,IO16*
X146050000Y-117475000D03*
G04 #@! TO.P,J2,9*
G04 #@! TO.N,IO17*
X143510000Y-117475000D03*
G04 #@! TO.P,J2,8*
G04 #@! TO.N,IO5*
X146050000Y-114935000D03*
G04 #@! TO.P,J2,7*
G04 #@! TO.N,N/C*
X143510000Y-114935000D03*
G04 #@! TO.P,J2,6*
X146050000Y-112395000D03*
G04 #@! TO.P,J2,5*
X143510000Y-112395000D03*
G04 #@! TO.P,J2,4*
X146050000Y-109855000D03*
G04 #@! TO.P,J2,3*
X143510000Y-109855000D03*
G04 #@! TO.P,J2,2*
X146050000Y-107315000D03*
D12*
G04 #@! TO.P,J2,1*
X143510000Y-107315000D03*
G04 #@! TD*
D14*
G04 #@! TO.P,TB1,3*
G04 #@! TO.N,Net-(TB1-Pad3)*
X80137000Y-130810000D03*
X87757000Y-130810000D03*
G04 #@! TO.P,TB1,2*
G04 #@! TO.N,Net-(TB1-Pad2)*
X80137000Y-135890000D03*
X87757000Y-135890000D03*
G04 #@! TO.P,TB1,1*
G04 #@! TO.N,Net-(TB1-Pad1)*
X80137000Y-140970000D03*
X87757000Y-140970000D03*
G04 #@! TD*
G04 #@! TO.P,TB2,1*
G04 #@! TO.N,Net-(TB2-Pad1)*
X151003000Y-130810000D03*
X158623000Y-130810000D03*
G04 #@! TO.P,TB2,2*
G04 #@! TO.N,Net-(TB2-Pad2)*
X151003000Y-135890000D03*
X158623000Y-135890000D03*
G04 #@! TO.P,TB2,3*
G04 #@! TO.N,Net-(TB2-Pad3)*
X151003000Y-140970000D03*
X158623000Y-140970000D03*
G04 #@! TD*
D15*
G04 #@! TO.P,U1,1*
G04 #@! TO.N,+3V3*
X107773100Y-129894700D03*
G04 #@! TO.P,U1,3*
G04 #@! TO.N,Net-(TB1-Pad2)*
X109773100Y-135894700D03*
G04 #@! TO.P,U1,2*
G04 #@! TO.N,Net-(D5-Pad2)*
X107773100Y-141894700D03*
G04 #@! TO.P,U1,5*
G04 #@! TO.N,Net-(TB1-Pad1)*
X95273100Y-141894700D03*
G04 #@! TO.P,U1,4*
G04 #@! TO.N,Net-(TB1-Pad3)*
X95273100Y-129894700D03*
G04 #@! TD*
G04 #@! TO.P,U2,4*
G04 #@! TO.N,Net-(TB2-Pad3)*
X143410700Y-141898000D03*
G04 #@! TO.P,U2,5*
G04 #@! TO.N,Net-(TB2-Pad1)*
X143410700Y-129898000D03*
G04 #@! TO.P,U2,2*
G04 #@! TO.N,Net-(D6-Pad2)*
X130910700Y-129898000D03*
G04 #@! TO.P,U2,3*
G04 #@! TO.N,Net-(TB2-Pad2)*
X128910700Y-135898000D03*
G04 #@! TO.P,U2,1*
G04 #@! TO.N,+3V3*
X130910700Y-141898000D03*
G04 #@! TD*
D16*
G04 #@! TO.N,GND*
X119189500Y-128651000D03*
X114681000Y-128651000D03*
G04 #@! TO.N,+3V3*
X103251000Y-97155000D03*
X135572500Y-97155000D03*
G04 #@! TD*
D17*
G04 #@! TO.N,IO33*
X93559999Y-109005001D02*
X92710000Y-109855000D01*
X132985000Y-112205000D02*
X132985000Y-110995000D01*
X132985000Y-110995000D02*
X130639999Y-108649999D01*
X130639999Y-108649999D02*
X93915001Y-108649999D01*
X93915001Y-108649999D02*
X93559999Y-109005001D01*
D18*
G04 #@! TO.N,+3V3*
X133350000Y-106553000D02*
X112649000Y-106553000D01*
X112649000Y-106553000D02*
X103251000Y-97155000D01*
X107791500Y-129890000D02*
X112745000Y-129890000D01*
X112745000Y-129890000D02*
X124745000Y-141890000D01*
X124745000Y-141890000D02*
X130940000Y-141890000D01*
D17*
X133350000Y-106680000D02*
X133477000Y-106807000D01*
D18*
X107791500Y-129890000D02*
X109940510Y-127740990D01*
X115126500Y-122555000D02*
X143510000Y-122555000D01*
X107791500Y-129890000D02*
X115126500Y-122555000D01*
X134805999Y-108008999D02*
X133350000Y-106553000D01*
X134805999Y-113850999D02*
X134805999Y-108008999D01*
X143510000Y-122555000D02*
X134805999Y-113850999D01*
D17*
X133350000Y-106553000D02*
X133350000Y-106680000D01*
D18*
X133350000Y-99377500D02*
X135572500Y-97155000D01*
X133350000Y-106553000D02*
X133350000Y-99377500D01*
D19*
G04 #@! TO.N,Net-(TB1-Pad3)*
X80137000Y-130810000D02*
X87757000Y-130810000D01*
X88677000Y-129890000D02*
X87757000Y-130810000D01*
X95291500Y-129890000D02*
X88677000Y-129890000D01*
G04 #@! TO.N,Net-(TB1-Pad2)*
X109791500Y-135890000D02*
X80137000Y-135890000D01*
G04 #@! TO.N,Net-(TB1-Pad1)*
X88677000Y-141890000D02*
X87757000Y-140970000D01*
X95291500Y-141890000D02*
X88677000Y-141890000D01*
X87757000Y-140970000D02*
X80137000Y-140970000D01*
G04 #@! TO.N,Net-(TB2-Pad1)*
X158623000Y-130810000D02*
X151003000Y-130810000D01*
X150082999Y-129889999D02*
X151003000Y-130810000D01*
X143440000Y-129889999D02*
X150082999Y-129889999D01*
G04 #@! TO.N,Net-(TB2-Pad2)*
X128940000Y-135890000D02*
X158623000Y-135890000D01*
G04 #@! TO.N,Net-(TB2-Pad3)*
X150083000Y-141890000D02*
X151003000Y-140970000D01*
X143440000Y-141890000D02*
X150083000Y-141890000D01*
X151003000Y-140970000D02*
X158623000Y-140970000D01*
G04 #@! TD*
D20*
G04 #@! TO.N,GND*
G36*
X138990000Y-103019968D02*
X138595962Y-102625930D01*
X137664243Y-102240000D01*
X136655757Y-102240000D01*
X135724038Y-102625930D01*
X135010930Y-103339038D01*
X134625000Y-104270757D01*
X134625000Y-105279243D01*
X135010930Y-106210962D01*
X135724038Y-106924070D01*
X136655757Y-107310000D01*
X137664243Y-107310000D01*
X138595962Y-106924070D01*
X139309070Y-106210962D01*
X139611318Y-105481269D01*
X139700000Y-105498909D01*
X139769925Y-105485000D01*
X147880001Y-105485000D01*
X147880000Y-125660074D01*
X147866091Y-125730000D01*
X147921195Y-126007028D01*
X148078119Y-126241881D01*
X148312972Y-126398805D01*
X148590000Y-126453909D01*
X148659925Y-126440000D01*
X161850001Y-126440000D01*
X161850000Y-145340000D01*
X121135032Y-145340000D01*
X121529070Y-144945962D01*
X121915000Y-144014243D01*
X121915000Y-143005757D01*
X121529070Y-142074038D01*
X120815962Y-141360930D01*
X119884243Y-140975000D01*
X118875757Y-140975000D01*
X117944038Y-141360930D01*
X117230930Y-142074038D01*
X116845000Y-143005757D01*
X116845000Y-144014243D01*
X117230930Y-144945962D01*
X117624968Y-145340000D01*
X76910000Y-145340000D01*
X76910000Y-132715000D01*
X77762091Y-132715000D01*
X77776000Y-132784926D01*
X77776001Y-133661070D01*
X77762091Y-133731000D01*
X77817195Y-134008028D01*
X77974119Y-134242881D01*
X78208972Y-134399805D01*
X78416074Y-134441000D01*
X78416075Y-134441000D01*
X78486000Y-134454909D01*
X78534616Y-134445239D01*
X78125874Y-135056964D01*
X77960173Y-135890000D01*
X78125874Y-136723036D01*
X78448306Y-137205589D01*
X78416074Y-137212000D01*
X78208972Y-137253195D01*
X77974119Y-137410119D01*
X77817195Y-137644972D01*
X77762091Y-137922000D01*
X77776000Y-137991925D01*
X77776001Y-138868070D01*
X77762091Y-138938000D01*
X77817195Y-139215028D01*
X77974119Y-139449881D01*
X78208972Y-139606805D01*
X78416074Y-139648000D01*
X78416075Y-139648000D01*
X78448306Y-139654411D01*
X78125874Y-140136964D01*
X77960173Y-140970000D01*
X78125874Y-141803036D01*
X78597751Y-142509249D01*
X79303964Y-142981126D01*
X79926721Y-143105000D01*
X86872655Y-143105000D01*
X87018636Y-143250981D01*
X87137751Y-143429249D01*
X87843964Y-143901126D01*
X88466721Y-144025000D01*
X88466726Y-144025000D01*
X88676999Y-144066826D01*
X88887273Y-144025000D01*
X95501779Y-144025000D01*
X96124536Y-143901126D01*
X96830749Y-143429249D01*
X97302626Y-142723036D01*
X97468327Y-141890000D01*
X97400615Y-141549587D01*
X106038100Y-141549587D01*
X106038100Y-142239813D01*
X106302238Y-142877499D01*
X106790301Y-143365562D01*
X107427987Y-143629700D01*
X108118213Y-143629700D01*
X108755899Y-143365562D01*
X109243962Y-142877499D01*
X109508100Y-142239813D01*
X109508100Y-141549587D01*
X109243962Y-140911901D01*
X108755899Y-140423838D01*
X108118213Y-140159700D01*
X107427987Y-140159700D01*
X106790301Y-140423838D01*
X106302238Y-140911901D01*
X106038100Y-141549587D01*
X97400615Y-141549587D01*
X97302626Y-141056964D01*
X96830749Y-140350751D01*
X96124536Y-139878874D01*
X95501779Y-139755000D01*
X89561345Y-139755000D01*
X89454345Y-139648000D01*
X113341074Y-139648000D01*
X113411000Y-139661909D01*
X113480925Y-139648000D01*
X113480926Y-139648000D01*
X113688028Y-139606805D01*
X113922881Y-139449881D01*
X114079805Y-139215028D01*
X114134909Y-138938000D01*
X114121000Y-138868074D01*
X114121000Y-132784926D01*
X114134909Y-132715000D01*
X114090747Y-132492982D01*
X124054471Y-142456707D01*
X124104067Y-142530933D01*
X124398130Y-142727419D01*
X124657444Y-142779000D01*
X124657445Y-142779000D01*
X124745000Y-142796416D01*
X124832555Y-142779000D01*
X129397672Y-142779000D01*
X129439838Y-142880799D01*
X129927901Y-143368862D01*
X130565587Y-143633000D01*
X131255813Y-143633000D01*
X131893499Y-143368862D01*
X132381562Y-142880799D01*
X132645700Y-142243113D01*
X132645700Y-141552887D01*
X132381562Y-140915201D01*
X131893499Y-140427138D01*
X131255813Y-140163000D01*
X130565587Y-140163000D01*
X129927901Y-140427138D01*
X129439838Y-140915201D01*
X129404299Y-141001000D01*
X125113236Y-141001000D01*
X116827236Y-132715000D01*
X124498091Y-132715000D01*
X124512000Y-132784926D01*
X124512001Y-138868069D01*
X124498091Y-138938000D01*
X124553195Y-139215028D01*
X124710119Y-139449881D01*
X124944972Y-139606805D01*
X125152074Y-139648000D01*
X125152075Y-139648000D01*
X125222000Y-139661909D01*
X125291926Y-139648000D01*
X149305655Y-139648000D01*
X149198655Y-139755000D01*
X143229721Y-139755000D01*
X142606964Y-139878874D01*
X141900751Y-140350751D01*
X141428874Y-141056964D01*
X141263173Y-141890000D01*
X141428874Y-142723036D01*
X141900751Y-143429249D01*
X142606964Y-143901126D01*
X143229721Y-144025000D01*
X149872725Y-144025000D01*
X150083000Y-144066826D01*
X150293275Y-144025000D01*
X150293279Y-144025000D01*
X150916036Y-143901126D01*
X151622249Y-143429249D01*
X151741364Y-143250981D01*
X151887345Y-143105000D01*
X158833279Y-143105000D01*
X159456036Y-142981126D01*
X160162249Y-142509249D01*
X160634126Y-141803036D01*
X160799827Y-140970000D01*
X160634126Y-140136964D01*
X160296795Y-139632113D01*
X160424028Y-139606805D01*
X160658881Y-139449881D01*
X160815805Y-139215028D01*
X160870909Y-138938000D01*
X160857000Y-138868074D01*
X160857000Y-137991925D01*
X160870909Y-137922000D01*
X160815805Y-137644972D01*
X160658881Y-137410119D01*
X160424028Y-137253195D01*
X160296795Y-137227887D01*
X160634126Y-136723036D01*
X160799827Y-135890000D01*
X160634126Y-135056964D01*
X160221892Y-134440012D01*
X160424028Y-134399805D01*
X160658881Y-134242881D01*
X160815805Y-134008028D01*
X160870909Y-133731000D01*
X160857000Y-133661074D01*
X160857000Y-132784926D01*
X160870909Y-132715000D01*
X160815805Y-132437972D01*
X160658881Y-132203119D01*
X160424028Y-132046195D01*
X160371698Y-132035786D01*
X160634126Y-131643036D01*
X160799827Y-130810000D01*
X160634126Y-129976964D01*
X160162249Y-129270751D01*
X159456036Y-128798874D01*
X158833279Y-128675000D01*
X151887345Y-128675000D01*
X151741363Y-128529018D01*
X151622248Y-128350750D01*
X150916035Y-127878873D01*
X150293278Y-127754999D01*
X150293274Y-127754999D01*
X150082999Y-127713173D01*
X149872724Y-127754999D01*
X143229721Y-127754999D01*
X142606964Y-127878873D01*
X141900751Y-128350750D01*
X141428874Y-129056963D01*
X141263173Y-129889999D01*
X141428874Y-130723035D01*
X141900751Y-131429248D01*
X142606964Y-131901125D01*
X143129179Y-132005000D01*
X125291925Y-132005000D01*
X125222000Y-131991091D01*
X125152074Y-132005000D01*
X124944972Y-132046195D01*
X124710119Y-132203119D01*
X124553195Y-132437972D01*
X124498091Y-132715000D01*
X116827236Y-132715000D01*
X113665123Y-129552887D01*
X129175700Y-129552887D01*
X129175700Y-130243113D01*
X129439838Y-130880799D01*
X129927901Y-131368862D01*
X130565587Y-131633000D01*
X131255813Y-131633000D01*
X131893499Y-131368862D01*
X132381562Y-130880799D01*
X132645700Y-130243113D01*
X132645700Y-129552887D01*
X132381562Y-128915201D01*
X131893499Y-128427138D01*
X131255813Y-128163000D01*
X130565587Y-128163000D01*
X129927901Y-128427138D01*
X129439838Y-128915201D01*
X129175700Y-129552887D01*
X113665123Y-129552887D01*
X113435531Y-129323296D01*
X113385933Y-129249067D01*
X113091870Y-129052581D01*
X112832556Y-129001000D01*
X112832555Y-129001000D01*
X112745000Y-128983584D01*
X112657445Y-129001000D01*
X109937736Y-129001000D01*
X110631039Y-128307697D01*
X110631040Y-128307695D01*
X115494736Y-123444000D01*
X142318017Y-123444000D01*
X142439375Y-123625625D01*
X142930582Y-123953839D01*
X143363744Y-124040000D01*
X143656256Y-124040000D01*
X144089418Y-123953839D01*
X144580625Y-123625625D01*
X144780000Y-123327239D01*
X144979375Y-123625625D01*
X145277761Y-123825000D01*
X144979375Y-124024375D01*
X144651161Y-124515582D01*
X144535908Y-125095000D01*
X144651161Y-125674418D01*
X144979375Y-126165625D01*
X145470582Y-126493839D01*
X145903744Y-126580000D01*
X146196256Y-126580000D01*
X146629418Y-126493839D01*
X147120625Y-126165625D01*
X147448839Y-125674418D01*
X147564092Y-125095000D01*
X147448839Y-124515582D01*
X147120625Y-124024375D01*
X146822239Y-123825000D01*
X147120625Y-123625625D01*
X147448839Y-123134418D01*
X147564092Y-122555000D01*
X147448839Y-121975582D01*
X147120625Y-121484375D01*
X146822239Y-121285000D01*
X147120625Y-121085625D01*
X147448839Y-120594418D01*
X147564092Y-120015000D01*
X147448839Y-119435582D01*
X147120625Y-118944375D01*
X146822239Y-118745000D01*
X147120625Y-118545625D01*
X147448839Y-118054418D01*
X147564092Y-117475000D01*
X147448839Y-116895582D01*
X147120625Y-116404375D01*
X146822239Y-116205000D01*
X147120625Y-116005625D01*
X147448839Y-115514418D01*
X147564092Y-114935000D01*
X147448839Y-114355582D01*
X147120625Y-113864375D01*
X146822239Y-113665000D01*
X147120625Y-113465625D01*
X147448839Y-112974418D01*
X147564092Y-112395000D01*
X147448839Y-111815582D01*
X147120625Y-111324375D01*
X146822239Y-111125000D01*
X147120625Y-110925625D01*
X147448839Y-110434418D01*
X147564092Y-109855000D01*
X147448839Y-109275582D01*
X147120625Y-108784375D01*
X146822239Y-108585000D01*
X147120625Y-108385625D01*
X147448839Y-107894418D01*
X147564092Y-107315000D01*
X147448839Y-106735582D01*
X147120625Y-106244375D01*
X146629418Y-105916161D01*
X146196256Y-105830000D01*
X145903744Y-105830000D01*
X145470582Y-105916161D01*
X144979375Y-106244375D01*
X144967184Y-106262619D01*
X144958157Y-106217235D01*
X144817809Y-106007191D01*
X144607765Y-105866843D01*
X144360000Y-105817560D01*
X142660000Y-105817560D01*
X142412235Y-105866843D01*
X142202191Y-106007191D01*
X142061843Y-106217235D01*
X142012560Y-106465000D01*
X142012560Y-108165000D01*
X142061843Y-108412765D01*
X142202191Y-108622809D01*
X142412235Y-108763157D01*
X142457619Y-108772184D01*
X142439375Y-108784375D01*
X142111161Y-109275582D01*
X141995908Y-109855000D01*
X142111161Y-110434418D01*
X142439375Y-110925625D01*
X142737761Y-111125000D01*
X142439375Y-111324375D01*
X142111161Y-111815582D01*
X141995908Y-112395000D01*
X142111161Y-112974418D01*
X142439375Y-113465625D01*
X142737761Y-113665000D01*
X142439375Y-113864375D01*
X142111161Y-114355582D01*
X141995908Y-114935000D01*
X142111161Y-115514418D01*
X142439375Y-116005625D01*
X142737761Y-116205000D01*
X142439375Y-116404375D01*
X142111161Y-116895582D01*
X141995908Y-117475000D01*
X142111161Y-118054418D01*
X142439375Y-118545625D01*
X142737761Y-118745000D01*
X142439375Y-118944375D01*
X142111161Y-119435582D01*
X142034288Y-119822052D01*
X135694999Y-113482764D01*
X135694999Y-108096555D01*
X135712415Y-108008999D01*
X135643418Y-107662128D01*
X135496528Y-107442292D01*
X135446932Y-107368066D01*
X135372706Y-107318470D01*
X134239000Y-106184765D01*
X134239000Y-99745735D01*
X135806305Y-98178430D01*
X136158780Y-98032431D01*
X136449931Y-97741280D01*
X136607500Y-97360874D01*
X136607500Y-96949126D01*
X136449931Y-96568720D01*
X136158780Y-96277569D01*
X135778374Y-96120000D01*
X135366626Y-96120000D01*
X134986220Y-96277569D01*
X134695069Y-96568720D01*
X134549070Y-96921195D01*
X132783294Y-98686971D01*
X132709068Y-98736567D01*
X132659472Y-98810793D01*
X132659471Y-98810794D01*
X132512582Y-99030630D01*
X132443584Y-99377500D01*
X132461001Y-99465059D01*
X132461000Y-105664000D01*
X113017236Y-105664000D01*
X104274431Y-96921196D01*
X104128431Y-96568720D01*
X103837280Y-96277569D01*
X103456874Y-96120000D01*
X103045126Y-96120000D01*
X102664720Y-96277569D01*
X102373569Y-96568720D01*
X102216000Y-96949126D01*
X102216000Y-97360874D01*
X102373569Y-97741280D01*
X102664720Y-98032431D01*
X103017196Y-98178431D01*
X111958470Y-107119706D01*
X112008067Y-107193933D01*
X112302130Y-107390419D01*
X112561444Y-107442000D01*
X112648999Y-107459416D01*
X112736554Y-107442000D01*
X132981765Y-107442000D01*
X133917000Y-108377236D01*
X133917000Y-110663925D01*
X133885000Y-110657560D01*
X133709655Y-110657560D01*
X133554558Y-110425442D01*
X133488597Y-110381368D01*
X131253633Y-108146405D01*
X131209557Y-108080441D01*
X130948242Y-107905835D01*
X130717808Y-107859999D01*
X130717804Y-107859999D01*
X130639999Y-107844523D01*
X130562194Y-107859999D01*
X96655685Y-107859999D01*
X96764092Y-107315000D01*
X96648839Y-106735582D01*
X96320625Y-106244375D01*
X95829418Y-105916161D01*
X95396256Y-105830000D01*
X95103744Y-105830000D01*
X94670582Y-105916161D01*
X94179375Y-106244375D01*
X94167184Y-106262619D01*
X94158157Y-106217235D01*
X94017809Y-106007191D01*
X93807765Y-105866843D01*
X93560000Y-105817560D01*
X91860000Y-105817560D01*
X91612235Y-105866843D01*
X91402191Y-106007191D01*
X91261843Y-106217235D01*
X91212560Y-106465000D01*
X91212560Y-108165000D01*
X91261843Y-108412765D01*
X91402191Y-108622809D01*
X91612235Y-108763157D01*
X91657619Y-108772184D01*
X91639375Y-108784375D01*
X91311161Y-109275582D01*
X91195908Y-109855000D01*
X91311161Y-110434418D01*
X91639375Y-110925625D01*
X91937761Y-111125000D01*
X91639375Y-111324375D01*
X91311161Y-111815582D01*
X91195908Y-112395000D01*
X91311161Y-112974418D01*
X91639375Y-113465625D01*
X91937761Y-113665000D01*
X91639375Y-113864375D01*
X91311161Y-114355582D01*
X91195908Y-114935000D01*
X91311161Y-115514418D01*
X91639375Y-116005625D01*
X91937761Y-116205000D01*
X91639375Y-116404375D01*
X91311161Y-116895582D01*
X91195908Y-117475000D01*
X91311161Y-118054418D01*
X91639375Y-118545625D01*
X91937761Y-118745000D01*
X91639375Y-118944375D01*
X91311161Y-119435582D01*
X91195908Y-120015000D01*
X91311161Y-120594418D01*
X91639375Y-121085625D01*
X91937761Y-121285000D01*
X91639375Y-121484375D01*
X91311161Y-121975582D01*
X91195908Y-122555000D01*
X91311161Y-123134418D01*
X91639375Y-123625625D01*
X91937761Y-123825000D01*
X91639375Y-124024375D01*
X91311161Y-124515582D01*
X91195908Y-125095000D01*
X91311161Y-125674418D01*
X91639375Y-126165625D01*
X92130582Y-126493839D01*
X92563744Y-126580000D01*
X92856256Y-126580000D01*
X93289418Y-126493839D01*
X93780625Y-126165625D01*
X94108839Y-125674418D01*
X94224092Y-125095000D01*
X94108839Y-124515582D01*
X93780625Y-124024375D01*
X93482239Y-123825000D01*
X93780625Y-123625625D01*
X93980000Y-123327239D01*
X94179375Y-123625625D01*
X94670582Y-123953839D01*
X95103744Y-124040000D01*
X95396256Y-124040000D01*
X95829418Y-123953839D01*
X96320625Y-123625625D01*
X96648839Y-123134418D01*
X96764092Y-122555000D01*
X96648839Y-121975582D01*
X96320625Y-121484375D01*
X96022239Y-121285000D01*
X96320625Y-121085625D01*
X96648839Y-120594418D01*
X96764092Y-120015000D01*
X96648839Y-119435582D01*
X96320625Y-118944375D01*
X96022239Y-118745000D01*
X96320625Y-118545625D01*
X96648839Y-118054418D01*
X96764092Y-117475000D01*
X96648839Y-116895582D01*
X96320625Y-116404375D01*
X96022239Y-116205000D01*
X96320625Y-116005625D01*
X96648839Y-115514418D01*
X96764092Y-114935000D01*
X96648839Y-114355582D01*
X96320625Y-113864375D01*
X96022239Y-113665000D01*
X96320625Y-113465625D01*
X96648839Y-112974418D01*
X96764092Y-112395000D01*
X96648839Y-111815582D01*
X96320625Y-111324375D01*
X96291629Y-111305000D01*
X105132560Y-111305000D01*
X105132560Y-113105000D01*
X105152451Y-113205000D01*
X105132560Y-113305000D01*
X105132560Y-115105000D01*
X105152451Y-115205000D01*
X105132560Y-115305000D01*
X105132560Y-117105000D01*
X105152451Y-117205000D01*
X105132560Y-117305000D01*
X105132560Y-119105000D01*
X105152451Y-119205000D01*
X105132560Y-119305000D01*
X105132560Y-121105000D01*
X105181843Y-121352765D01*
X105322191Y-121562809D01*
X105532235Y-121703157D01*
X105780000Y-121752440D01*
X107580000Y-121752440D01*
X107680000Y-121732549D01*
X107780000Y-121752440D01*
X109580000Y-121752440D01*
X109827765Y-121703157D01*
X110037809Y-121562809D01*
X110178157Y-121352765D01*
X110227440Y-121105000D01*
X110227440Y-119305000D01*
X110207549Y-119205000D01*
X110227440Y-119105000D01*
X110227440Y-117305000D01*
X110207549Y-117205000D01*
X110227440Y-117105000D01*
X110227440Y-115305000D01*
X110207549Y-115205000D01*
X110227440Y-115105000D01*
X110227440Y-113305000D01*
X110207549Y-113205000D01*
X110227440Y-113105000D01*
X110227440Y-111305000D01*
X110178157Y-111057235D01*
X110037809Y-110847191D01*
X109827765Y-110706843D01*
X109580000Y-110657560D01*
X107780000Y-110657560D01*
X107680000Y-110677451D01*
X107580000Y-110657560D01*
X105780000Y-110657560D01*
X105532235Y-110706843D01*
X105322191Y-110847191D01*
X105181843Y-111057235D01*
X105132560Y-111305000D01*
X96291629Y-111305000D01*
X96022239Y-111125000D01*
X96320625Y-110925625D01*
X96648839Y-110434418D01*
X96764092Y-109855000D01*
X96681543Y-109439999D01*
X130312771Y-109439999D01*
X131530331Y-110657560D01*
X130085000Y-110657560D01*
X129837235Y-110706843D01*
X129627191Y-110847191D01*
X129486843Y-111057235D01*
X129437560Y-111305000D01*
X129437560Y-113105000D01*
X129457451Y-113205000D01*
X129437560Y-113305000D01*
X129437560Y-115105000D01*
X129457451Y-115205000D01*
X129437560Y-115305000D01*
X129437560Y-117105000D01*
X129457451Y-117205000D01*
X129437560Y-117305000D01*
X129437560Y-119105000D01*
X129457451Y-119205000D01*
X129437560Y-119305000D01*
X129437560Y-121105000D01*
X129486843Y-121352765D01*
X129627191Y-121562809D01*
X129781626Y-121666000D01*
X115214050Y-121666000D01*
X115126499Y-121648585D01*
X115038948Y-121666000D01*
X115038944Y-121666000D01*
X114779630Y-121717581D01*
X114485567Y-121914067D01*
X114435971Y-121988293D01*
X109373805Y-127050460D01*
X109373803Y-127050461D01*
X108221699Y-128202565D01*
X108118213Y-128159700D01*
X107427987Y-128159700D01*
X106790301Y-128423838D01*
X106302238Y-128911901D01*
X106038100Y-129549587D01*
X106038100Y-130239813D01*
X106302238Y-130877499D01*
X106790301Y-131365562D01*
X107427987Y-131629700D01*
X108118213Y-131629700D01*
X108755899Y-131365562D01*
X109243962Y-130877499D01*
X109284762Y-130779000D01*
X112376765Y-130779000D01*
X113633018Y-132035253D01*
X113480926Y-132005000D01*
X113411000Y-131991091D01*
X113341075Y-132005000D01*
X95602326Y-132005000D01*
X96124536Y-131901126D01*
X96830749Y-131429249D01*
X97302626Y-130723036D01*
X97468327Y-129890000D01*
X97302626Y-129056964D01*
X96830749Y-128350751D01*
X96124536Y-127878874D01*
X95501779Y-127755000D01*
X88887273Y-127755000D01*
X88676999Y-127713174D01*
X88466726Y-127755000D01*
X88466721Y-127755000D01*
X87843964Y-127878874D01*
X87137751Y-128350751D01*
X87018636Y-128529019D01*
X86872655Y-128675000D01*
X79926721Y-128675000D01*
X79303964Y-128798874D01*
X78597751Y-129270751D01*
X78125874Y-129976964D01*
X77960173Y-130810000D01*
X78125874Y-131643036D01*
X78373402Y-132013488D01*
X78208972Y-132046195D01*
X77974119Y-132203119D01*
X77817195Y-132437972D01*
X77762091Y-132715000D01*
X76910000Y-132715000D01*
X76910000Y-126440000D01*
X90100074Y-126440000D01*
X90170000Y-126453909D01*
X90239925Y-126440000D01*
X90239926Y-126440000D01*
X90447028Y-126398805D01*
X90681881Y-126241881D01*
X90838805Y-126007028D01*
X90893909Y-125730000D01*
X90880000Y-125660074D01*
X90880000Y-105485000D01*
X98990074Y-105485000D01*
X99060000Y-105498909D01*
X99129925Y-105485000D01*
X99129926Y-105485000D01*
X99148682Y-105481269D01*
X99450930Y-106210962D01*
X100164038Y-106924070D01*
X101095757Y-107310000D01*
X102104243Y-107310000D01*
X103035962Y-106924070D01*
X103749070Y-106210962D01*
X104135000Y-105279243D01*
X104135000Y-104270757D01*
X103749070Y-103339038D01*
X103035962Y-102625930D01*
X102104243Y-102240000D01*
X101095757Y-102240000D01*
X100164038Y-102625930D01*
X99770000Y-103019968D01*
X99770000Y-95325000D01*
X138990001Y-95325000D01*
X138990000Y-103019968D01*
X138990000Y-103019968D01*
G37*
X138990000Y-103019968D02*
X138595962Y-102625930D01*
X137664243Y-102240000D01*
X136655757Y-102240000D01*
X135724038Y-102625930D01*
X135010930Y-103339038D01*
X134625000Y-104270757D01*
X134625000Y-105279243D01*
X135010930Y-106210962D01*
X135724038Y-106924070D01*
X136655757Y-107310000D01*
X137664243Y-107310000D01*
X138595962Y-106924070D01*
X139309070Y-106210962D01*
X139611318Y-105481269D01*
X139700000Y-105498909D01*
X139769925Y-105485000D01*
X147880001Y-105485000D01*
X147880000Y-125660074D01*
X147866091Y-125730000D01*
X147921195Y-126007028D01*
X148078119Y-126241881D01*
X148312972Y-126398805D01*
X148590000Y-126453909D01*
X148659925Y-126440000D01*
X161850001Y-126440000D01*
X161850000Y-145340000D01*
X121135032Y-145340000D01*
X121529070Y-144945962D01*
X121915000Y-144014243D01*
X121915000Y-143005757D01*
X121529070Y-142074038D01*
X120815962Y-141360930D01*
X119884243Y-140975000D01*
X118875757Y-140975000D01*
X117944038Y-141360930D01*
X117230930Y-142074038D01*
X116845000Y-143005757D01*
X116845000Y-144014243D01*
X117230930Y-144945962D01*
X117624968Y-145340000D01*
X76910000Y-145340000D01*
X76910000Y-132715000D01*
X77762091Y-132715000D01*
X77776000Y-132784926D01*
X77776001Y-133661070D01*
X77762091Y-133731000D01*
X77817195Y-134008028D01*
X77974119Y-134242881D01*
X78208972Y-134399805D01*
X78416074Y-134441000D01*
X78416075Y-134441000D01*
X78486000Y-134454909D01*
X78534616Y-134445239D01*
X78125874Y-135056964D01*
X77960173Y-135890000D01*
X78125874Y-136723036D01*
X78448306Y-137205589D01*
X78416074Y-137212000D01*
X78208972Y-137253195D01*
X77974119Y-137410119D01*
X77817195Y-137644972D01*
X77762091Y-137922000D01*
X77776000Y-137991925D01*
X77776001Y-138868070D01*
X77762091Y-138938000D01*
X77817195Y-139215028D01*
X77974119Y-139449881D01*
X78208972Y-139606805D01*
X78416074Y-139648000D01*
X78416075Y-139648000D01*
X78448306Y-139654411D01*
X78125874Y-140136964D01*
X77960173Y-140970000D01*
X78125874Y-141803036D01*
X78597751Y-142509249D01*
X79303964Y-142981126D01*
X79926721Y-143105000D01*
X86872655Y-143105000D01*
X87018636Y-143250981D01*
X87137751Y-143429249D01*
X87843964Y-143901126D01*
X88466721Y-144025000D01*
X88466726Y-144025000D01*
X88676999Y-144066826D01*
X88887273Y-144025000D01*
X95501779Y-144025000D01*
X96124536Y-143901126D01*
X96830749Y-143429249D01*
X97302626Y-142723036D01*
X97468327Y-141890000D01*
X97400615Y-141549587D01*
X106038100Y-141549587D01*
X106038100Y-142239813D01*
X106302238Y-142877499D01*
X106790301Y-143365562D01*
X107427987Y-143629700D01*
X108118213Y-143629700D01*
X108755899Y-143365562D01*
X109243962Y-142877499D01*
X109508100Y-142239813D01*
X109508100Y-141549587D01*
X109243962Y-140911901D01*
X108755899Y-140423838D01*
X108118213Y-140159700D01*
X107427987Y-140159700D01*
X106790301Y-140423838D01*
X106302238Y-140911901D01*
X106038100Y-141549587D01*
X97400615Y-141549587D01*
X97302626Y-141056964D01*
X96830749Y-140350751D01*
X96124536Y-139878874D01*
X95501779Y-139755000D01*
X89561345Y-139755000D01*
X89454345Y-139648000D01*
X113341074Y-139648000D01*
X113411000Y-139661909D01*
X113480925Y-139648000D01*
X113480926Y-139648000D01*
X113688028Y-139606805D01*
X113922881Y-139449881D01*
X114079805Y-139215028D01*
X114134909Y-138938000D01*
X114121000Y-138868074D01*
X114121000Y-132784926D01*
X114134909Y-132715000D01*
X114090747Y-132492982D01*
X124054471Y-142456707D01*
X124104067Y-142530933D01*
X124398130Y-142727419D01*
X124657444Y-142779000D01*
X124657445Y-142779000D01*
X124745000Y-142796416D01*
X124832555Y-142779000D01*
X129397672Y-142779000D01*
X129439838Y-142880799D01*
X129927901Y-143368862D01*
X130565587Y-143633000D01*
X131255813Y-143633000D01*
X131893499Y-143368862D01*
X132381562Y-142880799D01*
X132645700Y-142243113D01*
X132645700Y-141552887D01*
X132381562Y-140915201D01*
X131893499Y-140427138D01*
X131255813Y-140163000D01*
X130565587Y-140163000D01*
X129927901Y-140427138D01*
X129439838Y-140915201D01*
X129404299Y-141001000D01*
X125113236Y-141001000D01*
X116827236Y-132715000D01*
X124498091Y-132715000D01*
X124512000Y-132784926D01*
X124512001Y-138868069D01*
X124498091Y-138938000D01*
X124553195Y-139215028D01*
X124710119Y-139449881D01*
X124944972Y-139606805D01*
X125152074Y-139648000D01*
X125152075Y-139648000D01*
X125222000Y-139661909D01*
X125291926Y-139648000D01*
X149305655Y-139648000D01*
X149198655Y-139755000D01*
X143229721Y-139755000D01*
X142606964Y-139878874D01*
X141900751Y-140350751D01*
X141428874Y-141056964D01*
X141263173Y-141890000D01*
X141428874Y-142723036D01*
X141900751Y-143429249D01*
X142606964Y-143901126D01*
X143229721Y-144025000D01*
X149872725Y-144025000D01*
X150083000Y-144066826D01*
X150293275Y-144025000D01*
X150293279Y-144025000D01*
X150916036Y-143901126D01*
X151622249Y-143429249D01*
X151741364Y-143250981D01*
X151887345Y-143105000D01*
X158833279Y-143105000D01*
X159456036Y-142981126D01*
X160162249Y-142509249D01*
X160634126Y-141803036D01*
X160799827Y-140970000D01*
X160634126Y-140136964D01*
X160296795Y-139632113D01*
X160424028Y-139606805D01*
X160658881Y-139449881D01*
X160815805Y-139215028D01*
X160870909Y-138938000D01*
X160857000Y-138868074D01*
X160857000Y-137991925D01*
X160870909Y-137922000D01*
X160815805Y-137644972D01*
X160658881Y-137410119D01*
X160424028Y-137253195D01*
X160296795Y-137227887D01*
X160634126Y-136723036D01*
X160799827Y-135890000D01*
X160634126Y-135056964D01*
X160221892Y-134440012D01*
X160424028Y-134399805D01*
X160658881Y-134242881D01*
X160815805Y-134008028D01*
X160870909Y-133731000D01*
X160857000Y-133661074D01*
X160857000Y-132784926D01*
X160870909Y-132715000D01*
X160815805Y-132437972D01*
X160658881Y-132203119D01*
X160424028Y-132046195D01*
X160371698Y-132035786D01*
X160634126Y-131643036D01*
X160799827Y-130810000D01*
X160634126Y-129976964D01*
X160162249Y-129270751D01*
X159456036Y-128798874D01*
X158833279Y-128675000D01*
X151887345Y-128675000D01*
X151741363Y-128529018D01*
X151622248Y-128350750D01*
X150916035Y-127878873D01*
X150293278Y-127754999D01*
X150293274Y-127754999D01*
X150082999Y-127713173D01*
X149872724Y-127754999D01*
X143229721Y-127754999D01*
X142606964Y-127878873D01*
X141900751Y-128350750D01*
X141428874Y-129056963D01*
X141263173Y-129889999D01*
X141428874Y-130723035D01*
X141900751Y-131429248D01*
X142606964Y-131901125D01*
X143129179Y-132005000D01*
X125291925Y-132005000D01*
X125222000Y-131991091D01*
X125152074Y-132005000D01*
X124944972Y-132046195D01*
X124710119Y-132203119D01*
X124553195Y-132437972D01*
X124498091Y-132715000D01*
X116827236Y-132715000D01*
X113665123Y-129552887D01*
X129175700Y-129552887D01*
X129175700Y-130243113D01*
X129439838Y-130880799D01*
X129927901Y-131368862D01*
X130565587Y-131633000D01*
X131255813Y-131633000D01*
X131893499Y-131368862D01*
X132381562Y-130880799D01*
X132645700Y-130243113D01*
X132645700Y-129552887D01*
X132381562Y-128915201D01*
X131893499Y-128427138D01*
X131255813Y-128163000D01*
X130565587Y-128163000D01*
X129927901Y-128427138D01*
X129439838Y-128915201D01*
X129175700Y-129552887D01*
X113665123Y-129552887D01*
X113435531Y-129323296D01*
X113385933Y-129249067D01*
X113091870Y-129052581D01*
X112832556Y-129001000D01*
X112832555Y-129001000D01*
X112745000Y-128983584D01*
X112657445Y-129001000D01*
X109937736Y-129001000D01*
X110631039Y-128307697D01*
X110631040Y-128307695D01*
X115494736Y-123444000D01*
X142318017Y-123444000D01*
X142439375Y-123625625D01*
X142930582Y-123953839D01*
X143363744Y-124040000D01*
X143656256Y-124040000D01*
X144089418Y-123953839D01*
X144580625Y-123625625D01*
X144780000Y-123327239D01*
X144979375Y-123625625D01*
X145277761Y-123825000D01*
X144979375Y-124024375D01*
X144651161Y-124515582D01*
X144535908Y-125095000D01*
X144651161Y-125674418D01*
X144979375Y-126165625D01*
X145470582Y-126493839D01*
X145903744Y-126580000D01*
X146196256Y-126580000D01*
X146629418Y-126493839D01*
X147120625Y-126165625D01*
X147448839Y-125674418D01*
X147564092Y-125095000D01*
X147448839Y-124515582D01*
X147120625Y-124024375D01*
X146822239Y-123825000D01*
X147120625Y-123625625D01*
X147448839Y-123134418D01*
X147564092Y-122555000D01*
X147448839Y-121975582D01*
X147120625Y-121484375D01*
X146822239Y-121285000D01*
X147120625Y-121085625D01*
X147448839Y-120594418D01*
X147564092Y-120015000D01*
X147448839Y-119435582D01*
X147120625Y-118944375D01*
X146822239Y-118745000D01*
X147120625Y-118545625D01*
X147448839Y-118054418D01*
X147564092Y-117475000D01*
X147448839Y-116895582D01*
X147120625Y-116404375D01*
X146822239Y-116205000D01*
X147120625Y-116005625D01*
X147448839Y-115514418D01*
X147564092Y-114935000D01*
X147448839Y-114355582D01*
X147120625Y-113864375D01*
X146822239Y-113665000D01*
X147120625Y-113465625D01*
X147448839Y-112974418D01*
X147564092Y-112395000D01*
X147448839Y-111815582D01*
X147120625Y-111324375D01*
X146822239Y-111125000D01*
X147120625Y-110925625D01*
X147448839Y-110434418D01*
X147564092Y-109855000D01*
X147448839Y-109275582D01*
X147120625Y-108784375D01*
X146822239Y-108585000D01*
X147120625Y-108385625D01*
X147448839Y-107894418D01*
X147564092Y-107315000D01*
X147448839Y-106735582D01*
X147120625Y-106244375D01*
X146629418Y-105916161D01*
X146196256Y-105830000D01*
X145903744Y-105830000D01*
X145470582Y-105916161D01*
X144979375Y-106244375D01*
X144967184Y-106262619D01*
X144958157Y-106217235D01*
X144817809Y-106007191D01*
X144607765Y-105866843D01*
X144360000Y-105817560D01*
X142660000Y-105817560D01*
X142412235Y-105866843D01*
X142202191Y-106007191D01*
X142061843Y-106217235D01*
X142012560Y-106465000D01*
X142012560Y-108165000D01*
X142061843Y-108412765D01*
X142202191Y-108622809D01*
X142412235Y-108763157D01*
X142457619Y-108772184D01*
X142439375Y-108784375D01*
X142111161Y-109275582D01*
X141995908Y-109855000D01*
X142111161Y-110434418D01*
X142439375Y-110925625D01*
X142737761Y-111125000D01*
X142439375Y-111324375D01*
X142111161Y-111815582D01*
X141995908Y-112395000D01*
X142111161Y-112974418D01*
X142439375Y-113465625D01*
X142737761Y-113665000D01*
X142439375Y-113864375D01*
X142111161Y-114355582D01*
X141995908Y-114935000D01*
X142111161Y-115514418D01*
X142439375Y-116005625D01*
X142737761Y-116205000D01*
X142439375Y-116404375D01*
X142111161Y-116895582D01*
X141995908Y-117475000D01*
X142111161Y-118054418D01*
X142439375Y-118545625D01*
X142737761Y-118745000D01*
X142439375Y-118944375D01*
X142111161Y-119435582D01*
X142034288Y-119822052D01*
X135694999Y-113482764D01*
X135694999Y-108096555D01*
X135712415Y-108008999D01*
X135643418Y-107662128D01*
X135496528Y-107442292D01*
X135446932Y-107368066D01*
X135372706Y-107318470D01*
X134239000Y-106184765D01*
X134239000Y-99745735D01*
X135806305Y-98178430D01*
X136158780Y-98032431D01*
X136449931Y-97741280D01*
X136607500Y-97360874D01*
X136607500Y-96949126D01*
X136449931Y-96568720D01*
X136158780Y-96277569D01*
X135778374Y-96120000D01*
X135366626Y-96120000D01*
X134986220Y-96277569D01*
X134695069Y-96568720D01*
X134549070Y-96921195D01*
X132783294Y-98686971D01*
X132709068Y-98736567D01*
X132659472Y-98810793D01*
X132659471Y-98810794D01*
X132512582Y-99030630D01*
X132443584Y-99377500D01*
X132461001Y-99465059D01*
X132461000Y-105664000D01*
X113017236Y-105664000D01*
X104274431Y-96921196D01*
X104128431Y-96568720D01*
X103837280Y-96277569D01*
X103456874Y-96120000D01*
X103045126Y-96120000D01*
X102664720Y-96277569D01*
X102373569Y-96568720D01*
X102216000Y-96949126D01*
X102216000Y-97360874D01*
X102373569Y-97741280D01*
X102664720Y-98032431D01*
X103017196Y-98178431D01*
X111958470Y-107119706D01*
X112008067Y-107193933D01*
X112302130Y-107390419D01*
X112561444Y-107442000D01*
X112648999Y-107459416D01*
X112736554Y-107442000D01*
X132981765Y-107442000D01*
X133917000Y-108377236D01*
X133917000Y-110663925D01*
X133885000Y-110657560D01*
X133709655Y-110657560D01*
X133554558Y-110425442D01*
X133488597Y-110381368D01*
X131253633Y-108146405D01*
X131209557Y-108080441D01*
X130948242Y-107905835D01*
X130717808Y-107859999D01*
X130717804Y-107859999D01*
X130639999Y-107844523D01*
X130562194Y-107859999D01*
X96655685Y-107859999D01*
X96764092Y-107315000D01*
X96648839Y-106735582D01*
X96320625Y-106244375D01*
X95829418Y-105916161D01*
X95396256Y-105830000D01*
X95103744Y-105830000D01*
X94670582Y-105916161D01*
X94179375Y-106244375D01*
X94167184Y-106262619D01*
X94158157Y-106217235D01*
X94017809Y-106007191D01*
X93807765Y-105866843D01*
X93560000Y-105817560D01*
X91860000Y-105817560D01*
X91612235Y-105866843D01*
X91402191Y-106007191D01*
X91261843Y-106217235D01*
X91212560Y-106465000D01*
X91212560Y-108165000D01*
X91261843Y-108412765D01*
X91402191Y-108622809D01*
X91612235Y-108763157D01*
X91657619Y-108772184D01*
X91639375Y-108784375D01*
X91311161Y-109275582D01*
X91195908Y-109855000D01*
X91311161Y-110434418D01*
X91639375Y-110925625D01*
X91937761Y-111125000D01*
X91639375Y-111324375D01*
X91311161Y-111815582D01*
X91195908Y-112395000D01*
X91311161Y-112974418D01*
X91639375Y-113465625D01*
X91937761Y-113665000D01*
X91639375Y-113864375D01*
X91311161Y-114355582D01*
X91195908Y-114935000D01*
X91311161Y-115514418D01*
X91639375Y-116005625D01*
X91937761Y-116205000D01*
X91639375Y-116404375D01*
X91311161Y-116895582D01*
X91195908Y-117475000D01*
X91311161Y-118054418D01*
X91639375Y-118545625D01*
X91937761Y-118745000D01*
X91639375Y-118944375D01*
X91311161Y-119435582D01*
X91195908Y-120015000D01*
X91311161Y-120594418D01*
X91639375Y-121085625D01*
X91937761Y-121285000D01*
X91639375Y-121484375D01*
X91311161Y-121975582D01*
X91195908Y-122555000D01*
X91311161Y-123134418D01*
X91639375Y-123625625D01*
X91937761Y-123825000D01*
X91639375Y-124024375D01*
X91311161Y-124515582D01*
X91195908Y-125095000D01*
X91311161Y-125674418D01*
X91639375Y-126165625D01*
X92130582Y-126493839D01*
X92563744Y-126580000D01*
X92856256Y-126580000D01*
X93289418Y-126493839D01*
X93780625Y-126165625D01*
X94108839Y-125674418D01*
X94224092Y-125095000D01*
X94108839Y-124515582D01*
X93780625Y-124024375D01*
X93482239Y-123825000D01*
X93780625Y-123625625D01*
X93980000Y-123327239D01*
X94179375Y-123625625D01*
X94670582Y-123953839D01*
X95103744Y-124040000D01*
X95396256Y-124040000D01*
X95829418Y-123953839D01*
X96320625Y-123625625D01*
X96648839Y-123134418D01*
X96764092Y-122555000D01*
X96648839Y-121975582D01*
X96320625Y-121484375D01*
X96022239Y-121285000D01*
X96320625Y-121085625D01*
X96648839Y-120594418D01*
X96764092Y-120015000D01*
X96648839Y-119435582D01*
X96320625Y-118944375D01*
X96022239Y-118745000D01*
X96320625Y-118545625D01*
X96648839Y-118054418D01*
X96764092Y-117475000D01*
X96648839Y-116895582D01*
X96320625Y-116404375D01*
X96022239Y-116205000D01*
X96320625Y-116005625D01*
X96648839Y-115514418D01*
X96764092Y-114935000D01*
X96648839Y-114355582D01*
X96320625Y-113864375D01*
X96022239Y-113665000D01*
X96320625Y-113465625D01*
X96648839Y-112974418D01*
X96764092Y-112395000D01*
X96648839Y-111815582D01*
X96320625Y-111324375D01*
X96291629Y-111305000D01*
X105132560Y-111305000D01*
X105132560Y-113105000D01*
X105152451Y-113205000D01*
X105132560Y-113305000D01*
X105132560Y-115105000D01*
X105152451Y-115205000D01*
X105132560Y-115305000D01*
X105132560Y-117105000D01*
X105152451Y-117205000D01*
X105132560Y-117305000D01*
X105132560Y-119105000D01*
X105152451Y-119205000D01*
X105132560Y-119305000D01*
X105132560Y-121105000D01*
X105181843Y-121352765D01*
X105322191Y-121562809D01*
X105532235Y-121703157D01*
X105780000Y-121752440D01*
X107580000Y-121752440D01*
X107680000Y-121732549D01*
X107780000Y-121752440D01*
X109580000Y-121752440D01*
X109827765Y-121703157D01*
X110037809Y-121562809D01*
X110178157Y-121352765D01*
X110227440Y-121105000D01*
X110227440Y-119305000D01*
X110207549Y-119205000D01*
X110227440Y-119105000D01*
X110227440Y-117305000D01*
X110207549Y-117205000D01*
X110227440Y-117105000D01*
X110227440Y-115305000D01*
X110207549Y-115205000D01*
X110227440Y-115105000D01*
X110227440Y-113305000D01*
X110207549Y-113205000D01*
X110227440Y-113105000D01*
X110227440Y-111305000D01*
X110178157Y-111057235D01*
X110037809Y-110847191D01*
X109827765Y-110706843D01*
X109580000Y-110657560D01*
X107780000Y-110657560D01*
X107680000Y-110677451D01*
X107580000Y-110657560D01*
X105780000Y-110657560D01*
X105532235Y-110706843D01*
X105322191Y-110847191D01*
X105181843Y-111057235D01*
X105132560Y-111305000D01*
X96291629Y-111305000D01*
X96022239Y-111125000D01*
X96320625Y-110925625D01*
X96648839Y-110434418D01*
X96764092Y-109855000D01*
X96681543Y-109439999D01*
X130312771Y-109439999D01*
X131530331Y-110657560D01*
X130085000Y-110657560D01*
X129837235Y-110706843D01*
X129627191Y-110847191D01*
X129486843Y-111057235D01*
X129437560Y-111305000D01*
X129437560Y-113105000D01*
X129457451Y-113205000D01*
X129437560Y-113305000D01*
X129437560Y-115105000D01*
X129457451Y-115205000D01*
X129437560Y-115305000D01*
X129437560Y-117105000D01*
X129457451Y-117205000D01*
X129437560Y-117305000D01*
X129437560Y-119105000D01*
X129457451Y-119205000D01*
X129437560Y-119305000D01*
X129437560Y-121105000D01*
X129486843Y-121352765D01*
X129627191Y-121562809D01*
X129781626Y-121666000D01*
X115214050Y-121666000D01*
X115126499Y-121648585D01*
X115038948Y-121666000D01*
X115038944Y-121666000D01*
X114779630Y-121717581D01*
X114485567Y-121914067D01*
X114435971Y-121988293D01*
X109373805Y-127050460D01*
X109373803Y-127050461D01*
X108221699Y-128202565D01*
X108118213Y-128159700D01*
X107427987Y-128159700D01*
X106790301Y-128423838D01*
X106302238Y-128911901D01*
X106038100Y-129549587D01*
X106038100Y-130239813D01*
X106302238Y-130877499D01*
X106790301Y-131365562D01*
X107427987Y-131629700D01*
X108118213Y-131629700D01*
X108755899Y-131365562D01*
X109243962Y-130877499D01*
X109284762Y-130779000D01*
X112376765Y-130779000D01*
X113633018Y-132035253D01*
X113480926Y-132005000D01*
X113411000Y-131991091D01*
X113341075Y-132005000D01*
X95602326Y-132005000D01*
X96124536Y-131901126D01*
X96830749Y-131429249D01*
X97302626Y-130723036D01*
X97468327Y-129890000D01*
X97302626Y-129056964D01*
X96830749Y-128350751D01*
X96124536Y-127878874D01*
X95501779Y-127755000D01*
X88887273Y-127755000D01*
X88676999Y-127713174D01*
X88466726Y-127755000D01*
X88466721Y-127755000D01*
X87843964Y-127878874D01*
X87137751Y-128350751D01*
X87018636Y-128529019D01*
X86872655Y-128675000D01*
X79926721Y-128675000D01*
X79303964Y-128798874D01*
X78597751Y-129270751D01*
X78125874Y-129976964D01*
X77960173Y-130810000D01*
X78125874Y-131643036D01*
X78373402Y-132013488D01*
X78208972Y-132046195D01*
X77974119Y-132203119D01*
X77817195Y-132437972D01*
X77762091Y-132715000D01*
X76910000Y-132715000D01*
X76910000Y-126440000D01*
X90100074Y-126440000D01*
X90170000Y-126453909D01*
X90239925Y-126440000D01*
X90239926Y-126440000D01*
X90447028Y-126398805D01*
X90681881Y-126241881D01*
X90838805Y-126007028D01*
X90893909Y-125730000D01*
X90880000Y-125660074D01*
X90880000Y-105485000D01*
X98990074Y-105485000D01*
X99060000Y-105498909D01*
X99129925Y-105485000D01*
X99129926Y-105485000D01*
X99148682Y-105481269D01*
X99450930Y-106210962D01*
X100164038Y-106924070D01*
X101095757Y-107310000D01*
X102104243Y-107310000D01*
X103035962Y-106924070D01*
X103749070Y-106210962D01*
X104135000Y-105279243D01*
X104135000Y-104270757D01*
X103749070Y-103339038D01*
X103035962Y-102625930D01*
X102104243Y-102240000D01*
X101095757Y-102240000D01*
X100164038Y-102625930D01*
X99770000Y-103019968D01*
X99770000Y-95325000D01*
X138990001Y-95325000D01*
X138990000Y-103019968D01*
G04 #@! TD*
M02*
