G04 #@! TF.GenerationSoftware,KiCad,Pcbnew,(5.0.2)-1*
G04 #@! TF.CreationDate,2019-12-16T12:52:27+02:00*
G04 #@! TF.ProjectId,2-relay-over-io,322d7265-6c61-4792-9d6f-7665722d696f,rev?*
G04 #@! TF.SameCoordinates,Original*
G04 #@! TF.FileFunction,Legend,Top*
G04 #@! TF.FilePolarity,Positive*
%FSLAX46Y46*%
G04 Gerber Fmt 4.6, Leading zero omitted, Abs format (unit mm)*
G04 Created by KiCad (PCBNEW (5.0.2)-1) date 16.12.2019 12:52:27*
%MOMM*%
%LPD*%
G01*
G04 APERTURE LIST*
%ADD10C,0.150000*%
%ADD11C,0.120000*%
%ADD12C,0.200000*%
%ADD13C,0.050000*%
%ADD14C,0.254000*%
G04 APERTURE END LIST*
D10*
X133429619Y-104989380D02*
X134048666Y-104989380D01*
X133715333Y-105370333D01*
X133858190Y-105370333D01*
X133953428Y-105417952D01*
X134001047Y-105465571D01*
X134048666Y-105560809D01*
X134048666Y-105798904D01*
X134001047Y-105894142D01*
X133953428Y-105941761D01*
X133858190Y-105989380D01*
X133572476Y-105989380D01*
X133477238Y-105941761D01*
X133429619Y-105894142D01*
X134620095Y-104989380D02*
X134620095Y-105227476D01*
X134382000Y-105132238D02*
X134620095Y-105227476D01*
X134858190Y-105132238D01*
X134477238Y-105417952D02*
X134620095Y-105227476D01*
X134762952Y-105417952D01*
X133524856Y-126055380D02*
X133524856Y-125055380D01*
X134191523Y-125055380D02*
X134381999Y-125055380D01*
X134477237Y-125103000D01*
X134572475Y-125198238D01*
X134620094Y-125388714D01*
X134620094Y-125722047D01*
X134572475Y-125912523D01*
X134477237Y-126007761D01*
X134381999Y-126055380D01*
X134191523Y-126055380D01*
X134096285Y-126007761D01*
X134001047Y-125912523D01*
X133953428Y-125722047D01*
X133953428Y-125388714D01*
X134001047Y-125198238D01*
X134096285Y-125103000D01*
X134191523Y-125055380D01*
X135239142Y-125055380D02*
X135334380Y-125055380D01*
X135429618Y-125103000D01*
X135477237Y-125150619D01*
X135524856Y-125245857D01*
X135572475Y-125436333D01*
X135572475Y-125674428D01*
X135524856Y-125864904D01*
X135477237Y-125960142D01*
X135429618Y-126007761D01*
X135334380Y-126055380D01*
X135239142Y-126055380D01*
X135143904Y-126007761D01*
X135096285Y-125960142D01*
X135048666Y-125864904D01*
X135001047Y-125674428D01*
X135001047Y-125436333D01*
X135048666Y-125245857D01*
X135096285Y-125150619D01*
X135143904Y-125103000D01*
X135239142Y-125055380D01*
X136143904Y-125055380D02*
X136143904Y-125293476D01*
X135905809Y-125198238D02*
X136143904Y-125293476D01*
X136381999Y-125198238D01*
X136001047Y-125483952D02*
X136143904Y-125293476D01*
X136286761Y-125483952D01*
X133524857Y-110002580D02*
X133524857Y-109002580D01*
X134191523Y-109002580D02*
X134382000Y-109002580D01*
X134477238Y-109050200D01*
X134572476Y-109145438D01*
X134620095Y-109335914D01*
X134620095Y-109669247D01*
X134572476Y-109859723D01*
X134477238Y-109954961D01*
X134382000Y-110002580D01*
X134191523Y-110002580D01*
X134096285Y-109954961D01*
X134001047Y-109859723D01*
X133953428Y-109669247D01*
X133953428Y-109335914D01*
X134001047Y-109145438D01*
X134096285Y-109050200D01*
X134191523Y-109002580D01*
X135001047Y-109097819D02*
X135048666Y-109050200D01*
X135143904Y-109002580D01*
X135382000Y-109002580D01*
X135477238Y-109050200D01*
X135524857Y-109097819D01*
X135572476Y-109193057D01*
X135572476Y-109288295D01*
X135524857Y-109431152D01*
X134953428Y-110002580D01*
X135572476Y-110002580D01*
X135905809Y-109002580D02*
X136524857Y-109002580D01*
X136191523Y-109383533D01*
X136334380Y-109383533D01*
X136429619Y-109431152D01*
X136477238Y-109478771D01*
X136524857Y-109574009D01*
X136524857Y-109812104D01*
X136477238Y-109907342D01*
X136429619Y-109954961D01*
X136334380Y-110002580D01*
X136048666Y-110002580D01*
X135953428Y-109954961D01*
X135905809Y-109907342D01*
X137096285Y-109002580D02*
X137096285Y-109240676D01*
X136858190Y-109145438D02*
X137096285Y-109240676D01*
X137334380Y-109145438D01*
X136953428Y-109431152D02*
X137096285Y-109240676D01*
X137239142Y-109431152D01*
X133524857Y-112009180D02*
X133524857Y-111009180D01*
X134191523Y-111009180D02*
X134382000Y-111009180D01*
X134477238Y-111056800D01*
X134572476Y-111152038D01*
X134620095Y-111342514D01*
X134620095Y-111675847D01*
X134572476Y-111866323D01*
X134477238Y-111961561D01*
X134382000Y-112009180D01*
X134191523Y-112009180D01*
X134096285Y-111961561D01*
X134001047Y-111866323D01*
X133953428Y-111675847D01*
X133953428Y-111342514D01*
X134001047Y-111152038D01*
X134096285Y-111056800D01*
X134191523Y-111009180D01*
X135572476Y-112009180D02*
X135001047Y-112009180D01*
X135286761Y-112009180D02*
X135286761Y-111009180D01*
X135191523Y-111152038D01*
X135096285Y-111247276D01*
X135001047Y-111294895D01*
X136143904Y-111437752D02*
X136048666Y-111390133D01*
X136001047Y-111342514D01*
X135953428Y-111247276D01*
X135953428Y-111199657D01*
X136001047Y-111104419D01*
X136048666Y-111056800D01*
X136143904Y-111009180D01*
X136334380Y-111009180D01*
X136429619Y-111056800D01*
X136477238Y-111104419D01*
X136524857Y-111199657D01*
X136524857Y-111247276D01*
X136477238Y-111342514D01*
X136429619Y-111390133D01*
X136334380Y-111437752D01*
X136143904Y-111437752D01*
X136048666Y-111485371D01*
X136001047Y-111532990D01*
X135953428Y-111628228D01*
X135953428Y-111818704D01*
X136001047Y-111913942D01*
X136048666Y-111961561D01*
X136143904Y-112009180D01*
X136334380Y-112009180D01*
X136429619Y-111961561D01*
X136477238Y-111913942D01*
X136524857Y-111818704D01*
X136524857Y-111628228D01*
X136477238Y-111532990D01*
X136429619Y-111485371D01*
X136334380Y-111437752D01*
X137096285Y-111009180D02*
X137096285Y-111247276D01*
X136858190Y-111152038D02*
X137096285Y-111247276D01*
X137334380Y-111152038D01*
X136953428Y-111437752D02*
X137096285Y-111247276D01*
X137239142Y-111437752D01*
X133524857Y-120035580D02*
X133524857Y-119035580D01*
X134191523Y-119035580D02*
X134382000Y-119035580D01*
X134477238Y-119083200D01*
X134572476Y-119178438D01*
X134620095Y-119368914D01*
X134620095Y-119702247D01*
X134572476Y-119892723D01*
X134477238Y-119987961D01*
X134382000Y-120035580D01*
X134191523Y-120035580D01*
X134096285Y-119987961D01*
X134001047Y-119892723D01*
X133953428Y-119702247D01*
X133953428Y-119368914D01*
X134001047Y-119178438D01*
X134096285Y-119083200D01*
X134191523Y-119035580D01*
X135001047Y-119130819D02*
X135048666Y-119083200D01*
X135143904Y-119035580D01*
X135382000Y-119035580D01*
X135477238Y-119083200D01*
X135524857Y-119130819D01*
X135572476Y-119226057D01*
X135572476Y-119321295D01*
X135524857Y-119464152D01*
X134953428Y-120035580D01*
X135572476Y-120035580D01*
X135953428Y-119130819D02*
X136001047Y-119083200D01*
X136096285Y-119035580D01*
X136334380Y-119035580D01*
X136429619Y-119083200D01*
X136477238Y-119130819D01*
X136524857Y-119226057D01*
X136524857Y-119321295D01*
X136477238Y-119464152D01*
X135905809Y-120035580D01*
X136524857Y-120035580D01*
X137096285Y-119035580D02*
X137096285Y-119273676D01*
X136858190Y-119178438D02*
X137096285Y-119273676D01*
X137334380Y-119178438D01*
X136953428Y-119464152D02*
X137096285Y-119273676D01*
X137239142Y-119464152D01*
X133524857Y-124048780D02*
X133524857Y-123048780D01*
X134191523Y-123048780D02*
X134381999Y-123048780D01*
X134477237Y-123096400D01*
X134572476Y-123191638D01*
X134620095Y-123382114D01*
X134620095Y-123715447D01*
X134572476Y-123905923D01*
X134477237Y-124001161D01*
X134381999Y-124048780D01*
X134191523Y-124048780D01*
X134096285Y-124001161D01*
X134001047Y-123905923D01*
X133953428Y-123715447D01*
X133953428Y-123382114D01*
X134001047Y-123191638D01*
X134096285Y-123096400D01*
X134191523Y-123048780D01*
X135524857Y-123048780D02*
X135048666Y-123048780D01*
X135001047Y-123524971D01*
X135048666Y-123477352D01*
X135143904Y-123429733D01*
X135381999Y-123429733D01*
X135477237Y-123477352D01*
X135524857Y-123524971D01*
X135572476Y-123620209D01*
X135572476Y-123858304D01*
X135524857Y-123953542D01*
X135477237Y-124001161D01*
X135381999Y-124048780D01*
X135143904Y-124048780D01*
X135048666Y-124001161D01*
X135001047Y-123953542D01*
X133524857Y-107995980D02*
X133524857Y-106995980D01*
X134191523Y-106995980D02*
X134382000Y-106995980D01*
X134477238Y-107043600D01*
X134572476Y-107138838D01*
X134620095Y-107329314D01*
X134620095Y-107662647D01*
X134572476Y-107853123D01*
X134477238Y-107948361D01*
X134382000Y-107995980D01*
X134191523Y-107995980D01*
X134096285Y-107948361D01*
X134001047Y-107853123D01*
X133953428Y-107662647D01*
X133953428Y-107329314D01*
X134001047Y-107138838D01*
X134096285Y-107043600D01*
X134191523Y-106995980D01*
X135001047Y-107091219D02*
X135048666Y-107043600D01*
X135143904Y-106995980D01*
X135382000Y-106995980D01*
X135477238Y-107043600D01*
X135524857Y-107091219D01*
X135572476Y-107186457D01*
X135572476Y-107281695D01*
X135524857Y-107424552D01*
X134953428Y-107995980D01*
X135572476Y-107995980D01*
X136524857Y-107995980D02*
X135953428Y-107995980D01*
X136239142Y-107995980D02*
X136239142Y-106995980D01*
X136143904Y-107138838D01*
X136048666Y-107234076D01*
X135953428Y-107281695D01*
X137096285Y-106995980D02*
X137096285Y-107234076D01*
X136858190Y-107138838D02*
X137096285Y-107234076D01*
X137334380Y-107138838D01*
X136953428Y-107424552D02*
X137096285Y-107234076D01*
X137239142Y-107424552D01*
X133524857Y-114015780D02*
X133524857Y-113015780D01*
X134191523Y-113015780D02*
X134381999Y-113015780D01*
X134477237Y-113063400D01*
X134572476Y-113158638D01*
X134620095Y-113349114D01*
X134620095Y-113682447D01*
X134572476Y-113872923D01*
X134477237Y-113968161D01*
X134381999Y-114015780D01*
X134191523Y-114015780D01*
X134096285Y-113968161D01*
X134001047Y-113872923D01*
X133953428Y-113682447D01*
X133953428Y-113349114D01*
X134001047Y-113158638D01*
X134096285Y-113063400D01*
X134191523Y-113015780D01*
X135477237Y-113349114D02*
X135477237Y-114015780D01*
X135239142Y-112968161D02*
X135001047Y-113682447D01*
X135620095Y-113682447D01*
X133524856Y-118028980D02*
X133524856Y-117028980D01*
X134191523Y-117028980D02*
X134381999Y-117028980D01*
X134477237Y-117076600D01*
X134572475Y-117171838D01*
X134620094Y-117362314D01*
X134620094Y-117695647D01*
X134572475Y-117886123D01*
X134477237Y-117981361D01*
X134381999Y-118028980D01*
X134191523Y-118028980D01*
X134096285Y-117981361D01*
X134001047Y-117886123D01*
X133953428Y-117695647D01*
X133953428Y-117362314D01*
X134001047Y-117171838D01*
X134096285Y-117076600D01*
X134191523Y-117028980D01*
X135572475Y-118028980D02*
X135001047Y-118028980D01*
X135286761Y-118028980D02*
X135286761Y-117028980D01*
X135191523Y-117171838D01*
X135096285Y-117267076D01*
X135001047Y-117314695D01*
X136143904Y-117028980D02*
X136143904Y-117267076D01*
X135905809Y-117171838D02*
X136143904Y-117267076D01*
X136381999Y-117171838D01*
X136001047Y-117457552D02*
X136143904Y-117267076D01*
X136286761Y-117457552D01*
X133524856Y-116022380D02*
X133524856Y-115022380D01*
X134191523Y-115022380D02*
X134381999Y-115022380D01*
X134477237Y-115070000D01*
X134572475Y-115165238D01*
X134620094Y-115355714D01*
X134620094Y-115689047D01*
X134572475Y-115879523D01*
X134477237Y-115974761D01*
X134381999Y-116022380D01*
X134191523Y-116022380D01*
X134096285Y-115974761D01*
X134001047Y-115879523D01*
X133953428Y-115689047D01*
X133953428Y-115355714D01*
X134001047Y-115165238D01*
X134096285Y-115070000D01*
X134191523Y-115022380D01*
X135001047Y-115117619D02*
X135048666Y-115070000D01*
X135143904Y-115022380D01*
X135381999Y-115022380D01*
X135477237Y-115070000D01*
X135524856Y-115117619D01*
X135572475Y-115212857D01*
X135572475Y-115308095D01*
X135524856Y-115450952D01*
X134953428Y-116022380D01*
X135572475Y-116022380D01*
X136143904Y-115022380D02*
X136143904Y-115260476D01*
X135905809Y-115165238D02*
X136143904Y-115260476D01*
X136381999Y-115165238D01*
X136001047Y-115450952D02*
X136143904Y-115260476D01*
X136286761Y-115450952D01*
X133524857Y-122042180D02*
X133524857Y-121042180D01*
X134191523Y-121042180D02*
X134382000Y-121042180D01*
X134477238Y-121089800D01*
X134572476Y-121185038D01*
X134620095Y-121375514D01*
X134620095Y-121708847D01*
X134572476Y-121899323D01*
X134477238Y-121994561D01*
X134382000Y-122042180D01*
X134191523Y-122042180D01*
X134096285Y-121994561D01*
X134001047Y-121899323D01*
X133953428Y-121708847D01*
X133953428Y-121375514D01*
X134001047Y-121185038D01*
X134096285Y-121089800D01*
X134191523Y-121042180D01*
X135572476Y-122042180D02*
X135001047Y-122042180D01*
X135286761Y-122042180D02*
X135286761Y-121042180D01*
X135191523Y-121185038D01*
X135096285Y-121280276D01*
X135001047Y-121327895D01*
X136048666Y-122042180D02*
X136239142Y-122042180D01*
X136334380Y-121994561D01*
X136382000Y-121946942D01*
X136477238Y-121804085D01*
X136524857Y-121613609D01*
X136524857Y-121232657D01*
X136477238Y-121137419D01*
X136429619Y-121089800D01*
X136334380Y-121042180D01*
X136143904Y-121042180D01*
X136048666Y-121089800D01*
X136001047Y-121137419D01*
X135953428Y-121232657D01*
X135953428Y-121470752D01*
X136001047Y-121565990D01*
X136048666Y-121613609D01*
X136143904Y-121661228D01*
X136334380Y-121661228D01*
X136429619Y-121613609D01*
X136477238Y-121565990D01*
X136524857Y-121470752D01*
X137096285Y-121042180D02*
X137096285Y-121280276D01*
X136858190Y-121185038D02*
X137096285Y-121280276D01*
X137334380Y-121185038D01*
X136953428Y-121470752D02*
X137096285Y-121280276D01*
X137239142Y-121470752D01*
X102282761Y-107995980D02*
X102282761Y-106995980D01*
X102949428Y-106995980D02*
X103139904Y-106995980D01*
X103235142Y-107043600D01*
X103330380Y-107138838D01*
X103377999Y-107329314D01*
X103377999Y-107662647D01*
X103330380Y-107853123D01*
X103235142Y-107948361D01*
X103139904Y-107995980D01*
X102949428Y-107995980D01*
X102854190Y-107948361D01*
X102758952Y-107853123D01*
X102711332Y-107662647D01*
X102711332Y-107329314D01*
X102758952Y-107138838D01*
X102854190Y-107043600D01*
X102949428Y-106995980D01*
X103758952Y-107091219D02*
X103806571Y-107043600D01*
X103901809Y-106995980D01*
X104139904Y-106995980D01*
X104235142Y-107043600D01*
X104282761Y-107091219D01*
X104330380Y-107186457D01*
X104330380Y-107281695D01*
X104282761Y-107424552D01*
X103711332Y-107995980D01*
X104330380Y-107995980D01*
X105235142Y-106995980D02*
X104758952Y-106995980D01*
X104711332Y-107472171D01*
X104758952Y-107424552D01*
X104854190Y-107376933D01*
X105092285Y-107376933D01*
X105187523Y-107424552D01*
X105235142Y-107472171D01*
X105282761Y-107567409D01*
X105282761Y-107805504D01*
X105235142Y-107900742D01*
X105187523Y-107948361D01*
X105092285Y-107995980D01*
X104854190Y-107995980D01*
X104758952Y-107948361D01*
X104711332Y-107900742D01*
X101663714Y-109002580D02*
X101663714Y-109240676D01*
X101425619Y-109145438D02*
X101663714Y-109240676D01*
X101901809Y-109145438D01*
X101520857Y-109431152D02*
X101663714Y-109240676D01*
X101806571Y-109431152D01*
X102282761Y-110002580D02*
X102282761Y-109002580D01*
X102949428Y-109002580D02*
X103139904Y-109002580D01*
X103235142Y-109050200D01*
X103330380Y-109145438D01*
X103378000Y-109335914D01*
X103378000Y-109669247D01*
X103330380Y-109859723D01*
X103235142Y-109954961D01*
X103139904Y-110002580D01*
X102949428Y-110002580D01*
X102854190Y-109954961D01*
X102758952Y-109859723D01*
X102711333Y-109669247D01*
X102711333Y-109335914D01*
X102758952Y-109145438D01*
X102854190Y-109050200D01*
X102949428Y-109002580D01*
X104330380Y-110002580D02*
X103758952Y-110002580D01*
X104044666Y-110002580D02*
X104044666Y-109002580D01*
X103949428Y-109145438D01*
X103854190Y-109240676D01*
X103758952Y-109288295D01*
X104663714Y-109002580D02*
X105282761Y-109002580D01*
X104949428Y-109383533D01*
X105092285Y-109383533D01*
X105187523Y-109431152D01*
X105235142Y-109478771D01*
X105282761Y-109574009D01*
X105282761Y-109812104D01*
X105235142Y-109907342D01*
X105187523Y-109954961D01*
X105092285Y-110002580D01*
X104806571Y-110002580D01*
X104711333Y-109954961D01*
X104663714Y-109907342D01*
X101663714Y-111009180D02*
X101663714Y-111247276D01*
X101425619Y-111152038D02*
X101663714Y-111247276D01*
X101901809Y-111152038D01*
X101520857Y-111437752D02*
X101663714Y-111247276D01*
X101806571Y-111437752D01*
X102282761Y-112009180D02*
X102282761Y-111009180D01*
X102949428Y-111009180D02*
X103139904Y-111009180D01*
X103235142Y-111056800D01*
X103330380Y-111152038D01*
X103378000Y-111342514D01*
X103378000Y-111675847D01*
X103330380Y-111866323D01*
X103235142Y-111961561D01*
X103139904Y-112009180D01*
X102949428Y-112009180D01*
X102854190Y-111961561D01*
X102758952Y-111866323D01*
X102711333Y-111675847D01*
X102711333Y-111342514D01*
X102758952Y-111152038D01*
X102854190Y-111056800D01*
X102949428Y-111009180D01*
X104330380Y-112009180D02*
X103758952Y-112009180D01*
X104044666Y-112009180D02*
X104044666Y-111009180D01*
X103949428Y-111152038D01*
X103854190Y-111247276D01*
X103758952Y-111294895D01*
X105187523Y-111342514D02*
X105187523Y-112009180D01*
X104949428Y-110961561D02*
X104711333Y-111675847D01*
X105330380Y-111675847D01*
X102282761Y-114015780D02*
X102282761Y-113015780D01*
X102949428Y-113015780D02*
X103139904Y-113015780D01*
X103235142Y-113063400D01*
X103330380Y-113158638D01*
X103377999Y-113349114D01*
X103377999Y-113682447D01*
X103330380Y-113872923D01*
X103235142Y-113968161D01*
X103139904Y-114015780D01*
X102949428Y-114015780D01*
X102854190Y-113968161D01*
X102758952Y-113872923D01*
X102711332Y-113682447D01*
X102711332Y-113349114D01*
X102758952Y-113158638D01*
X102854190Y-113063400D01*
X102949428Y-113015780D01*
X103758952Y-113111019D02*
X103806571Y-113063400D01*
X103901809Y-113015780D01*
X104139904Y-113015780D01*
X104235142Y-113063400D01*
X104282761Y-113111019D01*
X104330380Y-113206257D01*
X104330380Y-113301495D01*
X104282761Y-113444352D01*
X103711332Y-114015780D01*
X104330380Y-114015780D01*
X105187523Y-113015780D02*
X104997047Y-113015780D01*
X104901809Y-113063400D01*
X104854190Y-113111019D01*
X104758952Y-113253876D01*
X104711332Y-113444352D01*
X104711332Y-113825304D01*
X104758952Y-113920542D01*
X104806571Y-113968161D01*
X104901809Y-114015780D01*
X105092285Y-114015780D01*
X105187523Y-113968161D01*
X105235142Y-113920542D01*
X105282761Y-113825304D01*
X105282761Y-113587209D01*
X105235142Y-113491971D01*
X105187523Y-113444352D01*
X105092285Y-113396733D01*
X104901809Y-113396733D01*
X104806571Y-113444352D01*
X104758952Y-113491971D01*
X104711332Y-113587209D01*
X102282761Y-116022380D02*
X102282761Y-115022380D01*
X102949428Y-115022380D02*
X103139904Y-115022380D01*
X103235142Y-115070000D01*
X103330380Y-115165238D01*
X103377999Y-115355714D01*
X103377999Y-115689047D01*
X103330380Y-115879523D01*
X103235142Y-115974761D01*
X103139904Y-116022380D01*
X102949428Y-116022380D01*
X102854190Y-115974761D01*
X102758952Y-115879523D01*
X102711332Y-115689047D01*
X102711332Y-115355714D01*
X102758952Y-115165238D01*
X102854190Y-115070000D01*
X102949428Y-115022380D01*
X103758952Y-115117619D02*
X103806571Y-115070000D01*
X103901809Y-115022380D01*
X104139904Y-115022380D01*
X104235142Y-115070000D01*
X104282761Y-115117619D01*
X104330380Y-115212857D01*
X104330380Y-115308095D01*
X104282761Y-115450952D01*
X103711332Y-116022380D01*
X104330380Y-116022380D01*
X104663713Y-115022380D02*
X105330380Y-115022380D01*
X104901809Y-116022380D01*
X102282761Y-118028980D02*
X102282761Y-117028980D01*
X102949428Y-117028980D02*
X103139904Y-117028980D01*
X103235142Y-117076600D01*
X103330380Y-117171838D01*
X103377999Y-117362314D01*
X103377999Y-117695647D01*
X103330380Y-117886123D01*
X103235142Y-117981361D01*
X103139904Y-118028980D01*
X102949428Y-118028980D01*
X102854190Y-117981361D01*
X102758952Y-117886123D01*
X102711332Y-117695647D01*
X102711332Y-117362314D01*
X102758952Y-117171838D01*
X102854190Y-117076600D01*
X102949428Y-117028980D01*
X104330380Y-118028980D02*
X103758952Y-118028980D01*
X104044666Y-118028980D02*
X104044666Y-117028980D01*
X103949428Y-117171838D01*
X103854190Y-117267076D01*
X103758952Y-117314695D01*
X104663713Y-117028980D02*
X105330380Y-117028980D01*
X104901809Y-118028980D01*
X102282761Y-120035580D02*
X102282761Y-119035580D01*
X102949428Y-119035580D02*
X103139904Y-119035580D01*
X103235142Y-119083200D01*
X103330380Y-119178438D01*
X103377999Y-119368914D01*
X103377999Y-119702247D01*
X103330380Y-119892723D01*
X103235142Y-119987961D01*
X103139904Y-120035580D01*
X102949428Y-120035580D01*
X102854190Y-119987961D01*
X102758952Y-119892723D01*
X102711332Y-119702247D01*
X102711332Y-119368914D01*
X102758952Y-119178438D01*
X102854190Y-119083200D01*
X102949428Y-119035580D01*
X103711332Y-119035580D02*
X104330380Y-119035580D01*
X103997047Y-119416533D01*
X104139904Y-119416533D01*
X104235142Y-119464152D01*
X104282761Y-119511771D01*
X104330380Y-119607009D01*
X104330380Y-119845104D01*
X104282761Y-119940342D01*
X104235142Y-119987961D01*
X104139904Y-120035580D01*
X103854190Y-120035580D01*
X103758952Y-119987961D01*
X103711332Y-119940342D01*
X104663713Y-119035580D02*
X105282761Y-119035580D01*
X104949428Y-119416533D01*
X105092285Y-119416533D01*
X105187523Y-119464152D01*
X105235142Y-119511771D01*
X105282761Y-119607009D01*
X105282761Y-119845104D01*
X105235142Y-119940342D01*
X105187523Y-119987961D01*
X105092285Y-120035580D01*
X104806571Y-120035580D01*
X104711332Y-119987961D01*
X104663713Y-119940342D01*
X101663714Y-121042180D02*
X101663714Y-121280276D01*
X101425619Y-121185038D02*
X101663714Y-121280276D01*
X101901809Y-121185038D01*
X101520857Y-121470752D02*
X101663714Y-121280276D01*
X101806571Y-121470752D01*
X102282761Y-122042180D02*
X102282761Y-121042180D01*
X102949428Y-121042180D02*
X103139904Y-121042180D01*
X103235142Y-121089800D01*
X103330380Y-121185038D01*
X103378000Y-121375514D01*
X103378000Y-121708847D01*
X103330380Y-121899323D01*
X103235142Y-121994561D01*
X103139904Y-122042180D01*
X102949428Y-122042180D01*
X102854190Y-121994561D01*
X102758952Y-121899323D01*
X102711333Y-121708847D01*
X102711333Y-121375514D01*
X102758952Y-121185038D01*
X102854190Y-121089800D01*
X102949428Y-121042180D01*
X104330380Y-122042180D02*
X103758952Y-122042180D01*
X104044666Y-122042180D02*
X104044666Y-121042180D01*
X103949428Y-121185038D01*
X103854190Y-121280276D01*
X103758952Y-121327895D01*
X104711333Y-121137419D02*
X104758952Y-121089800D01*
X104854190Y-121042180D01*
X105092285Y-121042180D01*
X105187523Y-121089800D01*
X105235142Y-121137419D01*
X105282761Y-121232657D01*
X105282761Y-121327895D01*
X105235142Y-121470752D01*
X104663714Y-122042180D01*
X105282761Y-122042180D01*
X102282761Y-124048780D02*
X102282761Y-123048780D01*
X102949428Y-123048780D02*
X103139904Y-123048780D01*
X103235142Y-123096400D01*
X103330380Y-123191638D01*
X103377999Y-123382114D01*
X103377999Y-123715447D01*
X103330380Y-123905923D01*
X103235142Y-124001161D01*
X103139904Y-124048780D01*
X102949428Y-124048780D01*
X102854190Y-124001161D01*
X102758952Y-123905923D01*
X102711332Y-123715447D01*
X102711332Y-123382114D01*
X102758952Y-123191638D01*
X102854190Y-123096400D01*
X102949428Y-123048780D01*
X104330380Y-124048780D02*
X103758952Y-124048780D01*
X104044666Y-124048780D02*
X104044666Y-123048780D01*
X103949428Y-123191638D01*
X103854190Y-123286876D01*
X103758952Y-123334495D01*
X105235142Y-123048780D02*
X104758952Y-123048780D01*
X104711332Y-123524971D01*
X104758952Y-123477352D01*
X104854190Y-123429733D01*
X105092285Y-123429733D01*
X105187523Y-123477352D01*
X105235142Y-123524971D01*
X105282761Y-123620209D01*
X105282761Y-123858304D01*
X105235142Y-123953542D01*
X105187523Y-124001161D01*
X105092285Y-124048780D01*
X104854190Y-124048780D01*
X104758952Y-124001161D01*
X104711332Y-123953542D01*
X102282761Y-126055380D02*
X102282761Y-125055380D01*
X102949428Y-125055380D02*
X103139904Y-125055380D01*
X103235142Y-125103000D01*
X103330380Y-125198238D01*
X103377999Y-125388714D01*
X103377999Y-125722047D01*
X103330380Y-125912523D01*
X103235142Y-126007761D01*
X103139904Y-126055380D01*
X102949428Y-126055380D01*
X102854190Y-126007761D01*
X102758952Y-125912523D01*
X102711332Y-125722047D01*
X102711332Y-125388714D01*
X102758952Y-125198238D01*
X102854190Y-125103000D01*
X102949428Y-125055380D01*
X104330380Y-126055380D02*
X103758952Y-126055380D01*
X104044666Y-126055380D02*
X104044666Y-125055380D01*
X103949428Y-125198238D01*
X103854190Y-125293476D01*
X103758952Y-125341095D01*
X105187523Y-125055380D02*
X104997047Y-125055380D01*
X104901809Y-125103000D01*
X104854190Y-125150619D01*
X104758952Y-125293476D01*
X104711332Y-125483952D01*
X104711332Y-125864904D01*
X104758952Y-125960142D01*
X104806571Y-126007761D01*
X104901809Y-126055380D01*
X105092285Y-126055380D01*
X105187523Y-126007761D01*
X105235142Y-125960142D01*
X105282761Y-125864904D01*
X105282761Y-125626809D01*
X105235142Y-125531571D01*
X105187523Y-125483952D01*
X105092285Y-125436333D01*
X104901809Y-125436333D01*
X104806571Y-125483952D01*
X104758952Y-125531571D01*
X104711332Y-125626809D01*
X110942380Y-119847666D02*
X110466190Y-120181000D01*
X110942380Y-120419095D02*
X109942380Y-120419095D01*
X109942380Y-120038142D01*
X109990000Y-119942904D01*
X110037619Y-119895285D01*
X110132857Y-119847666D01*
X110275714Y-119847666D01*
X110370952Y-119895285D01*
X110418571Y-119942904D01*
X110466190Y-120038142D01*
X110466190Y-120419095D01*
X110894761Y-119038142D02*
X110942380Y-119133380D01*
X110942380Y-119323857D01*
X110894761Y-119419095D01*
X110799523Y-119466714D01*
X110418571Y-119466714D01*
X110323333Y-119419095D01*
X110275714Y-119323857D01*
X110275714Y-119133380D01*
X110323333Y-119038142D01*
X110418571Y-118990523D01*
X110513809Y-118990523D01*
X110609047Y-119466714D01*
X110942380Y-118419095D02*
X110894761Y-118514333D01*
X110799523Y-118561952D01*
X109942380Y-118561952D01*
X110942380Y-117609571D02*
X110418571Y-117609571D01*
X110323333Y-117657190D01*
X110275714Y-117752428D01*
X110275714Y-117942904D01*
X110323333Y-118038142D01*
X110894761Y-117609571D02*
X110942380Y-117704809D01*
X110942380Y-117942904D01*
X110894761Y-118038142D01*
X110799523Y-118085761D01*
X110704285Y-118085761D01*
X110609047Y-118038142D01*
X110561428Y-117942904D01*
X110561428Y-117704809D01*
X110513809Y-117609571D01*
X110275714Y-117228619D02*
X110942380Y-116990523D01*
X110275714Y-116752428D02*
X110942380Y-116990523D01*
X111180476Y-117085761D01*
X111228095Y-117133380D01*
X111275714Y-117228619D01*
X110942380Y-115085761D02*
X110942380Y-115657190D01*
X110942380Y-115371476D02*
X109942380Y-115371476D01*
X110085238Y-115466714D01*
X110180476Y-115561952D01*
X110228095Y-115657190D01*
X110847142Y-113323857D02*
X110894761Y-113371476D01*
X110942380Y-113514333D01*
X110942380Y-113609571D01*
X110894761Y-113752428D01*
X110799523Y-113847666D01*
X110704285Y-113895285D01*
X110513809Y-113942904D01*
X110370952Y-113942904D01*
X110180476Y-113895285D01*
X110085238Y-113847666D01*
X109990000Y-113752428D01*
X109942380Y-113609571D01*
X109942380Y-113514333D01*
X109990000Y-113371476D01*
X110037619Y-113323857D01*
X110942380Y-112752428D02*
X110894761Y-112847666D01*
X110847142Y-112895285D01*
X110751904Y-112942904D01*
X110466190Y-112942904D01*
X110370952Y-112895285D01*
X110323333Y-112847666D01*
X110275714Y-112752428D01*
X110275714Y-112609571D01*
X110323333Y-112514333D01*
X110370952Y-112466714D01*
X110466190Y-112419095D01*
X110751904Y-112419095D01*
X110847142Y-112466714D01*
X110894761Y-112514333D01*
X110942380Y-112609571D01*
X110942380Y-112752428D01*
X110275714Y-111990523D02*
X110942380Y-111990523D01*
X110370952Y-111990523D02*
X110323333Y-111942904D01*
X110275714Y-111847666D01*
X110275714Y-111704809D01*
X110323333Y-111609571D01*
X110418571Y-111561952D01*
X110942380Y-111561952D01*
X110275714Y-111228619D02*
X110275714Y-110847666D01*
X109942380Y-111085761D02*
X110799523Y-111085761D01*
X110894761Y-111038142D01*
X110942380Y-110942904D01*
X110942380Y-110847666D01*
X110942380Y-110514333D02*
X110275714Y-110514333D01*
X110466190Y-110514333D02*
X110370952Y-110466714D01*
X110323333Y-110419095D01*
X110275714Y-110323857D01*
X110275714Y-110228619D01*
X110942380Y-109752428D02*
X110894761Y-109847666D01*
X110847142Y-109895285D01*
X110751904Y-109942904D01*
X110466190Y-109942904D01*
X110370952Y-109895285D01*
X110323333Y-109847666D01*
X110275714Y-109752428D01*
X110275714Y-109609571D01*
X110323333Y-109514333D01*
X110370952Y-109466714D01*
X110466190Y-109419095D01*
X110751904Y-109419095D01*
X110847142Y-109466714D01*
X110894761Y-109514333D01*
X110942380Y-109609571D01*
X110942380Y-109752428D01*
X110942380Y-108847666D02*
X110894761Y-108942904D01*
X110799523Y-108990523D01*
X109942380Y-108990523D01*
X104330380Y-105989380D02*
X103758952Y-105989380D01*
X104044666Y-105989380D02*
X104044666Y-104989380D01*
X103949428Y-105132238D01*
X103854190Y-105227476D01*
X103758952Y-105275095D01*
X105187523Y-104989380D02*
X104997047Y-104989380D01*
X104901809Y-105037000D01*
X104854190Y-105084619D01*
X104758952Y-105227476D01*
X104711333Y-105417952D01*
X104711333Y-105798904D01*
X104758952Y-105894142D01*
X104806571Y-105941761D01*
X104901809Y-105989380D01*
X105092285Y-105989380D01*
X105187523Y-105941761D01*
X105235142Y-105894142D01*
X105282761Y-105798904D01*
X105282761Y-105560809D01*
X105235142Y-105465571D01*
X105187523Y-105417952D01*
X105092285Y-105370333D01*
X104901809Y-105370333D01*
X104806571Y-105417952D01*
X104758952Y-105465571D01*
X104711333Y-105560809D01*
X128849380Y-121244666D02*
X128373190Y-121578000D01*
X128849380Y-121816095D02*
X127849380Y-121816095D01*
X127849380Y-121435142D01*
X127897000Y-121339904D01*
X127944619Y-121292285D01*
X128039857Y-121244666D01*
X128182714Y-121244666D01*
X128277952Y-121292285D01*
X128325571Y-121339904D01*
X128373190Y-121435142D01*
X128373190Y-121816095D01*
X128801761Y-120435142D02*
X128849380Y-120530380D01*
X128849380Y-120720857D01*
X128801761Y-120816095D01*
X128706523Y-120863714D01*
X128325571Y-120863714D01*
X128230333Y-120816095D01*
X128182714Y-120720857D01*
X128182714Y-120530380D01*
X128230333Y-120435142D01*
X128325571Y-120387523D01*
X128420809Y-120387523D01*
X128516047Y-120863714D01*
X128849380Y-119816095D02*
X128801761Y-119911333D01*
X128706523Y-119958952D01*
X127849380Y-119958952D01*
X128849380Y-119006571D02*
X128325571Y-119006571D01*
X128230333Y-119054190D01*
X128182714Y-119149428D01*
X128182714Y-119339904D01*
X128230333Y-119435142D01*
X128801761Y-119006571D02*
X128849380Y-119101809D01*
X128849380Y-119339904D01*
X128801761Y-119435142D01*
X128706523Y-119482761D01*
X128611285Y-119482761D01*
X128516047Y-119435142D01*
X128468428Y-119339904D01*
X128468428Y-119101809D01*
X128420809Y-119006571D01*
X128182714Y-118625619D02*
X128849380Y-118387523D01*
X128182714Y-118149428D02*
X128849380Y-118387523D01*
X129087476Y-118482761D01*
X129135095Y-118530380D01*
X129182714Y-118625619D01*
X127944619Y-117054190D02*
X127897000Y-117006571D01*
X127849380Y-116911333D01*
X127849380Y-116673238D01*
X127897000Y-116578000D01*
X127944619Y-116530380D01*
X128039857Y-116482761D01*
X128135095Y-116482761D01*
X128277952Y-116530380D01*
X128849380Y-117101809D01*
X128849380Y-116482761D01*
X128754142Y-114720857D02*
X128801761Y-114768476D01*
X128849380Y-114911333D01*
X128849380Y-115006571D01*
X128801761Y-115149428D01*
X128706523Y-115244666D01*
X128611285Y-115292285D01*
X128420809Y-115339904D01*
X128277952Y-115339904D01*
X128087476Y-115292285D01*
X127992238Y-115244666D01*
X127897000Y-115149428D01*
X127849380Y-115006571D01*
X127849380Y-114911333D01*
X127897000Y-114768476D01*
X127944619Y-114720857D01*
X128849380Y-114149428D02*
X128801761Y-114244666D01*
X128754142Y-114292285D01*
X128658904Y-114339904D01*
X128373190Y-114339904D01*
X128277952Y-114292285D01*
X128230333Y-114244666D01*
X128182714Y-114149428D01*
X128182714Y-114006571D01*
X128230333Y-113911333D01*
X128277952Y-113863714D01*
X128373190Y-113816095D01*
X128658904Y-113816095D01*
X128754142Y-113863714D01*
X128801761Y-113911333D01*
X128849380Y-114006571D01*
X128849380Y-114149428D01*
X128182714Y-113387523D02*
X128849380Y-113387523D01*
X128277952Y-113387523D02*
X128230333Y-113339904D01*
X128182714Y-113244666D01*
X128182714Y-113101809D01*
X128230333Y-113006571D01*
X128325571Y-112958952D01*
X128849380Y-112958952D01*
X128182714Y-112625619D02*
X128182714Y-112244666D01*
X127849380Y-112482761D02*
X128706523Y-112482761D01*
X128801761Y-112435142D01*
X128849380Y-112339904D01*
X128849380Y-112244666D01*
X128849380Y-111911333D02*
X128182714Y-111911333D01*
X128373190Y-111911333D02*
X128277952Y-111863714D01*
X128230333Y-111816095D01*
X128182714Y-111720857D01*
X128182714Y-111625619D01*
X128849380Y-111149428D02*
X128801761Y-111244666D01*
X128754142Y-111292285D01*
X128658904Y-111339904D01*
X128373190Y-111339904D01*
X128277952Y-111292285D01*
X128230333Y-111244666D01*
X128182714Y-111149428D01*
X128182714Y-111006571D01*
X128230333Y-110911333D01*
X128277952Y-110863714D01*
X128373190Y-110816095D01*
X128658904Y-110816095D01*
X128754142Y-110863714D01*
X128801761Y-110911333D01*
X128849380Y-111006571D01*
X128849380Y-111149428D01*
X128849380Y-110244666D02*
X128801761Y-110339904D01*
X128706523Y-110387523D01*
X127849380Y-110387523D01*
D11*
G04 #@! TO.C,R2*
X110652779Y-97665000D02*
X110327221Y-97665000D01*
X110652779Y-96645000D02*
X110327221Y-96645000D01*
G04 #@! TO.C,R3*
X128107221Y-97665000D02*
X128432779Y-97665000D01*
X128107221Y-96645000D02*
X128432779Y-96645000D01*
G04 #@! TO.C,R6*
X126875000Y-125952721D02*
X126875000Y-126278279D01*
X125855000Y-125952721D02*
X125855000Y-126278279D01*
G04 #@! TO.C,Q3*
X122430000Y-124785000D02*
X122430000Y-125715000D01*
X122430000Y-127945000D02*
X122430000Y-127015000D01*
X122430000Y-127945000D02*
X124590000Y-127945000D01*
X122430000Y-124785000D02*
X123890000Y-124785000D01*
D12*
G04 #@! TO.C,D5*
X115550000Y-132925000D02*
X115550000Y-135450000D01*
X114320000Y-133790000D02*
X114320000Y-135450000D01*
G04 #@! TO.C,D6*
X123170000Y-135450000D02*
X123170000Y-133790000D01*
X121940000Y-136315000D02*
X121940000Y-133790000D01*
D11*
G04 #@! TO.C,DS1*
X108365000Y-96195000D02*
X105680000Y-96195000D01*
X108365000Y-98115000D02*
X108365000Y-96195000D01*
X105680000Y-98115000D02*
X108365000Y-98115000D01*
G04 #@! TO.C,DS2*
X133080000Y-96195000D02*
X130395000Y-96195000D01*
X130395000Y-96195000D02*
X130395000Y-98115000D01*
X130395000Y-98115000D02*
X133080000Y-98115000D01*
G04 #@! TO.C,Q2*
X116060000Y-127625000D02*
X116060000Y-126695000D01*
X116060000Y-124465000D02*
X116060000Y-125395000D01*
X116060000Y-124465000D02*
X113900000Y-124465000D01*
X116060000Y-127625000D02*
X114600000Y-127625000D01*
G04 #@! TO.C,R5*
X111885000Y-125952721D02*
X111885000Y-126278279D01*
X112905000Y-125952721D02*
X112905000Y-126278279D01*
D13*
G04 #@! TO.C,TB1*
X76327000Y-144780000D02*
X76327000Y-127000000D01*
X76200000Y-144780000D02*
X76200000Y-142240000D01*
X90297000Y-144780000D02*
X76200000Y-144780000D01*
X90297000Y-144780000D02*
X90297000Y-142240000D01*
X90297000Y-132080000D02*
X76200000Y-132080000D01*
X90297000Y-137160000D02*
X76200000Y-137160000D01*
X90297000Y-127000000D02*
X90297000Y-142240000D01*
X76200000Y-127000000D02*
X90297000Y-127000000D01*
X76200000Y-142240000D02*
X76200000Y-127000000D01*
X90297000Y-142240000D02*
X76200000Y-142240000D01*
G04 #@! TO.C,TB2*
X148463000Y-127000000D02*
X162560000Y-127000000D01*
X162560000Y-127000000D02*
X162560000Y-142240000D01*
X162560000Y-142240000D02*
X148463000Y-142240000D01*
X148463000Y-142240000D02*
X148463000Y-127000000D01*
X148463000Y-132080000D02*
X162560000Y-132080000D01*
X148463000Y-137160000D02*
X162560000Y-137160000D01*
X148463000Y-124460000D02*
X148463000Y-127000000D01*
X148463000Y-124460000D02*
X162560000Y-124460000D01*
X162560000Y-124460000D02*
X162560000Y-127000000D01*
X162433000Y-124460000D02*
X162433000Y-142240000D01*
D11*
G04 #@! TO.C,JP1*
X105620000Y-126597000D02*
X109740000Y-126597000D01*
X105620000Y-106537000D02*
X105620000Y-126597000D01*
X109740000Y-104477000D02*
X109740000Y-126597000D01*
X105620000Y-106537000D02*
X107680000Y-106537000D01*
X107680000Y-106537000D02*
X107680000Y-104477000D01*
X107680000Y-104477000D02*
X109740000Y-104477000D01*
X105620000Y-105537000D02*
X105620000Y-104477000D01*
X105620000Y-104477000D02*
X106680000Y-104477000D01*
G04 #@! TO.C,JP2*
X129020000Y-104477000D02*
X130080000Y-104477000D01*
X129020000Y-105537000D02*
X129020000Y-104477000D01*
X131080000Y-104477000D02*
X133140000Y-104477000D01*
X131080000Y-106537000D02*
X131080000Y-104477000D01*
X129020000Y-106537000D02*
X131080000Y-106537000D01*
X133140000Y-104477000D02*
X133140000Y-126597000D01*
X129020000Y-106537000D02*
X129020000Y-126597000D01*
X129020000Y-126597000D02*
X133140000Y-126597000D01*
D10*
G04 #@! TO.C,U1*
X106228000Y-128620000D02*
X103728000Y-128620000D01*
X103728000Y-128620000D02*
X103728000Y-140620000D01*
X103728000Y-140620000D02*
X106228000Y-140620000D01*
X92228000Y-127120000D02*
X111228000Y-127120000D01*
X111228000Y-127120000D02*
X111228000Y-142120000D01*
X111228000Y-142120000D02*
X92228000Y-142120000D01*
X92228000Y-142120000D02*
X92228000Y-127120000D01*
G04 #@! TO.C,U2*
X146405000Y-127120000D02*
X146405000Y-142120000D01*
X127405000Y-127120000D02*
X146405000Y-127120000D01*
X127405000Y-142120000D02*
X127405000Y-127120000D01*
X146405000Y-142120000D02*
X127405000Y-142120000D01*
X134905000Y-128620000D02*
X132405000Y-128620000D01*
X134905000Y-140620000D02*
X134905000Y-128620000D01*
X132405000Y-140620000D02*
X134905000Y-140620000D01*
D11*
G04 #@! TO.C,J1*
X91380000Y-105946900D02*
X92710000Y-105946900D01*
X91380000Y-107276900D02*
X91380000Y-105946900D01*
X93980000Y-105946900D02*
X96580000Y-105946900D01*
X93980000Y-108546900D02*
X93980000Y-105946900D01*
X91380000Y-108546900D02*
X93980000Y-108546900D01*
X96580000Y-105946900D02*
X96580000Y-126386900D01*
X91380000Y-108546900D02*
X91380000Y-126386900D01*
X91380000Y-126386900D02*
X96580000Y-126386900D01*
G04 #@! TO.C,J2*
X142180000Y-126374200D02*
X147380000Y-126374200D01*
X142180000Y-108534200D02*
X142180000Y-126374200D01*
X147380000Y-105934200D02*
X147380000Y-126374200D01*
X142180000Y-108534200D02*
X144780000Y-108534200D01*
X144780000Y-108534200D02*
X144780000Y-105934200D01*
X144780000Y-105934200D02*
X147380000Y-105934200D01*
X142180000Y-107264200D02*
X142180000Y-105934200D01*
X142180000Y-105934200D02*
X143510000Y-105934200D01*
G04 #@! TO.C,R2*
D10*
X110323333Y-96083380D02*
X109990000Y-95607190D01*
X109751904Y-96083380D02*
X109751904Y-95083380D01*
X110132857Y-95083380D01*
X110228095Y-95131000D01*
X110275714Y-95178619D01*
X110323333Y-95273857D01*
X110323333Y-95416714D01*
X110275714Y-95511952D01*
X110228095Y-95559571D01*
X110132857Y-95607190D01*
X109751904Y-95607190D01*
X110704285Y-95178619D02*
X110751904Y-95131000D01*
X110847142Y-95083380D01*
X111085238Y-95083380D01*
X111180476Y-95131000D01*
X111228095Y-95178619D01*
X111275714Y-95273857D01*
X111275714Y-95369095D01*
X111228095Y-95511952D01*
X110656666Y-96083380D01*
X111275714Y-96083380D01*
G04 #@! TO.C,FID1*
X82708857Y-143706857D02*
X82442190Y-143706857D01*
X82442190Y-144125904D02*
X82442190Y-143325904D01*
X82823142Y-143325904D01*
X83127904Y-144125904D02*
X83127904Y-143325904D01*
X83508857Y-144125904D02*
X83508857Y-143325904D01*
X83699333Y-143325904D01*
X83813619Y-143364000D01*
X83889809Y-143440190D01*
X83927904Y-143516380D01*
X83966000Y-143668761D01*
X83966000Y-143783047D01*
X83927904Y-143935428D01*
X83889809Y-144011619D01*
X83813619Y-144087809D01*
X83699333Y-144125904D01*
X83508857Y-144125904D01*
X84727904Y-144125904D02*
X84270761Y-144125904D01*
X84499333Y-144125904D02*
X84499333Y-143325904D01*
X84423142Y-143440190D01*
X84346952Y-143516380D01*
X84270761Y-143554476D01*
G04 #@! TO.C,FID2*
X136302857Y-98875857D02*
X136036190Y-98875857D01*
X136036190Y-99294904D02*
X136036190Y-98494904D01*
X136417142Y-98494904D01*
X136721904Y-99294904D02*
X136721904Y-98494904D01*
X137102857Y-99294904D02*
X137102857Y-98494904D01*
X137293333Y-98494904D01*
X137407619Y-98533000D01*
X137483809Y-98609190D01*
X137521904Y-98685380D01*
X137560000Y-98837761D01*
X137560000Y-98952047D01*
X137521904Y-99104428D01*
X137483809Y-99180619D01*
X137407619Y-99256809D01*
X137293333Y-99294904D01*
X137102857Y-99294904D01*
X137864761Y-98571095D02*
X137902857Y-98533000D01*
X137979047Y-98494904D01*
X138169523Y-98494904D01*
X138245714Y-98533000D01*
X138283809Y-98571095D01*
X138321904Y-98647285D01*
X138321904Y-98723476D01*
X138283809Y-98837761D01*
X137826666Y-99294904D01*
X138321904Y-99294904D01*
G04 #@! TO.C,H1*
X100838095Y-102179380D02*
X100838095Y-101179380D01*
X100838095Y-101655571D02*
X101409523Y-101655571D01*
X101409523Y-102179380D02*
X101409523Y-101179380D01*
X102409523Y-102179380D02*
X101838095Y-102179380D01*
X102123809Y-102179380D02*
X102123809Y-101179380D01*
X102028571Y-101322238D01*
X101933333Y-101417476D01*
X101838095Y-101465095D01*
G04 #@! TO.C,H2*
X136398095Y-102306380D02*
X136398095Y-101306380D01*
X136398095Y-101782571D02*
X136969523Y-101782571D01*
X136969523Y-102306380D02*
X136969523Y-101306380D01*
X137398095Y-101401619D02*
X137445714Y-101354000D01*
X137540952Y-101306380D01*
X137779047Y-101306380D01*
X137874285Y-101354000D01*
X137921904Y-101401619D01*
X137969523Y-101496857D01*
X137969523Y-101592095D01*
X137921904Y-101734952D01*
X137350476Y-102306380D01*
X137969523Y-102306380D01*
G04 #@! TO.C,H3*
X121941096Y-144216380D02*
X121941096Y-143216380D01*
X121941096Y-143692571D02*
X122512524Y-143692571D01*
X122512524Y-144216380D02*
X122512524Y-143216380D01*
X122893477Y-143216380D02*
X123512524Y-143216380D01*
X123179191Y-143597333D01*
X123322048Y-143597333D01*
X123417286Y-143644952D01*
X123464905Y-143692571D01*
X123512524Y-143787809D01*
X123512524Y-144025904D01*
X123464905Y-144121142D01*
X123417286Y-144168761D01*
X123322048Y-144216380D01*
X123036334Y-144216380D01*
X122941096Y-144168761D01*
X122893477Y-144121142D01*
G04 #@! TO.C,R3*
X128103333Y-96177380D02*
X127770000Y-95701190D01*
X127531904Y-96177380D02*
X127531904Y-95177380D01*
X127912857Y-95177380D01*
X128008095Y-95225000D01*
X128055714Y-95272619D01*
X128103333Y-95367857D01*
X128103333Y-95510714D01*
X128055714Y-95605952D01*
X128008095Y-95653571D01*
X127912857Y-95701190D01*
X127531904Y-95701190D01*
X128436666Y-95177380D02*
X129055714Y-95177380D01*
X128722380Y-95558333D01*
X128865238Y-95558333D01*
X128960476Y-95605952D01*
X129008095Y-95653571D01*
X129055714Y-95748809D01*
X129055714Y-95986904D01*
X129008095Y-96082142D01*
X128960476Y-96129761D01*
X128865238Y-96177380D01*
X128579523Y-96177380D01*
X128484285Y-96129761D01*
X128436666Y-96082142D01*
G04 #@! TO.C,R6*
X126817380Y-123356666D02*
X126341190Y-123690000D01*
X126817380Y-123928095D02*
X125817380Y-123928095D01*
X125817380Y-123547142D01*
X125865000Y-123451904D01*
X125912619Y-123404285D01*
X126007857Y-123356666D01*
X126150714Y-123356666D01*
X126245952Y-123404285D01*
X126293571Y-123451904D01*
X126341190Y-123547142D01*
X126341190Y-123928095D01*
X125817380Y-122499523D02*
X125817380Y-122690000D01*
X125865000Y-122785238D01*
X125912619Y-122832857D01*
X126055476Y-122928095D01*
X126245952Y-122975714D01*
X126626904Y-122975714D01*
X126722142Y-122928095D01*
X126769761Y-122880476D01*
X126817380Y-122785238D01*
X126817380Y-122594761D01*
X126769761Y-122499523D01*
X126722142Y-122451904D01*
X126626904Y-122404285D01*
X126388809Y-122404285D01*
X126293571Y-122451904D01*
X126245952Y-122499523D01*
X126198333Y-122594761D01*
X126198333Y-122785238D01*
X126245952Y-122880476D01*
X126293571Y-122928095D01*
X126388809Y-122975714D01*
G04 #@! TO.C,Q3*
X123094761Y-129452619D02*
X122999523Y-129405000D01*
X122904285Y-129309761D01*
X122761428Y-129166904D01*
X122666190Y-129119285D01*
X122570952Y-129119285D01*
X122618571Y-129357380D02*
X122523333Y-129309761D01*
X122428095Y-129214523D01*
X122380476Y-129024047D01*
X122380476Y-128690714D01*
X122428095Y-128500238D01*
X122523333Y-128405000D01*
X122618571Y-128357380D01*
X122809047Y-128357380D01*
X122904285Y-128405000D01*
X122999523Y-128500238D01*
X123047142Y-128690714D01*
X123047142Y-129024047D01*
X122999523Y-129214523D01*
X122904285Y-129309761D01*
X122809047Y-129357380D01*
X122618571Y-129357380D01*
X123380476Y-128357380D02*
X123999523Y-128357380D01*
X123666190Y-128738333D01*
X123809047Y-128738333D01*
X123904285Y-128785952D01*
X123951904Y-128833571D01*
X123999523Y-128928809D01*
X123999523Y-129166904D01*
X123951904Y-129262142D01*
X123904285Y-129309761D01*
X123809047Y-129357380D01*
X123523333Y-129357380D01*
X123428095Y-129309761D01*
X123380476Y-129262142D01*
G04 #@! TO.C,D5*
D14*
X117414523Y-135557380D02*
X116144523Y-135557380D01*
X116144523Y-135255000D01*
X116205000Y-135073571D01*
X116325952Y-134952619D01*
X116446904Y-134892142D01*
X116688809Y-134831666D01*
X116870238Y-134831666D01*
X117112142Y-134892142D01*
X117233095Y-134952619D01*
X117354047Y-135073571D01*
X117414523Y-135255000D01*
X117414523Y-135557380D01*
X116144523Y-133682619D02*
X116144523Y-134287380D01*
X116749285Y-134347857D01*
X116688809Y-134287380D01*
X116628333Y-134166428D01*
X116628333Y-133864047D01*
X116688809Y-133743095D01*
X116749285Y-133682619D01*
X116870238Y-133622142D01*
X117172619Y-133622142D01*
X117293571Y-133682619D01*
X117354047Y-133743095D01*
X117414523Y-133864047D01*
X117414523Y-134166428D01*
X117354047Y-134287380D01*
X117293571Y-134347857D01*
G04 #@! TO.C,D6*
X121224523Y-135557380D02*
X119954523Y-135557380D01*
X119954523Y-135255000D01*
X120015000Y-135073571D01*
X120135952Y-134952619D01*
X120256904Y-134892142D01*
X120498809Y-134831666D01*
X120680238Y-134831666D01*
X120922142Y-134892142D01*
X121043095Y-134952619D01*
X121164047Y-135073571D01*
X121224523Y-135255000D01*
X121224523Y-135557380D01*
X119954523Y-133743095D02*
X119954523Y-133985000D01*
X120015000Y-134105952D01*
X120075476Y-134166428D01*
X120256904Y-134287380D01*
X120498809Y-134347857D01*
X120982619Y-134347857D01*
X121103571Y-134287380D01*
X121164047Y-134226904D01*
X121224523Y-134105952D01*
X121224523Y-133864047D01*
X121164047Y-133743095D01*
X121103571Y-133682619D01*
X120982619Y-133622142D01*
X120680238Y-133622142D01*
X120559285Y-133682619D01*
X120498809Y-133743095D01*
X120438333Y-133864047D01*
X120438333Y-134105952D01*
X120498809Y-134226904D01*
X120559285Y-134287380D01*
X120680238Y-134347857D01*
G04 #@! TO.C,DS1*
D10*
X105465714Y-95892880D02*
X105465714Y-94892880D01*
X105703809Y-94892880D01*
X105846666Y-94940500D01*
X105941904Y-95035738D01*
X105989523Y-95130976D01*
X106037142Y-95321452D01*
X106037142Y-95464309D01*
X105989523Y-95654785D01*
X105941904Y-95750023D01*
X105846666Y-95845261D01*
X105703809Y-95892880D01*
X105465714Y-95892880D01*
X106418095Y-95845261D02*
X106560952Y-95892880D01*
X106799047Y-95892880D01*
X106894285Y-95845261D01*
X106941904Y-95797642D01*
X106989523Y-95702404D01*
X106989523Y-95607166D01*
X106941904Y-95511928D01*
X106894285Y-95464309D01*
X106799047Y-95416690D01*
X106608571Y-95369071D01*
X106513333Y-95321452D01*
X106465714Y-95273833D01*
X106418095Y-95178595D01*
X106418095Y-95083357D01*
X106465714Y-94988119D01*
X106513333Y-94940500D01*
X106608571Y-94892880D01*
X106846666Y-94892880D01*
X106989523Y-94940500D01*
X107941904Y-95892880D02*
X107370476Y-95892880D01*
X107656190Y-95892880D02*
X107656190Y-94892880D01*
X107560952Y-95035738D01*
X107465714Y-95130976D01*
X107370476Y-95178595D01*
G04 #@! TO.C,DS2*
X130865714Y-95957380D02*
X130865714Y-94957380D01*
X131103809Y-94957380D01*
X131246666Y-95005000D01*
X131341904Y-95100238D01*
X131389523Y-95195476D01*
X131437142Y-95385952D01*
X131437142Y-95528809D01*
X131389523Y-95719285D01*
X131341904Y-95814523D01*
X131246666Y-95909761D01*
X131103809Y-95957380D01*
X130865714Y-95957380D01*
X131818095Y-95909761D02*
X131960952Y-95957380D01*
X132199047Y-95957380D01*
X132294285Y-95909761D01*
X132341904Y-95862142D01*
X132389523Y-95766904D01*
X132389523Y-95671666D01*
X132341904Y-95576428D01*
X132294285Y-95528809D01*
X132199047Y-95481190D01*
X132008571Y-95433571D01*
X131913333Y-95385952D01*
X131865714Y-95338333D01*
X131818095Y-95243095D01*
X131818095Y-95147857D01*
X131865714Y-95052619D01*
X131913333Y-95005000D01*
X132008571Y-94957380D01*
X132246666Y-94957380D01*
X132389523Y-95005000D01*
X132770476Y-95052619D02*
X132818095Y-95005000D01*
X132913333Y-94957380D01*
X133151428Y-94957380D01*
X133246666Y-95005000D01*
X133294285Y-95052619D01*
X133341904Y-95147857D01*
X133341904Y-95243095D01*
X133294285Y-95385952D01*
X132722857Y-95957380D01*
X133341904Y-95957380D01*
G04 #@! TO.C,Q2*
X115204761Y-124092619D02*
X115109523Y-124045000D01*
X115014285Y-123949761D01*
X114871428Y-123806904D01*
X114776190Y-123759285D01*
X114680952Y-123759285D01*
X114728571Y-123997380D02*
X114633333Y-123949761D01*
X114538095Y-123854523D01*
X114490476Y-123664047D01*
X114490476Y-123330714D01*
X114538095Y-123140238D01*
X114633333Y-123045000D01*
X114728571Y-122997380D01*
X114919047Y-122997380D01*
X115014285Y-123045000D01*
X115109523Y-123140238D01*
X115157142Y-123330714D01*
X115157142Y-123664047D01*
X115109523Y-123854523D01*
X115014285Y-123949761D01*
X114919047Y-123997380D01*
X114728571Y-123997380D01*
X115538095Y-123092619D02*
X115585714Y-123045000D01*
X115680952Y-122997380D01*
X115919047Y-122997380D01*
X116014285Y-123045000D01*
X116061904Y-123092619D01*
X116109523Y-123187857D01*
X116109523Y-123283095D01*
X116061904Y-123425952D01*
X115490476Y-123997380D01*
X116109523Y-123997380D01*
G04 #@! TO.C,R5*
X112847380Y-128563666D02*
X112371190Y-128897000D01*
X112847380Y-129135095D02*
X111847380Y-129135095D01*
X111847380Y-128754142D01*
X111895000Y-128658904D01*
X111942619Y-128611285D01*
X112037857Y-128563666D01*
X112180714Y-128563666D01*
X112275952Y-128611285D01*
X112323571Y-128658904D01*
X112371190Y-128754142D01*
X112371190Y-129135095D01*
X111847380Y-127658904D02*
X111847380Y-128135095D01*
X112323571Y-128182714D01*
X112275952Y-128135095D01*
X112228333Y-128039857D01*
X112228333Y-127801761D01*
X112275952Y-127706523D01*
X112323571Y-127658904D01*
X112418809Y-127611285D01*
X112656904Y-127611285D01*
X112752142Y-127658904D01*
X112799761Y-127706523D01*
X112847380Y-127801761D01*
X112847380Y-128039857D01*
X112799761Y-128135095D01*
X112752142Y-128182714D01*
G04 #@! TO.C,TB1*
X83383595Y-142962380D02*
X83955023Y-142962380D01*
X83669309Y-143962380D02*
X83669309Y-142962380D01*
X84621690Y-143438571D02*
X84764547Y-143486190D01*
X84812166Y-143533809D01*
X84859785Y-143629047D01*
X84859785Y-143771904D01*
X84812166Y-143867142D01*
X84764547Y-143914761D01*
X84669309Y-143962380D01*
X84288357Y-143962380D01*
X84288357Y-142962380D01*
X84621690Y-142962380D01*
X84716928Y-143010000D01*
X84764547Y-143057619D01*
X84812166Y-143152857D01*
X84812166Y-143248095D01*
X84764547Y-143343333D01*
X84716928Y-143390952D01*
X84621690Y-143438571D01*
X84288357Y-143438571D01*
X85812166Y-143962380D02*
X85240738Y-143962380D01*
X85526452Y-143962380D02*
X85526452Y-142962380D01*
X85431214Y-143105238D01*
X85335976Y-143200476D01*
X85240738Y-143248095D01*
G04 #@! TO.C,TB2*
X153487595Y-142962380D02*
X154059023Y-142962380D01*
X153773309Y-143962380D02*
X153773309Y-142962380D01*
X154725690Y-143438571D02*
X154868547Y-143486190D01*
X154916166Y-143533809D01*
X154963785Y-143629047D01*
X154963785Y-143771904D01*
X154916166Y-143867142D01*
X154868547Y-143914761D01*
X154773309Y-143962380D01*
X154392357Y-143962380D01*
X154392357Y-142962380D01*
X154725690Y-142962380D01*
X154820928Y-143010000D01*
X154868547Y-143057619D01*
X154916166Y-143152857D01*
X154916166Y-143248095D01*
X154868547Y-143343333D01*
X154820928Y-143390952D01*
X154725690Y-143438571D01*
X154392357Y-143438571D01*
X155344738Y-143057619D02*
X155392357Y-143010000D01*
X155487595Y-142962380D01*
X155725690Y-142962380D01*
X155820928Y-143010000D01*
X155868547Y-143057619D01*
X155916166Y-143152857D01*
X155916166Y-143248095D01*
X155868547Y-143390952D01*
X155297119Y-143962380D01*
X155916166Y-143962380D01*
G04 #@! TO.C,JP1*
X106846666Y-102929380D02*
X106846666Y-103643666D01*
X106799047Y-103786523D01*
X106703809Y-103881761D01*
X106560952Y-103929380D01*
X106465714Y-103929380D01*
X107322857Y-103929380D02*
X107322857Y-102929380D01*
X107703809Y-102929380D01*
X107799047Y-102977000D01*
X107846666Y-103024619D01*
X107894285Y-103119857D01*
X107894285Y-103262714D01*
X107846666Y-103357952D01*
X107799047Y-103405571D01*
X107703809Y-103453190D01*
X107322857Y-103453190D01*
X108846666Y-103929380D02*
X108275238Y-103929380D01*
X108560952Y-103929380D02*
X108560952Y-102929380D01*
X108465714Y-103072238D01*
X108370476Y-103167476D01*
X108275238Y-103215095D01*
G04 #@! TO.C,JP2*
X130246666Y-102929380D02*
X130246666Y-103643666D01*
X130199047Y-103786523D01*
X130103809Y-103881761D01*
X129960952Y-103929380D01*
X129865714Y-103929380D01*
X130722857Y-103929380D02*
X130722857Y-102929380D01*
X131103809Y-102929380D01*
X131199047Y-102977000D01*
X131246666Y-103024619D01*
X131294285Y-103119857D01*
X131294285Y-103262714D01*
X131246666Y-103357952D01*
X131199047Y-103405571D01*
X131103809Y-103453190D01*
X130722857Y-103453190D01*
X131675238Y-103024619D02*
X131722857Y-102977000D01*
X131818095Y-102929380D01*
X132056190Y-102929380D01*
X132151428Y-102977000D01*
X132199047Y-103024619D01*
X132246666Y-103119857D01*
X132246666Y-103215095D01*
X132199047Y-103357952D01*
X131627619Y-103929380D01*
X132246666Y-103929380D01*
G04 #@! TO.C,U1*
X98933095Y-127595380D02*
X98933095Y-128404904D01*
X98980714Y-128500142D01*
X99028333Y-128547761D01*
X99123571Y-128595380D01*
X99314047Y-128595380D01*
X99409285Y-128547761D01*
X99456904Y-128500142D01*
X99504523Y-128404904D01*
X99504523Y-127595380D01*
X100504523Y-128595380D02*
X99933095Y-128595380D01*
X100218809Y-128595380D02*
X100218809Y-127595380D01*
X100123571Y-127738238D01*
X100028333Y-127833476D01*
X99933095Y-127881095D01*
X97132761Y-130536666D02*
X97180380Y-130603333D01*
X97180380Y-130736666D01*
X97132761Y-130803333D01*
X97085142Y-130836666D01*
X96989904Y-130870000D01*
X96704190Y-130870000D01*
X96608952Y-130836666D01*
X96561333Y-130803333D01*
X96513714Y-130736666D01*
X96513714Y-130603333D01*
X96561333Y-130536666D01*
X97180380Y-130136666D02*
X97132761Y-130203333D01*
X97037523Y-130236666D01*
X96180380Y-130236666D01*
X97180380Y-129770000D02*
X97132761Y-129836666D01*
X97085142Y-129870000D01*
X96989904Y-129903333D01*
X96704190Y-129903333D01*
X96608952Y-129870000D01*
X96561333Y-129836666D01*
X96513714Y-129770000D01*
X96513714Y-129670000D01*
X96561333Y-129603333D01*
X96608952Y-129570000D01*
X96704190Y-129536666D01*
X96989904Y-129536666D01*
X97085142Y-129570000D01*
X97132761Y-129603333D01*
X97180380Y-129670000D01*
X97180380Y-129770000D01*
X97132761Y-129270000D02*
X97180380Y-129203333D01*
X97180380Y-129070000D01*
X97132761Y-129003333D01*
X97037523Y-128970000D01*
X96989904Y-128970000D01*
X96894666Y-129003333D01*
X96847047Y-129070000D01*
X96847047Y-129170000D01*
X96799428Y-129236666D01*
X96704190Y-129270000D01*
X96656571Y-129270000D01*
X96561333Y-129236666D01*
X96513714Y-129170000D01*
X96513714Y-129070000D01*
X96561333Y-129003333D01*
X97132761Y-128403333D02*
X97180380Y-128470000D01*
X97180380Y-128603333D01*
X97132761Y-128670000D01*
X97037523Y-128703333D01*
X96656571Y-128703333D01*
X96561333Y-128670000D01*
X96513714Y-128603333D01*
X96513714Y-128470000D01*
X96561333Y-128403333D01*
X96656571Y-128370000D01*
X96751809Y-128370000D01*
X96847047Y-128703333D01*
X97180380Y-141103333D02*
X97132761Y-141170000D01*
X97085142Y-141203333D01*
X96989904Y-141236666D01*
X96704190Y-141236666D01*
X96608952Y-141203333D01*
X96561333Y-141170000D01*
X96513714Y-141103333D01*
X96513714Y-141003333D01*
X96561333Y-140936666D01*
X96608952Y-140903333D01*
X96704190Y-140870000D01*
X96989904Y-140870000D01*
X97085142Y-140903333D01*
X97132761Y-140936666D01*
X97180380Y-141003333D01*
X97180380Y-141103333D01*
X96513714Y-140570000D02*
X97513714Y-140570000D01*
X96561333Y-140570000D02*
X96513714Y-140503333D01*
X96513714Y-140370000D01*
X96561333Y-140303333D01*
X96608952Y-140270000D01*
X96704190Y-140236666D01*
X96989904Y-140236666D01*
X97085142Y-140270000D01*
X97132761Y-140303333D01*
X97180380Y-140370000D01*
X97180380Y-140503333D01*
X97132761Y-140570000D01*
X97132761Y-139670000D02*
X97180380Y-139736666D01*
X97180380Y-139870000D01*
X97132761Y-139936666D01*
X97037523Y-139970000D01*
X96656571Y-139970000D01*
X96561333Y-139936666D01*
X96513714Y-139870000D01*
X96513714Y-139736666D01*
X96561333Y-139670000D01*
X96656571Y-139636666D01*
X96751809Y-139636666D01*
X96847047Y-139970000D01*
X96513714Y-139336666D02*
X97180380Y-139336666D01*
X96608952Y-139336666D02*
X96561333Y-139303333D01*
X96513714Y-139236666D01*
X96513714Y-139136666D01*
X96561333Y-139070000D01*
X96656571Y-139036666D01*
X97180380Y-139036666D01*
X108132761Y-136336666D02*
X108180380Y-136403333D01*
X108180380Y-136536666D01*
X108132761Y-136603333D01*
X108085142Y-136636666D01*
X107989904Y-136670000D01*
X107704190Y-136670000D01*
X107608952Y-136636666D01*
X107561333Y-136603333D01*
X107513714Y-136536666D01*
X107513714Y-136403333D01*
X107561333Y-136336666D01*
X108180380Y-135936666D02*
X108132761Y-136003333D01*
X108085142Y-136036666D01*
X107989904Y-136070000D01*
X107704190Y-136070000D01*
X107608952Y-136036666D01*
X107561333Y-136003333D01*
X107513714Y-135936666D01*
X107513714Y-135836666D01*
X107561333Y-135770000D01*
X107608952Y-135736666D01*
X107704190Y-135703333D01*
X107989904Y-135703333D01*
X108085142Y-135736666D01*
X108132761Y-135770000D01*
X108180380Y-135836666D01*
X108180380Y-135936666D01*
X108180380Y-135403333D02*
X107513714Y-135403333D01*
X107608952Y-135403333D02*
X107561333Y-135370000D01*
X107513714Y-135303333D01*
X107513714Y-135203333D01*
X107561333Y-135136666D01*
X107656571Y-135103333D01*
X108180380Y-135103333D01*
X107656571Y-135103333D02*
X107561333Y-135070000D01*
X107513714Y-135003333D01*
X107513714Y-134903333D01*
X107561333Y-134836666D01*
X107656571Y-134803333D01*
X108180380Y-134803333D01*
X108180380Y-134470000D02*
X107513714Y-134470000D01*
X107608952Y-134470000D02*
X107561333Y-134436666D01*
X107513714Y-134370000D01*
X107513714Y-134270000D01*
X107561333Y-134203333D01*
X107656571Y-134170000D01*
X108180380Y-134170000D01*
X107656571Y-134170000D02*
X107561333Y-134136666D01*
X107513714Y-134070000D01*
X107513714Y-133970000D01*
X107561333Y-133903333D01*
X107656571Y-133870000D01*
X108180380Y-133870000D01*
X108180380Y-133436666D02*
X108132761Y-133503333D01*
X108085142Y-133536666D01*
X107989904Y-133570000D01*
X107704190Y-133570000D01*
X107608952Y-133536666D01*
X107561333Y-133503333D01*
X107513714Y-133436666D01*
X107513714Y-133336666D01*
X107561333Y-133270000D01*
X107608952Y-133236666D01*
X107704190Y-133203333D01*
X107989904Y-133203333D01*
X108085142Y-133236666D01*
X108132761Y-133270000D01*
X108180380Y-133336666D01*
X108180380Y-133436666D01*
X107513714Y-132903333D02*
X108180380Y-132903333D01*
X107608952Y-132903333D02*
X107561333Y-132870000D01*
X107513714Y-132803333D01*
X107513714Y-132703333D01*
X107561333Y-132636666D01*
X107656571Y-132603333D01*
X108180380Y-132603333D01*
X103132761Y-135120000D02*
X103180380Y-135186666D01*
X103180380Y-135320000D01*
X103132761Y-135386666D01*
X103085142Y-135420000D01*
X102989904Y-135453333D01*
X102704190Y-135453333D01*
X102608952Y-135420000D01*
X102561333Y-135386666D01*
X102513714Y-135320000D01*
X102513714Y-135186666D01*
X102561333Y-135120000D01*
X103180380Y-134720000D02*
X103132761Y-134786666D01*
X103085142Y-134820000D01*
X102989904Y-134853333D01*
X102704190Y-134853333D01*
X102608952Y-134820000D01*
X102561333Y-134786666D01*
X102513714Y-134720000D01*
X102513714Y-134620000D01*
X102561333Y-134553333D01*
X102608952Y-134520000D01*
X102704190Y-134486666D01*
X102989904Y-134486666D01*
X103085142Y-134520000D01*
X103132761Y-134553333D01*
X103180380Y-134620000D01*
X103180380Y-134720000D01*
X103180380Y-134186666D02*
X102513714Y-134186666D01*
X102180380Y-134186666D02*
X102228000Y-134220000D01*
X102275619Y-134186666D01*
X102228000Y-134153333D01*
X102180380Y-134186666D01*
X102275619Y-134186666D01*
X103180380Y-133753333D02*
X103132761Y-133820000D01*
X103037523Y-133853333D01*
X102180380Y-133853333D01*
X90680380Y-137215238D02*
X90680380Y-137691428D01*
X91156571Y-137739047D01*
X91108952Y-137691428D01*
X91061333Y-137596190D01*
X91061333Y-137358095D01*
X91108952Y-137262857D01*
X91156571Y-137215238D01*
X91251809Y-137167619D01*
X91489904Y-137167619D01*
X91585142Y-137215238D01*
X91632761Y-137262857D01*
X91680380Y-137358095D01*
X91680380Y-137596190D01*
X91632761Y-137691428D01*
X91585142Y-137739047D01*
X90680380Y-136881904D02*
X91680380Y-136548571D01*
X90680380Y-136215238D01*
X91680380Y-134548571D02*
X91204190Y-134881904D01*
X91680380Y-135120000D02*
X90680380Y-135120000D01*
X90680380Y-134739047D01*
X90728000Y-134643809D01*
X90775619Y-134596190D01*
X90870857Y-134548571D01*
X91013714Y-134548571D01*
X91108952Y-134596190D01*
X91156571Y-134643809D01*
X91204190Y-134739047D01*
X91204190Y-135120000D01*
X91632761Y-133739047D02*
X91680380Y-133834285D01*
X91680380Y-134024761D01*
X91632761Y-134120000D01*
X91537523Y-134167619D01*
X91156571Y-134167619D01*
X91061333Y-134120000D01*
X91013714Y-134024761D01*
X91013714Y-133834285D01*
X91061333Y-133739047D01*
X91156571Y-133691428D01*
X91251809Y-133691428D01*
X91347047Y-134167619D01*
X91680380Y-133120000D02*
X91632761Y-133215238D01*
X91537523Y-133262857D01*
X90680380Y-133262857D01*
X91680380Y-132310476D02*
X91156571Y-132310476D01*
X91061333Y-132358095D01*
X91013714Y-132453333D01*
X91013714Y-132643809D01*
X91061333Y-132739047D01*
X91632761Y-132310476D02*
X91680380Y-132405714D01*
X91680380Y-132643809D01*
X91632761Y-132739047D01*
X91537523Y-132786666D01*
X91442285Y-132786666D01*
X91347047Y-132739047D01*
X91299428Y-132643809D01*
X91299428Y-132405714D01*
X91251809Y-132310476D01*
X91013714Y-131929523D02*
X91680380Y-131691428D01*
X91013714Y-131453333D02*
X91680380Y-131691428D01*
X91918476Y-131786666D01*
X91966095Y-131834285D01*
X92013714Y-131929523D01*
G04 #@! TO.C,U2*
X135143095Y-142572380D02*
X135143095Y-143381904D01*
X135190714Y-143477142D01*
X135238333Y-143524761D01*
X135333571Y-143572380D01*
X135524047Y-143572380D01*
X135619285Y-143524761D01*
X135666904Y-143477142D01*
X135714523Y-143381904D01*
X135714523Y-142572380D01*
X136143095Y-142667619D02*
X136190714Y-142620000D01*
X136285952Y-142572380D01*
X136524047Y-142572380D01*
X136619285Y-142620000D01*
X136666904Y-142667619D01*
X136714523Y-142762857D01*
X136714523Y-142858095D01*
X136666904Y-143000952D01*
X136095476Y-143572380D01*
X136714523Y-143572380D01*
X146857380Y-137215238D02*
X146857380Y-137691428D01*
X147333571Y-137739047D01*
X147285952Y-137691428D01*
X147238333Y-137596190D01*
X147238333Y-137358095D01*
X147285952Y-137262857D01*
X147333571Y-137215238D01*
X147428809Y-137167619D01*
X147666904Y-137167619D01*
X147762142Y-137215238D01*
X147809761Y-137262857D01*
X147857380Y-137358095D01*
X147857380Y-137596190D01*
X147809761Y-137691428D01*
X147762142Y-137739047D01*
X146857380Y-136881904D02*
X147857380Y-136548571D01*
X146857380Y-136215238D01*
X147857380Y-134548571D02*
X147381190Y-134881904D01*
X147857380Y-135120000D02*
X146857380Y-135120000D01*
X146857380Y-134739047D01*
X146905000Y-134643809D01*
X146952619Y-134596190D01*
X147047857Y-134548571D01*
X147190714Y-134548571D01*
X147285952Y-134596190D01*
X147333571Y-134643809D01*
X147381190Y-134739047D01*
X147381190Y-135120000D01*
X147809761Y-133739047D02*
X147857380Y-133834285D01*
X147857380Y-134024761D01*
X147809761Y-134120000D01*
X147714523Y-134167619D01*
X147333571Y-134167619D01*
X147238333Y-134120000D01*
X147190714Y-134024761D01*
X147190714Y-133834285D01*
X147238333Y-133739047D01*
X147333571Y-133691428D01*
X147428809Y-133691428D01*
X147524047Y-134167619D01*
X147857380Y-133120000D02*
X147809761Y-133215238D01*
X147714523Y-133262857D01*
X146857380Y-133262857D01*
X147857380Y-132310476D02*
X147333571Y-132310476D01*
X147238333Y-132358095D01*
X147190714Y-132453333D01*
X147190714Y-132643809D01*
X147238333Y-132739047D01*
X147809761Y-132310476D02*
X147857380Y-132405714D01*
X147857380Y-132643809D01*
X147809761Y-132739047D01*
X147714523Y-132786666D01*
X147619285Y-132786666D01*
X147524047Y-132739047D01*
X147476428Y-132643809D01*
X147476428Y-132405714D01*
X147428809Y-132310476D01*
X147190714Y-131929523D02*
X147857380Y-131691428D01*
X147190714Y-131453333D02*
X147857380Y-131691428D01*
X148095476Y-131786666D01*
X148143095Y-131834285D01*
X148190714Y-131929523D01*
X136309761Y-135120000D02*
X136357380Y-135186666D01*
X136357380Y-135320000D01*
X136309761Y-135386666D01*
X136262142Y-135420000D01*
X136166904Y-135453333D01*
X135881190Y-135453333D01*
X135785952Y-135420000D01*
X135738333Y-135386666D01*
X135690714Y-135320000D01*
X135690714Y-135186666D01*
X135738333Y-135120000D01*
X136357380Y-134720000D02*
X136309761Y-134786666D01*
X136262142Y-134820000D01*
X136166904Y-134853333D01*
X135881190Y-134853333D01*
X135785952Y-134820000D01*
X135738333Y-134786666D01*
X135690714Y-134720000D01*
X135690714Y-134620000D01*
X135738333Y-134553333D01*
X135785952Y-134520000D01*
X135881190Y-134486666D01*
X136166904Y-134486666D01*
X136262142Y-134520000D01*
X136309761Y-134553333D01*
X136357380Y-134620000D01*
X136357380Y-134720000D01*
X136357380Y-134186666D02*
X135690714Y-134186666D01*
X135357380Y-134186666D02*
X135405000Y-134220000D01*
X135452619Y-134186666D01*
X135405000Y-134153333D01*
X135357380Y-134186666D01*
X135452619Y-134186666D01*
X136357380Y-133753333D02*
X136309761Y-133820000D01*
X136214523Y-133853333D01*
X135357380Y-133853333D01*
X131309761Y-136336666D02*
X131357380Y-136403333D01*
X131357380Y-136536666D01*
X131309761Y-136603333D01*
X131262142Y-136636666D01*
X131166904Y-136670000D01*
X130881190Y-136670000D01*
X130785952Y-136636666D01*
X130738333Y-136603333D01*
X130690714Y-136536666D01*
X130690714Y-136403333D01*
X130738333Y-136336666D01*
X131357380Y-135936666D02*
X131309761Y-136003333D01*
X131262142Y-136036666D01*
X131166904Y-136070000D01*
X130881190Y-136070000D01*
X130785952Y-136036666D01*
X130738333Y-136003333D01*
X130690714Y-135936666D01*
X130690714Y-135836666D01*
X130738333Y-135770000D01*
X130785952Y-135736666D01*
X130881190Y-135703333D01*
X131166904Y-135703333D01*
X131262142Y-135736666D01*
X131309761Y-135770000D01*
X131357380Y-135836666D01*
X131357380Y-135936666D01*
X131357380Y-135403333D02*
X130690714Y-135403333D01*
X130785952Y-135403333D02*
X130738333Y-135370000D01*
X130690714Y-135303333D01*
X130690714Y-135203333D01*
X130738333Y-135136666D01*
X130833571Y-135103333D01*
X131357380Y-135103333D01*
X130833571Y-135103333D02*
X130738333Y-135070000D01*
X130690714Y-135003333D01*
X130690714Y-134903333D01*
X130738333Y-134836666D01*
X130833571Y-134803333D01*
X131357380Y-134803333D01*
X131357380Y-134470000D02*
X130690714Y-134470000D01*
X130785952Y-134470000D02*
X130738333Y-134436666D01*
X130690714Y-134370000D01*
X130690714Y-134270000D01*
X130738333Y-134203333D01*
X130833571Y-134170000D01*
X131357380Y-134170000D01*
X130833571Y-134170000D02*
X130738333Y-134136666D01*
X130690714Y-134070000D01*
X130690714Y-133970000D01*
X130738333Y-133903333D01*
X130833571Y-133870000D01*
X131357380Y-133870000D01*
X131357380Y-133436666D02*
X131309761Y-133503333D01*
X131262142Y-133536666D01*
X131166904Y-133570000D01*
X130881190Y-133570000D01*
X130785952Y-133536666D01*
X130738333Y-133503333D01*
X130690714Y-133436666D01*
X130690714Y-133336666D01*
X130738333Y-133270000D01*
X130785952Y-133236666D01*
X130881190Y-133203333D01*
X131166904Y-133203333D01*
X131262142Y-133236666D01*
X131309761Y-133270000D01*
X131357380Y-133336666D01*
X131357380Y-133436666D01*
X130690714Y-132903333D02*
X131357380Y-132903333D01*
X130785952Y-132903333D02*
X130738333Y-132870000D01*
X130690714Y-132803333D01*
X130690714Y-132703333D01*
X130738333Y-132636666D01*
X130833571Y-132603333D01*
X131357380Y-132603333D01*
X142357380Y-130103333D02*
X142309761Y-130170000D01*
X142262142Y-130203333D01*
X142166904Y-130236666D01*
X141881190Y-130236666D01*
X141785952Y-130203333D01*
X141738333Y-130170000D01*
X141690714Y-130103333D01*
X141690714Y-130003333D01*
X141738333Y-129936666D01*
X141785952Y-129903333D01*
X141881190Y-129870000D01*
X142166904Y-129870000D01*
X142262142Y-129903333D01*
X142309761Y-129936666D01*
X142357380Y-130003333D01*
X142357380Y-130103333D01*
X141690714Y-129570000D02*
X142690714Y-129570000D01*
X141738333Y-129570000D02*
X141690714Y-129503333D01*
X141690714Y-129370000D01*
X141738333Y-129303333D01*
X141785952Y-129270000D01*
X141881190Y-129236666D01*
X142166904Y-129236666D01*
X142262142Y-129270000D01*
X142309761Y-129303333D01*
X142357380Y-129370000D01*
X142357380Y-129503333D01*
X142309761Y-129570000D01*
X142309761Y-128670000D02*
X142357380Y-128736666D01*
X142357380Y-128870000D01*
X142309761Y-128936666D01*
X142214523Y-128970000D01*
X141833571Y-128970000D01*
X141738333Y-128936666D01*
X141690714Y-128870000D01*
X141690714Y-128736666D01*
X141738333Y-128670000D01*
X141833571Y-128636666D01*
X141928809Y-128636666D01*
X142024047Y-128970000D01*
X141690714Y-128336666D02*
X142357380Y-128336666D01*
X141785952Y-128336666D02*
X141738333Y-128303333D01*
X141690714Y-128236666D01*
X141690714Y-128136666D01*
X141738333Y-128070000D01*
X141833571Y-128036666D01*
X142357380Y-128036666D01*
X142309761Y-140536666D02*
X142357380Y-140603333D01*
X142357380Y-140736666D01*
X142309761Y-140803333D01*
X142262142Y-140836666D01*
X142166904Y-140870000D01*
X141881190Y-140870000D01*
X141785952Y-140836666D01*
X141738333Y-140803333D01*
X141690714Y-140736666D01*
X141690714Y-140603333D01*
X141738333Y-140536666D01*
X142357380Y-140136666D02*
X142309761Y-140203333D01*
X142214523Y-140236666D01*
X141357380Y-140236666D01*
X142357380Y-139770000D02*
X142309761Y-139836666D01*
X142262142Y-139870000D01*
X142166904Y-139903333D01*
X141881190Y-139903333D01*
X141785952Y-139870000D01*
X141738333Y-139836666D01*
X141690714Y-139770000D01*
X141690714Y-139670000D01*
X141738333Y-139603333D01*
X141785952Y-139570000D01*
X141881190Y-139536666D01*
X142166904Y-139536666D01*
X142262142Y-139570000D01*
X142309761Y-139603333D01*
X142357380Y-139670000D01*
X142357380Y-139770000D01*
X142309761Y-139270000D02*
X142357380Y-139203333D01*
X142357380Y-139070000D01*
X142309761Y-139003333D01*
X142214523Y-138970000D01*
X142166904Y-138970000D01*
X142071666Y-139003333D01*
X142024047Y-139070000D01*
X142024047Y-139170000D01*
X141976428Y-139236666D01*
X141881190Y-139270000D01*
X141833571Y-139270000D01*
X141738333Y-139236666D01*
X141690714Y-139170000D01*
X141690714Y-139070000D01*
X141738333Y-139003333D01*
X142309761Y-138403333D02*
X142357380Y-138470000D01*
X142357380Y-138603333D01*
X142309761Y-138670000D01*
X142214523Y-138703333D01*
X141833571Y-138703333D01*
X141738333Y-138670000D01*
X141690714Y-138603333D01*
X141690714Y-138470000D01*
X141738333Y-138403333D01*
X141833571Y-138370000D01*
X141928809Y-138370000D01*
X142024047Y-138703333D01*
G04 #@! TO.C,U7*
X75438095Y-146772380D02*
X75438095Y-147581904D01*
X75485714Y-147677142D01*
X75533333Y-147724761D01*
X75628571Y-147772380D01*
X75819047Y-147772380D01*
X75914285Y-147724761D01*
X75961904Y-147677142D01*
X76009523Y-147581904D01*
X76009523Y-146772380D01*
X76390476Y-146772380D02*
X77057142Y-146772380D01*
X76628571Y-147772380D01*
G04 #@! TO.C,J1*
X97329666Y-106767380D02*
X97329666Y-107481666D01*
X97282047Y-107624523D01*
X97186809Y-107719761D01*
X97043952Y-107767380D01*
X96948714Y-107767380D01*
X98329666Y-107767380D02*
X97758238Y-107767380D01*
X98043952Y-107767380D02*
X98043952Y-106767380D01*
X97948714Y-106910238D01*
X97853476Y-107005476D01*
X97758238Y-107053095D01*
G04 #@! TO.C,J2*
X140763666Y-106640380D02*
X140763666Y-107354666D01*
X140716047Y-107497523D01*
X140620809Y-107592761D01*
X140477952Y-107640380D01*
X140382714Y-107640380D01*
X141192238Y-106735619D02*
X141239857Y-106688000D01*
X141335095Y-106640380D01*
X141573190Y-106640380D01*
X141668428Y-106688000D01*
X141716047Y-106735619D01*
X141763666Y-106830857D01*
X141763666Y-106926095D01*
X141716047Y-107068952D01*
X141144619Y-107640380D01*
X141763666Y-107640380D01*
G04 #@! TD*
M02*
