M48
;DRILL file {KiCad (5.0.2)-1} date 28.10.2019 10:13:27
;FORMAT={-:-/ absolute / metric / decimal}
FMAT,2
METRIC,TZ
T1C0.400
T2C0.762
T3C1.000
T4C1.300
T5C1.400
T6C2.200
%
G90
G05
T1
X103.251Y-97.155
X114.681Y-128.651
X119.189Y-128.651
X135.572Y-97.155
T2
X130.985Y-112.205
X130.985Y-114.205
X130.985Y-116.205
X130.985Y-118.205
X130.985Y-120.205
X132.985Y-112.205
X132.985Y-114.205
X132.985Y-116.205
X132.985Y-118.205
X132.985Y-120.205
X106.68Y-112.205
X106.68Y-114.205
X106.68Y-116.205
X106.68Y-118.205
X106.68Y-120.205
X108.68Y-112.205
X108.68Y-114.205
X108.68Y-116.205
X108.68Y-118.205
X108.68Y-120.205
T3
X92.71Y-107.315
X92.71Y-109.855
X92.71Y-112.395
X92.71Y-114.935
X92.71Y-117.475
X92.71Y-120.015
X92.71Y-122.555
X92.71Y-125.095
X95.25Y-107.315
X95.25Y-109.855
X95.25Y-112.395
X95.25Y-114.935
X95.25Y-117.475
X95.25Y-120.015
X95.25Y-122.555
X95.25Y-125.095
X143.51Y-107.315
X143.51Y-109.855
X143.51Y-112.395
X143.51Y-114.935
X143.51Y-117.475
X143.51Y-120.015
X143.51Y-122.555
X143.51Y-125.095
X146.05Y-107.315
X146.05Y-109.855
X146.05Y-112.395
X146.05Y-114.935
X146.05Y-117.475
X146.05Y-120.015
X146.05Y-122.555
X146.05Y-125.095
T4
X128.911Y-135.898
X130.911Y-129.898
X130.911Y-141.898
X143.411Y-129.898
X143.411Y-141.898
X95.273Y-129.895
X95.273Y-141.895
X107.773Y-129.895
X107.773Y-141.895
X109.773Y-135.895
T5
X151.003Y-130.81
X151.003Y-135.89
X151.003Y-140.97
X158.623Y-130.81
X158.623Y-135.89
X158.623Y-140.97
X80.137Y-130.81
X80.137Y-135.89
X80.137Y-140.97
X87.757Y-130.81
X87.757Y-135.89
X87.757Y-140.97
T6
X119.38Y-143.51
X137.16Y-104.775
X101.6Y-104.775
T0
M30
